<mxfile host="app.diagrams.net" agent="Mozilla/5.0 (X11; Linux x86_64) AppleWebKit/537.36 (KHTML, like Gecko) Chrome/138.0.0.0 Safari/537.36" version="28.1.2">
  <diagram name="Page-1" id="I0G-ER5WQhw8WWEjFFgC">
    <mxGraphModel dx="951" dy="592" grid="1" gridSize="10" guides="1" tooltips="1" connect="1" arrows="1" fold="1" page="1" pageScale="1" pageWidth="827" pageHeight="1169" math="0" shadow="0">
      <root>
        <mxCell id="0" />
        <mxCell id="1" parent="0" />
        <mxCell id="aT1jm8K0OkKXDxnR5jDH-2" value="" style="shape=image;verticalLabelPosition=bottom;labelBackgroundColor=default;verticalAlign=top;aspect=fixed;imageAspect=0;image=data:image/png,iVBORw0KGgoAAAANSUhEUgAAB4AAAAQgCAIAAACINNbiAAAgAElEQVR4Aezd71MUZ77//89/sfdyb2/lFqHKYOoI1pqJWwJbOFrhRwUKXY4aqggfFlz2YEgyiwnq6iy6CLuiRjHLgeA6K7sYPXw0oQzBLywmKAYXFZEMBGFW2GFRJmEz39M9v/rXMAMzPU4Pz5QVmqH76qsf3Vdbvvri3f9nzvmUPwgYSMDNfwgggAACCCCAAAIIIIAAAggggAACCCBgEIH/Y6Dkka4iMOd8apCRRTcRQAABBBBAAAEEEEAAAQQQQAABBBBAwE0AzQRwgwkwahFAAAEEEEAAAQQQQAABBBBAAAEEEEDAKAIE0AaLX5kEbZShRT8RQAABBBBAAAEEEEAAAQQQQAABBBBAgACaANpgAgxaBBBAAAEEEEAAAQQQQAABBBBAAAEEEDCKAAG0weJXZkAbZWjRTwQQQAABBBBAAAEEEEAAAQQQQAABBBAggCaANpgAgxYBBBBAAAEEEEAAAQQQQAABBBBAAAEEjCJAAG2w+JUZ0EYZWvQTAQQQQAABBBBAAAEEEEAAAQQQQAABBAigCaANJsCgRQABBBBAAAEEEEAAAQQQQAABBBBAAAGjCBBAGyx+ZQa0UYYW/UQAAQQQQAABBBBAAAEEEEAAAQQQQAABAmgCaIMJMGgRQAABBBBAAAEEEEAAAQQQQAABBBBAwCgCBNAGi1+ZAW2UoUU/EUAAAQQQQAABBBBAAAEEEEAAAQQQQIAAmgDaYAIMWgQQQAABBBBAAAEEEEAAAQQQQAABBBAwigABtMHiV2ZAG2Vo0U8EEEAAAQQQQAABBBBAAAEEEEAAAQQQIIAmgDaYAIMWAQQQQAABBBBAAAEEEEAAAQQQQAABBIwiQABtsPiVGdBGGVr0EwEEEEAAAQQQQAABBBBAAAEEEEAAAQQIoAmgDSbAoEUAAQQQQAABBBBAAAEEEEAAAQQQQAABowgQQBssfmUGtFGGFv1EAAEEEEAAAQQQQAABBBBAAAEEEEAAAQJoAmiDCTBoEUAAAQQQQAABBBBAAAEEEEAAAQQQQMAoAgTQBotfmQFtlKFFPxFAAAEEEEAAAQQQQAABBBBAAAEEEECAAJoA2mACDFoEEEAAAQQQQAABBBBAAAEEEEAAAQQQMIoAAbTB4td4nAE98+izlsYDf/ifW499mN+OXP6w8cCp7pEZ3yfOqC0YZWjRTwQQQAABBBBAAAEEEEAAAQQQQAABBAwhMDHx7X/uKv3fPxMT30a9wwTQUQtG4zEajl7sG/ToZh599tHvqt87sP/DnpF/iJiPH1w+VVf93oEDLX978CT6vFEfAzSIAAIIIIAAAggggAACCCCAAAIIIIDAWha42PFJUnLa//652PFJ1B0IoKOfkAbNamMQB8d4F/+wf9YipM+Wxv+59a03ff5/Hwrp8/5T3V/7J0RHtVdRHwM0iAACCCCAAAIIIIAAAggggAACCCCAQJQFZges2abUrALztoLc4hrrxaGZpZXsYaqrKq+y7aFrJdusft2JiW/TM7P/c1fp6psIviUBNAH0agX+Yb/e2lj93oHqY3/p/8YpxO4zj/5fs5A+Wxr/50tPHh3V6NmT7Ae/mPkJAggggAACCCCAAAIIIIAAAggggAAC8SEwO2AtLD5+c97tds3cbC3PMhc2DTnD71psA+jw+7WKNQmgVxu/6hCtGmnq9NxM/5/E9Nlquz4mps9PpnpbhdnQgTxaH6JVXOVsggACCCCAAAIIIIAAAggggAACCCCAQEwFAgG0sNuZawfN2QevO9xul+N6Y6U5KydjS05uZevgrNs91V2VV1xlqd5VWJCxpaCkcUCYKy0JoJ13Oy1Fwkxq87Ziy4WRxSXH1XeKdp0dWRQadg03lRVaB1YQbQdRuNjxSf/fvgzyw4g+JoAmgF6VwD8eXW46XP3egcPttx95Cj3PPOhsOFD93oHf/eXriblVtRleYB3R9c7GCCCAAAIIIIAAAggggAACCCCAAAIIxEBAHkAvjneWZJW1PXTNXDtYWNws5M7OsbbK4qrOSfdUV3lWgeXy2KLbvTjeWZ5X1nzXFQigF0aaS4oslyfdbvfiRJelsLLtnst582RhUYPYyNDx3WXiPOuIDmli4ltqQOsYaBpp3nF4EW1sjsjxze0/1R+ofu+wP3F2jH3ZUid80nh55LFuGXREg4mNEUAAAQQQQAABBBBAAAEEEEAAAQQQiIGAZgB9/9ur75g9Ua/n/+b6oUXJZGe3a7KtpKD8opBKe2pAL95t3ZVXc3VK7LEw97lg19mxRddYW0Wx5Zpjpr+hsKR1eCHS4+ElhKTPcSrgGL/98TF5Bj36t+YjYgb9P3pl0JGOJ7ZHAAEEEEAAAQQQQAABBBBAAAEEEEBAbwF5AD3TLZbgeOy4VFWw6yNhsnPgP1/WLHyyMNJUlCMLoO80F26rvuQLoC9VFhSeFopvzHQdLKxobttfXN4uby3Q7sqW+v/2JSU44jSEjc1047jdi2PcO+v5d3/1Vt54fP9G82+EDLrpfx7oMQ96ZUOHtRFAAAEEEEAAAQQQQAABBBBAAAEEEIi9QCCAds3c6aotzBFfQugaba3MKDrZ5xA75HItiuWexRIck0Ks3FOXm11tG3eJhaEr2x663LMD1vyCKl8JjqrsImv/vLCxc+j47gJzXs2lcVfsD25Fe6QGNLl2pAKOsb+1WA9UH7F9+a23qccjPacPHqg+dunW40gbVyfvK7q+WRkBBBBAAAEEEEAAAQQQQAABBBBAAIHnIDA7YM02pWYVmLNyzEXV1gtDwqsFhbcGTl49WpaxJcecV5S7+6DtoVDuuTyrYFdlWW52jimz2NojhtPOkeOF6eba3pklt/OOrSo/JyO7ICOrqOrCiO99g67BxmLzO93eZiM7womJb/9zV+n//pmY+DayljS2JoCOfkKqzkwT/hPHt/aRsVnpYTom7CPjsk+kP41kWeMq5iMEEEAAAQQQQAABBBBAAAEEEEAAAQQMKiAtwRH+IUz1WneXHffMhg5/qyBrUgOajBiBgECQYcLHCCCAAAIIIIAAAggggAACCCCAAAIIGFBgxQG0a/RCjXmTeVfjQFSmP7vd7omJb9Mzs/9zV6kefMyADiSbkUzLZduYCegxDGgTAQQQQAABBBBAAAEEEEAAAQQQQAABBPQQIIAmgDaYgB7DgDYRQAABBBBAAAEEEEAAAQQQQAABBBBAQA8BAmiDxa8xm2gctzvSYxjQJgIIIIAAAggggAACCCCAAAIIIIAAAgjoIUAATQBtMAE9hgFtIoAAAggggAACCCCAAAIIIIAAAggggIAeAgTQBotf43Zicsw6pscwoE0EEEAAAQQQQAABBBBAAAEEEEAAAQQQ0EOAAJoA2mACegwD2kQAAQQQQAABBBBAAAEEEEAAAQQQQAABPQQIoA0Wv8ZsonHc7kiPYUCbCCCAAAIIIIAAAggggAACCCCAAAIIIKCHAAE0AbTBBPQYBrSJAAIIIIAAAggggAACCCCAAAIIIIAAAnoIEEAbLH6N24nJMeuYHsOANhFAAAEEEEAAAQQQQAABBBBAAAEEEEBADwECaAJogwnoMQxoEwEEEEAAAQQQQAABBBBAAAEEEEAAAQT0ECCANlj8GrOJxnG7Iz2GAW0igAACCCCAAAIIIIAAAggggAACCCCAgB4CBNAE0AYT0GMY0CYCCCCAAAIIIIAAAggggAACCCCAAAII6CFAAG2w+DVuJybHrGN6DAPaRAABBBBAAAEEEEAAAQQQQAABBBBAAAE9BAigCaANJqDHMKBNBBBAAAEEEEAAAQQQQAABBBBAAAEEENBDgADaYPFrzCYax+2O9BgGtIkAAggggAACCCCAAAIIIIAAAggggAACeggQQBNAG0xAj2FAmwgggAACCCCAAAIIIIAAAggggAACCCCghwABtMHi17idmByzjukxDGgTAQQQQAABBBBAAAEEEEAAAQQQQAABBPQQIIAmgDaYgB7DgDYRQAABBBBAAAEEEEAAAQQQQAABBBBAQA8BAmiDxa8xm2gctzvSYxjQJgIIIIAAAggggAACCCCAAAIIIIAAAgjoIUAATQBtMAE9hgFtIoAAAggggAACCCCAAAIIIIAAAggggIAeAgTQBotf43Zicsw6pscwoE0EEEAAAQQQQAABBBBAAAEEEEAAAQQQ0EOAAJoA2mACegwD2kQAAQQQQAABBBBAAAEEEEAAAQQQQAABPQQIoA0Wv8ZsonHc7kiPYUCbCCCAAAIIIIAAAggggAACCCCAAAIIIKCHAAE0AbTBBPQYBrSJAAIIIIAAAggggAACCCCAAAIIIIAAAnoIEEAbLH6N24nJMeuYHsOANhFAAAEEEEAAAQQQQAABBBBAAAEEEEBADwECaAJogwnoMQxoEwEEEEAAAQQQQAABBBBAAAEEEEAAAQT0ECCANlj8GrOJxnG7Iz2GAW0igAACCCCAAAIIIIAAAggggAACCCCAgB4CBNAE0AYT0GMY0CYCCCCAAAIIIIAAAggggAACCCCAAAII6CFAAG2w+DVuJybHrGN6DAPaRAABBBBAAAEEEEAAAQQQQAABBBBAAAE9BAigCaANJqDHMKBNBBBAAAEEEEAAAQQQQAABBBBAAAEEENBDgADaYPFrzCYax+2O9BgGtIkAAggggAACCCCAAAIIIIAAAggggAACeggQQBNAG0xAj2FAmwgggAACCCCAAAIIIIAAAggggAACCCCghwABtMHi17idmByzjukxDGgTAQQQQAABBBBAAAEEEEAAAQQQQAABBPQQIIAmgDaYgB7DgDYRQAABBBBAAAEEEEAAAQQQQAABBBBAQA8BAmiDxa8xm2gctzvSYxjQJgIIIIAAAggggAACCCCAAAIIIIAAAgjoIUAATQBtMAE9hgFtIoAAAggggAACCCCAAAIIIIAAAggggIAeAgTQBotf43Zicsw6pscwoE0EEEAAAQQQQAABBBBAAAEEEEAAAQQQ0EOAAJoA2mACegwD2kQAAQQQQAABBBBAAAEEEEAAAQQQQAABPQQIoA0Wv8ZsonHc7kiPYUCbCCCAAAIIIIAAAggggAACCCCAAAIIIKCHAAE0AbTBBPQYBrSJAAIIIIAAAggggAACCCCAAAIIIIAAAnoIEEAbLH6N24nJMeuYHsOANhFAAAEEEEAAAQQQQAABBBBAAAEEEEBADwECaAJogwnoMQxoEwEEEEAAAQQQQAABBBBAAAEEEEAAAQT0ECCANlj8GrOJxnG7Iz2GAW0igAACCCCAAAIIIIAAAggggAACCCCAgB4CBNAE0AYT0GMY0CYCCCCAAAIIIIAAAggggAACCCCAAAII6CFAAG2w+DVuJybHrGN6DAPaRAABBBBAAAEEEEAAAQQQQAABBBBAAAE9BAigCaANJqDHMKBNBBBAAAEEEEAAAQQQQAABBBBAAAEEENBDgADaYPFrzCYax+2O9BgGtIkAAggggAACCCCAAAIIIIAAAggggAACeggQQBNAG0xAj2FAmwgggAACCCCAAAIIIIAAAggggAACCCCghwABtMHi17idmByzjukxDGgTAQQQQAABBBBAAAEEEEAAAQQQQAABBPQQIIAmgDaYgB7DgDYRQAABBBBAAAEEEEAAAQQQQAABBBBAQA8BAmiDxa8xm2gctzvSYxjQJgIIIIAAAggggAACCCCAAAIIIIAAAgjoIUAATQBtMAE9hgFtIoAAAggggAACCCCAAAIIIIAAAggggIAeAgTQBotf43Zicsw6pscwoE0EEEAAAQQQQAABBBBAAAEEEEAAAQQQ0EOAAJoA2mACegwD2kQAAQQQQAABBBBAAAEEEEAAAQQQQAABPQQIoA0Wv8ZsonHc7kiPYUCbCCCAAAIIIIAAAggggAACCCCAAAIIIKCHAAE0AbTBBPQYBrSJAAIIIIAAAggggAACCCCAAAIIIIAAAnoIEEAbLH6N24nJMeuYHsOANhFAAAEEEEAAAQQQQAABBBBAAAEEEEBADwECaAJogwnoMQxoEwEEEEAAAQQQQAABBBBAAAEEEEAAAQT0EDBmAD1rP1+enpSclrT1WM+kwfLTmM0UTtQd6TEMaBMBBBBAAAEEEEAAAQQQQAABBBBAAAEE9BCINIC2dx/ekpyWlJxearPHLvEMEUDP9dfvFOJp/5/1W7MKKva+f+p8v6STD7r2miTr+FdOTtvy626705Nrzw2fq3jZ86P0D66MEXY/fwE9hgFtIoAAAggggAACCCCAAAIIIIAAAggggIAeAmsjgA6Ey+k7Gwfss2KKGk4A7RhtKRanWgstZFu6pmMXsnsT8Ocf+MbbIesxDGgTAQQQQAABBBBAAAEEEEAAAQQQQAABBPQQSOgA+j/eOjM0N+ecsw/fvtJ2qnSrON/5P946MzgnhKq+AHpDyamOrt5PrwX+9Ax7g+bpYduetLSkddlvZAsxtGRmNLnwcxPQYxjQJgIIIIAAAggggAACCCCAAAIIIIAAAgjoIRCTAPqb2+ePvvdGenpSsunV7RWWM93Dj6Xx5dzoza4T71e98bP0l5PTXjbl7/yvUx3DYkYcmAU8N3ytbd/u7A3JaUk/yd/zG9uZX24NXgPaV4LDG0B792XvPuatFtI2Kg2gt7zf6yu4Ie2VsDzcItbf2H7s/Alx4WeHP/1GuU68TRBO+P7oMQxoEwEEEEAAAQQQQAABBBBAAAEEEEAAAQT0ENA9gLbfbCv9qbLU8st5x6488CS5c8MtFUKsrPiz/Zgk6p3uP6W1TtCXEGoH0NNDbTvXCzt648TdackM6KABtGO0pUSc+Px+7+hg287/EKtwXKMKx3OO4PUYBrSJAAIIIIAAAggggAACCCCAAAIIIIAAAnoI6BxAf9Nbu10Ml9P2WFp6h0dudzRWidOQ0zaUtA06hChzeqTTUlxV29LdP2y3fzP66ZmqV4UwOn2PZ56y86m95/evrxMb+WlFfeft0Qd3Pz33wetilJy09VjPpDoP1Q6gRzve87RcKp8BrSjB0TNoF+Jp51Nv/Y3krXs77XOPb9fnCX0ImlYHJmur+8Mn0RTQYxjQJgIIIIAAAggggAACCCCAAAIIIIAAAgjoIaBvAD18vkqc3Zy+p2XUk+rOOac/PZAvznfOr+3Rmk08OeDJrF99u2t09unc7PSVX2eL62dbuuze+hKz9vPl4rsBwwug7SO3r5z64PU0McX+SUWLp76Hrwa0YvL1hhLbsPiWwuE2sfM/fa9DmKztC7WpwvG8o3Y9hgFtIoAAAggggAACCCCAAAIIIIAAAggggIAeAroG0NM9nqxZVYs5S5jjbAqk0rPTg122+t98UFqU/6onJk5Oe3l327Dj6Zzj7pkik5ARb5XUXw4zgFaU9RC+3VraItbfkJTg0A6gZ0db/q+QcW/4v52ePNrec0zsdnZtt1Zu/rxj2YQv/ew/QD2GAW0igAACCCCAAAIIIIAAAggggAACCCCAgB4CegbQs/Yrb4uvCjRViZOIvXUYpm+ee8NTi7nx9rRQgqO7doc4ndmTF68XXkWYlJz28o5zQo2OydtHssWZy3mnPCU7hCByNQF0+uvlvz9/wzeHWhJAa1fVGOks/Ym4X1WKnXUg6EsL/SEpC/oJ6DEMaBMBBBBAAAEEEEAAAQQQQAABBBBAAAEE9BDQM4B2zvVYxWobihnQ3qnEwgxoYYLzbnGC83/s3Heiq2dkbs5x90SBJIB23K0Xv5WVew4zgJbvVxmJ+kpwaAbQvuIhWhn01mM930SzqLGyY0ymXlZAj2FAmwgggAACCCCAAAIIIIAAAggggAACCCCgh4CuAfTT0c4PvG8UbBn1xay+GtDrdtb3z835UuDXjwqzoYV1FAG0fxr1up1HbvhqX8yOtpSsoAa0b9fy1Ni3a40A2h9wF5zqfxzYatTmKWmdTxUObdJlg+NobaLHMKBNBBBAAAEEEEAAAQQQQAABBBBAAAEEENBDIFoBtOkNa+eVa72f+v903x5+/HTum17PGwWT0vZY2gaGR253NFZtEYtabCixCSU1xrr3/lSYZbyhuK1/8unc5N2O+goxs/aV4HA+Hb38gWeTpO0ftPTbpx/brxx9S3y3YZpsWnQg/fS9MHDVM6B99TdePzrge3eiEENPD9v2iCWqs34zYA/sLpBQRytjpZ1lBPQYBrSJAAIIIIAAAggggAACCCCAAAIIIIAAAnoIRCuAVpeqyPdMWLbfbCsVI2bpu/5ezjt25YGY287ar7wvlulQlVr21oAW5kSPnv+vbOnmgeWtx3om1flvpAG0b6az6n2D/jcibtfcr7onfBJ9AT2GAW0igAACCCCAAAIIIIAAAggggAACCCCAgB4CugfQwlTWb26fP/reG+npScmmV7dXWM50C5Oj/TOIHfZPT3zwxs/SX07LfqP82JnO2z2n3nrZ/xJCz2qPR6+cOVa6I/vl9aYtO9470tLdc/49YRK0HgG0UH9DfHdi+gdXxiT9FHoy19+4U4y/84/0+OqB+A+EhZgI6DEMaBMBBBBAAAEEEEAAAQQQQAABBBBAAAEE9BCINIAO5MgxCR/ZHQJ6DAPaRAABBBBAAAEEEEAAAQQQQAABBBBAAAE9BAigFXOc+TbeBfQYBrQZocDi1EBb40nr0Qbfn5PNXWOLETa6os0XJq9+JO1Aw/HWXrtrRU243a7J62drCrOEF5ymbiurbR+aWZK24Bo9Wxyo/yNUDTLtalUcpmu062R5vjklOS1lc0GJtXN4VtpCDJafewdWdIwx6a1jqK22zLwpLWldekZRTXPPZEyvzBV5sDIC0RSIyfiKZoeDtOXotWyR13nLrLse61trkL7xMQIIIIAAAggggAACCIQnQAAd73krU54VAuFd2KwVUwHnzQazvIx7amWXPL3VuT9RSCjmB5uKU2RHkV7SLs2XQwfQzh6lg+mdmDo89w6s6DTHoreusbYS4YlC4M8rxU135lfUT1ZGwIgCsRhfsXGJwu09Nh1lLwgggAACCCCAAAIIIBBUgACaANpgAkGv5QT5gWu4qSgQlkmDM8/yK+mmrILCkpraRtul/kmnbIrucyNIhAB6YaQpXxJTitopxTbJNOqQAfR836Ec5bnbXHN1KuLz4pq0lZgkLedY+zUjVN06EPQIQl2u6gs47+Sw09NcLHq7ON65a4PytOY2jSgnQU91V22WrLa55qoj6DHr+wPnyPE8SU98gBp91qMf8eOgx9GtuE3X8GnZ3bjwtOrKWXGbq9zA+XDA1nhwV36OaaPnVmBKzRT+IrCe7rx+N07uBqs8tNCbxSCADvceG7qzrIEAAggggAACCCCAAAKaAgTQBotfFdOB1+C3mtdxAn24wkQvq/L45bHnHkMTQItXoG6JqjKUJIAOd8SHGUAvPrTtekUS+z6/AHrxTnPuOklPfAF0SmHz8EK4R73q9eLHYdWHENUN56/Xyh4pPZcAenG821psljx/0rg8TMUNNuW8ft1uR1ElDquxGATQ4d5jw+ovKyGAAAIIIIAAAggggIBagACaANpgAuqLOLE+WWEALeRTpsL6geebQSdCAO2OSgmOOkUpkuiU4FDmL8ECaLezR58OBB1jK79cAzOgY9Lb8EpwKC/g5xZAu4ZPK+qM+9LGV4qb7620qHnQ0xbsB3HjEKyDsf18adJWJqvfEvsA2nnXVq4of+x7JqGMpNcVWDqlJYNiMr5ic0KUN8C0pKjXgFbuIug9NjZHzF4QQAABBBBAAAEEEEg8AQJog8Wva3DKs+KQE28Qyo9o5YmekEfkWK49r5IBQveVuVVymgFrQMfvSwhV03iXCUdi/NqxlV+ukgDa7Y5Jb8N4CeFMV02qNNd7XgG0a6y5SFprxZc+i8+ZVG+8lN85ovFdvDhE41ii0IaqLE+MA+jF8a6qTOk1EGo5q+667O+BmIyvKECHakKZDkc/gF7JPTZUb/k5AggggAACCCCAAAIIaAkQQBNAG0xA6zJOpM80Ej1T8UHr0Qbr0Yba/TXlJcXmTVoxRHbD4Oxzc0iQADqEX8ga0CG2X/WPnbdOyssyLBNAr3onq9tQ43JVTsyUBrvJaUmyAHp1O436Vq7R1jLZ+yefUwAtVMCQVqzeIJt+m1IirUgedQS38DwgPhz0OLbVtDnba5HnvzENoJcmL1WGqLwhG2sbio/f1CwGvZpDj69t9A+g4/geG1+ngt4ggAACCCCAAAIIILBqAQJog8WviunAa/DbVV/rBtlQneiZSi5Myjq/ND/cXpOhyPWSc2p7nlv6oA6gTVVdM7F8QaI6ociq64tyIv/cAuiZ7oMm2emO5wBadbnKrt34/MY1eLRAluU9nwDaZb9QKcnBTYWHTpZInzZtrLSN61qFI04c4uYimegs2Sh72hfLAHpxXLn3pOT0wv2tl26M2GfnneMjfZdtTbXVud4rxFx+UVZ/I24Qo9ER9e092iU44vgeGw1A2kAAAQQQQAABBBBAIA4ECKAJoA0mEAejRtcuhBFAC/ufH6wvkkVmyWm5TSOL3q4polLTrnZvNrE4NWQ7VGne7P01/9SSTrsqJnbe7W6ylJkz01PEl6GlbDSbC6utF4Zmgmdf6gA6Y3+vc8llv2GzvlNZuM0sxGqvpJuyyyxne+2h3qXmfDhgq6/ZlZdj2uTtZ8omszm/sqqxa1j2C+aSE6FOKLJPDjrdiw97mw9V78rPSRWOxZSaWVRyyDY4pXkkCjRhfXnRg5ArrKAUyaJj5OrZhqqKstwscZbrK+kZeWXlh5ptNyb95bxnehp2ZZlTpS/Hk8XQvmhMksWoT8TytVCcD3vbrNWF28ypnom3wrmuLK9tvqR8oZmEWrYY5uUq28b/TcjeKlYIHItj5NLZuvKiApOYD6ZmFu2qqGu+phXAqcr4Jq0rOn7LcwHMD56uNG/xXueK0ST9NrBff9eFBZe9v9NaVpThG00pm3PMu2uaulb7UgFd6fwAACAASURBVFCXouJwgbVnqK1YWpEjvbxT/izK2x/XaLt8BndymjIqXXJcqlJMp82p7fc8sorMYWl+tLu1tqQoY7N3vnbq5pzcsrq2nslF1b3F56cYSv6B5pq52XncUpmbGRgUVY2d8gHrsvfbakuKAqe+sq65Z9J36/PtQfHV5Rjuaq2tKDZn+gbUOpMpq6CwQmPbxYkuS2FO6gapvG+sSQdg4EIK7Gw1967A1rIlp/KxU1pKsW1UfetaGLtkrSxv0ngNgGL4JKkqIylW8F/ni+O9bUdrdmWbvbfNrKKS/c2X7shuvs6Hvc2WMs9fJSmbcnKLa6ztAxp/R2hdeFbvhec73tmB2iy58Oaaq1O+n7rdbvXtXXLTk6wnLq7kXK/iHivd3eLU0KX6GuH+6blLC3/HFYt/T6nPk287xbH4H5QuzY9ea64q8vxVlZaUXKBU8jXAVwQQQAABBBBAAAEEDCpAAG2w+HUNTnlWHLJBR1rY3Q430VP9ynCaydLtm3SsyHfSzPVDi273zI2ThfIJfbmNwueB/xwDTRU50uhNtryp2NqllfFp1YDOsNia35HPKvVnN1uq2zTzzYXJvvaG8jxZ2QFZB5LTkjZXNvXLchBv5xX/qhdKPTTYmqrlE4d9Gce6AovGbEElml4B9JJj8Gy1agK7r2/JaSlZlcevCYGavbNaVpjYD6hYkGQxikRJHTn5z/XixLLnOtmUu79zOPQU8nAvV/9+pQshe6tcIb952OmydzUoLmPfRWLKtXbbFcnPMgH00vz1/YpMNnAWfG0Kn/iDOX/nF8e7rUVBL9SU/Lqrq5iqPNFVLp3vLGRw84ONsudM6p6IXYosgI7AwXnHVpUdNKhNyTtou6v5axnKsZZxaMDpnLx6qFgyAVxyLjZXNt8S23EMNWvfoEyFR3s10k+3e+ZOV5OlLGPZpzjm/V2jkqdii/daC5dd33ttSAPoSO5d/qtKvjBzWTn8Te/47/DyVYN8pxw+qitZuYIwvuaHLxw0i48epUNAXM6puiDe/12T1xvLNG+tqSXNg4rbcwwD6FWc61XcY73Yrsmr9doIopW5pFH7glSG6RurL0253Qtjtnfkf/Nuqr40EeS88jECCCCAAAIIIIAAAsYUIIAmgDaYgDEHWvi9DjfRU5aLlYULynzHZOkevXEyV5mqmKskry503mot2SIJfRQpp/dbrYxPK4BWhRfyljeWeRMlP8xUb+02+TraHUhLeqVIo9SpOoAOtrn3c3O5J0zxd8CtRNMngJ4fPK2crKpllV5+cXIV4YgyUZJdFf5Ddc10Kx9FaPRhU6XtoSLN9bfgXwj3cvVvIF0I2VvlChuLqyqLtDNK72kV3KS7cOsQQM/0hKGXWROGnqynM5dlL0JM2S1Md1VWBlDMDPU28FwCaNfohZoM7aRSMpDDe9iTkl1dnh800Bcuzm0HbRdPlmyWtKwc4KpT73YNf1QZ1iOc5DRTVZf/0cWKA+gI712yqyDwjbOnTvmYakPxcc3Hb4GNZEvK4aO6GyhX2FhcVVGw3Ph6pch6sXOZRy9JyWkZ+3t9z0HFzsQogF7luV7FPVY4qqne47uXvVzFizO1+GSfIo5Xz+Z+pbj51ohN+dsJaUmFzcOShyKy88o3CCCAAAIIIIAAAggYU4AA2mDxq2I68Br81pgDLfxeh5voLSpfTLfcDOikrLJCdXbzSlmbL2F03mndJZ8crZFI+hIfU1Wn4jfBlUGGb81lGknKOnhd+o9zjZwiaNiUUtg86JSTrjiAThNKMcje2RWLANp5U/E6wSDHmN/QN6vXDOgZjUcR6m6Yqy7Lk1y5t++7cC9X3/qyr+rLRjHDV73CcleU56rLPzksvTaiHUAv3rUp6gIH7VL+yRW8F3TJcfUd2XRsc/2QcBzKMsSyh0Y+zdgH0K7RC0F+vUBj7KeXfDQiPSfC2w7PFgd102hBfX1qfZInVN2R/ue81ax66qa1obDHwAW/4gA6wnuXtMeS5cWH6hrQQj93WbvC+NUEoSH18InC+Ap5djaUtd2TPLjSwFGVsI9GCY7VnevVBNCOgeOFQWf9K6/qbXWyWiLqADo5vbBYI/TPqO2VX8uSK4NFBBBAAAEEEEAAAQSMKUAATQBtMAFjDrTwex1moickOIqpasFrQAfJXLIbvHnNVLdFUYLTkzK8kp6xRfNf2v6ard7jUicdgX+HbzB7qrUGPvFGGKbCs/6i1UI7i/dsuzyViD0rrEs3ZeYIpag1Io/0ckU8ulwAnW7yVelV9CG1rNM/7VErFFMcpjo1U6wQKvFZclxVznQzZZQcbGrvsn100lJWZPLMJ91Y1iwWLnDe7Wqqb7BaD+5Szkw35VbWWY82eP4cb+31H4X6RCgip8WJripla97LI2VTjr+csfmQfBpj0Os3zMtVe/uQvVWvoDiDGt9KCyO43cvNgHa77N2tx482WGurlTUH1uWU13p5rUdPNvsrz8wOHc9XjYhXzLllNZZ3qndlKyZFppdcCFWb2A+jvIDNlm7x+YxrrLlItkflDFOhhcgC6JU7OPsbcjXnPm8MMtiVv7WgHkpB7lEaY3+ZNQuOeyp1+FWXHNdrZZUNUjaZM7blmKT3Gf8u/Pn17JCt6aT1aEOVqspKamFNYNw12fp8dYojunf5e6tYWHJc3y/rvORqN2UU1Ry/MGBfNqRUDx/F3UC9gmQXyzgv/yPTro8klZpiFUC7V3WuV3yPdU3aKmQPinxiJlOm+KoD/+XkWzBVBibXC2dYOdI1MdNLFL/Jobg2+BYBBBBAAAEEEEAAAQMKEEAbLH5dg1OeFYdswFG2oi6HlegtPuysylT8wzWntsdfbjV4vrOpzHpxyD47b787NHjPIRaAdg2fVs1G3FzZ3O/5qds9O3apVlaIVvgnd6Zs/rJmkJGaf7Ct3xvAOe91WdQVNhS/Zbw032ctSNlUVHW6e9ghmUOnro8p/Mq8vByq5r/qN5dZO0e8lWEdQ22VquBgo7TKhBpNkS+HXCFUAL0w0pQvO2spxTZ/dixcJbMjV083NHXLU0v1HN5k1RRC3yWmPhGyyEkU9iUmvp6sK6hqlyRZsyOXWsOp/uzZpfpy9TXry18ku0svvyyd9B6KS2sKp9DaKznlR23X70w6HZN97QfNysIy8lIMaj1FQq0ZCW2uuSrrqdfXfkFZ0iGjqjNQPnhpvu+obKSkFLUGfuo7R5pflfUWAhVg5wePymupS0p++5qKMID2NaMeRJoOrklbiSJqT0vdffL6uPf+4xzvPa6Obiuk7ztVDyXxstlUXNvaOzzlsN/qqi1U7sJzIWVUNNh6xmYck30XDqpmN5tKLiin7QvziDebMkoabP2ylyLO9J8sVMTQ64qa7khuO1rTtJWvdvTJuSO5d/kbUS8EezQYGFzmwqrmq9qFtlc7vpLNJUc7++45ZsYH2iwak3OTktNS8mqaOgdGHY7RntZy1cNLWa3qmAXQbvfqz7X6LhHkHuu80WAO4HvudTlVF3x/y7gcgxdqlIVTkgtkv2qjHmW+Bs1VrdfvOpyOseGbI8s/WlBfKXyCAAIIIIAAAggggED8CxBAE0AbTCD+B1VkPVQneoFUZXF2cvBa5/H9Wu/U2iYUbfD9p53vpBQ2XPdN2fOt6XY7h47nKUJD1fQr55A1W7GOuaorENGpc8+UwmZZJQS323lDVdL0leJm6S9rC1M5553SCMjfy/HOEun72YR3DMp/3V79r/qNlbLfBBeqGXRXKeuQSMNKNZruAXTStjpZHRL/8UoXwg5HQv/S/ZSGQEm7ZLqidL9hLasvV8V1Iv02GgF0Zo1Nes0szSumuCYlp+WelsysV+utOoBeUE5GTtpWp6jxujguL5uwMcw3ic33HZLNdU3Z3eqvcqMsA52cU3vD/6jJc5JiGkArZ/sKjwSKm+/Kxu3iXdV7/DZW2gIvZlSPtbTU4mb/hGLhSlaVGEpKzqmSvjtU89Q3Sk697wJe1L6nqJL95PTyTml+rdHJoAF0JPcuXz81vy4+7LIo773SMeVZNpmrWvumZKcg9N1A8wHPluo26Szy2d5aVb6ce0j2qk9F7XIhnhbLl3sPJ4YBtPBrNKs71+q7hGYALbyuUzZOk5Klla/EI15yXLUon3SarQOBqerqv6qEANpc3q4oU6N5OfAhAggggAACCCCAAAIGFiCANlj8qpgOvAa/NfBoC6vrK0r0/ElEyKg0LWljpb/is7QjGgVPA7Mv/SvOD9bLp2Emp2UcCvyjWh1AyybeepqZHbAqJ0GbLYFZ2/59eReEtL27s7mxzvJOdcnuAuXLxBRvY1P/q149UVRVZjcpOc1cPyROAxfrGCjr0oZUVawQasqhVgdStlXWnu0aVIVHAY4wwxFxg+VPxMy1GpNvtp13YnJWneS5RWCfYS+t6HKNQgCtuq5co63KlzpKzunyJTh8R6m+eLRm/qpf+5nb6L94fE0pJ7mrikL4VpR9nR1SDA1ZyxNdiqrTsjxLaCimAbS6bK4w0VsRfrrGmnfLKockJadLHlmps13lUHJPdZcrnjkphrxw1JWK+jxmq1g4W4Yr+WZpfubuwKX2ZmvtwaqKssJMRQ/ljy5WNANashMhBl3RvUu+rcZ3C5PXm6pDv+9xS3WbfCr08neDcBJqt2uyrVihlFPbL3v+sXinWVmPpVByPcQ2gA7orehch3mPdQ4dVz4M8JXKCexY9eLQ5LSkfMkbBdV3m+Q086EB55KkCRYRQAABBBBAAAEEEEhEAQJoAmiDCSTiMJQe04oSPW8AnVpmk/+mvzrfEf+JK92Pb9nZU6cMJaX/WvatNnPtoGK1lJJAAeWQSYfQjMY/8lVTrYUwzTHc2VxVqJxEJqnkIB71xspLE77OaVZRUAfQbtewMmJOM1n8xY7VaIpQLOQKoQJot9t5p1X5i//eRNhkLqlrvjaiEUNouK2uBIdruFFWICIpOS2jNvAUQaIZ/uKKLlc9AmiNVzXKUki13mpnQCurZCiifO1vl3vE4ld23jwp/71++RxndZibLZ/+H9MA2jXcuNyzKN9BqecXS+Pd0EPJPdtrUVQZUgbQ7pnL1YrnUtKnYr6eCF+d471thyrNipobqlNmPip9oqDuZNpyM6BXfe+SdjT48uLEkK2+Jlf5Oxz+Z5Digvy9lyFvyyFXcC85LlUqaqGoAuiH8tr9wq+nSPLWmAfQqznX6ruE5gzoqS7lQ5ENZbZx1TlT/BpEclqS9NJVB9BBng2r2uUDBBBAAAEEEEAAAQSMLUAAbbD4dQ1OeVYcsrEHXOjeryjRE0KHjHc6RwO/3+vZgTo6UWSpgX6oQxxpsuxfTx1VJEmmual/qpqp6nZrvYJvl6z+g8t+7aTqhXvyhMWfGW2otK04gHbbLyinTJqquma8U89CooVcIXQA7Xa77F11ucGDsJS8g7JfgdcO7lcXQM/3yV/IlpRsKpS+Lsx/slewsKLLVZcAWn0B6xRAq3ekfCjivzgDC+aqa4FKNUFcXYPKBwPmXfv9r0BssB6tK8+Tz0JVZuixnAGtvoo0Y1n1YEkzH/VPT1b/VHWDmh1QFn+Qpngi5UxXTegAenak7Z0ixUTpYCdOduWsbAZ0BPeuIJeF9sdLLnt/p7VCuzRzUrLw3kv/hiFvyyFXEAJo5XtTlQG0e7xT9vLY5xhAr/pchxdAq38HQkiW1ePb0at80av0byt1AK3xrNR/DllAAAEEEEAAAQQQQCBxBAigCaANJpA4g0/7SFaQ6KXmVR+/rDVnViM6UeU7vr2rY7WwA+hm/+/dhw4yhCBVPZkuUN5aLCNQrZhk7c+JUjalKyMk6T/pw54BrS7XIHlfVshQLOQK4QTQgvvieO/xEmUtUf/BqmrdTtrKlJMQrfLfgvedzOU7oI4O9QigpefU3y/thZCXTcgV3G6NabCyGFEdLSnTW7dbHQlp5UrqkSI5ZUEek2jUa1ZRKKt2BGtK9nluk7TYsUEC6EB9jNBDyR2VAHqq15ovz+79zwbWpZs2ykiFgjyBHmrW5NGM2j0lUCK4d6muiHA+cN7rsu7W+DWR1Iouu6+YQ8jhE3IFIwXQkZxr9V1CawZ0RAG0f6K0+m5DAB3OFc86CCCAAAIIIIAAAsYXIIA2WPyqmA68Br81/qBb/gg0AmhT8UHrUemMyJNN7d3Dy1QNXkkAHbsSHOpKApKysM6bJ5WFRJPTTEUHm7tGZlxu98JIk+JNiasKoDUqWQdeDxUyFAu5wvL5r/K8O+92tx2tUReiFWLNjWWBNyiGF454Wl82UXJpHH70S3AkbADt7FFWoQkdQK8rarqjqI6svAw03tfnD0mDLwgv+VzwN6URQMvexOh5/BNyKqs6GtMI4rVKcAQGkb9LkZfgiHgGtGvyUqUqot1QUH60s29cqGKsfqKwugA60nuX32ylC0vzg2fLFHPAkyTlWZa9Gwg7C7mCTgG0oop06IcN6itTEdpGeK7DvMeGWYJjQv4m0pAlOBTHstLLgPURQAABBBBAAAEEEDCIAAE0AbTBBAwyslbdTXUAvYJEz7fX0FGpb0137F5CONVdpShg6o/nlhzX9ytmBOdUXRzzvR4wSgG0xgu1TJIaICHRQq4QRqDjd/cvLM2PXmutylbO0wxMcV2atFUoZ0DX3pC9B8zf2PKJkv1ipTKuiv5LCFdwuS7f27ACspAxojpaCmcG9KbqS1N+VO+CeqRkWLp99VuUK4f9vWv0I+VLFEPn2slpSa8UN98LRNvq2jIZilA4nFoK6phPyyHclxAWKS7pFb6EMOIZ0OrzlVJ0sk9SMCF0AP1RseIXL3IbpRPPxZMc+b1r2Wtl5s7AsKTPinU1nl5IRnQUxlc4l02oEhxX31E8BlDVpQl5rtVXpjy0jfRch3mP1eklhPJjUZxivkUAAQQQQAABBBBAIGEECKANFr+uwSnPikNOmLEX5EBiHUC7nUPHFZOLk02FZ+U5y1S3sqhlsrmqK5CLhEw6xAobwdNP11hTofzX4aWvsXJHJ4B23mkufEW+F38CLpyMkPmya1QZSCkLm4ThEOS0TyiFA7VBlhyqBEfr5Y1iw8t3YPFuc+E6uUByWm6jvzJvkL4t93FEl+vyvY1dAD07YN0mZ3mluPluIN71AjiHVKsVWW8ERsFyTsF+5hprK1YEtfKeBJ0ELbv21FlqSonNXyFHqPpy11aySdGyqphveA6L91QvnUsuUNSEcfY3yF+rmJa0sdI27icNOdbcoWfFut3L14CeuVYjL+mjLEGuRpPPgNYqGa9+5BD5vSvYteF2O281C+8s3Vhc2z4k/CKI6j/1w4AkydT4KIyvyANo9/x1Zen5tMDTNeGIXPZOxZmSv7XPU2FJ8UbKzIPXZwMckZ7rMO+xS/OqB6VpqWWBl/GKR6OumJRmlj4NChWmB46KJQQQQAABBBBAAAEEEkuAAJoA2mACiTUA1UcTUaLnay6MfMe3qtvtGj5drJx0ubGs+ZZvjq1r8pJFMT05LSnz4HVJ8qZOOpKSc8pP99q9oYlrprtB/ea9wD/LF0aUIfjm6kv+uMrlGGyvyVAkcSFLcCSbzFW2QV8nFx92WRQhY3JaSpG8jsFZhYMs43O7hUBKMYM4cAiip9pB+TLGqV5rcXF5U/eoJD0RNp0dqJV3T/p2RNVL6oSeDyrfPCk0E6IDC2PNu9Vxp7m8VVJJfGHsan31rtou37kLXChaSxFdriF6G/JwxA6FiBHDmQHtGmtTsZitvarZzfOD9UWqkVJs7ZoMTNX3GC1MDt4YUW2u4bc4rvxtfeUF49vI2d+gGAIpJTb/OVL/NCk5fVejWKhnaX74Ql2uqt5xUrIqgA7TwTVpK1FMyU9Lym8ITC6e6rUqn2mlpVZ0+msTh/GwJxoB9OVqxWjNrQ88a1kc77YWKseCIoB29tQpzJM2VdokE8+FkxP5vct3ipVfJ7otWZJnBhsKSvafbLs2NDoxv+h02O/02o5WZqieJ0nvSFEYX1EIoLX+ftlQbL04ZHe63c6xS0fL5M8JxENWvHBS/exH9jxDo5rKCs+1+kWg2vdY5w3Vk5Vkc/kF/y/ruEbb1dXAC47f9P1lGu7rCpTXAt8jgAACCCCAAAIIIJAAAgTQBotfFdOB1+C3CTDqlj2EiBI9X8srCqDd7qnuKsX8MiHtNWVkF+XmFWUoJ04KP9rV6v8nt7BPddLhzeleMZvzinK3qeIqocxxZdtD36S+Ja1Ia525sKymqqzIpApZhMZDB9Ce7EY8iuwcRRQlds9cddmXTwsHERpNqwqwKaOwps03W1btIMsTF8baAsU00s1F1ZajzbbOLttHDVX5SqLcxiF/rDlzTav68Oaickud9WjD8dYBZ9ivHZvp0mpKqFJakJtXlJudk+rVNld1Tvoup2W+RnS5huDSuq5knmK/ohBAuzUKFiclp6VmV1YdEmqvN3d7KRbHO8s1hkNaal61xSpWaT90sKTQc7GZLZJfEQgmaL+oCEmVIyuwoUM5R142p1hddlbxwEbjW1UAHbaDEMOpR6VnsOcVaAzYdUWyDC6MsRb5DGitUD4tdVtZ+TvVuzTvSMqXELrdqscDwn1jXU5hpViUv7Fz2Ol2R37vCpxjyZJzpLlYeU/w3lQ1TqUvp95QJp25H4XxFYUA2j3THeSes8yBKAJorUcjSZsLSo56nxJFfq7Dvce6xlSvhBXwU7OE+6c5U+OUmSrlD/OYAS25zFlEAAEEEEAAAQQQWFMCBNAE0AYTSPTxGVGi58MJnaX61vR+nbnRoH4HYLC8w1TRKf3t/uUC6KARQ3pJuzTCdo22rrASbrgBtC+aUfXE9I48FwgnFNMMpJLTyy96A8rlEp8lx3Wrav6sqlde8w3FzdKX16lrpEo3XEnVV/eS46qy3HYQoi01lyYUl4n624gu1+W4xF2FXCH0q+TCmQHtdi/eaV7m+pfORtcoFyA9F9Ll7IY+xTx3hd+S41KlPLGS1YSRr60+kOT0cv9DgtWU8lAH0OE7zA+eDn/AmnadHpHP1w/jBqW+5hWhZKgSHO7Z3lqN52pBrnbxxClmQGu9gk+yufdkRXzvkp9nz3eL9zrLt0j2Jb2ugi5Lp+IKzYQcPiFX0BJQXTbL14B2u91TXeWK6v9BD8F3yMpzPd9nLdD4+yi7wfuLIJGfa/X1Ju2k5B7rVsxMl66mXs46eFVxFyWA1rrg+QwBBBBAAAEEEEBgLQgQQBssfl2DU54Vh5zowzKiRM+HE0a+41vV99U1eqFG/Qvd6n/zK17k5dlcHWSoN5R8YiqsV9U3UBVBlqzvSyWk/7yPLIBOLWkdVIaDYaAtTV6qUrxQS+ib+aj3V/vVDpIZu/OjFw+aFUWopUcUWM6xXFZUdXCNtiurfwR81hU3hTkF23u2RprLNI4i0KC3J4qHBL4rRfY1ost1WS5hNyFXiFYALQRtylelSa66bZIoeWl+sKlMa0K9ZH0voPA+Rv80dhmb5xv1azm3+QI1jbWF61PxTjzJ1eWeuXZQWS8icEWlJSWbS46elGeaqiTR7V6Bg2vyam2Roj+qS0gcHbXd/lIhvsMKY6ypA0FlKBmiBrTbPT/YpBTT7KH/Q2UA7anCHHTM+t63GeG9y4ei+Lo40W3NVxYJ8XdVtZAjKQThbSnk8Am5QnQC6KX5vqPLPnvbWFzbJL96VefaeUvrEdHGSps33o38XId7jxXuS7daS8J5PLC5MlDJyn92CaD9FCwggAACCCCAAAIIrDGByALose59eXuO3JjzRoQPOvdmV7QMB4l0xZ+eGfKt7AyymubnkwO1BTtru6f9WeT0zVNvpKVv2Z6flb711a179p0ZsM8+9X248/Xsna/n7Sk92muffTo3OVC7PW1DsW3Yob3H6ZundmZ/0DH2dM45N9xxbOdWYUrahvQ9e08Jbc45n9oHu47811tZPzG9/NOde37d9ukD8RC+6a3datrybteouM7cSGfp9qqWEe1d+LvNQuQCiT5CI0r0fDhh5Du+VaVfF8e7j5flBA2VNhVVne61L0i38C4rgozUEttgT3OJ9qw3c/lHQ/6SEdK2ZnoaCjUq1QoZVkZFa98tebXc5QPoLTWXbnVbi+TTS315nPmdzlGNowgLbfFhl7pcifAeKrEIhsJB+NXsyi5pLWDnvW5riaqgtq9jQqi0qdjaJZ0b7hNyTdqqgm3oC8LCS2yFFl2Ovva6wmUylM1l1s4x+axVX09kXyO6XENz3VRWXFV4Ri2AFuZp9tZmq0Nk8RPlOwld9hutlsJlQ/xXCspPD2i+OM7vp3pzWppJ/Y47/9rCyT2pfLOfNKdbZor9hqLazrHFBcWrPrUC6BU6zNxoLc8OGpKmZlcfvzymNdjDGGtRCKDd7oWxtsogo0YwGbp+VDavVh1Au93zwx8Fffbjf1NoRPcuySlWLrocw5eb1fV5lOnz5rKmHmk1IW8zURhf0SjBIfTGOdSkKrPuPYqsmrY788pi6NIL23M0S/N9jerHCQVWf3nlyM91ePdYH+7IpUNlGtVmPDfzdebC/ba+KV+NKe824hcCaKkGywgggAACCCCAAAJrScDAAfTOvA+uiKnx6LVTO9OFeFqIkr0fBoJge/exN7L3vL69oiVI9h0IoB907d2+c9/526OOp3Pf3L5y7a4Qao907v3Z1p1HuwYfTNtHBlre3flqwe97vnk6901vbfbWDaY9RzyxOAG05pMDHT5M9OEZUaLnwwkj3/Gtqv666Bi73n7SUlFs3mxKWpeekV9ZZW29dGu5uZyKpMNbv9g5drWxOtdXMzd1S8Gu/a19E1r/Jvd3wjFy6fTBkjx/JWJTRvHB5h5x184h2YsKlw2gU3bbhCIhS/PDFxtKfAFZyqac3LI6202NpEbcf7hoixMDbdbqwm1mX1JvyvXN8VQ4qANoz4HO3O1ua6wrLyrI2OQL7zYVFFYcPN7eq3w5oV9Gw1J7wgAAIABJREFUmJ06P3qttbakwLdfIRs1ZZeVH2q+etf7kqswO+BtVWzQUlKUsSXd02ZqZsGuqobmayPLJ6eSTkV0uYbsbcgVohlACy+Um+xrbyjPkzy3WJeeUVhtaer0v81Scuxu573u5v2VuVnm1MAk2XTz7hpr+4Dmcxrptu6l+evKWiiBWi6yNf3fOHotypoS5qprkuvZc0KLfMn4K8LgFTrvGXRLjquy+ftBAuhVODwcsDXVlRcXmTakJW0w5xZX157u7BuXvHjNfwjehTDGWlQCaGF3LnuPzVop3s084eDmovL6zmGRzd4pq8GtFUALTczc6WqylGUEznJaypYiYaR0S54VrfrepcTR+N45PnTpo4aq3UUZm71DNSk5LWVzQWFZjbW9V3ibn9Z/IYdPyBWiMwPa07eFyb7Wul1Z3juecDcurjnu77zidKsDaPEGONzVLNyv/M8ptyimGEd8rsO4x8qkXY7hLpvVUlmYJdw0UrcVl1hOti1//ySAlgnyDQIIIIAAAggggMAaEtAngH7QtTd7z963q3YW5G/5af6eo73CNGHJDGj7Tdu+HflZW/Oztu7Z13J72vl0bmzgzH/tfNW09dWfZu884J1WbL9xrjQ7e8v2nTtLqt74Wb5FPgM6kDU77p7YnV96flQjgJ6d/vTAnj0nus+/vXPPmbvCjlR/JAF0Z+nP8i2ddsk6c4Nn3tpS3Dbonz39Ta8lO39fp10IoIve2vf2nqzd5/ofP2UGtARNAzmKP11Do5NDRQABBBBAAAEEEEAAAQQQQAABBBBAwOACOgXQQpK7zyYEvtPDttLst07cnAsE0I9vnyjeuc82OucU5hfvK6g4Mzg3N3m3p9/uW79CqNTx+Hb97p1720annU/tN9uEaDhIAD3ac2rP9ooTN+c0AuixbsuOihM3p0c7P3i95FwgR5bE0IEA2jk3eK7q1fXpWcWHz3QJ+51zTn/6/s7XfzNg968/O9pSnr/zxN3pb3prd7xVf623fnd+advoNDOg/UQ6Lxh8xNF9BBBAAAEEEEAAAQQQQAABBBBAAAEE1pBApAG0RagB7SvN7K8BLZnsPOcYPVMsRLT+AHr65rmd2e91PBDnyc7aO/5LzHOFqLq35ejhvcU7X03LF+ppDEpW06oB/fo6X71O01tHLgvTlqdvngp8uH7PicG50cuH3/Dkzg+69uWJObgqHpUE0GKXHo9+eu7wzp+lbylv658MFUD3T49eO/ZG9gfne2yl2dSA1nfus2ca9RoanRwqAggggAACCCCAAAIIIIAAAggggAACBheILICeHDhSsNPS5Q2gp4fa9niSZWkA/fh2/Y5sWQDdf+qNrVXnfQH0+fL8Nxpv37J98Hp21ZG27p6eLov4vkEhgN7uy6m1AuhACQ5fpqycAT1r73h7q/R1PW80iuU+fOt7As3p/lNveF9CKMlPR7r2bt1Z2z2hLsFR6y/BseOt+v65uVl7x7s733j78J48AmgJoByZEhwGv1HQfQQQQAABBBBAAAEEEEAAAQQQQAABBFYjEFkALVZYfv3XnpLN0/0nKl4vtw07hHLPYgkOoYrFaNfh17dXtQzPzQmFocXaGt/01ubl7/WV4Ni7fWftpw+vvLvzjaMDQrWNfl+1jW8GavOy95y6bQ9VgsMfbioD6Adde/MqTgzOeVYY7Xgvq+iUUK9ZzEZHu21nrtnnhLIbFZ7P7f22E20D9llhhdGuY6+nv3VmcE54CeH2/L3nBoQ3Ez4evXL0rS07fC8h9ATQnjIjP9u6IZ0AmgB6NYOQbRBAAAEEEEAAAQQQQAABBBBAAAEEEEhUgcgCaOfTucnbLe+/9arwcvn013957tMHYtorBtA7y996fXv2q+l7arvE1/pN3j5SkJ716+7RWSFl3puXvWV7/paf7dzbIkbMN86Vbs/ekr1nzy8/KM3bUyuWex7tObe3IHvL1p07/+97/g898bEyaxYzZcWHo7b3snafG/QlzkINkO176n0FQ6aHO/dliy9kT9tzpFvs4ePRjt9UZP0sPys9/eWf7Nx7xhtG2we7jvxyz5a0tJdN+Xt+3eY9Rk8N6H5Puj3Xf+KtDT+paBmJRQLrD9zX5kKiDkWOCwEEEEAAAQQQQAABBBBAAAEEEEAAgcQTiDiA1qy0IC3BobkCHyKwWoHEG4QcEQIIIIAAAggggAACCCCAAAIIIIAAAokqQADNnGWDCSTqUOS4EEAAAQQQQAABBBBAAAEEEEAAAQQQSDwBfQLo1U5uXZs1JTjqFQkk3iDkiBBAAAEEEEAAAQQQQAABBBBAAAEEEEhUAQJog83/XVFWm5ArJ+pQ5LgQQAABBBBAAAEEEEAAAQQQQAABBBBIPAECaAJogwkk3iDkiBBAAAEEEEAAAQQQQAABBBBAAAEEEEhUAQJog8WvCTmpeUUHlahDkeNCAAEEEEAAAQQQQAABBBBAAAEEEEAg8QQIoAmgDSaQeIOQI0IAAQQQQAABBBBAAAEEEEAAAQQQQCBRBQigDRa/rmiycEKunKhDkeNCAAEEEEAAAQQQQAABBBBAAAEEEEAg8QQIoAmgDSaQeIOQI0IAAQQQQAABBBBAAAEEEEAAAQQQQCBRBQigDRa/JuSk5hUdVKIORY4LAQQQQAABBBBAAAEEEEAAAQQQQACBxBMggCaANphA4g1CjggBBBBAAAEEEEAAAQQQQAABBBBAAIFEFYhOAP3P+afPFr9bWvr3D4nqxHFFIPCD27209O9ni9/9cz4KYXcEHWFTBBBAAAEEEEAAAQQQQAABBBBAAAEEEIipQBQC6IWnrh9+IHmO6Wkz6M5++OGHhaeuFRXcUK9s0GOn2wgggAACCCCAAAIIIIAAAggggAACCKxBgUgD6IWnrjWoxiFHIhBhBh3JrtkWAQQQQAABBBBAAAEEEEAAAQQQQAABBGIpEFEA/c/5p8x9juXZSox9/fDDD5HU4kgMBI4CAQQQQAABBBBAAAEEEEAAAQQQQACBtSAQUQD9bPG7tWDEMUZd4Nnid+raGmF+EvXO0CACCCCAAAIIIIAAAggggAACCCCAAAII6CQQUQC9tPRvnbpFs4ktsLT07zDjZvVqiS3D0SGAAAIIIIAAAggggAACCCCAAAIIIJBIAhEF0Lx5MJEuhVgeyw9utzpZDvOTWPaTfSGAAAIIIIAAAggggAACCCCAAAIIIIBAJAIRBdCR7Jht17hAmHGzerU17sbhI4AAAggggAACCCCAAAIIIIAAAgggYCABAmgDnayE6qo6WQ7zk4RS0DqYH9w//Gvp2T++cz52zU65nvAHAQQQQAABBBBAAAEEEEAAAQQQQMBwAo9ds//4zvmvpWc/uNd6FQkCaK0IkM/0Fwgzblavpn/XnuceFv/93fR3c4a7pdJhBBBAAAEEEEAAAQQQQAABBBBAAAFNgenv5hb//d3zzJue974JoJ/3GVir+1cny2F+ksBgi//+TvM+xYcIIIAAAggggAACCCCAAAIIIIAAAoYWWMsZNAF0AueZcX1oYcbN6tXi+qgi6NwP7h+Y+2zov0joPAIIIIAAAggggAACCCCAAAIIIBBMYPq7uTVbi4MAOoLIkE0jEFAny2F+EsE+43rTfy09C3aH4nMEEEAAAQQQQAABBBBAAAEEEEAAAaML/GvpWVyHU7p1jgBaN1oaXlYgzLhZvdqyrRr4h//4zmn02yj9RwABBBBAAAEEEEAAAQQQQAABBBAIJvCP75wGjq4i6DoBdAR4bBqBgDpZDvOTCPYZ15s+ds0Guz3xOQIIIIAAAggggAACCCCAAAIIIICA0QUeu2bjOpzSrXME0LrR0vCyAmHGzerVlm3VwD80+j2U/iOAAAIIIIAAAggggAACCCCAAAIILC9g4Ogqgq4TQEeAx6YRCKiT5TA/iWCfcb3p8rcnfooAAggggAACCCCAAAIIIIAAAgggYHSBuA6ndOscAbRutDS8rECYcbN6tWVbNfAPjX4Dpf8IIIAAAggggAACCCCAAAIIIIAAAssLGDi6iqDrBNAR4LFpBALqZDnMTyLYZ1xvuvztiZ8igAACCCCAAAIIIIAAAggggAACCBhdIK7DKd06RwCtGy0NLysQZtysXm3ZVg38Q6PfQOk/AggggAACCCCAAAIIIIAAAggggMDyAgaOriLo+loPoBdvnczdUtb20BXMMOQKwTYM/rnLfrmucEta0rqC35w/uSur+PjNebfbPXO5OiOvoS/kyzCdI8fzc0ouTAZv3xg/USfLYX5ijMNbeS+Xvz3xUwQQQAABBBBAAAEEEEAAAQQQQAABowusPDFKhC1iFkC7hpuKkpLThD8bzLnFNccvjznjADBkvhxyhRUfxMJIU2F6rrV3xuV2z45cau8aFENnAmgCaKPfQ+k/AggggAACCCCAAAIIIIAAAggggMAyAisOEhNig1gG0MWm3a2jLrfTMTl4rbkky7zr7NBzz6AX7zSHmAEdaoUVXwazA7XZOeWdyinMBNAE0MvcnvgRAggggAACCCCAAAIIIIAAAggggIDRBVYcJCbEBs8hgPa42S/XmDZXirUv5q/XFhUearWW5KRsKDo+cL+vvaG8MCclOS01q7Kp3+FZf6bnZEl2jmmTyTuNelP1panAGXDe7WraX2nelJb0ijl3f+fogvCjmcs15qK647XVu/ILTJsLys8OOZfETVyT10/XFG4xpWwqKKksy9isKsGhvYK8n7fm3bNDtkOV5s2m1Kxiy9leu1jGY/GhbVdWcVVtTUlRUUZmwa79tkHvEYi7dvRaMsVp4MlpSXnNt7627cosbrorbCkLoB1iy5tMqdmV1stji4EDdbuFEhzmwv0N5fnmlHUmU1HdJX/9EPVWzpHjRUVVp0+Wb0tPyTp43eF2q9eRNh7D5TDjZvVqMexjTHdl9Bso/UcAAQQQQAABBBBAAAEEEEAAAQQQWF4gpmFT3OzsuQXQ7omuks3mqmsOt3v+em1O0oYCy8URoSqFY6itsfXqrcmZqRGbpSC1sHl4we2eHbDm55S0jjiXXKMXa8xFJwdlc6ddo13NTRcGRqcc9p7mXZtzqrqE0HfmcnXqKwW114S5xs7+k7lbipuFqHd+sL4oNbO67ebkzPhQ2/6ilI2KADrYCvJ+zg4cL0w3VbQOTszP3O2qzUvPeKfL7nILAfSm9BJP2O0YOF6Ubqro9GTT3pPumQF9WeihsLI6gF4YayvLyd3fOTjhGO1uLskqqu2RZNjOkeN5ppS8g239Y/a7XbX56RnvdM8sud2aW4krJ2VVt910CCm25jrP6VpUJ8thfvKc+qv7bpe/PfFTBBBAAAEEEEAAAQQQQAABBBBAAAGjC+geMMXlDp5fAO3otWSZyy9OigF0gSKlXXQ6Rm/1ttUWpW6pvjrlDWrF+Njtnugs2VbWdk/12sAl18z4SN/l5pLM9NymkUXlnOJuS1aOpXve7eiu8u5XOCEaJZ6DrjB/vTbQT2fPwYxNgW7MXDuYsbnM9tAlzZSFELz7YEambLK2O1QA7bxRZ86svjThuV6Eade51oFA3i57CaFr+LSvsInmVp7p0mcFDSGF11zHs5+Y/z/MuFm9Wsx7GqMdGv0GSv8RQAABBBBAAAEEEEAAAQQQQAABBJYXiFHMFGe7eX4B9ERnyZYcS7dnBnSBdxqv2+12TV61Fps2ms35ZbuKclI2i+mtc6SpKKewaci55BpurczIa+gTX9znx3TespVvS0/NKiosLsvdbMqtH1IF0L2WbcLMaCEg3lJg7Z/3bKsOoIOvIATQ/n7aO6tN28SiFmJDi3dbC7cUN91RBtDO/jrzlkrbuL+nwmxuoQZ08BnQ9ovVqZ63Nfr+b7L0CnOcPf/JA+jRj8pM4iRx7a1mR47n55Rc8Nab1l7H37JvD7H5qk6Ww/wkNt2L/V6Wvz3xUwQQQAABBBBAAAEEEEAAAQQQQAABowvEPnGKhz0+twB65nJNxhbPPF95sHuhOqOwoU+sOSGkt97pw/PDH1VmbDGbNplzK09eveeNj72Cs0PW/JzyC2KtZNdkW4l5mQDaPdVdlWn2vwNQHUAHX0HWT6Fvm+UzoMXDkc+Ado22l5k8xZf9ZztUAC2fp+zfzLcQJIDW3kq2smIGtK/B5/Q1zLhZvdpz6q/uuzX6DZT+I4AAAggggAACCCCAAAIIIIAAAggsL6B7wBSXO3geAfSSy97TWpJpMlt7xbcCSoNd1/DZYlNe3fUp1+J4b3NlTornZYOOXktesfWGpBSyVFMsmlHSPrbomh++WFe4yWQOPgPaveS4aslJEcsiO2fHrjaWpSpqQAddQdpPsSx1tslUaRt1uhcnemvzTKbKLvuSWC1kY3qutVuoB32vsyorXZi4Le3tMgF0dp0ws3t2wJqdbn6nU3x7oWvmztCodHtZpuzyz4DW3kq2cqiWpZ3Uf1mdLIf5if5dez57WP72tDZ+OjXQZ8l8N/lHFVvfvjOueciPHp3Zbsk/9GBqyvVk6Ebp+kO1HU+eaK7p/1C6if/DlS48unfkNcvP6x4J+w39x3G59ED6jhv3Q68ZTmusgwACCCCAAAIIIIAAAggggAACiSLwfFKn573XWAbQRUm+mhJJm4otHw0IrxwU/pMFu0Jom20S1txcbKmvK8wWS3CIobB/c1NeZe2FETG8FhtYclyvLzOtS0tKNpkrGo5XFhQ2Bi3BIWwwO9JmKRLW31BkOdtckl3Z9lBeUVp7BVk/hZLK97qb91eaN5lSM4ur6j15sRhAb84pqao0b0hL2VJcdbZX9gZCYe/aJTgWxzvLM03mQ0K5Z6Hl2srczZ4jOnl9QtI9WaYsCaA1t5KtLBz6ci2LljH7X5hxs3q1mPUwxjtaWVg53bGjOvlHvxD//DJtvbX07b6vHrmeTC183Vi/3vu5+NMX6k58sfBkyjX12Sf5L/zCtOdvcZyKzvfVWNM2nr88JHRY+480TSaADqbE5wgggAACCCCAAAIIIIAAAgggEJ8CMY6b4mR3MQugIzpe582ThYUHr3rey+dyDLZXZygKK0fUfDQ3lpfgiGbLCdaWOlkO85MEc/Afzspui9MdO2rSS78an3o2dW+yr/2TN1+qFucFL3zd2GB67c+fC2G09M9cX82xrZn1WzeePT/0TP4j6WrPd/nJtb3CxOGvZT2Xd+n5BdD1K5gB/eQaM6CXOYn8CAEEEEAAAQQQQAABBBBAAIE1K+APgtbUgjECaKFgdHbddU8FjiVHX2NZxu7mYWlhirg5aQTQYZ6KMONm9Wphtm+41VZ25/UH0J58dvr8Dkv6nq/GhRnQWgH0vb8fyTy87483j2QeKD09pQigpwb+diTvsOmFivUvHS6tuXV/6tnXp0+lbzx/7Z7Y+NDf9q5/f1+7Q9xqru/0hdLX3l3/wq/SM1tbvph/MrVw/8qnlrxDphcq0tY31LZPTk25pgZu1u+wmn78q/TMcyc6psUNHZ/Xtfx8/b7kF/alb29t+WLuyZTiE/vlUotvTvfh+s++vVz6frpvvvZ4x/mtL50SonOtAHrqi0/ffMl65Mqc57jGr1zIXn+2w5+zSzfx9G1PXfqPf2Xa2FR7+oGn0Mf4FzdP7G3KfumXyS9Ub91xtc9z4FPzX7d/svc1y/oXqrduP/Xz9e/6SnAs3O/o2pdZk/bjd7N3/PXygHe+9tQXfUcEh1+aXvtDaea7JkpwrOySlj9pYFsEEEAAAQQQQAABBBBAAAEEElLAcIFVVDpsjADavTB2qb66MLsgN6/InJmTW9ncNxWVw49+IwTQYZqqk+UwPwmzfcOttrK7qjSAXhj/7Grp+vdLT09OBQmghUx2Y0vH0JPPa6zpO67Lpxg/ubb3UHpe1+dD80/u2T+/MjUVNIAWNk978diR9kfjj+bvf3bvq3sL99tbt/7YUlp35+t7C1MD9/oG5p8MfWXZ+P6bNTe/Gpr6vLEle/0fznwxPzXw6ZsvHbL88dH41ML9z4a/uvdM/cmTKe8MaLFIiCP8APrJ1NT5He9nvz0spslzn79t3epLroVIWhJATw1cL32pOntv31dDjq87rgjTxmv+LnSp/cqRupt9Q46vr1wtfendNxvtU1Ou8St/zn6xprTx718PTQoH8uN9ngB6/EpH/vq62j8+uD/0sGNvXXrmX4X55kM3Lev3bS39om9o+quOK6Xrf0kA7XkewP8RQAABBBBAAAEEEEAAAQQQQCAgYLjAKiodNkgAHZVjpZF4EggzblavFk8HEc2+rDiA9teA/kXyi9Z9jZ7JvIoa0BX5hx5OCcHu4a2lN+9PuaaE8PQPLb5Ju+Ltb66vpi4988LlgXnf3TDIDOh7X+1bXy026J+sOnU+711TnjTRlk/BFsLf999snHwy1Ld3/ful3k56JlarPll9AP3sfnvL1tc+FqZsP7onzPX2ztcWdxQIoBe+qjuWtr718j1PEZL5rw4dS9sobiXgL4wPPPz8j1f2rt+XvvfO+NR0x56awKEFXkI43bHnfQ+mwDV0Y+/6Y/VfzH7d+AfT+nO+ade8hNB/hbCAAAIIIIAAAggggAACCCCAAAISgWhmScZpiwDaOOcqsXqqTpbD/CSxGAJHs+IA2lMDWnILE1NUjRIc925Z1nteV+j5/69+Ls7w9cXNridT05drTmW/tM/02tkTHcFnQA/dKH3JX4tD3O+jR2cy381++++eQhaeOPvztw/4Kml435GYX/dQqMvxxXXL9vfTXnz/zbdv9IkRsOqTVc+Adj25N3zktcOWDsf4Z5/8/DV/xOzr5HaLWCB77vO3D5syu8S3NbqeTD27334uXSzWMf7F9X2vVaetP5SfWZ//0q+E4tqP7Ge2v7t1r2dWtZhre2pAP3p4IvOX8gM8UHtluq/Gasr8pM9bepsAWnFZ8i0CCCCAAAIIIIAAAggggAACCIgCgSRoLS0RQK+lsx1Pxxpm3KxeLZ4OIpp90SuAfjbe3rpVqL/hmfY793mN1bT9qi+Eld79578+fTb9pT+0DMzf/+OH6RtbL3trQPty53t3LOurfy6myb7werpjh8W04wtJTY+Fr+rqtd6C6NvRveH6zHe3ClOM1Z9IA2jpsmu8o3XrS03BakCLnZnvO1Sfvae7o6Y+f++tQOOyEhzi7Gz5DGjTxj9/PvLgROb7Pz/kmULur20iHlqe79AkM6DPi69/FOuE+A7BU/lkfYtvbjUBtF+GBQQQQAABBBBAAAEEEEAAAQQQkAhEM0syTlsE0MY5V4nVU3WyHOYnicUQOBp/IBvWgj8nldzChA3lFTCET4QwNFAyQiht3JH90rETwvsDxW0fTV4+dKXD8zrBjvPZL/3hzMCCUP74x+/vbXxw/96Dlh01639UIxa1EELh9S82nLjy5MnUs/Evhj8f+Of9P541vWApbXwoZL5DD659NjUuvBLw3Z/X3PxamA785KsrD+4/ejb+WXd947AQ2j56eCavZuve28PKT+6My0pwzAvlMl76w4kr0+Nf3LBs/FXyi5IAuubelFj+onT9AUvHE8+BCEWl19ekrz/s/8R3gI/ObLfki5tMDXS/+eK+7Le/Ert09c2X9mXX/H383nDtxneFYtCP5r7645/ffOmXwgxoz/zoH9eU1g3fv/fkq/aOn7/oqQH97P4fz6a/eNjyR/GQH01+/pnnvYvXS1/at7X0et/Q3P3Pblhe2yfWgH42fqXLUvrJ5SHviwq9XQrrFCvOLN8igAACCCCAAAIIIIAAAggggIDxBQJJ0FpaIoBeS2c7no41zLhZvVo8HUQ0+7KyUDLsAHrob3vXy+tm3Pv7kdfeFUtSeO7ajs8Pnc1+USyX8eMDpXX3xOnD09dq/pD+wi+SX3h/76Hu2szDFk9V5XsPOw61vLlRKD9t2v5XMVd19J3u2Jv5/vof/SJ5/akTVxxPphbuX+k+sqMu/ce/SP7Ru/ml3X33nk190Ve7vUZY50e/MGWe7xhYUH8ifwmh68m9v5/YcSDtR79IfukP9Y1/fXPjh8IM6Kn5vrqGtB9b6z+bf/LI3rLDsn69v4jz1Pkd767feF6oBC3DlGwi9q1W6NsvTRv/YKn7SkzJ5z4/1CQc7I8q0rd/fGTP4a1CAC2k532N57JfrEj+0a+yS6/U5x14s+6REHxPPek7/dd928W+vXh4b50YrE89u99xpXTjvuQf/SIt8/yJt49t3XHjvvA8oMn0oiTul3VM0U++RQABBBBAAAEEEEAAAQQQQACBRBeIZpZknLYIoI1zrhKrp+pkOcxPEoshcDREk5EKTHfsOZD9tq9qc6StJfpfePgggAACCCCAAAIIIIAAAggggEDsBQJJ0FpaIoBeS2c7no41zLhZvVo8HUQ0+xL7W15i7XH8yl9/vr7hjL+0SGIdnXxON+E4AggggAACCCCAAAIIIIAAAggYUyCaWZJx2iKANs65SqyeqpPlMD9JLIbA0RCYrlrg0b0jGyuSXziw749COWayWgQQQAABBBBAAAEEEEAAAQQQQCBOBQJJ0FpaIoBeS2c7no41zLhZvVo8HUQ0+0JyigACCCCAAAIIIIAAAggggAACCCCQ2ALRzJKM0xYBtHHOVWL1VJ0sh/lJYjEEjiaxb68cHQIIIIAAAggggAACCCCAAAIIIIBAIAlaS0sE0GvpbMfTsYYZN6tXi6eDiGZfuAUjgAACCCCAAAIIIIAAAggggAACCCS2QDSzJOO0RQBtnHOVWD1VJ8thfpJYDIGjSezbK0eHAAIIIIAAAggggAACCCCAAAIIIBBIgtbSEgH0Wjrb8XSsYcbN6tXi6SCi2RduwQgggAACCCCAAAIIIIAAAggggAACiS0QzSzJOG0RQBvnXCVWT9XJcpifJBZD4GgS+/bK0SGAAAIIIIAAAggggAACCCCAAAIIBJKgtbQUqwD63/8a/kvzuV7H9wHcxYeffvzhJyPz/w58pLnHTe0yAAAgAElEQVT0/ZPbttN/6p363v3vf93u+PiT+4vS1Z5N3/7LR82NDY2/bWj55Jan/e9n73527veNvz3+YXvPI0/7309//Ulz029/19T05y+/XRAamP3yT7/5TfOndl9rc1+3Hz3c2DXxzO3+fqr3wyO/+92J5qYTHzae/vgv/RMhOynt0nLL388NX/248XjTh58M3bnmOfzvv73e0vTJ6LPlNlvuZ99P9Z47eWV43u12fz/79Wfnfv+7mvcP/+Z4i+3/m3gm2j6bHvm04+PG39bV/q75vz/58uE/xZOw8Kjr93W/6/T5z33dfuLil3PL7Si6PwszblavFt1uxE9r3IIRQAABBBBAAAEEEEAAAQQQQAABBBJbIH6SqFj25DkG0O5nTx5/6/Dlv8sc9Pf/mpl8PO9yu7+f6z/f/JcR6SaL3w59OSzEzt/Pfn2l8cSVe/Nu99zXthMtXaP/+n5u5C8nmz+5/y/3947+1g/P9U48e+b48sKHH3YLKfPslxd/99vGDz8VloU8+pbwbdNVbwB97rTYlFtorf3Ex9enJMn5Ml0N+aMnt9tP/OnLJ0JrvsOPXgD9zxHbiea/3Ho8/73bvfD43qjj2b/d3899bWtoPNc9MvPPxWdzE192Nv/2zOffLLjdC4+6Tjb+5mjLp2OiJwF0yHOn8wqJfXvl6BBAAAEEEEAAAQQQQAABBBBAAAEEdI6X4rT55xhA+4PX77+9/nHTx5221pamhqbGjz/v77ny383Njb9vsfU/FtLhf35tO/mn/um54a6W39Yerj3+4YcXer9RTxh+crv95MXbc+75oc6mj7+cETJeoeUPux7NO77879Odw/8UzsGz0c8+/Kj3W5cQQDe1Xvzwo88eLgjR9pd/bvnv8y2ePFqYU+wNoL///9m7H7im6v1/4L/8/6e0/JOaZml/LK/dG1GkXgW7uCzAknkTMOESERlGRfgVo/CKaETZQuWPOQOdiqDIUsNQRCOkGYjKP1FIQIXJn+lw488G287vnp3t7GxjgApjwGsPHnY4Ozvnc57b7Ozle++PtEywn3eceiz1HDaXneTGHj6afCBuJ/eH6Pi0S/XqQzWUZhyKieZu28blJueQCe+dEn7sgaNHDsXxDmdSIW9j1ekEbuimiB92Hsq83qAtfKYdCKLVaCedeNnoKqDvXDoYHffr5QbGg1rrcg5sS6A01Ksbr/26M+7o5QYygN574OjR+Jj4nJtyKmdHBTRDzuyL+CsYAhCAAAQgAAEIQAACEIAABCAAAQhAoG8LmD1wsogDWkYAncH7Ifa30jvqstwd27hpZVIl0Vx5Ji72JJkOUwG0qJWQ12Ty4vQroHWI4vwUbtKFutbWupxD3BRyD+q65hTuz5eqr5+J452hMuvW2gv7d50slZIBdNyRnMykA7+WNDTXXjiY8FtO+oE4bQW0ugVH3LYfNodu2rZfoNeCo7nsZEz04ZxqsnBYWnKSq96z9PLxuHgBmTs3i3KS4/n59cSdSwe3bIvLUmfo2mG2ii7s33G4gIzC6dyZXiDa2An1wNaG0rT4H36I4+fWGFdi6wJoorUu9/AP4dtiEk7m/KWOxQlZ+XEeVdatGYKy/kJyHNkLpfFaGu9AZtm1zPi4g3n1raiA1j5HPfXfvv3XK84OAhCAAAQgAAEIQAACEIAABCAAAQhAoKdyp549rmUE0HQT5FaRID6Of4ms4dVltZ0IoFtFBfxdhwRCGUHcTQCdUnIjL2VPyqVSweH9WdfKM3UBtKYCulUmFpac5nGprh3UU0VWQPPO3KRKsO9c4u84IKiuLz4SE7ppM/0Tc7qqlbqrVi8x1p2UcQCtbGhjJ9Qh71w6SEbhm0N3niGrlfVvjABafYe8vjz35J7obduSL9xs7iiAFsqkZb/F7TxecJ2sH0cPaH1as/6Gv4IhAAEIQAACEIAABCAAAQhAAAIQgAAE+raAWcMmizlYXwigW29fOroz7mCuZoZD6SWyBYe4Ey044lJKpPUlR3fF7+EdElQ33MwyCqDJ56m1TnAg5oh2sj6yiYcugG69XbA/+oBAWF/wc9yeP5lTLDIKtxlPdvsBdBs7oR7b2lB8nBcWFnMwp60KaKEgTjMJIeNI9SX87by0igbjFhxpdAsO3oFMITm1Y3EKL+7oyf2xCKAZgGZfrJGL+/bfsDg7CEAAAhCAAAQgAAEIQAACEIAABCDQnwVq5GKzB04WccBeFUCr5xI8mF+vJ3enLI0Xd5DqFk3dUX+Jv/OAoLqVaK46zdNOQniAbDShCVszNZMQkgF0a0PxUe538Rfq5K1tBtCt9ddO7+XGZemSX6oFxwWyBYfsRmb8toScm3Ky7Hob70y5VD2C1tZW5T0E0G3tRO9U9X6RVhTklDWQ+XjuoRh1V+tmYYEgr6pZ3XtE+tdv3KgDObWt5CSEO+L4uVXkzITy+tKMA9t42kkIqQCaIFpvFxyMjvkuCgG0nrCZf7nVIunPfwXj3CEAAQhAAAIQgAAEIAABCEAAAhCAQN8WuNUiMXPcZCGHM2MAfYQbtiWOu5NH/iT8VnyH7n1ML5B9N9prwUG01uUd3raFy43/TTMroLK+IDkmdNO2bdRuYw/8ml/fSrSKL585uDc+jneAn3WNagbdWnvp1wMH4njxe45euNlI4pM9oFPIuuZWqaiObJisF0Cre0DzYqK2hYXHxGkfQj1n6gD6wMED8THbuT/sPF5ANVturS9OP7BtGzdmJ4+79/gFUauudTXjqW6rApoQF6Zs20KGxYTxThiPNVhU131HkH05vo8/XaGeeFBeX5x+KCY6jhz2Dzx+jiaMbq4tOf1z/LbvN4dtidv/64XyO+quIFQPaCHVIaT1puDAdz8cQgsOA2Rz/tqgaO7bf8ni7CAAAQhAAAIQgAAEIAABCEAAAhCAQH8WaFBQLX3NGThZxLHMFUBbxMl2zSCYLTi6Zo/9ci/1kqZ7++mrWipCVdtS35//Fsa5QwACEIAABCAAAQhAAAIQgAAEIACBvipQ21KvIlR9Nddq/7wQQLfv08a9CKDbQLn7VfeWPtdLmu7+UL3mETJlS1/9SxbnBQEIQAACEIAABCAAAQhAAAIQgAAE+rOATNnSayKqrh4oAuiuFsX+OieAALpNJ5myBXXQ/fn/Rjh3CEAAAhCAAAQgAAEIQAACEIAABPqYQG1LfX9OnwmCQADdZgyIld0ugADaFLGKUDUomm+1SGrk4j72Fy5OBwIQgAAEIAABCEAAAhCAAAQgAAEI9BOBGrn4VoukQdHcbztv0NkXAmiaAgtmFUAAbVZuHAwCEIAABCAAAQhAAAIQgAAEIAABCEAAAj0hgAC6J9RxTIJAAI1XAQQgAAEIQAACEIAABCAAAQhAAAIQgAAE+rwAAug+/xRb6AkigLbQJwbDggAEIAABCEAAAhCAAAQgAAEIQAACEIBA1wkggO46S+zpbgQQQN+NFraFAAQgAAEIQAACEIAABCAAAQhAAAIQgECvFEAA3Suftj4waATQfeBJxClAAAIQgAAEIAABCEAAAhCAAAQgAAEIQKB9AQTQ7fvg3u4SQADdXbLYLwQgAAEIQAACEIAABCAAAQhAAAIQgAAELEYAAbTFPBX9bCAIoPvZE47ThQAEIAABCEAAAhCAAAQgAAEIQAACEOiPAgig++OzbgnnjADaEp4FjAECEIAABCAAAQhAAAIQgAAEIAABCEAAAt0qgAC6W3mxc5MCCKBN0uAOCEAAAhCAAAQgAAEIQAACEIAABCAAAQj0FQFzB9BKpbKmpq60tKygoDgvr6gf/hQUFJeWltXU1CmVyr7yKrqX80AAfS9qeAwEIAABCEAAAhCAAAQgAAEIQAACEIAABHqVgFkD6Dt3JEVFV0pLy8ViiVze2j9/GhqaamtvVVVVFxVduXNH0qteLV05WATQXamJfUEAAhCAAAQgAAEIQAACEIAABCAAAQhAwCIFzBdA37kjycsrqqqq7p+5s/FZV1VV5+UV9dsMGgG0Rf6FgEFBAAIQgAAEIAABCEAAAhCAAAQgAAEIQKArBcwUQCuVyqKiK/258Nk4gJbLW2trbxUVXemfvTgQQHfl+xj7ggAEIAABCEAAAhCAAAQgAAEIQAACEICARQqYKYBW930ubzOE7ecrS0vLa2rqLPK10b2DQgDdvb7YOwQgAAEIQAACEIAABCAAAQhAAAIQgAAELEDATAF0aWlZbe2tfp41t3n6YrGktLTMAl4J5h4CAmhzi+N4EIAABCAAAQhAAAIQgAAEIAABCEAAAhAwu4CZAuiCguKGhqY2E9h+vrKhoamgoNjsz3vPHxABdM8/BxgBBCAAAQhAAAIQgAAEIAABCEAAAhCAAAS6WcBMAXReXlE/D5rbOf28vKJufpYtcfcIoC3xWcGYIAABCEAAAhCAAAQgAAEIQAACEIAABCDQpQIIoFvbiYbNcxcC6LsKo7v09Y+dQQACEIAABCAAAQhAAAIQgAAEIAABCEAAAt0ogAAaAXQ3vrza2fVdhc7MjdvZJ+6CAAQgAAEIQAACEIAABCAAAQhAAAIQgAAELEoAATQC6J55QTIz5bta7pnh4qgQgAAEIAABCEAAAhCAAAQgAAEIQAACEIDA3QsggEYAffevmq54xF2FzsyNu+Lg2AcEIAABCEAAAhCAAAQgAAEIQAACEIAABCBgDgEE0AigzfE6Mz4GM1O+q2XjXWENBCAAAQhAAAIQgAAEIAABCEAAAhCAAAQgYJkCCKBNB9BNNae3fOY4z87qzQ0pp3d98PZHW7PFcrn49CZ3xy9PCZtMP1B+d3dhEkIE0Jb5twNGBQEIQAACEIAABCAAAQhAAAIQgAAEIACB+xSwpABaemPfSpaVtZ36h7Vw2WebDhSLui7nld9lLiwtSVr1usvawzek8lZ5TfGR/annaloRQN/nC45++F2FzsyN6T1gAQIQgAAEIAABCEAAAhCAAAQgAAEIQAACELBwAQsLoD92dt2SJ5W3SoU3zh34xtne/Tuy6PjuCoq7anvpxV0eTp/tu9Sov0NUQHfNS5qZKd/VctccHnuBAAQgAAEIQAACEIAABCAAAQhAAAIQgAAEul/AQgNoMvOtObNpmcvnv9TI5a3CXzY4r9wRt+mjhXMcP9h9VSpvLE/ftdbLxXaes+vnkUkXyZBaeGKD49sbjt8g0+ry5K9sbVw2/Uaul149surtj7ZfbBQVHNn0sbvtHLvZTh+t3Zunrq1uLD+xa+1/nGcvcPH4b3yW+rFU3CzK3eGsqcW2c/wmW1iS9IHTR9sLGg0roIV5Sd+scbZn2S5b890vV8laaWnNae4GDyeW1RxH548jj181yK/bCNPRggMBdPe/03EECEAAAhCAAAQgAAEIQAACEIAABCAAAQj0gIDFBtCNV37lOGsLkIW/fGVr4+jx3akrZBOMxvLkrxbav7/p16vCmhtZsWsW2n+0PVcsr0j93MmdDJ2bao5vcF/4prNHZJ5I3ir8dYPzishzNTXH17o4rj2SX9Morbl67mKNVN4qTOe4vr1me/pVYUVe0ob3HT9NuiLVBcSaCugSMkGWthlA11/d96mL64Yj5ypqrqTvWvX2+5t+qyEf9eZHW3+7IW1qLM/NuyLS7VC/klq3HgE0AugeeOvjkBCAAAQgAAEIQAACEIAABCAAAQhAAAIQ6H4BCwugdT2gyU7QzptSr9STQa3wl68Wvv3NcaE6tJVejfvA0XHTGU176HryV+dvskXSq/s+dnaNzBPV5H33wWebtnzl+nH8FZE465v3nTecEUrFp7973/HjXeduaEuSpTfI7beQITUVMa9auibpqi4X7jCAFp3hODt9daSCeoj49Kb3Xb8ja6VXvf3+ul+udr57NQJoBNDd/07HESAAAQhAAAIQgAAEIAABCEAAAhCAAAQg0AMCFhZAa3tAy0U15RdPbV3pvPDzI+VSMoB2dIvMIsufW+WivK0rnNWNONS/NtUc/6+L45enhE2N+dyPHFfG52fv+sCLczo7adWyr5IK8rZ7ua9V9/GQS28c56xxft3R8QNOUm6NXJT33TJqwkPtn3M+imN0fO4wgCYbfWjbdFBzJy787xlhU6soN4lsD2Lv/vn2U+XqAN1U7TO1HgE0AugeeOvjkBCAAAQgAAEIQAACEIAABCAAAQhAAAIQ6H4BSw2g1VXJ5QfWLFTnznoBtLpy2VmvAlpTyCzK3eG69KvtkWtcvzwlrCkmo+fYXauWrUlSt9HQpsDi/L1rFr694fjVq/tW6iqgtffecwW07oGaXd04s8nN2YNbTDaGbvcHATQC6O5/p+MIEIAABCAAAQhAAAIQgAAEIAABCEAAAhDoAQHLDaClFdnbVzov/L8j5U36FdDyRjKYXvD+d7/VSJvUafKC97dmk/MNymuyN7m5uLq5r9p/VdpENt9wdHufrImub5XXXz3CjT9d0Ui2kP7lG+elG47faLyyf83C1z/bmn6DzIi1jaHpsLi9Cui1qcIm8nDfLXN0/vLIObI3SKPwItnxWShI2p5cTPbfqMnb/oELAmhTL+q7Cp2ZG5vaIdZ3u8D1FJ/56q8LLI3OFquPppAWHwx3c3B08o1Ovy7v9gHgABCAAAQgAAEIQAACEIBAPxaoy0kIcGHbLg3kZok0DCJByGL1h5QFwceq+zENTh0CEICAZQtYWADN7AFt4+y6dpc6MjYIoFvl0ppzByI//4/L7HnOrp9y4qgEWd5KTj/4pbOVzfvbL5KNnsmpC63tnKkuz9Ibp7d/5byA+j/T++uSr5KhM7mfHWu9XGZb21m9/tG6A+rgWFutbCKAbhWe4DjPc177a41c3iq6dCpu0xrX1+2srFnOn+84XdEounhknZcz1ZHD8dNdWVTfau0+6XSbuYAKaGa+3OGyZb+h7nN08rK9vuSrkfkzl+203D8gJDoxRyRj7p6+0mJuTC/P908s1yXCsssJnnM1u7UNTKtTMHfU6WXjAFokCHHQ7NYtpkRveJ3eKzaEAAQgAAEIQAACEIAABHQCCuGx1Y56nwis7Wbbu7p5BwZxEjL1yz4k+TvZ9EcA44XlvOJG3Y4rkwO1PSRZPgkVHV29t/HZxHaRq5t/BC+tpE73UUO3/04tNZZw3clPELP9Uirv9lOJQsj318jM/pBfSY2B/liEALpTTwA2ggAEINAzApYUQLeb0jIT2z62jAC6w9CZuUHPvFHMdNQ2LvIYl54st7AMzWUWQRD0lZbxhaa1nZVeAK2/20Wh6fdWGmAcQDeWcD1Z6hE6BhwWmgkJh4EABCAAAQhAAAIQgEAfFmgrgGZ8KHANStZlx3cRQCuEfEauPdtXG+CalNT/EGHwoWNxIO+8tgbZ5B7aukOcG7b0XgNoQprN8aAonDYKNFU19MciBNBteWMdBCAAAQsRQADdQYNmM4TdCKCZ+XKHyxbyzumeYegu8mYvDw3bEs3hRAT5+7s5UCEvWWjvuVtbaExfaVmzfTZGc7bo/UTFphRTXTIIgpBXJH5I7mG2g6u65IEdlHZPF4vGATRBEJKKzMMpx84LOyqg6B4w7BUCEIAABCAAAQhAAAJ9TIARQLNXR5DX+WGhAb7eTtTXea3trGw8ODlS6qR1AbS9bwhH7xMBZ8tObnKu7ruPVWkB9mTyy1qiLiJeEMjXL6Y2UtT/bMKJCAkM9FzK1n1fc74/N18zDKPHml5RnRG06J4DaIJQiIpPpfDTCnUl2PTHIgTQptVxDwQgAIEeF0AAjQC6Z16EHQbNpjbomeGa6ai6izw2p1CiO6i8MjWURRUd0P2X6Sut+YH8Kt2mxkuycr66dzPLM5IXoO6YwVqXobsSNX6AqTXXU/wMekCb2hLrIQABCEAAAhCAAAQgAIF7E9AF0OygU4zCEYUo81tN/S99Pa8LoD0Tytpti1GXpv5AYeMRtjtc3bXD0S+5/a8wmvhsIi7krWZrKrJdorMZA+zM6cq0RS330oKjzQPQH4sQQLfpg5UQgAAELEMAATQC6J55JZrKlztc3zPDNdNRTVzkkYXGhVHLyUoBq7m+vFL1pSV9pdVRAF2ZHKiuU/DgnC1J9FMXUy8Oz+zwSlEhLU7dGeTtamtjZzXX0enDiMRTfKpowooOwRkXxyFZjPIHuTAvhRe22pftoC6vsHf1CeGlM3pSazgV0uK0hLBAf7auxFt9juqo3enbXAlBaC+p1RffjcLM2FA3smJC0/FDUipI3BLqs9zVluxwzWItD+QkF+pl6/QI3XnFEnnlKV6Qrwdrrp2VvYdn0E7NkNS79STHwLJd6s9J1X2l0UxPOw4DAQhAAAIQgAAEIAABWoC+grXWD6AJQlbK18zs4rIzT12uor1atrNqP4BWiNLXqVNjh/D0Ik0Nsu3qtHa7MJv+bCIShC2hrttZfsn6X4WUVKTvDvdbri6UXkA2jE7M0W5QleZHF3EzG3osjabOhej4QwRjSJGFmq9g0h+L9ANoWZWAF+LPXkx+Hpm9yMMnMIJ3qkJyt12n6ScFCxCAAAQgcH8CCKARQN/fK+heH91h0Gxqg3s9YK94HOOKSq8CmmyjwfNWZ8c23tyiuwmg6Zk6HMIzRdJirre6WsE1jJkXG9vIRenfeuu+Xqe5QGRp1rQbQMvK00Jc6J4hukDZar5vlParguQB5RX8IFdN6QTzAlS7rB9As/z2ZvD8taUWNt7c/FvZsf7aSVQYR7G2cwpK0XXKpi/fHYKjOEbbL4/OLMrgaNpY0ztxDcvoMJ43JsMaCEAAAhCAAAQgAAEIdIUAfQVrFEAT1WkBVIa7JCJb3XCvswG0dvJwW/+USolQU5ViH3ysvW9Smv5sQsiLY32pK3mykFlbeS27nhG23PiDgGvQYXWFR7sBdOc+RDCG1G4ALatKC1pMX97rFlhBafRou+Kpwj4gAAEIQKCzAgigEUB39rXStduZypc7XN+1w7CwvTGuqAwCaEkhx0V95TTfX9Osjf6n/vYroLW93shrTQUhyYl2Uie8VLxr4vTlZcnBdLY7e7FvwLpQP09XXR7dbgBNiATqeUVYrOX+AUHhISHBPku1l6HumkoNgiDqtE1FZruEJ56tqKsuSY8N1owtKCH9bG7edbKkmr6knr1As5PZDh6eq3l5YnlZgj85pAWunn7BIRvDg/y8WTbUxSU7IEX7dULd5Tt1lyPbLzjAUxtka8Pu2Uv9A1b7ah9uN9uP3/4XGE24YTUEIAABCEAAAhCAAATuW0B3BWtcAZ2gqYB25xU3kgeir5bbr4CuywhXX2mzPHdXyMj4mKpKaX9uGNOfTQhCcn6nuo+HnZU2CifEhdr5ye1slwdHJaTwd0f4qNs9W833512WE3JR2fnc9NhA6oPGbPcIflZu9tnc7CIhWZjcqQ8RjCG1F0DLtWU3drOXBnL2phxLTuCs82XZe3OyUGhy369P7AACEIDAPQmYKYAuKCgWiyVmmNCvNx6ioKD4np673v2gDoNmUxv07tPuYPSMKypmAK2QFicEa3pAL9dmuHQAbTQJYVRsWpm2gXRdKhUls3wOqusOxIIwqhaADpGNhyTOpb9S5xapm7ek7mw0m0p46ccyLo6ZLTgkpYXF1dpCCGb/EBvvKM1EJdLsb6nyZ3YIXW4sF/L91S07GB1CdJfU1nazl0ccK9Vv9HFe72t0lSma3Nw2ME3TiEM3QjurRYE86uhy4bEgOoN29NtbSH0Xry4jgkrArRaFpuPS1PiFgTUQgAAEIAABCEAAAmYQ0F3B6gfQkopjIZoe0E5hAuoKVne1bDgJ4U5usuYqlyCkmWHqa2/tlykl+Tvd1Bf2dC/ptk7LxGcT9abkNDNkEzw7K/vgY9Xk1xs11SHWdqxARk10Kd9HXbLtFqPpmCHJCqc+1xj3gO7EhwjGkNoJoGlAG2/uZd2nEplEt9zW+WIdBCAAAQh0o4CZAujS0jIE0G2G47W1t0pLy7rxGbbUXZvKlztcb6kn1CXj0l1RzV4eGrZFPY11WLCneuZAqnVGSJq2tlcXQFO1vYw/FwRqvkynEKVTSSvdOVohSg+hslcPznlGmMsYviRHm8MygmDyfu2EIR33gGbsjcyfqwoTqWTZ2jEojUp26QCa0QyEvlJcFJpOXsWSN90l9VxfTe8RzT1G/2kUlaVpI3JtSQhB71P/C4y6qFpdGK7Zl3ZKbqv5gfzrRvvHCghAAAIQgAAEIAABCJhBQHcFa8deHcFRfygIC/J3ogJfMvMN5GunV9FdLWu/26frcUd3habrS7SdowlJIWep+uMD2abP1CnpPpvoT5Cu3p7up0F99GjUNQzUVpyoN2ss4bqTB5r9IZ/qfdFOAG0wjrY+RDCG1F4ALcrUfORh+XD1Z4gxOAZ+hQAEIAABcwmYKYCuqakrLS1vM4Ht5ytLS8traurM9XRb0HE6DJpNbWBB59D1Q9FdUekuHHWXkq5ByYz58ToTQFdnBFHhNR3IEgSdvbpFFmrrpPXOhN7AdjXZtUN3u5sAWlZdyI8J9VyqrmjWnQI5Swm1Q7rcmKVt2SwpSqDqI2Z7J1DfKNQLoL3bmtdbIS3LSAjz92bNZ+Tv1nZW9Ewmust3NrNGuy5DU3mhq5UmCIK+NJ/vn6i9ptedPpYgAAEIQAACEIAABCBgBgHdFaz+JS51Ub0okMeoI+lMAC3JiabaZei68Cm0NdHWrrrvIxqemu6ziXEAzayAJmtHxIKQtnou6z7ULN9ZTM2aaLoCmiCIjj5EMIbUTgBNkI0HNd/dtLazWuQbxM2gvyFqeJb4HQIQgAAEzCJgpgBaqVQWFV2prb3Vz+Nmg9Ovrb1VVHRFqVSa5bm2rIOYypc7XG9Zp9HFo9FdUemu1cgLTZaTb3jief3iBDqANt0Dmo5Z9femvZDVXgXqn4S8bK+6t7K1neE38joZQMtFmTGBmoYh1FWyjaOtpl5DF0ATClEmRzvPob0r20XbY3qBP1fTpuQ5VSEAACAASURBVIMcF31JPdsogJZcTgnRn+SE7hPdYY22BAG0/rOO3yAAAQhAAAIQgAAELEXAVABtw/Zcx8us0usjQV8tm+4BLc2L1DTuaPNDAd3Nw+j0dZ9NjANoXQ9oqvKjOi3AXvspQ1d9wlijLYgxWQHdqQ8RjCG1G0AThLwyKyHIXTsVDTkkR7eQFCoENzpTrIAABCAAgW4XMFMATRDEnTuSS5dKqqqqDULYfvtrbe2tvLyiO3faLELt9ie+xw/QYdBsaoMeH3l3DoBxRcXsAd3mITsMoHV1DYwrP+bloLYHnP7u5ZXJgdR8g7Z+91ABTT5cM4Hh4sCowwJ1M2i64QYjgCakebGapFt9KUxOWhi0hZ9t4pLaMIAW52pmZbRmeW5MSM8npy6RdTIiJwgE0PpPOn6DAAQgAAEIQAACELAYAV0Ard8Duq0BdhxASwqjlpv4OEB9NKBnETTcfzufTeTFsb5UnK350iRdAT3Xm5MiIKcW1P/JKxXJ1Ps3EUB38kMEY0gdBNDUycjrLgsSvw2ku5c4bczQTBVjeLL4HQIQgAAEulfAfAE0lUEXFV0pLS2vrb3Vb1tCNzQ0icWS0tLyoqIr/TZ9JgjCVL7c4frufUP08N4ZV1T3H0DTDSXs/bmpzKtAQWIINQGgnWdsCXUhyDxvSRY1RzZjSmvq7s7Eu3Jhoq+60EA33yBBEG0E0LLyFL8FdlZth+C64dCX1AYBNN2omkXPN3g3XaoRQOuIsQQBCEAAAhCAAAQgYFECXRpAy4p41HyDsz2jj2UxcuGMlDBNMO3ByWlzbhjTn01EAnrScj9qqvPGCp4nVW7MDkrV/+Kmvq3krGa+GborNHl/Zz9EMIbUqQBac2xZKZ/86GFtZ7UgWDNZjv6o8BsEIAABCHS3gFkDaIIglEqluh90WUFBcV5eUT/8KSgoLi0tq6mp65+dN+gXdIdBs6kN6D30xQXGFdV9B9CSnGgndVGDYStngtBd9nknlDUaQdJz8Vk7+uwt0ZToK6TFCcGaxhpLo7PF6kcxLo41HZYlJZoKC3raQ4KQlWeEuVBlF7oK6LrUYLJQmrGZ0TjIFaYCaLpRNStEoKliUEjzdmuLr9sZofowCKDb1MZKCEAAAhCAAAQgAIGeF2BcYwedai/MZV4tm2jBQZcqszz3MqaTIU9SXsz1pqqY2VvanBvGxGcTcSFvNTWruZ2VAz15uLwsQfvtRodgeo5EClPG+MRBB+JWzAnPO/shgjEkOoCmi68XBB/TzmQuu16YXc5I1eUVvA/V+Tjmeun51zdGAAEI9FMBcwfQ/ZQZp20kYCpf7nC90Z760grGFdX9BtDSvC1UrzeWD1WVwHQSCUKoyQnn+ieW6nWRU28lzYvUXIxaWds5eQeHfBsR9KGmaJq8SG0n3lUI+f6aiQdnuwSGcKI5IYFsesJua10ArfvynUswJyEtkyrHyK+oFOmNx1QALTmvmUrFyprtuS6Cw4kI8NReB7c/QvUZIoBmvhywDAEIQAACEIAABCBgQQJdGEA3VvC8NV9P5BbpXWaT4TV9Rb18Z14bjSF1n01mLw8N2xLN2RIdFuRPt7OwsmYHMOdIFxdGaYqg7awWeAd8m8A/JUg/zAvxdWX56uYY1837bW3H+jCcsyU6andGZVMnP0TohsSmA2hJYZSm2MU1IDajWEwQolwOWdzt6BnC458SZKbyowI9qB6DVu5tnqkFPfkYCgQgAIG+KoAAuq8+s5Z+Xh0GzaY2sPQTu6/xMa6o7jOApnu9zfXlXTa81iQUomOBVEzM8kkwKIVQn4C4kPuhJkemyiLUX1hzdaK+udZOAE2WVzOmnNa0nGY5uVD5tS6AJphXqMzO1OQ34zwCYgSV6lGbCqAJeQWddOtGaO/B7sQIyattTEJ4Xy9UPBgCEIAABCAAAQhAoNsEui6AlpUmeFK1INRUgQZDplv2kd3zjD4yELrPJrrrbfq6fZE/J83wc4TselqY/iTh2gcyu3xI87ia/tGaexcE8qs6+SFCNyRdAK0Qpa+jK1HYIVlSWSk/gKq2oUdLLdj78xiznRtg4FcIQAACEOhWAQTQ3cqLnZsUMJUvd7je5B77wh2MK6r7C6Bl+TupXm9WbZczEPRMg7P9+FTUa+jXKMzcGxHg6WprY2e71D8oJq1YJNRc27UbQBOEvC6HH+bvzZpvN3uRt0/IzmNFIsll6tqXEUA3VvDXkan07AVUtziDqVFYnrvJ/tQmA2gyRa44FhPqs9TRysbRyTM4LEFQKdFefXYwQgTQhs82focABCAAAQhAAAIQsBSBLgugdW0xnMIEEoXR+TGiWzeu8dwwus8m2hzZbvYiVzffcG5KYZ1xXk3tXlKRmRAd4O3B0nwJ0pHtG5GYI9SbeEYuyuRqJwa0d3XzjTh2Xd65DxG6IekCaIKQVQl4G/3VtTKOAYeF5EAahdnJO0P8fdmLqM8aLCf/nenlpgZtJIMVEIAABCDQ1QIIoLtaFPvrnECHQbOpDTq3e2xl4QLS7C1klw9b/xRm/C2pKsmM1fRxnu1rIhm38DPD8CAAAQhAAAIQgAAEIAABCEAAAhCAAAQYAgigGRhYNKOAqXy5w/VmHCMO1W0C2ibUxqUWEm3tNisoTTO7YLeNAjuGAAQgAAEIQAACEIAABCAAAQhAAAIQ6G4BBNDdLYz9ty3QYdBsaoO2d4e1vUtAnBu2VN1zw943hJuSnl9BfolPLspL3emnmR3RN+o8Y97q3nV2GC0EIAABCEAAAhCAAAQgAAEIQAACEICAVgABtFYC/zWvgKl8ucP15h0mjtZNAvLKlFAng1lB6F/ne3MyRN10YOwWAhCAAAQgAAEIQAACEIAABCAAAQhAwJwCCKDNqY1j6QQ6DJpNbaDbBZZ6t4C88mxCyIeus+nc2drOapF3ACclrxrTg/TupxajhwAEIAABCEAAAhCAAAQgAAEIQAACtMB9BdAqejdYgMDdCKgIwlS+3OH6uzkOtoUABCAAAQhAAAIQgAAEIAABCEAAAhCAAAR6UuC+AmiFQtmTY8exe62AQqHsMGg2tUGvPWkMHAIQgAAEIAABCEAAAhCAAAQgAAEIQAAC/U7gvgLoZllLvwPDCXeFQLOsxVS+3OH6rjg+9gEBCEAAAhCAAAQgAAEIQAACEIAABCAAAQiYQ+C+Aug70iaVCn04zPE89aVjqFSqO9KmDoNmUxv0JQqcCwQgAAEIQAACEIAABCAAAQhAAAIQgAAE+rbAfQXQ9ZKmxiZMF9a3XyFdf3aNTXJT4XJn1nf9gLBHCEAAAhCAAAQgAAEIQAACEIAABCAAAQhAoHsE7jeApjJo1EF3z7PT1/aqUqnuM32ulzT1NRScDwQgAAEIQAACEIAABCAAAQhAAAIQgAAE+q5AFwTQ9ZKmO9KmZlmLQqFEP46++1K59zNTEYRCoWyWtdxP5w26OPrex4FHQgACEIAABCAAAQhAAAIQgAAEIAABCEAAAuYV6JoAmg4HsQCB7hYw7xsER4MABCAAAQhAAAIQgAAEIAABCEAAAhCAAATuXQAB9L3PhtfdSSv236bAvb/Y8UgIQAACEIAABCAAAQhAAAIQgAAEIAABCEDAvAIIoBFA9zIB875BcDQIQAACEIAABCAAAQhAAAIQgAAEIAABCEDg3gUQQPey+LXNouB+tfLeX+x4JAQgAAEIQAACEIAABCAAAQhAAAIQgAAEIGBeAQTQCKB7mYB53yA4GgQgAAEIQAACEIAABCAAAQhAAAIQgAAEIHDvAgige1n82q+Knds82Xt/seOREIAABCAAAQhAAAIQgAAEIAABCEAAAhCAgHkFEEAjgO5lAuZ9g+BoEIAABCAAAQhAAAIQgAAEIAABCEAAAhCAwL0LIIDuZfFrm0XB/Wrlvb/Y8UgIQAACEIAABCAAAQhAAAIQgAAEIAABCEDAvAIIoBFA9zIB875BcDQIQAACEIAABCAAAQhAAAIQgAAEIAABCEDg3gUQQPey+LVfFTu3ebL3/mLHIyEAAQhAAAIQgAAEIAABCEAAAhCAAAQgAAHzCiCARgDdywTM+wbB0SAAAQhAAAIQgAAEIAABCEAAAhCAAAQgAIF7F0AA3cvi1zaLgvvVynt/seOREIAABCAAAQhAAAIQgAAEIAABCEAAAhCAgHkFEEAjgO5lAuZ9g+BoEIAABCAAAQhAAAIQgAAEIAABCEAAAhCAwL0LIIDuZfGrrthZXHnkK/cla1KKRSZO4Ubujs/c51vbzffjm9xGYuKxFrz+3l/seCQEIAABCEAAAhCAAAQgAAEIQAACEIAABCBgXgEE0BadwFae2rzMY3uWsM1B1hef4senltWaCIvLjqx3eGP1rvO1uszaxJa9awPzvkFwNAhAAAIQgAAEIAABCEAAAhCAAAQgAAEIQODeBRBAt5ntWsrKspT1S5abCqDbH2R93p7VC+/xse3vuYfvvfcXOx4JAQhAAAIQgAAEIAABCEAAAu0KyPJ3utmz2e7+YalCQlIYtZzts7dC1u5DDO9USDM3urJWp1UqDO+RlSb4OHhH5UsN72j/d3oY1RkcP2/2Ike3yMK7G1L7+8e9EIAABCDQzQI9H0BnnruafPzinp+z2/zJPHe1W+pzb+Tu+u8nDnZ2VnYuXhv4OZcFIf92+TSpjDpWbTF/5VsrI3Pqy/jrl7z39ff/Xb3CxWX+v1xWclKO7Fjv5eG+kOW+MlJQJiaj2K7apl5Uefqnr73ecnz1Da9PIzOKRfV5P6181drOSv3zqndisaj2+AavFZv2hPm6vDrP6/uz5cc3uDt8kUYNo7YwLXLNSod5dq++4fV/u84KuPRjHT/lV3aLYQ/VU3fzOwK7hwAEIAABCEAAAhCAAAQg0HMColzeOl+nBXZW1izbJb5BsYI6OUHIhYn+HgEpwnaGJTkb4ea5M0/SziadukuWz/PxTyiTqzduLInydPU7KGwn7ZVVFR6LDXVb4Oi5m86ppZlhHk7rMuqMA+hyvs9iX24Rtfe2xiMXZe8N91zMsprryA5MyBMZD0NelhDsE4MAui09rIMABCBgqQI9HEBfKLoRE5/Z/k93ZNBkdbDL5iOFtfWiypysy5Xi2qwtKx0+0/RKLk4KWuL9U05NUxk/aL6N86fxl2vF9cWJQQttHL1icivFTZU5P3m94fX9WbK7RRdtox7Ae1uTzleWnU8Le89lRWRupcSgirn2+AYXq3nuXyYWlJF9n2vpALr2fOJKluOyTSk5FfW1Ny5n5dXWax+b03b7jh6uYr6fQNxS30oYFwQgAAEIQAACEIAABCAAgfsUkGZ/62HrEnGsSCQRC/NSEzjcjEo5QTSWcL1d2w+g606Fst27OoCWCxNXe4ecomLgtk+t7nwKlxPuuYgZQMuLY/09txS2EYZXZwS5B/Or2t4VQcjLDoYHcTOKq0RlZ/lBLo5sTi65E71hIIA2pYf1EIAABCxXoIcD6OOZxTHxmcnHL14oumH8QwfTXZ5BF/PXL3EOis/R9Ueuzdvj5bx6V2F9vbgyaY27146CWnW47OCy9fQNMq6tPb9nxRsrI8/Xk+HpDXXFtLqyuIwf1AXbXE37v7fcv0zVlCqTVdVkAm4cQLsv1KbkjAC6PovjNd9lq36raM1jEUBb7psPI4MABCAAAQhAAAIQgAAEIMAUUIiOBbo6hQj0aodFgpDFmq/GWlm7hp2VSi6ncTcGsu3trOay3TamlDXKy/b6ztZ+fXb2h3wysxYV8r8NZNuzbF0COanq2mS5KDM2VFNc7Bedfl1OiARh7q4+XL2kWK8CWiHNS9jJL1UXLFfnJm70d1rAsl3iH7TO38lzZzEdMMsreN5sRgU0UZfF46a1VTctKeHH8PPE5DlLilLC/Dxs57KcvEND/DzYYQJ6f2oSedlef9aH6lps5jAIBNDMVwyWIQABCPQOAYsIoE3ly3QAHROfaWqbe62lrc9J3Ozl7Dj/rdVh/IJKcVO9qCw+wH3lrsuVV9P+b/nqXXlk0KwXLuft8XLUBtDC3DAXl08TyZYdXbJNbd6eFXPoSwr1wr+3ZgnbCKDpnhu6AFpUe/y/LmQwrW4JogVBAN073oEYJQQgAAEIQAACEIAABCAAAVqgLiOCbe8aQFYBM/pUiHPDXOgKaHlZGo+bnFtWLarM4vkscg1KE6lrhwNZdAV0Y0Wiv6vbxpS8KlFZBs9viXdYlkhWxPN08I3KEsoU8sr8wjIJQUhKEkOCw1Lo1hnkKPQCaHpYjRU8XzbLj5d9XVRZlMbxdpy9vL0Amn6cqQXZ9bSAxY6eWzLKRKLiUzv9HFhOhgG0NJvj7RYmkBj28UAAbQoV6yEAAQhYrkCvCaC7IYMm65ors35a8YZ7WIa6mcaRr5d5bz+S+PWKzxLzyB4XXRMud2o/V1M+dXShK6D1QmQXehJCXc8N9Qb0r/U5kV7zdZtR7TUQQFvuuw4jgwAEIAABCHStgEp769rdYm8QgAAEINAjApJyAXedL2s+y+nDCP55dfsLvQBaPSiFvO56SXYqz2+xoxu3REY2r9AF0JKzEezFwcc0nS6kmWHebpxcUTnfb4l3SGqFUaSrd5ZtBtCSnGj2Il/eZSoTl5cl+LPc7yeAlhfv9rVdHq3pWK2u+zaogJYUJfi5BPKKjKcrRACt93zhFwhAAAK9QqA3BdBdmEHnxP+0K4vsd1Gbl7jyLU0AXX9DEObi4vCWy8o9l2vVM+x1SXVzpwJoceWRL1zmL9+cRLZvbqotzs0qUZdgp6x3eGN1fLG67wej6bN+AN1Um/PTCjvHFZwMsjd0TVlWxuVKsX4AfSN3x4avI9M0LT5qC1PCvtocf17TgaQsY8+X//3pdAWVXFv6n73ifYVBQgACEOi3AiqVSqlUKvRvSqWSCkhpljY3ox5EbWy8pcF6eoN2FgyOolTfVCoV8yEGA2Pe1cnl+9+DwYEMhk2zmBJQqVQXL15MT08Xidrr0WlwFPwKAQhAAAKWLiAu4Yd429r78orkhH4ALcnnByx1tF3i7enr77aI5RZZaBBAVx4OttV25KCmtWep23pI8vlB3q629h4B3IzKxrYB2gyg61JDWUtC0zX/n7n/AJpsdc3yT6mkqpuNAmhZVUaIu0fQYb3SbO1wEUBrJfBfCEAAAr1HoJcF0DHxmReKbmgLhO89Ks3jb135Fkv9f2Jnr2/SitX1zvWS+qwtXq/+iw58zVgBTfaVLkiK/NrL2dHK2m6+y/odGeqwuOZy0oaV863tXvX4KaeGLnmmTpz5a31x2p4QP6+FNnZWdivDjpTV6k9CWFvM/5TlSDW2Juu+M7YusXP5MoXKo+vz4lcvZH1CdR0xtr1cUm68klrTzl2mHnL/63vPmwsjhQAEINAfBerr69euXevFuH388cebN2++cOFCa2srHf7+9ddfq1evfu+99xgbahZDQ0Nv375N29XV1YWFhb333nsbNmxoamqi17e/QGW4VVVVsbGxAQEBH3744SeffBIeHv7LL7/U1tYqlUrq4XTUSw+s/d0a30ul7fQOjTe4hzWVlZWff/45jePj4xMQEBAeHp6SklJXV2ccQ6tUqvfff3/atGm//fbbPRwOD4EABCAAAcsVEAvClrL9DgvVATQ74LCQHKq4kOPuGpBMtXUWJvqxdQH0cs0khPoV0EbnVy0IW872jC2RGd1jqgWHJCeCrICmmkGTXZjvuwKa62urHS2hH0DLqjLCPF19YnJNVGojgG7racM6CEAAApYtYNEBdPLxi8yfPT9nx8RnHs8svv8Q08Qe6nNiPlkSwNfm0fcecJvYf6/c4Xvv+0Vs3WF8Rl98ufFNx2Xmz6At+w2F0UEAAhDo7wI3b9589tlnBw8ePHHixCfVt8cee+yRRx55+umnN27cSCfLAoHgySefHDJkyOTJk6nN6D/ffvvtmzdvUo4qlSo9PX3SpEkPPPDAyJEj8/PzO+nb0NAQHx//j3/8Y9y4cRMmTJg6deqUKVPGjx8/YcIEOzu7srIyaj9NTU0ffvjhjBkzzp07dw8hcktLy44dO2bNmrV161aFwrBFZSeHarxZUVHRlClTBg4c+MQTT1Asjz/++KOPPjpx4sQXXnghJCTk6tWrzNGqVCp3d/eJEyeeOnXKeG9YAwEIQAACvUlAnBu1OpiTXFjZSMiqCvkcX1t7X26RlGgs4Xo6um3JJafpE2UELWH7HayQyaXFhyM87VlssgKaqDsV6uQQyL+u7pIhzuW4OLLXpeSRNcvyuiKy43NdDp97uIRMdcWF3A9dyQBaUsL/NjxKf7bANiugCXEuZ7kjy4+XeV0quZ7LW83uRA9oaVlaAi9VfUSj50B2OcHHXt0DWiyty08JWqrpAS27nhGy3NUnMldvGka9hyOA1uPALxCAAAR6hYBFB9AGoefxzOJuDaBrS1L+799eIamaPhUGR++3v0Zs3WFlbWeQQX/x5UYra7svvtxofpZe8b7CICEAAQj0WwEqgJ4yZcqOHTvOq29ZWVnh4eFjxox5+OGHw8LCZDKy3IoKoJ944okjR45Qm9F/XrlypaWlhQJsbm4OCQkZMGDAiBEjBgwYsH79+s7kvCqV6tChQ5MnT54yZcrGjRszMjJycnLOnj175MiRoKCgN954o6SkhNp/Y2Pj4sWLBw4cmJmZyYx0O/n0yWSy8PDwYcOGrV+/vrW1tZOP6nAzKoB+5JFHcnNzz58/n5ubKxAIUlNT169f/+yzzz700EP29vYXLlxgDjg3Nzc1NbW2trbDnWMDCEAAAhCwbAF53dmEABfye7Hkj4M/55SQqlOuO58QsIRlZc0OOl6aGenPsrGzsmaxV0dHBXp4xpABNNFYcSzM19babrYnr7iRkJRm8MIC3RZRm+3MrJJLilJCvNnUnp38edkigqjOCFni6BZZSOba2lvbATRByMrTwj5kz7a2m+0SGvWtr6YHtDiXs1Q9VE3HD8eAVG0/KIXoWBDbar5/YjljNkXtUQhCXpmx0488Izsn/2iOnyvZA5oshdaeu2aH7JAMgzbQCKB1iFiCAAQg0FsEEECrq5LFlUkBjlbWjl4xuZXiXlmn3K1BsEEG3YPpc72ks1++7i3vQIwTAhCAQB8ToALo6dOnnz59mj611tbW0NDQIUOGzJkzp7S0lA6gn3322atXr9KbGS9UVVW99tprQ4cO9fLyGjVqlJ2dXWcyVqVS6eLiMmjQoE2bNhkE1iqVqrm5WS4nPwm3trbW1NS8+eabAwYMOHHiRH19vUQiaWhooIJdlUqlUCiam5sbGhokEolUKm1ubmbuTaVSicXiDRs2DB069IsvvhCLxRL1TS6X0w09VCpVS0tLY2OjVH0z2IPx+VJrqAB6/PjxzIiZIAiVSlVaWrpgwYLBgwfb29tfu3aNPlBTU1NDQwMzBKcO3dTUJJVKqfNiDox5aJVKJZfLGxoapFJpY2Mj1XK6oaGhsbGRHoBCoZBKpU1NTUqlkj6j5uZmqv+1AVRTUxMTijqWXC6XSqUymUypVNKHo7ektKnRUpvRp8YcKpYhAAEIQMAMAqYCaMahjVpwMO7TWxQJOP4RmdpEWu8u5i9kVK0OoJkrTS4jgDZJgzsgAAEIWKwAAmjEzZ0SoDPonk2fEUBb7F8lGBgEIAABSqDNAFqlUp04ceLRRx+dOnVqdna2SqWiKqBnzJjRTgCtUqmOHDkyZcoUGxub33777aWXXpo4ceLvv//eYTSpUCheffXVgQMHpqenm9pYqVTm5OQ4OjpOmDDhgQce+Oc//+nk5LR48eIPPvigsrJSpVLdvn07NTU1NDTU09PT2dl5xYoVoaGhWVlZjY2aOZtkMtmqVatmzpw5YMCAZ5991tHRkdrDgQMHqNxWoVBUVlbu2bPH19f33//+t5ubW2ho6NmzZ6n4u50XjKkAmsqg//jjj+nTp48ePTouLo7KeVUq1Xfffffuu+9evHiR2q1SqSwvL9+3b9+aNWtcXFzYbPb7778fHR1dWlrKDKkJglAoFDdu3IiJiXnvvffeeecdf3//48ePX7p0acWKFf7+/nV1ddRBr1y54uLi8t///pfa7apVq9hsdnh4uEwmk0qlJ0+eDAsLe//9952dnV1dXdeuXXvq1KmGhgbmOfL5/GXLlu3bt+/atWvbt2//z3/+884776xevTorK0sul8tksj/++OOrr75yc3N79913t27deuPGDVPPHXO3WIYABCAAgS4XkJWnhAWGhm3h8fNNJcedC6AbK45tCeWktjmRoP6o9XtA69+n/5u4hB8bHbYuOIRqga1/J36DAAQgAAGLFUAA3an4tVvri3vLzqkMuqc6b9BKFvtewsAgAAEIQIAgCFMBdEZGxmOPPTZp0iSBQEAH0M8+++xff/1FVdHSf9KM/ys9/vzzz4cPHx4WFtbU1PTJJ588+OCDX3zxBV2WS29psKBUKufNmzdw4MBt27a1tLRQezbe5syZMy+99NLDDz/8wAMPzJgxw9ra+uWXX37rrbcqKipUKlVSUtKUKVPGjh373HPPvfjii9OnTx8xYsTUqVP37dtHdQhpbm5etmzZ5MmTBwwYMGnSpJdeeonaQ2xsLDUz4cWLF99+++0HH3xwwoQJs2bNeuaZZ0aMGDFjxoxDhw5RfUgMhkT/2k4ATRCEVCp1c3MbNGiQt7c3lWX/rzL63XffHT9+/MmTJ6mdNDY2rly5cuTIkZMnT35BfZs0adLw4cPt7OzOnz9PlyerVKqSkhI2mz1s2LAxY8bMnDlz2rRpjz322Nq1a8ePH29jY3Pjxg0qgP7zzz9Hjx49Z84cHx+fMWPGPPPMMzNnzvTy8mpqajp37tzUqVMfeeSRZ5999sUXX3zmmWcefPDB8ePH79ixg/lMcTichx56aOXKle+8886ECRNeeOGFJ554YsiQIbNmzTp79mxqaurzzz8/derUv/3tb2PHjh0+fPjKOwHGrQAAIABJREFUlSslEgkyaPpVgQUIQAACliTQuQBaLiq7btA9w8RJdD6ANrEDrIYABCAAAQsXQACNALqzAlTts3E/aDoaNs+Chb+jMDwIQAAC/VyAGUDTmbJCodi1a9dDDz00a9asgoICqgUHNcPeiRMnLjFuxcXFUqmUemBhYeHMmTOfeeYZgUBAEEROTs748eOtrKxu3rzZfi6pUqkCAgKGDRv23HPPffvtt6dPn7506ZJIJGptbWU+UCqV5ubmLliwYMCAAXv37i0sLCwqKiotLaVaVQgEgh07dqSlpZ0/f76goEAgEGzdunXmzJlz5sy5dOmSSqVSKpWXL18OCAgYMmTI/yqC8/Pzi9S3uro6lUp148YNNze3cePG+fn5nTx5Mi8vLycnJzIy8vnnn//b3/525swZ5kgMXjPtB9AtLS3ffvvtwIEDX3vtNYmEbNr5vxx5+fLl48aNowNomUwWHx8fFxeXmZmZp76dPn06ICBg7NixXl5et27doo74v64aa9asGTp0KIvFSkpKunDhgkAgWL9+/fPPPz98+PBXXnnFIIAeNWrUa6+9FhcXd+7cuQsXLhQUFCgUivLy8qioqOPHj587d66goCAnJ2ffvn2vvvrq888/f/78efo0ORzOyJEjH3/88TfffJPP5+fl5f3++++enp4PPvjg0qVL582bFxQUJBAILl68mJSU9Morr4wePfro0aN0Vm5AhF8hAAEIQAACEIAABCAAgV4kgAC6s/GredJViz0K3XmD7sXRU0PtRe8uDBUCEIBAPxSgAuhp06alp6cr1TeFQlFYWPjPf/5z0KBB7777LpV+CgSCJ554YtiwYf/4xz9sGLdXX331999/p9oE//TTT4MHD166dCnVzKG1tZXFYj388MM8Ho+ONU0J5+fnz58/f/DgwcOHD58wYcIrr7zyzjvvbNy4MT8/nxlD05MQnjlzhlmuS/WmaG1tpU6BqmhubGz87rvvxo4du2/fPmpjuVze5iSECoUiMTFxzJgxXl5eN2/eVCqVVKTe2NjI4XCGDBkSHBxMT7RofArtB9AKhSI+Pn7gwIEvv/yyUChsM4CmGkAbjL+iouKtt96aMWNGbm4uddC8vLxZs2ZNmjQpNTWVbs1x+/btDz74YMCAAcYB9COPPLJ7926DkVNdoWko6teff/559OjRa9eupVWpAHratGmXL1+mVqpUqvz8/GeffXbw4MHLli0Ti8XUqBQKxffff//ggw/6+Ph02K7EWA9rIAABCEAAAhCAAAQgAAFLE0AAjQC6YwE6faZC557NoC3tLYTxQAACEIAAU4AKoEeNGrVkyZJV6pubm9vMmTOHDRs2d+7czMxMKjumAuiRI0fOmzfvdf2bQCBQKpUikYjNZo8cOTIiIoJ6iEql2rp169ChQ999993bt28zD2q8rFAorl69unHjxtdee+3pp58ePXr0wIEDR4wY8cwzz3zzzTd37tyhHtJOAK1SqYRC4bFjx8LDwz///PNVq1b5+vq+/vrrw4cPDw4OpjpBmwqg79y589FHH40dO/aHH34oKiqiK7yLior2798/dOjQJUuW0L2kjQffYQB96NChgQMHWllZlZeXtxlAUwH65cuX4+Pjg4ODP/nkk1WrVvn4+MyaNWvMmDEpKSlUIJ6cnDxy5Eg2m82c2lGhUCQnJw8cONA4gLaysiopKTEYsFKprK2tPXHixPfff7969eqPP/541apVy5YtGzZs2Ntvv013guZwOA8++OCKFSvoSJogCLlcTv3LRHJyMvMfFVJTU8eMGWNra9vc3GxwOPwKAQhAAAIQgAAEIAABCPQ6AQTQHcevPVXqayHHNUifezyD7nXvMQwYAhCAQL8SoAJoKu0dpb5NmDDh5ZdfXrduHVV9TGlQkxA+/fTTeXl5d/RvVIXyn3/+OX369KeeeuqPP/6gq2sFAsHkyZNnzJhx7ty5DlVVKlVzc7NQKMzNzU1JSQkPD7e2th48ePDYsWPj4+OpuNNUAK1SqYqLi5cuXfroo49SZzFq1KiHHnpo+PDhDzzwwEcffVRfX0/lp21WQFdXV8+fP3/IkCFPPfXU3/VvVMHvv/71L7oPhvGJdBhA7927d8CAATY2NtXV1W0G0C0tLfv377exsRkzZgxz/EOHDh0xYsTBgwepEuktW7YMHjw4ICDAoNPFhQsXRowYYRxAL1y40CD6V6lU169fd3d3nzhx4ujRo+ljjRw5csCAAQsXLqSmMSQIguoB/dVXXzGDZqVSyWKxhg4dSnU1oSnOnDkzbtw4KyurpqYmeiUWIAABCEAAAhCAAAQgAIFeKoAAGgF0ewKXS8rfdFz2xZcbjdPwiK073nRcZry+u9f00ncahg0BCECgnwhQAfSTTz6ZkpIiUd+kUmljYyPd4YFyoALoGTNmXL161VhGoVBEREQMGjRozpw5+/fvT9XeDh48+Nxzz1Fl0cxCWuM9GK+haqLfeOONQYMG2draUpGrqQC6pqbG1dV1xIgRDg4Ohw4dKi8vF4vFd+7c2bNnz7hx4z744AOqX4SpCuiqqqoXX3xx+PDhNjY2i9q6BQQEUBG28TgJgmg/gJbL5aGhoQMHDmSxWFQZtXEP6Ozs7JkzZ44dO/aTTz45c+aMUCi8c+dOdXW1t7f3sGHDDhw4oFKpZDLZ119/PWTIEINQmBrA/wqljQNoBwcHg8Lt5uZmqt22nZ0dj8crKSkRiUR37tz5448/xo4d+9prr1EROR1Ah4SEGATQixYtGjp06F9//cWkyMrKGjdu3IsvvogAmsmCZQhAAAIQgAAEIAABCPRSAQTQ7cWv3Z2l9or9Xy4pt6hx9tJ3GoYNAQhAoJ8IUAH09OnTT58+3c4ptx9A19fXz5s3b8CAAcOHDx+hfxs+fPigQYMWL15Mzb/XziGM71KpVHv37h01atSUKVOoh5sKoP/4449Jkya98sorzI4TSqVyx44dDz30UIcBdE1Njb29/ZQpU1JTU5l5q/GQ2lzTfgB969att956a/Dgwf7+/lQ7ZoMAWqVSbd++feTIkR4eHnRjZYIg6urq3Nzc6AC6tbX1xx9/HDRokJ+fH7PVskqlys7OHjp0aGcC6Nra2vHjxz/zzDOXL1+mz1SlUmVlZQ0fPhwBdJvPL1ZCAAIQgAAEIAABCECgvwkggEYA3csE+ttbFOcLAQhAoHcJdEkAfebMmcGDBz/55JPr1q37X7Uv87ZmzZqpU6dSkxyaklGpVAqFgs5D6c2USmVCQsLo0aOffPJJqrS2sbHx7bffHjhwIDXzIb1lWlrasGHDHBwcmAGuWCxeuXLlAw88wAygN2/ePGzYsHXr1jFLvBsbG9esWTNy5Mivv/7auIsx1X+ZPpbxgqkAmjqvX3/9deLEiePGjUtOTqZn81u+fPm4ceNOnjxJdeTYtGnT/7qFhISE0EdXqVQXL178+9//TgfQBEGcOHHikUcesbe3r6iooLlaWlri4uLanITQuAK6vLx88ODBr776KnNmQoVCER4e/v/+3/9DAG385GINBCAAAQhAAAIQgAAE+qGARQTQxzOLLxTd6PAn+fjFmPjM45nFFlWQi8GYWaAfvktxyhCAAAR6kcD9B9AtLS0ffPDBsGHDPvnkEypHphJb6k+pVPrZZ58NHz587dq19AR3Bj5KpTIxMVEgENy6dUuhUFAtpBUKRWlp6b///e+hQ4e6ublR0W1zc/OKFSsGDhx48ODBlpYWakuCIAQCwWOPPfb3v//9zz//bG1tVSqVUql03759kydPZgbQLS0tXC536NChq1atam5uph6uUqmUSuXJkyenTZs2a9aso0ePNjQ00GNoaGgoLi4uLy+nA1+DwTNbcNCDVyqVCoWipqbm8OHDNjY2I0eO9Pb2prtbGFdA//jjjw8++ODSpUsrKyupx9bW1n755ZcjRoxgBtBlZWW2trajR4+Oioq6c+cOtWVxcbGDg0ObkxAaB9C1tbWTJk2aNm3amTNnZDKZUqmUyWQZGRnPPPPMAw88gADa+MnFGghAAAIQgAAEIAABCPRDgR4OoEvKa2LiM+/qp6S8pgsSz9vVF07wYzgRmxMLqurVJcC36y78si8iImZzxO4DmddqJOTKmuKseG5sROSObbtOCCokesetr8s/mRTB2fbN1n2Hz1eLJE31NSWHIzdvjNixLXpHRGRs7NFzJXW9rLhY7wTVAha4ph++S3HKEIAABHqRwH0G0CqVqqysbObMmePHjz927JhxSqtSqX7++ecJEya89NJLV65cMd6AIAilUmlnZ/f000+/9957ERERCQkJiYmJHA7HwcFh5MiRU6ZModuDtLS0rF+/fsiQIU5OTvv27Tt27Njp06cbGhqqq6uXLVs2bNiwf/3rX5GRkfHx8UFBQS+88MKsWbOYLThUKlVGRsaoUaP+N+CoqKijR48eO3bsr7/+UqlUEolk3bp1I0aMeP7559esWcPj8ZKSknbs2PHpp5/OnTt3y5YtzIppg+eXqoAePXr0zz//fPjw4Z9//nnPnj3ffvutq6vrxIkTR4wY4e7ufv36dfrcqQB6/PjxVAU0QRB//vnn888/P3r0aC8vLx6PFxsb6+npOXPmzBkzZgwfPpzqAU0QREtLy7Zt20aOHPnkk0+uXbs2Pj7+xx9/dHJyeu6550aNGmVjY1NZWUmVVP/555+jR482DqCbm5s/++yzoUOHvvzyy99//31CQsKmTZuoaRcfeughgwB61KhR6AFt8FzjVwhAAAIQgAAEIAABCPQHgR4OoKuq6y8U3Ug+frGTPxeKbnRNJFovvnblUuah2IiDmgC66tzRmL1ZJXVNNWXneNG7U4rF9bcrf+PtPnSxrl4iKTmdEMO/pImq1clsVd6xbdFHc25IqgpOxETyBTfUAfSP6gdKmupvVZ7ctYOXVd01o7XULLhHzq4/vC1xjhCAAAR6r8DNmzdnzJjx1FNP0SFvm+ciEAimTZv23HPPGUxCqFKpDhw48Mgjj8ydO/fatWttPvbq1avz5s176KGHEhISqLkEDTZTqVSbNm2aP3/+9OnTJ02a9Jj6NmHChGnTpr3++uuJiYnMxhTnzp1zdHR87LHHJk+e/Pjjj//zn/+8evWqUqk8f/48m81+9NFHx40b9+STT86aNSsgICAyMnLSpEk+Pj50a45bt26tXbt2+vTpEydOfPzxx6dOnRoZGUkVbldXV0dERMybN2/y5MnU/qdMmfLUU0/Z29sfPXq0nUkUi4qKHn/88UGDBk1W36aob5MnT54xY8Ybb7wRFRVF5cL0WatUqhUrVjz66KPp6enUyqamJh6PZ2NjM2bMmAkTJkyfPv2VV17hcDheXl4jRoygA2iCIGpqasLCwl544YWxY8dOnjz56aefdnBw2L59+yOPPDJnzpza2loqgM7Ozn744YcdHR0NJiH8X/ZdUlLy7rvvTpw4cezYsVOnTp0xY4aHh0dSUtKECRP+9a9/1dTUUEP64YcfRo8evWHDBjo3p/6p4I033hg+fLjBy+CPP/4YP368lZUV/UzRJ4sFCEAAAhCAAAQgAAEIQKDXCfRwAN0jCab2oJKr6fu2aQJoSUnq7pjUq2Qhs0RScnJfzC8lNbcrf9u7+8C5unpJU9X5Y1y+tlaa3EacfziWe+Iauf3t6t/2xsafqyMroLUBtOh6weGf9h0uEGuPhVLoLhPode8xDBgCEIBAvxJoampKTk4+dOjQzZs32znx2trapKSk5ORk47kECwoKeDxeeno6s60wc1dyufz06dM8Hi8/P99UjNvY2Hjt2rUzZ84kJyfv3bt3z549SUlJmZmZQqHQYLetra0VFRW//vrrvn37du3adejQoTt37lDZ6PXr16n1Bw8eFAgEt2/frqioSEhIyMrKomftU6lUYrE4MzMzMTFx9+7du3btys/PpzJWlUolk8lKS0tTU1Pj4+P37Nlz6NChM2fOVFZW0g9nnhe9LBaLDxw4sEt74/F4CQkJv/zyS05OTnV1tUwmY2a41KN+//33/fv3C4VCeidyubyoqCg5OXnPnj2HDx8uKiqSSCRnz57ds2dPeXk5vZlKpWpsbDx//nxSUhJVA15RUfH7778PGTLkzTffpCioCQz37dt38uRJ48JtpVIpFAqPHz8eHx+fkJCQkZFRW1srEokSEhJSU1OpXttUX5F9+/ZdvHiRPjQVbZ84cWLPnj0GL4Oampr9+/cfOXKkzX9gYO4ByxCAAAQgAAEIQAACEICA5QsggNbEytey+RHc9Es1TfV1107u2rY5gVxfcyWD+30Ml3/iAO9oZhmjBUd9tSAhlveHusC5XnyBvzs2o1KkbcERwYkIXv/N5oRzJTVdlroiyKYFLP9NhRFCAAIQgAAEeouAUqmkmlzTjbYbGhrCwsIGDRr02Wef0fFxbzkdjBMCEIAABCAAAQhAAAIQsEABBNDauubbdRfSj8buSjrwS8bJw/u2HbpUVVeZeSjp8Llrl7LTeT/uO5Rdqa6PVmfKpgJoqgK6XlJ1/WomP3bzrrNXbyOD7mIBC3wXYUgQgAAEIACBXipw7dq1mJiY4uLimpqaurq6GzduxMTEPPnkk5MmTfr1119NFZj30pPFsCEAAQhAAAIQgAAEIACBHhFAAK0NoOk+y/XiC4d3c9OvVV1J5/KyqARZVJYVG3P0wk06S+2gBYd6AsMTMTHH8lEETcN20UKPvE9wUAhAAAIQgECfFMjOzh49evSjjz46Z84ce3v76dOnDx06dMqUKV9//bVBu+c+efo4KQhAAAIQgAAEIAABCEDADAIIoLUB9K3qkr/qRPWSqoKM2Oik38okor+yuNF8qvNGzZX0mB/JNLmmpEBQVC2SNJGTEHJPXKprojYzmoSwOudw7GbeuWuogO6i3BktOMzw1wEOAQEIQAAC/U2gpqbmu+++8/DweOONN+bPn//6669//PHHhw8fbmho6G8UOF8IQAACEIAABCAAAQhAoJsE+mkAXXMli/djbET4N8GbtkX8mJRaLBZVXDjEjfkmPGJjREJKHjnxYH29+FIGfxsnZjNHvfJiXT3Z7nmHJlaur8tP53O5u2N+Sko5T0bS5CSEkZs3RuzYtnVbyIbNm+OOCZhto7s6h6UD2f620E3vBOwWAhCAAAQg0D8FqDbQLS0tcrm8paVFoVAYT3LYP2Vw1hCAAAQgAAEIQAACEIBAlwj00wC6v4W2fel8u+R1j51AAAIQgAAEIAABCEAAAhCAAAQgAAEIQAACZhBAAE23dcZC7xAww7sCh4AABCAAAQhAAAIQgAAEIAABCEAAAhCAAAS6RAABdO9IXftSCfN9nkuXvO6xEwhAAAIQgAAEIAABCEAAAhCAAAQgAAEIQMAMAgigEUD3MgEzvCtwCAhAAAIQgAAEIAABCEAAAhCAAAQgAAEIQKBLBBBA97L49T7Lh/vAw7vkdY+dQAACEIAABCAAAQhAAAIQgAAEIAABCEAAAmYQQACNALqXCZjhXYFDQAACEIAABCAAAQhAAAIQgAAEIAABCEAAAl0igAC6l8WvfaCE+T5PoUte99gJBCAAAQhAAAIQgAAEIAABCEAAAhCAAAQgYAYBBNAIoHuZgBneFTgEBCAAAQhAAAIQgAAEIAABCEAAAhCAAAQg0CUCCKB7Wfx6n+XDfeDhXfK6x04gAAEIQAACEIAABCAAAQhAAAIQgAAEIAABMwgggEYA3csEzPCuwCEgAAEIQAACEIAABCAAAQhYkoA0M8zDaV1GncLkoGTlfJ/FvtzLcpNbMO+QlES5u/olC5nr7mNZXpbgz7J3dfswlF8ql5Um+Dh4R+VLTe2wMiWYtTQ8U0RIcnh+nh6sBa4hGSY3NrUTrIcABCAAgV4kgAC6l8WvfaCE+T5PoRe9uzBUCEAAAhCAAAQgAAEIQAACdy0gF/L9HK0WBPKv02lyjwbQcmGiv0dASjtptbwsIdgnplCmPlVNFF5ED94QoC412MklIlusXq8QHVvnH5aFANpQCb9DAAIQ6EsCCKARQPcygb709sO5QAACEIAABCAAAQhAAAIQMBCQlfP9XHx93F39DlZQkS5B9GgA3VjC9XbtfABNVGcEuQfzqwxOS/erJCfa0zehjAqoEUDrYLAEAQhAoM8KIIDuZfHrfZYP94GH99n3Ik4MAhCAAAQgAAEIQAACEIAAIS9LCGQHpmTuDWT78TUpLSOAJuuLl/gGhYX6eXs7Lfbw2cjPE5Fq6rpj7xBOqOdiRysbR7eQlGKJWlMuzD4YHeDpOtvaznZJIDdHvTXZgoPtti4iwJ09e64j2y/62GVNDbLkchpntTdrviPbN4JfJCVEgpDFdlbW1I9r2FlyTZi7qw+3kNo9dQxmBTQhKeHH8PPUBc6Sy2ncjYFsezuruWy3jSlljeqhXk+L2i3QtBNBAK0WxB8QgAAE+rYAAmgE0L1MoG+/IXF2EIAABCAAAQhAAAIQgEC/Fmis4Pl6BBwWSkr5Pkv8eZqezroKaDJotnf0210oURCEKDfK25G1OqVSrg6gF7DYgQmZpcKyjJ0+i9iaFs+iwsSYhPR8YV11CT/Ew9aTV9xIEJKSqOUsW+8Ifo6wrroifYuv7dLwzGpCdj0taKlHwN7cymphdkIwe2nosSqCEOeGuTAqoCUliSHBYSl0dTZBkKG5rgUH4+mTl6XxuMm5ZdWiyiyezyLXoDR1/M3YgkAAzdTAMgQgAIE+KoAAupfFr32ghPk+T6GPvhNxWhCAAAQgAAEIQAACEIAABAhZEc9zaTD/OkHIKxJ9XT1jS9RdOPQDaMZkg3UZ4U6Lg49VUxXQ2kkIFUK+P9tti6YpM1kfLRGV5QsSw7xtHYLTq9UBNGMSQjLUXuQadvZWMdeX9aG2OUZjSZSnR9ApkWEA3cazZCqAVm+qkNddL8lO5fktdnTjUqfD2AUCaAYGFiEAAQj0VQEE0Aige5lAX30r4rwgAAEIQAACEIAABCAAgX4vIC/memv7Xai7XrirC5YNWnAwAmhJTgTbIZB/3TCAPhboyubkkl0y5MJ0ji9rAZvt7u/j7Tp7EZlWkxXQjACaEGUELXENOnktM4Std3Rrx4DDwvsJoCX5/ICljrZLvD19/d0WsdwidZm45rlGAN3vX/QAgAAE+oMAAuheFr/eZ/lwH3h4f3hb4hwhAAEIQAACEIAABCAAgf4oICmM8nQlM1/1TVbK91nsHZUvZU5CqO71rK10JuRlB/1ZS8IzRSYD6MrkYCfP6Gyq83NOBFtdLm0QQMsu8zwXeUfl3yqO8dZVQNNPANmCg02Pil7NWDBRAS0u5Li7BiSrm3XIhYl+bATQDDQsQgACEOhHAgigEUD3MoF+9O7EqUIAAhCAAAQgAAEIQAAC/UlAcj7abYm6/wZ11mQXDrKThoSqgA5Kq1NQvZ4d3TgZZN/n0pSgJY6e6vkA9YJphVBbAS0v3u3LWh6RWS2XXRfwAl1n22sroJezWL48MpgWl/D82Cx/csJDsgGIvWvA7tw6OUHIRcX5FWSn6cYSrqej2xZ1PTVBVk/zvw2PShOqe4NoBtp2D2iysJrtd7BCJpcWH47wtGexUQHdn17POFcIQAACtAAC6F4Wv/aBEub7PAX6tYsFCEAAAhCAAAQgAAEIQAACfUhAms3xdlqdUqmgz0lettef5RKdLSbqTkWw57OD0kRUv2a/oED2fLvZ/5+9ew9rK83vA/5X2jTdZrdpsu1ud7NJukl3Z7bdJU6mHvcZM6mXTDL2NF6m7djOjh9v43gSGvepa7c0TjxFSCAkQOYOBszN5mZsZGzA3G3AXMzFmLu434QASYCQ0OXock778oK4MzYCzJG+euYZy+jc3s/Rwed89dPvfOx3Pb1ByZDptwmgl0Lqz3xIY42P/AQxERc+WwmgL56/JJBc+tjb64Mzl8Ty9uW7AzLKOrnsmp/PMW+v985ckpUPG8nCNS9zrp728TpCNoCbrhacPnk2pov091h+bFMBbdfWxlzxec/b64iP77W4WP/zF+LRgmPFDH9CAAIQ8CQBBNAIoHkm4EmHJ8YKAQhAAAIQgAAEIAABCEBgncC6oHndK2/xL9sE0K+zRegB/TpKmAYCEIAAzwUQQPMsfnWxfNgNZuf5EYfNhwAEIAABCEAAAhCAAAQgsHuBQxlAc8qquKvXI2Tx8qbppXrs1xufZaA6IyZC4C/MIH2u8YAABCAAAbcVQACNAJpnAm57LGJgEIAABCAAAQhAAAIQgAAEvkrgcAbQX7XVeB0CEIAABDxaAAE0z+JXNyhhdnEIHn28YvAQgAAEIAABCEAAAhCAAAQgAAEIQAACEOCVAAJoBNA8E+DV8YWNhQAEIAABCEAAAhCAAAQgAAEIQAACEICARwsggOZZ/Opi+bAbzO7RxysGDwEIQAACEIAABCAAAQhAAAIQgAAEIAABXgkggEYAzTMBXh1f2FgIQAACEIAABCAAAQhAAAIQgAAEIAABCHi0AAJonsWvblDC7OIQPPp4xeAhAAEIQAACEIAABCAAAQhAAAIQgAAEIMArAQTQCKB5JsCr4wsbCwEIQAACEIAABCAAAQhAAAIQgAAEIAABjxZAAM2z+NXF8mE3mN2jj1cMHgIQgAAEIAABCEAAAhCAAAQgAAEIQAACvBJAAI0AmmcCvDq+sLEQgAAEIAABCEAAAhCAAAQgAAEIQAACEPBoAQTQPItf3aCE2cUhePTxisFDAAIQgAAEIAABCEAAAhCAAAQgAAEIQIBXAgigEUDzTIBXxxc2FgIQgAAEIAABCEAAAhCAAAQgAAEIQAACHi2AAJpn8auL5cNuMLtHH68YPAQgAAEIQAACEIAABCAAAQhAAAIQgAAEeCWAABoBNM8EeHV8YWMhAAEIQAACEIAABCAAAQhAAAIQgAAEIODRAgigeRa/ukEJs4tD8OjjFYOHAAQgAAEIQAACEIAABCB+R+XWAAAgAElEQVQAAQhAAAIQgACvBBBAI4DmmQCvji9sLAQgAAEIQAACEIAABCAAAQhAAAIQgAAEPFoAATTP4lcXy4fdYHaPPl4xeAhAAAIQgAAEIAABCEAAAhCAAAQgAAEI8EoAATQCaJ4J8Or4wsZCAAIQgAAEIAABCEAAAhCAAAQgAAEIQMCjBRBA8yx+dYMSZheH4NHHKwYPAQhAAAIQgAAEIAABCEAAAhCAAAQgAAFeCSCARgDNMwFeHV/YWAhAAAIQgAAEIAABCEAAAhCAAAQgAAEIeLQAAmiexa8ulg+7wewefbxi8BCAAAQgAAEIQAACEIAABCAAAQhAAAIQ4JUAAmgE0DwT4NXxhY2FAAQgAAEIQAACEIAABCAAAQhAAAIQgIBHCyCA5ln86gYlzC4OwaOPVwweAhCAAAQgAAEIQAACEIAABCAAAQhAAAK8EkAAjQCaZwK8Or6wsRCAAAQgAAEIQAACEIAABCAAAQhAAAIQ8GgBBNA8i19dLB92g9k9+njF4CEAAQhAAAIQgAAEIAABCEAAAhCAAAQgwCsBBNAIoHkmwKvjCxsLAQhAAAIQgAAEIAABCEAAAhCAAAQgAAGPFkAAzbP41Q1KmF0cgkcfrxg8BCAAAQhAAAIQgAAEIAABCEAAAhCAAAR4JYAAGgE0zwR4dXxhYyEAAQhAAAIQgAAEIAABCLyJgLY140u/Ux96ex3xOX7a73pKg4bhOEaVe+X81SLVGyxouvr6uSsZA8zGWbZc/nYTr5lZ3xhx9kJyu37Nj1x5ajcM1xWJ/XyPfiKp1bqyIMwLAQhAAAI8EEAAzbP41cXyYTeYnQdHFTYRAhCAAAQgAAEIQAACEIDAbgQMTdLzxz+LKO7W6udV7SU5sqRqJcNxxv6ki2feLIAeL7p8enMAvc3yt5543QA0VULfz/cugDaOVt5NFl87jwB6nTL+AgEIQMBNBRBAI4DmmYCbHokYFgQgAAEIQAACEIAABCDg8QJ2bbH/mVOCBo19DYW2QfCJt9cR+t8ZcaNBryhPEvn7nvD2OuZ7VlQ0bCQTa0qEvn7JGWI/n2Mn/yI0/GfL03t7nbhRPL2ytK2Wr+9I9l03sWG4Kkd87aLPMW+vE+ev5vTrOWb4rt/RlWmOfiFXMpxeUS67dtHng5O+fhHybgNZgbZB/PmZS0ld64ukmeGS5KvnfI9+4Hv2muTqZ2eulqwWPGuqhKdOowJ6Ze/gTwhAAALuK4AAmmfxqxuUMLs4BPc9GDEyCEAAAhCAAAQgAAEIQMDTBTTVEb4nzlxNqu6dXNM9Y75V/JmzApoZLs9Iym8dntYq6zIufXTmejmJdDUlN46/d/KCrHp4nhhaujMufLy5AprbcvnrJma0tenJudX9Gq2qPeeGz0f+8hHSBGQ4z99npQLaMl5+/dPzV++2KqdVTTk3fD8VFk9ynL4/V3BDXDRqWbMPl1Z3XlDUr9GO1qbfOPWBLwLoNTx4CgEIQMBTBBBAI4DmmYCnHJoYJwQgAAEIQAACEIAABCDgkQL6kYakL/18PvA59UWE/OVSvfC6AHoJxc5oxvubSjIuf3LybFK/ZSmA9jktqVwpL16XKa9n3Lz8LSZmDEpFV2W60PdDUnO9PoBmepP8fL7IGaYJubE/9sL561UrK167LrtKfsX3lKB6uaB7vkH8KSqg1wLhOQQgAAFPEUAAzbP41cXyYTeY3VMOTYwTAhCAAAQgAAEIQAACEPBkgfl+ueDi8RN+Gd0Mtz6A1nfIr3568vjpixf8rpz9yOdsTBcNoE+di2taKn/eoQJ6VXTN8tcH0IbhAsnZEydPfeZ3yc/P54Mzgrr1AbTdUCvwXWkJQhuDnLxasNUNEo39SZ/7Xkgh+Th5IIBe1cczCEAAAp4lgAAaATTPBDzrAMVoIQABCEAAAhCAAAQgAAGPFSCJre/lAtVSAO27HPLOd8k+P3M1f6nTBaPKvey7ywB6OREmy18bQFsUOZdOX8mgbZ2nq6+fXhNAn6M3IWR64y+uVkDvsHeWNu+UqEFPW1ojgN7BCi9BAAIQcGsBBNA8i1/doITZxSG49fGIwUEAAhCAAAQgAAEIQAACHiww3xp77YYsv0tp5CyTXXKZ3/ETfkndBs7Yn3Th5NnIVnJ/P2319dO+l/NGLYyhtyDiwgkf3y0roMeLLn98RrChM8Y2y7esmVjfHOf7kV/SS4NFP1oZ4+9zjAbQHLlh4Mf+8nHSd4ME1ifOXE1v1ZDu0NrejlESMev75VJJbLlqTQ9oRpl/w+fD84KCfo1e21sScfZD9ID24Lc3hg4BCHiwAAJoBNA8E/DgoxVDhwAEIAABCEAAAhCAAATcW4DRNOZc/ezkcoOLj6/IqpbzXM3LnKunfbyO+F4vHaiNueLznrfXER/fa3Gx/ucvxG/RgoPjDL15Qt8Pvb0+pHcRpG7bLX/NxF1tGdfOHD3i7fXemcvS5OufnxeTFhwcZxwtFvsdP+J99EJGr5FR1sll1/x8jpHJLsnKh40cN10tOH3ybEwXScmdD7u2Kf0G2YwjvpekyddXekAr8/3JKpz/nUvuXTebc348gQAEIAABdxBAAM2z+NXF8mE3mN0dDjuMAQIQgAAEIAABCEAAAhCAgKcJ0E7WJVvdrtDTKDBeCEAAAh4mgAAaATTPBDzsCMVwIQABCEAAAhCAAAQgAAEIuIXAph7QbjEqDAICEIAABL5aAAE0z+JXNyhhdnEIX/2mxhQQgAAEIAABCEAAAhCAAAQgcNgEEEAftj2C7YEABCBwUAIIoBFA80zgoA4NrAcCEIAABCAAAQhAAAIQgAAEIAABCEAAAhBwVQABNM/iVxfLh91gdlff8pgfAhCAAAQgAAEIQAACEIAABCAAAQhAAAIQOCgBBNAIoHkmcFCHBtYDAQhAAAIQgAAEIAABCEAAAhCAAAQgAAEIuCqAAJpn8asblDC7OARX3/KYHwIQgAAEIAABCEAAAhCAAAQgAAEIQAACEDgoAQTQCKB5JnBQhwbWAwEIQAACEIAABCAAAQhAAAIQgAAEIAABCLgqgACaZ/Gri+XDbjC7q295zA8BCEAAAhCAAAQgAAEIQAACEIAABCAAAQgclAACaATQPBM4qEMD64EABCAAAQhAAAIQgAAEIAABCEAAAhCAAARcFUAAzbP41Q1KmF0cgqtvecwPAQhAAAIQgAAEIAABCEAAAhCAAAQgAAEIHJQAAmgE0DwTOKhDA+uBAAQgAAEIQAACEIAABCAAAQhAAAIQgAAEXBVAAM2z+NXF8mE3mN3VtzzmhwAEIAABCGwvwLrLY/sh4hUIQAACEIAABCAAAQhAAAIHKoAAGgE0zwQO9PjAyiAAAQhAgD8C20XHDofDbrdbrVaLxWIymYxGo8FgWFhYmJ+fn52d1Wq1arV6enpapVIplcqxsbHR0dGhoaGBgYG+vr7e3t7u7u7Ozs729va2trbW1tbm5ubGxsaGhoa6urra2trq6uqnT59WVlaWlZWVlpY+efKksLDw8ePHj9Y8Hm96FK5/FK1/FK95PHnypLS0tKKioqqq6tmzZ7W1tfX19Y2NjU1NTS0tLW1tbe3t7Z2dnT09PQqFYmBgYGhoaHR0dHx8XKlUqlSqqamp6enpmZkZtVqt1Wrn5uZ0Op1erzcYDCaTyWw2Mwxjs9kcDsd2evzZ/9hSCEAAAhCAAAQgAAEIQOCQCiCA5ln86gYlzC4O4ZAeSdgsCEAAAhA4EIG1OandbrdYLHq9XqPRTE1NjY+PDw8P9/X1dXV1vXr1qqWlpaGhoba2tqqqqry8/MmTJ48fP5bL5ffv38/Jybl7925aWtrt27cTExPj4uKioqJkMlnY0iN06SFdekiWHiErD/HSI3jpEbTyEC09hEuPwJWHYKvHyotv8CddrFAopGsJCgqiaw8ODhaLxXS76EbSDaYbTwcSHh5+8+bNyMjImJiYuLi4xMTElJSU9PT0zMzM3Nzc/Pz8R48eFRcXl5WVVVVV1dTUNDQ0tLS0tLe39/T09Pf3j4yMKJXKmZmZubk5g8FgsVjsdvta/wPZ4VgJBCAAAQhAAAIQgAAEIMB7AQTQCKB5JsD7Yw4DgAAEIACBFYG1aabdbmcYxmw2Ly4u6vV6Wp5Mk+WxsTGFQvHq1auGhoaqqqri4uL8/PzMzMyUlJSkpKT4+PiYmJioqKiIiAgaIkul0pCQkODgYJFIFBgYSKPgADy2EaA+gYGBIpEoODhYIpGEhoaGhYXR8Do6Ojo2NjYhISExMTE5OTk9PT03N/fRo0dlZWW1tbUtLS3d3d1DQ0OTk5MzMzOzs7Pz8/N6vX5xcZGWVyOzXnmz408IQAACEIAABCAAAQh4rgACaJ7Fry6WD7vB7J57sGLkEIAABPgj4EyWHSsP+9LDZrMtLi6q1erR0dGenp62trb6+vqnT5+WlJQ8fvw4Pz8/Nzf37t27KSkpt27diomJuXnzZmhoqEQiCQkJEYvFNFMWCoU0Vt4mUH2tH28oUN6hJtlZg7z5SVBQkFgslkqla+PauLi4hG0e8WsecWsesSuPmE0PGqyHh4fTVD0oKGjzZlCQHYawYbACgeC1jLaaSCAQBAYG0opsWo4dEhIikUikUqlMJouJibl161ZKSsqdO3dokfXjx49LS0ufPXvW2Nj46tUrhUIxOjo6PT2t0+loSbXdbl95j6y2AeHPOx1bCgEIQAACEIAABCAAAQh8tQACaATQPBP46jc1poAABCAAgX0W2DJfZhjGZDIZDAadTjc3N6dWq8fGxrq6uurq6p48eZKTk3Pr1q2wsLDg4OCgoCCRSOTMkXeRh25IVDdkr7SSl3aokEqltJ5XJpNFRERERkZGRUXFxMTExsYmJiamp6fn5OTI5fLi4uLKysra2trGxsbm5uaXL192dHR0d3f39fUNDg6OjIxMTEyoVCpa5KvT6RYXF00mk2Xpwaw8rPvzWFk8Q1dnMpn0ej0VVqlUExMTIyMjAwMDvb29HR0dL1++bGpqqq+vr6mpefr0Ke098ujRowcPHmRlZaWmpiYkJMTGxkZHR0dGRtKa8fDw8LCwMGfZON07G0g3gG8VTe/0Mxpbb06uo6Ki0tLS5HL506dPX758OTQ0NDU1NTs7SxtVm0wmZ4tqGlI733j7/AbH4iEAAQhAAAIQgAAEIACBvRRAAM2z+NUNSphdHMJevv2xLAhAAAIQeA0Bh8NhtVppc4yFhQWtVjs5OTk4ONjZ2dnU1FRTU1NaWlpQUJCbm5uRkZGYmBgdHR0WFiYSiXaRLDtTTNoRgpYY06YQzo7GcXFxt2/fpjW2Dx8+LC4urqioePbsWV1d3YsXL1pbW9vb27u6uhQKhTM7npqaUqvVc3Nzer3eaDQyDLP2tnuvYcD7SZzRLcuyNpvNbDYbDIb5+Xna5GRiYmJ0dHRwcFChUHR2dr569aq5ubmhoaGmpqaqqqq0tLSwsPDhw4d5eXlZWVnp6el0L9P8OjQ01Ble054nzp24iydCoVAikURGRiYkJNB2HwUFBaWlpTU1Nc3NzV1dXYODgyqVanZ2dmFhgd5K0WKx2Gw2lmV5v5MwAAhAAAIQgAAEIAABCLipAAJoBNA8E3DTIxHDggAEIPA2Bdamk3a73Ww2LywsqNXq8fHxgYGBV69eVVdXP378+M6dO7GxsRKJZHMV82tGjRsKaYOCgiQSSXh4eFRUlPMueXfu3MnOzpbL5aWlpdXV1U1NTR0dHQMDAxMTE7Ozs7QqlpYa22w22tkD5bF7/u5xviWorbODis1ms1qtDMPQ2z9OT08PDw93d3c3NzfX1taWlZU9fPgwNzf3zp07qamp9AaPkZGR4eHhISEhQqFwwxvgNT+i2LLvR2xsbFpa2oMHD8rKyhobG3t6ekZGRqampubm5oxGI42knaPYcx8sEAIQgAAEIAABCEAAAhB4fQEE0DyLX10sH3aD2V//zY0pIQABCEBgrYAzjNtQADs5OUlT5vr6+oqKioKCgpycnLS0tPj4+Js3bwYHB79mShgQEEDjxcDAQJos087I0dHRcXFxycnJmZmZDx48KCoqqqysrK+vb21t7erq6uvrGxkZUSqV09PTtELZYrE4y5PXbj+eH34B+h5zOBw0np6dnZ2enh4fHx8aGlIoFB0dHS0tLbTrt7NqPi0tjfb7joiIoK2ug4ODnVH1a36wERAQEBgYKJVKY2Ji6DstPz+/pKSkpqamtbVVoVBMTEw4S+DNZvPaePrwq2ILIQABCEAAAhCAAAQgwHcBBNAIoHkmwPdDDtsPAQhA4CAFaCBoNpvVavXIyEhXV1dTU1NVVVVhYeG9e/dSU1NjY2Np6icWi+kN7t4obhYKhVKpNCoqKjExMSMjIy8vr7CwsKKioq6urrW1tbu7e2hoSKVSzc/PLy4uGo1Gs9ns7OqLngkH+U44JOtiWdbhcNAyaovFYjKZFhcXabn96OioQqGg96WsqqoqKip68ODB3bt3ExMTo6KiJBLJm955knZxCQ4OlkgkYWFh0dHRKSkpOTk5jx8/rqqqevHiRVdX18jIiFqtXlxcxGceh+Qdgs2AAAQgAAEIQAACEHBLAQTQPItf3aCE2cUhuOVxiEFBAAIQcEWApsx2u91kMtEezSqVSqFQNDY2lpaW0qA5ISEhIiJCKpXS2tLXKSwVCARCoVAsFoeFhUVERMTExCQlJWVlZT1+/LiysrKxsZF2xhgbG1OpVBqNRqfTbWh94MqgMK9nCqyt06fvZ41Go1KpxsbG+vv729vbGxoaKioqHj16lJ2dffv27bi4uKioKJlMJpFIgoKCXvPjE/relkgkERER8fHxKSkpmZmZBQUFT58+bWtro6k0/dTEarXSTfLM3YFRQwACEIAABCAAAQhAYE8EEEAjgOaZwJ6877EQCEAAAnwUcGZzzsRZp9ONjo62t7fX1NQUFxffv38/PT09Pj5eJpNJpVKxWPyVdwJc25NXKBSGh4cnJiZmZmY+evSoqqqqsbGxvb29v79/YmJCo9HQO/ihipmPbx432GZn9TTDMGaz2Wg00vsoTk1N0T7ULS0tNTU1T548uXfvXkpKSmRkJI2k177Jt/vohUbSQUFBISEhoaGhUVFRycnJ2dnZjx49qqysbGlp6e/vV6vVDMNsOAzdABZDgAAEIAABCEAAAhCAwH4LIIDmWfzqYvmwG8y+34cElg8BCEDgMAg4Qy6Hw2G1Ws1ms8Fg0Ol0SqXy1atX5eXlWVlZ0dHR4eHh9JaAgYGBOyRrztbMtKKZdiS4efNmfHx8dnZ2SUlJU1PT4OCgVqtdWFhYXFy0WCxWq9XhcBwGCmwDBF5fgGVZu91Om3vo9fq5ubmxsbG2traKiop79+4lJCTcvHkzLCxMKpUGBweLRCLa1oMeIDscQSKRiAbTkZGR6enpxcXFTU1No6Ojc3NzBoPBZDLR4wV9PF5/T2FKCEAAAhCAAAQgAAGPEkAAjQCaZwIedXxisBCAgEcJOLNmvV6vUql6enrq6+tpOWdaWlpsbCxtoCEUCnduhkvvARgSEiKVSiMjI1NSUvLy8kpLS+vr62k5s1Kp1Gq1RqPRarXa7XbH0gMdmT3qzeY5g6V10w6Hw26322w2k8k0OzurVCoHBgZoQ4/y8nK5XH737t34+HjnJzo7fHVAIBAELj2EQmFISEhUVFRKSkpubm5hYWFNTc2rV6+Gh4e1Wi39IIfe7dBztDFSCEAAAhCAAAQgAAEIbCmAAJpn8asblDC7OIQt38f4IQQgAAF+CTgLnK1Wq8Fg0Gg0ExMTnZ2d5eXld+7cCQsLc6bMO/S0dTYWEAqFa7vZPnjwoKampre3V6vV2mw2Z76MiJlfbxJs7QEI0CORHiN2u91oNE5MTLS2tpaUlNy9e/fWrVvR0dFhYWFrW3nsUCjtzKZFIlF0dPT9+/fr6+sHBwenpqbm5+fNZjNKpA9gn2IVEIAABCAAAQhAAAKHUAABNAJongkcwqMIm7RnAizLzc5yfX3c4uLGZbIs5/xv42ub/s6ynMOx7j8674YJnQvc8tUNE+OvEHBBgNZgMgxjMBjm5uYmJyf7+vqamprKy8sfPHiQnp4eExMjFot3zpoDAwODg4NDQ0Nv3rwZExNDiy6Li4tramra2tr6+vomJyd1Oh29Z5oLG4tZIQABjh6zi4uLMzMzw8PDnZ2dDQ0NZWVl9ICNi4uLiIgICwsTi8U7fx0hICAgMDCQtlbPzs4uLCysra3t6OgYGxvTaDQLCwsmk8lut9McHO4QeGsCJhM5+5qd3bgBb3SmRCdeewK25fnVGy1z4wbh7xCAAAQgAAEI8FUAATTP4lcXy4fdYHa+HmrY7tcRsNm4tDTOy4traFg3ucnEPX/O3bnDZWRw9fWc0bju1Q1/sVq50lIuIWHdf6mp3OTkuglZluvv5/LyuJQUrqSEXHSx7LoJ8BcIuCbgDLCmpqZo3FxWVnbv3r1bt26Fh4eHhIQEBQXt0Lg5ICBAIBAEBQXRHhq5ublFRUXPnz/v6OignWeNRqPZbEanZtf2EuaGwOsKsCxrs9lod+n5+fmJiYnu7u76+vqSkpK8vLzU1NTo6OiQkJAdPkaiB7VIJBKLxVKpNCYm5u7du4WFhc+fP+/q6hofH9fpdGjZ8br7A9PtrcDLl9x775EzorXnQnY7193NZWdzqankzEqrXffqhg1gWa6zk0tMXHf2desW9/IlKQhwPliWm57mioq427e5+/e5kZGdlumcC088UcDQmye5cM5PUKLi9F2x53wv3R21vJGD3VArOuNzrVxpGpV/6XfWL6J4gHmjBWBiCEAAAhDYWwEE0AigeSawtwcAlna4BGw2Lj6e++53uerq1Q2bm+P+7//lfvQj7gc/4H74QxJPBwZyGs3qBBueLS5yn37K/cqvcN//Ppn+hz/k3nmHe/997sWL1QlNJu7ePe6P/mj51Xff5X7+c66tbd010urUeAaBrxZgWdZqter1eo1GMzo6+vLly8rKyvv376enp8fFxYWGhu5cJikQCIKDg8PCwqKiom7dunXv3r2ysrKmpiaFQjExMTE7O2symfDl/a/eDZgCAgco4GykYzab6TcbBgcHX716VVNT8/jx4zt37sTGxt68eVMikQiFwh2CaYFAIBaLnb2kS0pKGhsb+/r6VCrV3Nyc0WikJdIHODKsyvMEXrzgfud3uJiY1TjYbudycrhjx8jZ1zvvcO++y128SKqk16bJa51Ylsz+K7/C/dZvLZ99/fCHZK7ERM5mW57QbicVBp9+Shb4zjtksp/+lHvyhGMQC66lXHnOqOSXT3p96C8f30+f6err565kbE5mta0ZX/qd+tDb64jP8dN+11MaNAzHbTfxyiZzHKdvjDh7Ibldv+ZHu3s63yq7eCWpY2nsxv7YC2cu56m2D6AZZVXG1Qu+R9/z8flcKFcYltZpqBWfP/VltcbOcZyhSeZ3Ial/+yXsbisxFwQgAAEIvIEAAmiexa9uUMLs4hDe4N2NSQ+twNpvX67dSBpAf+c7qwE0y5Ka6H/5L8llT2Ul9+wZ98UX3Le+xd28yVmta2ddfb64yPn6kqua4mKuvZ3r6CD/dXdzBnoyypGLq/p6EmT/u39HKqAbGzmJhPv1X+d+8QtS3YMHBF5DwBk8Wa1WtVqtUCjq6uqKi4uzsrISEhLofcxo09jN7WLXNm6WyWQpKSn5+flVVVXNzc0KhUKpVOp0OqPRaLFYkDq9xq7AJBA4XALOW4nS3u4jIyPt7e3090NmZmZsbOzO7aQFAgEtkQ4NDY2MjLx9+3ZeXl55eXlLS8vIyMjCwoLzgyi0dD9cO54XW7Pd2RfHkQ/pNwTQLS3cT37CffghqVaur+dCQsgEFy9yavXWY2VZLjqa+7Vf49LTl0+96AnYzMxqqD0xwf2n/8R973tcZCRZY24uSajff5+UTuOxScAyIr/8md+lz89cznvDyt9Ni9rpB+NFl09vDqANTdLzxz+LKO7W6udV7SU5sqRqJcNxW0+8bvGaKqHv53sSQDeIL/rn0mScUeVeuyio2vYsXf8y57oop3ZAqxloSLp25vjFjF7ybUmmN+XKhciupTCc6U26ciGmCwH0ur2Fv0AAAhA4WAEE0AigeSZwsAcI1rYPAiYT+fblyAg3PMwplaTds/P7npsDaKOR+/GPuT/8w+UWGSzL9fSQ4PjHP+bGx7feOFoB/fu/zw0NkSU7F+6c2uHgrl/nvvEN8t1Pq5VMMDfH/fVfkyurkpItpnfOiCceLEATZ5vNZjKZFhYWJiYmmpubCwoKkpOTIyMjpVKpUCjcnDXTn9D7konF4tDQ0IiIiJSUlMLCwhcvXgwPD9MmsBaLxbFdTZkHm2PoEHAbAdq+Y3FxcW5uTqVSdXZ2VlZWZmVlxcTE0IY8IpFo5xLpoKCg8PDwmJiYO3fuVFRUdHd3q9Vqg8FAf3sgjHabt8o+DsRqJZ+yj42Rs6PxcW5+nrOTutDlx4YA2mrl/ut/5f7Fv+BqapbPi2ZnyU++8Q2uomLrMyUaQP/Gb3C1tWSCzWdfLMs9eEBKCvz9l2/1YbORph+/+qtcaOgW069smqf+yQzn+Pv6F9Xe9fe9LB921kDbte15EZfP+R5976Tv5bjKSYbjGGVjjsDv/PH3fI6fu5HUSFJavaJcdu2izwcnff0i5N2kAsMyIr902u+6WHj54sVTn5y/JJK3azl9R7LvEW8v+t+JG8XTK9h2bbH/mVOChqXa4eUfbp5YryhPEvn7nvD2OuZ7VlQ0bGSG7/odXVng0S/kJLPWdsml/r4nfI5/5i8rWUrSGW1tivDCJz5ex5aGMM5w2gbx52cuJdGkeGUb9F2xX/hnKJZGbje05yTLaRg93ZorunLqQ5/jp69c//LKqQvJveurrfUdyWc/8ZcvNd7T1GUkldO6aaY9/sqlFFRAr/DiTwhAAByR394AACAASURBVAJvQwABNM/iVxfLh91g9rdxmGCdeycwM0Oi3vff5/7VvyJf0vw3/4b7y78klTI0fdscQFdXk9rk//2/V7/yaTaTIuhvfpOrqtr6coUG0D/+MSmo0evJRQ7DrJtSq+X+5E+4o0dJAk4vkFiWFPh8+9ucULi6or0bNJbERwGWZe12u9VqXVxcVCqV7e3tT58+lcvlaWlpUVFRO3RwFggEQqEwKCgoNDQ0MTExLy+voqKCNtOg1c0Wi8VqtaK6mY/vCmwzBPZEwOFw2Gw2hmHoTQ6Hhoba2tqePXsml8tTU1NlMllwcLBIJNqybw/9DUPvR3rr1q3s7Ozi4uLGxsaBgYHZ2VmLxWKz2fCB1p7sJrdayMIC+bLXT39K+ml873vk/3/2Z+TMx5lBbwigBwfJF8WOH+dmZpYdbDZS2vzLv8wFB6+21FhrRAPoX/91klDr9eRrZxbLurMvk4n7278lH/aXlq6efSmVZHv+43/ceplrl+9pz42jGX7nrxao9APyS6evrOSw2lrx+aMf38hoVukZRtndrzQyyiLhqQ/PC/K7NEZGP9LVO81Yxsuvf3r+6t1W5bSqKeeG76fC4smlAPrEycvpXXo7x2lbYy+e9LlWpGQ4S3fGhY83V0BzmuoI3xNnriZV95KMe/mxfmJmuDwjKb91eFqrrMu49NGZ6+VajmOG8/x9nBXQxtHcK2fOioraJ7XD1RmXT18U12mXFuIXW6ey2BllR9ewnuP0/bmCG+Ki9YXexv6ky1eSulfXTjaCsPj6XM5oGtcqu8tlF08ePbcxgNaUS3y36AHCtMdcuZyzfhUr48KfEIAABCBwMAIIoBFA80zgYA4MrGW/BAYHybcvk5K41lZSI/N3f8f95m+SqyB6hbM5gI6J4b7+9Y13xQkNJTU4d++uu7BxbjENoL/+de63f5tM9u67pIX04ODqVVZ7O/lW6fnzpPDZ+Xj1ikz5i1+QqyY8PE+AFjg7HA6GYRYWFtRq9cDAQFVVVUpKSnBwsLNpxuYaZ/pSYGBgcHBweHh4bGxsVlbW8+fPx8bGLBaLs1MH6hM97z2FEUPgDQTW/q5wOBxzc3OdnZ2lpaX0E6+wsDBn447tfgvRb1pERkbK5fK2trapqan5+XmTyUTvaohfQW+wM9xyUrWafHgvEJBTr+ZmLjaW3FrjJz8hJ2P0sTaAZlnSCe3b3+bOnuXM5uUJWJZ88P/P/znpwrFly2baA/prX+N+7/dII47vfY+7dIlraVmNoTUa7vRp8p22wcFVY52O++M/5v7gDzbeKXp1Cg99RlLaT2/IxzmOGc31O3OBlu5Oll/9yPdqgWoVhRnN+OLkKQFtc0x/zPQm+fl8kbNcNE26J5+/XqUlFdCf+CXRgmKO01RLTn1CSp7XZ8qrCyZl1CMNSV/6+Xzgc+qLCPlLUli9xcR2RjPe31SScfmTk2dJh+V1AbS+McL3kxvFy3cBN9SKL56VtWpH5JdPXxSUjJIofIfHdLXgwkoLjpXJ9M1xvh/5LcfxHDOcc8Xn8/UB9Hxr7MXzV/M3B81L7ThkrV+x0pUV4U8IQAACENgPAQTQPItf3aCE2cUh7MdhgGUenIDVSi5FHA5S6mKxkPLk8HBS41xVRQLizQG0QEAC6Ly8dVnz7dvcP/2n5HaFm7/gyXGcycRdu8adOUO+43n9Osm7v/UtUnPd1LQ8/fPn5Oro8mXOSPrDLT8GBshFka/varHPyiv4010F6JfijUbj/Pz8+Ph4W1tbRUVFXl5eYmIivWfg5qAnICCAlh9KJBKZTBYfH5+ZmVlcXFxfX9/T0zM5OWk0GhH0uOsbBuOCwAEL0O9hLCwsjI6Otre3P3v27OHDh6mpqVFRUWFhYfSzse1+TQUFBdF+HY8fP37+/HlXV9fk5KROpzObzfj6xQHvx0OxOrudRMl2O/nPYiHnP6Wl5FxIIiF/3dADmmXJjQG/8Q2SIDvvt8Gy5J4Zv/3b3GefrTt9cg6PZbnMTBIx/8//yf3933N/8Rfcv/7X5Ltu6enLq5icJCXVa6uqyZ3hDOSE7Uc/4rq6nEvCE9K8OOnicmcM2tHic9LU2DIgv/TxxdiXKzc1ISFxV+znvpfurslb7YZage+6eY+cvFqg2hBA65sjfD/2l49vlSlv2AHz/XLBxeMn/DK6mQ0BtL5DfvXTk8dPX7zgd+XsRz5nSYfldQG0suDG8ZWOHHSTfJbaeug75Ncvnjl+4vzVpGrlmpPx1TXPt8ZeOHnKn9Ror31oSoQ+p4WVy72gNwXQxlH59fNnxWvj+NW5LQPyyx/7XkpZ3+hj9XU8gwAEIACBfRdAAI0AmmcC+35MYAX7LaDXc0+fkqLmiAguLIx05PjH/5gU4zDMFgH03/89uQR68GBd1pyezv2zf0buYLNlAM2ypLPh4iK5arJaSZlzRMTydRRt9PHsGWkAcuUKiaqdj6Eh0pTjz/6Mm5py/gxP3FKAZVmTyTQzM9PX11dfXy+Xy+Pi4iQSyXb3DKT5TmBgYGhoaEJCQmZmZlFRUUtLy/j4OG3ASgsM3dIKg4IABA6PgPP2hrOzs319fbW1tffv36d59A5hdEBAgFAoDA4OlkqlycnJhYWFLS0tQ0NDWq0Wv7sOz849iC2xWrmXL7nsbC4qinz2/+WX5Ctov/gFucfG5gC6sJC0ZvbzWxdANzVx3/8++VzfeVfnDdttMHALC+R0zmolp2GPH5PA+r33yG0/WJbc9uPYMXJXQ7pGOu/iIvf559w773CvXm1YmEf/Vd8Ve+GMs9KZ5M6fXIztMHDT1dc/2VABrcq97HtKtLZZM9Mbf3G1AnrFcX0AzQznXfE5LanVvkYAzXHcfIP4U9/LBap1AfR8l+zzM8u1xgzZjNUA+tzyTQjXV0CvbIrzz+kG8Tnf5eJu5w9Xnlgmt6yAjiAV0LQZ9IYKaOOoXHD+1JWcDS2hV5a3VAEtXQu18gr+hAAEIACBgxJAAM2z+NXF8mE3mP2gDg2sZx8EWJYbHSVfAn33XVIX82//Lfn65/e/z/3SL3FiMSmQ2VwBLRaTCujs7HVZc0ICqYBOSlr3w+22l2XJ5dD775OOh7TMp6GBPP/rv153BaVQcEeOkLoe7ba32N5uDfj5YRZw3vtLq9WOjIy0tLSUlJRkZWXFx8dLJJIt7/olEAhEIpFUKo2MjExMTLx//35lZeXLly8HBwdnZmZMJhP9svxhHjW2DQIQcHsBWh+t0+kmJia6u7vr6uoeP358584demNDsVgcGBi4ZX10YGBgWFhYcnJyXl5eVVVVR0eHUqmk/TrQPNpt3zZaLRcSQjpd/N7vkdtv/OQn5Ezsa1/j/vN/5tRqMuoNLTjKysgn/X/xF6vdNliWq6sjmfWf//lqX46dvUwm7m/+hlQA0DsZTk2RJtT//t+v67ZhMHCffkpOCPv6dl6YR72qfxl39vRS/w06bNKFw/dsZJferq380vfoJzfkA6QIWqNobZ82DOf5H//gvHjpVnuW6a4mxVKT5RNnrqa3asgdCrW9HaTZBQmgPzx5VlZN+j4PFF0/ffLC0k3/LONFlz8+I6haf/Y73xp77YYsv0tp5CyTXXKZ3/ETfkndhnUTa6uvn/a9nDdqYQy9BREXTvj4kgpoTlMlPEVqq5dKl+dbZZ+d9P2yqJ0sntF0k47PmmZ5UkE/aYUx35X0xVJ3EX2/XCqJXb5b4Mqu1vcn+flv7AE93yo7d9LnckbtuEE/3ppxzXe5B/RS7fOpKznt8yuzb/xzqQd0Om5CuNEFf4cABCBwkAIIoBFA80zgIA8PrGuPBf7/zQC//JLcVF0gIJc6g4Mkj87OJmmySLR1AJ2eTi5doqNXs2aW5QICyCwb+nLssK0sS66XvvWt5abPfX2kHufTT5cvuuiML16QKPxv/uZ1L6t2WB1eeqsCzm7ORqNxQ2MNmUwWEhIiFAo3hDLOPs6hoaEpKSmPHj2qra3t6OgYHx+fn583Go1WqxW5zFvdq1g5BCCwkwD9pM1sNhsMBvr1jqamptLS0pycnPj4eLFYTH/Lbf7VJxKJJBJJREREampqQUFBbW1tT0+PWq12do5GT6Gd3PnymsPB5eeT9s3nzpE7BPb1kbOvxkYS+3766XLnsQ0B9IsXpHuGr+/qR/XOvhz//b+vptI7Czgc5Ctov/qr3KNH5Cxufp77+c9J9t3RsTrf3Bwpi37/ffIqHssChibZxVPXipSrLZKZ4btXfD6La5rnOG1/cbzw0mkfryPep/xzSLDLaJvy465eOHP0iPfRzyRyhYHjGGWdXHbNz+eYt9d7Zy7JyoeNSwH0R2cuX/f3/cD76Md+19MbVrpbGHrzhL4fent96C8fcTa8YDSNOVc/O7ncyuPjK7Iq1VKvljUTD07Vxlzxec/b64iP77W4WP/zF+JJAM0ZR4vFfsePeB+9QNqG6AeqM8T+Zz+ikyXXTjL67iLBxeUmIaeuZDRpOW66WnD65NmY9c0x5lvFFzf2gCZ9qEfKxV/4Lg1WGCv1W+oBTXpxHF3f68M3cmljVt9UTG/SleUtXP0hnkEAAhCAwIEKIIDmWfzqBiXMLg7hQI8PrGxvBbRacqPzH/6QGx9fXjDLcqmppMZ5uwD61Svum98kXQhp9wyOI+XMP/85uTdOQ8O6VHrLdhx0NRYLd+IEuZSi99IxGMg11bvvcr29y0uw27mcHHJtdvPm6jL3duxY2n4K0EpAk8lEuzk3Nzc/fPgwOTk5MjKSJi8bYpe1rZwjIiJSUlJKSkqcZYAMwyBz2c/dhWVDAAIHIWC32xcXF9Vq9cjISGtr6+PHj2/dukU/h9uhODo0NDQ2NjY9Pb28vLy7u3tmZkav1zMMgw/hDmKf7dM6GIacZf3Df8iVlS3fkJllyY0xfvCDrQNojiNFyu+/TyqmJyaWz4sYhouJIQuJjl5eCMeRl3Y4+7Jaub/9W+6f/BNynw+WJX05xGLuO9/h7t9fnuv/1wcMDHC/8RukSsC+mrbuE4OHL3Z9Cw4+YMy3yi74JXU4M/HN27ypB/TmSVZ/QmL9C/GogF4VwTMIQAACBy+AABoBNM8EDv4gwRr3TGBujvvZz7jf+R2up2f5okWpJPer+aVf2jaAtli4jz8m/Tra20kG7XCQG7j/4AfcH/0Rp9GQDWNZcj/3v/s78s1QehVkMpFKZ3pRxLKkTic7m9zn8L/8l+UUm2U5mYzUUIeFkTbQLEuur/70T0kk3dS0Z4PFgvZfgObOU1NTL1++fPLkSVZWVlxcXGhoaHBw8OYyZ5pBCwSC0NDQtLS04uLiFy9e9Pf3q9Vqo9GIeGX/dxfWAAEIvB0B+qvSYrEYDAaVStXT0/P8+fOHDx8mJibu8BGdSCQKCQm5efPm7du38/Pznz592t3drdVqHQ4HPqJ7Ozty12tlGJL8/oN/QE6HbDZy2qPXk2j4a1/bNoC228lX1r75TXILQYeDzDI2xp06xX33u+QbbPR0a2aGnH1lZi7/lWXJXTToxCxLAuWGBlJk/c47y+01WJarrCQ34fjzP+emp8lcZjPZjF/7NVKLsEOQveuBY8Y1AvwLoDlDb17EVUGcvGN9e5DVQb12AG3XNuXFXb8eV7zcPHp1EXgGAQhAAAIHKYAAmmfxq4vlw24w+0EeHljXHgs4HJxUSuqd//iPyRVLQgL3wQfk1ue//MvbBtAsSy5gfvM3Sd10dDR36xb3+79PmniUlq5W8dy+zf2jf0RuqkOvXtrayBc8v/ySu3eP3L3Qz4+UNv/Wb5E7HzovbwYHOR8fcmX1f/4Pl5tL7j34ta+Rzh7GLW/FvccMWNzuBFiWdTgcNpvNaDTOzc0pFIrCwsKIiAixWCwUCjd3cxYIBIGBgTRDkclkKSkplZWVIyMjNG622+3IUHa3IzAXBCDAawHap8hutzMMs7Cw0N3d/ejRo7i4uLCwMOev0y1/o4pEIrFYHB0dXVJSMjg4qNPpTCaTzWZDJH3Y3w8sS86avv1t8nF+VBSXlUXuePHOOyT53bIFBx2PTsf9h/9AOkEHBHB373KffEI+y5dKV8+UenpIQfSZM8snVyxLmml88QWZuKCAEwpJucDXv86Fhq627NDruf/xP0hTjrNnSSO1q1fJ8n/2M06lOuyG/N8+HgbQX4n+2gH0Vy4JE0AAAhCAwIEIIIBGAM0zgQM5LrASVwW2jfb0elKGc/Qoabh87BipncnN5X78YxIuM8wWNyEk9yxhyJXMz35Goup33yU3zCkqWr2YYVnSPeN3f5dLSVm+BBodJT063n+fZNa/+7tkXX/1VyR9ttlWR+VwcF1d5CroD/+Q3JDnpz/lIiPXtYRenRTP3qYAbWxqMpnm5uYGBwcbGhoKCgpSUlKkUunmfCQgICAwMDA4OJh+hTwnJ6e8vLy1tXV0dHRhYQERydvckVg3BCBwiAXob1qNRtPX11dfX19YWJiWlhYRESGRSEQi0Xa/bMPCwtLS0goLC5uamkZGRnQ6ndlsxmd7b3c/b3v2ZTaTk6U//VNyXuTlxf3lX5JTqVOnSF5Mv0+2tgc0HQPLkmbNf/VX5EP9H/yAfGwfH0/aoDkf/f2knPm//bfVANrfn3xB7Uc/Iud4Xl6k5XRWFqm2dn78z7IkaxaLuQ8/JFvy3nvc//pf3NDQ6gTOheMJBCAAAQhAAAJuJ4AAmmfxqxuUMLs4BLc7Bt1tQCzLLi4uGgyGba+CbDZyTxudjvzfaiW5sE5HvobJslsH0LTPhslELnsWFkjTDGc/aIrHMOTeNZalm6PQic3m5VXQtTDb9I9jGHJdpNNxi4toPnio3ogsy1qt1rm5uZGRkRcvXuTl5UVERAQFBe3Qt1QmkyUlJd2/f7++vn5sbAx3DjxUOxQbAwEI8EWA9utgGEan0/X09JSXl9+9ezcuLm67j/0CAgKEQmFwcHB0dHRBQcHLly8nJiYWFhbsaOl74LvcarXOz8/b1n7cvnYbHA5SvKzTkVMpi4WcShkM5PyHpsObA2g6L8OQ6bc8U7Lbl3/uXAvDkAXS6RcWlk/tnK86n9jtyydpej05D8QDAhCAAAQgAAHPEEAAjQCaZwKecWDydZR2u31sbOz+/fs9PT27uWGRzUbqa77zHa66+s0InMU1a2fb+d44a6f8qudms3k3w/mqxeJ1pwBNnPV6/czMTE9PT3V1dX5+flJS0naRh1AoDA0NjY6OzsjIKCkpaWlpGRkZQZmz0xNPIAABCLguQJt1MAyjVqv7+/sbGxuLiorS09OjoqKkUumWrfYDAwPDw8NTU1MfPXpUX18/MDCg1WoXFxeRR7u+O3ZYAsuy8/Pzz549KysrW1xc3GHKbV/aLoDedoYdX9jyrGzHObZ8kVl6bPkSfggBCEAAAhCAAO8EEEDzLH51sXzYDWbn3THmORvMMExXV1diYqJIJGpvb99NYksD6O9+940D6P1UZlm2rq5uYGAA1897y0yjDbPZPDk52d7eXllZmZ2dHR0dLZVKN3/pW7D0CAoKio2NzcnJqaio6OjomJqaMhgMDMNsW26/t1uMpUEAAhDwYAGHw0HvZKhUKtva2srKyrKysqKiojb/xg4ICBAIBLQhUkJCwoMHD2pra3t7ezUajc1mo7/8PRhyj4fOsuz09PSDBw9CQkLu379/KALoPRoibb1lNBrxr/weiWIxEIAABCAAgbcpgAAaATTPBN7m4YJ1by9gsVgaGhpkMhm97Hz16tUuA+jUVNISur5++1Ud9CsOhyM7OzsqKqqxsdFsNh/06t1rffTL3SaTaXZ2VqFQVFRU3L17NzY2ViwWB2z1EAqFUqk0KioqMzPz6dOnPT09KpVqcXFxN+8u95LEaCAAAQi8XQG73a7X65VKZUdHR1lZmbNt9Ja9kgIDA0NDQ2/dupWbm1tdXT0wMDA7O2symdAz2sWdyLLsyMhIamoqZc/Ly9tlAN3ayv3BH3C3bx+qdsxtbW3h4eEPHz5Uq9XIoF18q2B2CEAAAhCAwFsXQADNs/jVDUqYXRzCWz9msAGbBRiGefbsWVhYGI0QBQLBLgNoluVGR7nyck6r3byWt/UThmHu3r0rEAhCQ0OrqqpQB727HeFwOBYWFnp7e6uqqu7du0c7iopEoq1i5wCRSJSQkPDw4cO6ujqFQqFWqxcXF1HpvDt5zAUBCEBgXwUcDgfDMAaDQaVSdXV1VVdX5+XlRUdHb5lECwSCoKCg0NDQuLi43Nzcqqqq3t5e2kBpXzfSLRfOsuz4+HhiYqLzRpF5eXkGg2E3g52f5yoquJGR3cy7P/OwLNvc3BwYGCgUCrOysmZmZpBB7480lgoBCEAAAhA4IAEE0AigeSZwQEcGVvPaAlartbq6OigoiCaJQqEwOzt7fn7+tRewacI9ah24abm7/MHs7GxiYiIdXXBwcGlpqcV5w8NdLtL9Z6PfsLbb7WazeXZ2trW1NScnJzIyMiQkZEMkQXtrCIVCsVgcHh6ekZHR0NAwNTWl1+tp4owLTvd/u2CEEICAuwiwLEs7deh0urGxsadPn966dUsqlQYHBwcGBjpzUudHj4GBgSEhIZGRkTk5Oa2trXNzc2azmZZF45f/zm8KlmXHxsZiY2MppkAgiI6OVigUu/+Y/JCdfVmt1srKSvqeCQwMTEhImJqawrti53cFXoUABCAAAQgcZgEE0DyLX10sH3aD2Q/z4eSB22a321taWqRS6dp8dmFhwZ2uEMxmc2VlpUQiWTtGZNBbvtuddXDj4+NNTU2PHz9OSUmh96rakDsEBgYGBweHhYWlpqYWFxc3NzcPDw8vLCxYrVa019jSFj+EAAQgwC8B2nPJarXOzs729fXV19cXFBQkJiaGhoYGBQVt/jCS9lxKSUkpLCxsbm6emJgwGAz4R2HLnc6y7NTU1O3bt535bFpa2ujoqDv9A+pwOPr7++Pi4ugYBQJBYmIiMugt3w/4IQQgAAEIQIAXAgigEUDzTIAXx5WHbKTD4ejr63Omz2KxuKKiwi27JNMeIyEhITSDFovFz549YxjGQ3b0Vw6TZVla6dzX11dYWLjdPalof/CQkJDo6OjMzMyWlpa5uTl6Q6qvXAUmgAAEIAABvgs4HA6bzabVapuamrKysqKjo0NCQjZ8POms5xWJRDExMU+ePOnv75+dnbVYLO702bYru5Jl2bm5ufT0dGcym5KSotFoXFnm4ZzX4XAMDw/HxMQ4R5qamrqwsHA4txZbBQEIQAACEIDAzgIIoHkWv7pBCbOLQ9j5DY1XD1JgcnLS2XkwKCiotLTULdNnSsowTENDg7PPtVQqbW5utlqtBwl+qNZls9kMBsP09HR3d/fTp09zc3Ojo6OFQiHNDtb+XyQShYeHJyQk5OXlVVdX9/b2arVa5M6Ham9iYyAAAQgcpAAtjp6dne3t7aU9oxMSEsLCwra8MYBIJIqNjXX+C0LvCmCz2Q5ygw/VukwmU3FxsfMf3JSUFJVKdai2cA83xuFwjI6OpqSk0JL5wMDABw8eIIPeQ2EsCgIQgAAEIHBgAgigEUDzTODAjg2saGcBhmEePXpErxWFQmFubq5LfZ93XtnheJVhmKdPnzq/NRwfHz8+Pu5RBVm0uadOpxsYGKitrc3JyYmOjpZIJEKhcEMJm0AgEAqFUVFRmZmZFRUVCoVidnbWZDLRzp6HY39iKyAAAQhA4C0L0CTaZDLNzs4qFIqKiorMzMyoqKgt/1kRiUQSiSQmJub+/ft1dXWDg4M6nc7hcHjUP8QOh6OzszM8PJx+0BsaGjowMODeAizLDgwMREdH0yGLxeLnz5+7U7ORt3wQYvUQgAAEIACBgxJAAM2z+NXF8mE3mP2gDg2sZycBu93e3t4eGhpKmyokJye75Xc/NxMYjcaCggJadhQYGJiXl6fT6TZP5mY/sdvtRqNxZmams7OzpKQkPT09LCxsQ+JM3wlisfjmzZupqalPnjx5+fLl+Pj44uKie18Yu9m+xnAgAAEIvEUBlmUNBsP4+Hhra2tRUVFKSsrNmzeDg4O3/BcnPDw8LS2tqKiora1NpVIZDAa3L4tmWVatVqemplIQiUTS3NzsCVGs3W7v7u6WyWQ0g46Ojh4cHPSEgb/FgxGrhgAEIAABCOy5AAJoBNA8E9jzYwAL3IWAWq1OTk52Xv90dXV5Tsg4NzeXlpZGL4GCgoLq6urc9YqXZdnFxcWBgYHq6up79+7FxcXR2wnSsa/9f3Bw8O3bt4uLi1tbW8fGxnQ6ncViwZXhLo4szAIBCEAAAhzHORwOs9ms0+lGR0ebm5uLioqSkpKCgoLW/tNDnwcGBkokkqioqKysrMrKyt7eXje7E/La9wPDMBUVFfRTcIFA8PDhQ5PJtHYCN35ut9tramroe0AgENy9e9ftv3jnxnsTQ4MABCAAAc8UQADNs/jVDUqYXRyCZx6oh2rUDoejsbHR2agxNzfXYrEcqi3c141hWbanp8d5Q8KEhAS1Wr2vazzIhbMsyzCMXq8fHBwsKSlJTEwMCwtzNpp0XvkLBAKxWCyTyTIzM+vr68fHx3U6Hdo6H+SewrogAAEIeIgAy7JWq3V+fn50dLS2tjY9PT08PHzLsujAwECpVBofH//o0SOFQrGwsMAwjDt9Gjo1NRUTE0P/LZbJZJ7WB0yv16ekpNDhBwcHt7a2utPO9ZDDGcOEAAQgAAFPFkAAjQCaZwKefLgekrHrdLqMjAx6ARAeHq5UKj2n/JnuArPZXFZWRptBi0Si6upqu91+SPbOLjaDtuA0Go2jo6N1dXUPHjyIj4+XSCTOzxjovqZtnSUSSUZGRlVVVU9Pj0ajMZvNyJ13YY5ZIAABCEDgTQVYlrXZbCaTaWZmht7/NjMzMzw8XCQSbejRIRQKQ0JCYmJi7t27V1NTMzQ0tLi4yPebENASYOe9N2pqahiGeVNDXk/Psuzg4KBEIqFdvzIyqhNfMwAAIABJREFUMlAEzesdio2HAAQgAAFPE0AAzbP41cXyYTeY3dMO0cM2XpZlu7q6goOD6dl/VVWVuzag2Fleo9EkJSXRZDYiIsJgMOw8/SF8lV7JGwyGsbGxoqKi8PBw5/0V6bic/w8KCgoPD79z505bW5vJZELB0SHcm9gkCEAAAh4o4HA4LBaLQqG4d+/edt2iAwICaGW0XC4fHh6mraL5+MG50WiMjY2l/zQnJyfPzs564B63Wq1lZWX08waRSPTq1Suck3jg2wBDhgAEIAABngoggEYAzTMBnh5pbrPZZrNZLpc7g9fx8XG3GdobDcThcDh7EQYEBPDlLkC0w4ZOpxsZGWlsbHz48GF8fPyGSue1txO8c+dOeXl5V1fX7Ows32vH3mj/YmIIQAACEOCLAMuyDodDp9MpFIpnz55lZ2dHRkaGhIRs/lRVKBTGxsY+ePCgvr5+aGhofn7eYrHwIoxmWVahUDiD16dPn3ps8DoxMREVFUVPRO/cucPHCgC+HFnYTghAAAIQgMDeCiCA5ln86gYlzC4OYW8PACztjQRYlp2ZmZFKpfS8Pysry2g0vtES3GlipVLpvARKSkoym82HdnS0ycbc3JxCoSgrK0tOTpZKpZu/s0w7O8fFxd27d6+xsXF6etpkMiF3PrS7FRsGAQhAAAJrBeg/dmazWavVtrS0PHjwICEhISQkZEODDoFAIBKJpFJpYmJiaWlpd3e3RqOxWq2HOYm22+337t2jZ1/h4eEjIyNrB+5Rz9dWQgiFwqGhocO84zxq12CwEIAABCAAgZ0FEEAjgOaZwM5vaLy6rwIOh6O9vZ1eyAkEgvr6es/sv0GRTSaTXC6nGqGhoUqlcl/xd7Fwh8NhNBrVanVHR8eTJ09SUlKc906kF7G02Dk4OPjmzZupqamlpaXt7e1TU1OH/Dp8FxSYBQIQgAAEPEqAtplSq9WdnZ3l5eV37tyJiIgQi8UbwuiAgIDg4ODExMSCgoKmpqbx8XG9Xn8I722wsLAQERHhLPtdWFjwqL25drAOh6Ojo4PeHlkgEFRVVfH6Phxrh4bnEIAABCAAAfcWQADNs/jVxfJhN5jdvQ/IQz46m81WXl5OL97EYvHIyIgnV52wLNvS0iIWiwMCAmgjwsOz+2w2m1KpfPHiRX5+fnx8vFQqpZdqztyZbjP9JnJDQ8Po6OjCwgLDMJ68Qw/P7sOWQAACEIDAXgmwLGu1WvV6/cTExIsXL3buPRUZGZmVlfXs2bP+/n6j0Xh4/k0cGxtz3nyvrKzMkz/+5zhOrVbHx8fTU5qsrKzD/BW0vXobYzkQgAAEIAABNxBAAI0AmmcCbnDU8XcIFoslJyeHnvEnJCRoNJqDGYuDZa0O1myzL1hsM4uWsQVT/5yhW63vXPqvS6PvnzWMLZhmFi0LFqvZZrc6HA6WPYBtUyqV0dHRtI64tLT07V6p2u12k8k0MzPz4sWLrKysqKiozU02hEKhVCpNSEgoLCzs7Oycnp42m81vd7MPYDdhFRCAAAQgAAGO41iWtVgsMzMz3d3dT548uXXrVmho6JY3QggPD09JSamqqhobGzsM9y1sb2+n2ykWi1++fHkwe5NlOZuDtdgdBsamMTETetPg3GKPduXsS61XzBpGdMapRfO82Wqy2Rn7AZ19mc3mhw8f0nqI2NhYz7wf48G8B7AWCEAAAhCAwB4KIIDmWfzqBiXMLg5hD9/9WNSbCuj1+tu3b9MAOi8vb78bQLMsZ7bZJw3mLo3+xeT801FN8eBM4cD0o4Hpgv6ph30r//VPFfRPPeqfLhyYLh6ceTqqaVLNdan1k3qz2Wbf1xzabDanpaXRADo7O/vgk1x26WEymYaGhp49e5aVlRUZGbn5K8YCgUAikdy5c6empmZwcHBubs5isXjs/Yve9G2P6SEAAQhAwM0EHA6HxWLR6XTDw8P19fV5eXkRERGBgYEbGnQEBQWFh4enpqY+efKks7Nzfn5+6QPufT2z2Fr6+fPn9J6KkZGRo6OjW0+0Rz9lOc5qd2iMlj6toWVqvnpcWzJEzr4eD0w/6p96uOYEbOnsa+oxOfuarhjR1Cvn2mcWRnVGA2Pb1zMilmXr6+uDgoICAgIkEsnk5OQeDR2LgQAEIAABCEBgHwUQQCOA5pnAPh4NWPRXCczOzsbFxdG8taSkZJ++AcpynM3h0JqYZpXuyeDMw/6pBwrVLv572D9VNDjTrJrXmCw2h2M/rhdZlpXL5fSaMDEx8cAiXZZl6cXz5ORkaWlpVFRUcHDwhstmgUAgFApDQkKSkpIaGhpmZ2fRYeOr3uB4HQIQgAAEPE6Ados2GAy9vb05OTlhYWGbvz9E71sYFhaWm5vb399vMpkOsk80y7LOBmjx8fH79P0zluPsLKu3WLs0+rIRdUH/VH7fbs6+5H2qxwPTteOzE3oT+ax7P06/OK67uzssLIyekQ4PD3vcuxYDhgAEIAABCPBQAAE0z+JXF8uH3WB2Hh5l7rPJarU6MjKSnu4/e/Zsz8tb7Cyrs1j7tIbacS258tlV7rw5qn7YN1U9pu2fNSwwNvuetuZgWbayspJ+KzYiIoJhmH3d2bTJhlqtbm9vLy4uTkpKCgoK2pA7C4VCiUQSFxdXUFDQ0tKCOwru6x7BwiEAAQhAwG0EWJa12+3z8/Pd3d1lZWWpqam0Qcfaf2fph7vR0dH5+fkvXryYmJhYXFzc7zCaZdnHjx/TzUhKSlpcXNxbc5ZljVb7iM7YqJwrHJjeq7MveZ+qYkTdMbOgNlqsDsfebvPo6Cg9Iw0ICGhra9vzM9K93VosDQIQgAAEIAABjuMQQCOA5pkAjtu3KDA9PX3z5s2AgIDAwMDa2to93BKW44xWe//sYunwjHxXFTebc+cNP5H3qUqGZvpnF43WPUuhWZatq6sLDg4OCAgIDw/f82tCKsyyLMMw09PTr169unfvXnh4+ObcWSAQhISExMfHP3z4sKenx2g07vf18B7ufSwKAhCAAAQgcHgEaBJtNpvHx8fLy8tv374dFhZGv+3kvJcvTaKlUmlaWlp9fT1NovepQQfLss6WxykpKXt4zz2W4yx2h0pvrh7T7voLZxtOtzb8NV+hetQ/9WpapzPb9vD+HNPT07GxsXR31NfXI4DezeHDjMr9zxz/TFI5vWnuHV7aNO3B/0DfGHf2I9/L6f2Wg1831ggBCEAAAi4IIIDmWfzqBiXMLg7BhXc7ZnVVYGZmxlkBXV1d7eriluanFz/jC6aace1eFd1suPhZ+1daDT2qM5HrIJcHQLsQ7lMAbbfbFxcXJycnm5ub8/PzY2JiNlz9BgQEBAUF3bx5My0trbS0tLOzc3Z29sDagLiMhwVAAAIQgAAEDrsAy7IGg2FgYKC6ujo7OzsqKiokJGRtTTT9Wlh4eHh2dnZNTc3AwAC90cIeRqIsyz569IiuNDk5ea/uwGFzsDOLlibV/KPd9jpbe3618/N8hapiWK3QGpbaQ+/BTp+ZmXHfAJoZzrty9Ii31/r/jl7MGd7bL9oxqspI/0v+GU1ajuOY3viLRz+6UUzD6HUv7cH+etNF6OsiTh07I240bDmjvkN+3c9fXDSKAHpLH/wQAhCAwKEVQACNAJpnAof2WPKEDdNoNNHR0fRaq6KiYk+yznmztXVqvnBgeudLl719tXBgumVqfs5sdfH6kFZA09vghIeH79U1IcMwk5OTL168yMvLi4qKEovFzpIr+kQgEMhksszMzOrq6pGRkYWFBavV1bF4whsYY4QABCAAAQjsToB+KqxSqZqamu7fvx8TEyMUCjf86ywSicLCwm7fvl1WVtbb26vT6Vw8zaCbyrJscXExDaATExN1Ot3uhrB2LqPV3qvVlwzN7K7R8+7Oygr6p55PzKoMZrvLNQBTU1POALqhoWFPnNf6vN3n+u7ypJg4mUxy+RNvryO+l0RxssjkpIIuvX3ftstuqBWd8TqxEkDv23pec8HKohvH39s2gH7NhWAyCEAAAhA4bAIIoHkWv7pYPuwGsx+2Q8ijtmd+fv7WrVv0cuvRo0cWi0uVBzYHq9Sbn45p96nnxs5XR/kKVdWoRrlgduULoSzLVlRUOHtAW63WXb8fWJY1m81qtbq1tfXBgwexsbE013Ze3AoEguDg4IiIiMzMzLq6uuHhYYPBsE/f9t31KDAjBCAAAQhAwL0FWJa1WCyTk5Otra35+fmxsbEhISEbvqIkEAikUmlqamp5efnQ0JBer3elLxbLsk+fPqUBdExMjEqlckXYwbKzJqZBOVew/4XPW56JPRma6Zs1WGwudYXe0APaFZDDO69dVXztpNeH/vJJuo1Mb9LFox/5Z+REXPjI5+jFHMVgqzxecunTk15HfHzOCXO7l+qFp6uvf+Rz6stk2ZWLPse8j35yRValIufrdkP7XcmF0ye93vPx+fxGUrXKwqhy/Xy8PhJWjqtyv/BZLbi+kDNsWHmJFkRru+RS/7Mf+Rz9xO9qfPmwnmyPvjni1DHfqzFxVz/3Pfqet88FSfHAugptOsHlyLir53y9jngfP3cjKT9H8MWZ4+95Hz8nzO1Y2lq7obc8R+zv53PM2+uDM5ciq5UMqcVe3ZgP/OUjqly/k8cvJudG+p865uMb2aVqjjh1xPtsEm3BwSgbcwSXzx8/5n389BVZORmsXlEuu3bR5wOfUxeFSXXbDP/w7nhsGQQgAAG3FUAAjQCaZwJueyzyYWBGozEjI4NGohkZGa7U4NgcbP+s4YBLbzZcCOUrVE8GyVXQDvfGcTgcer3eZDJtWVzDsqxcLqeXnYmJibsoCaeNJmdmZpqbm+VyeVxc3JbXsVFRUQ8fPmxpaZmYmDAYDKh35sPhgm2EAAQgAAF3FrDb7UajcXp6urOzs7S0NDk5efMdGkQikUwmy8jIqKys7O/vNxqN7NLjTV1aWlroyUZYWFhvb++bzu6cnmW5Sb2palTzVj77d56GPR6Ybp3SGRibc8Pe9El3d3dYWBi9K8nQ0NCbzs6P6bcKoL2OeB/9+Iosr7p9xKCpjrj0hTA2p0iedOPUe96kR4eR40gA7e115OQFUY48L/nyR95en0hqtZylO+PsMW+fK8nyqmp5eoZcYeCcAfQ0o+kuF5/z9vrAL7akoV2hXc2mpzlO2yA75+N14or4bpE8RXj2A+/jX2T06pcC6CPeXh9evJ5Efn7qPe/j/uWaNTXaJIBemkCQUpQru3KcdBTxvSTNkadLzh7zPvrFUkcRY3+Gv99lcYa8QC6+eNLriK+gWmuZ7JJ/ecbryMnLKdVNL0c1NA0/4n38giSjpHVYy9AlLwXQzHD+DZ8j3j5+ERkFRUnSuNxug2Wk6PIJ76PnhEl5OWI/X68Pr+QOMFsMnx9vAmwlBCAAAbcSQADNs/jVDUqYXRyCWx1/fBuM1WqVy+U0gI6MjJyamtrdCBi7o1298LBvynkp8hafFPRPdaoXtvw2qMPhePXqVVxcXHp6+uTkcv3J2iEzDJOWlkZ7kmRnZ28ZUq+d3vmc5s4mk0mhUOTm5t68eZOWUTvrnek1lVgsTk1Nffny5dzcnCvl1c714gkEIAABCEAAAnsuYLfbDQbDyMhIUVFRRETE5iRaIBBIJJKEhISnT59qtVqGYV7/nIHjOIVCQW84IRQKd33PPQfLji6YDrjp2XYnePkK1fPxWaN1TWD52nuFZdmGhgb6RTGJRLLlGdprL+wQT7h1AH3yasHaEnhGP9nfVJJx9RNvUss8vRxAH/WTKxmOs2srv/T1+uBK7gij70g++563zzV571L9Mhn2agC98tzZgmPNS5qSG8eP+FxYvuOfoUl63uvIGXGzYU0KzHH6Ltmn3l7nMnqNq57rJpgsv/qh99HLRUo7xxlHkz739vokonZ+ZWK9drijQS71O3rE+2xKv4Ujtd5kLbQHNN2YY34ZiuUK69UlG/uTzv0/9s4DvJGzTPxHliM9IYGUPzUQuANCjuzlCKFlwyUBks1dWHKQwJEQLqEkgSMBEnIQiEfdli1bLmvvet27Lcttve5e97a2112Siyzb6s3q0kiamf8jz0bWyr1rpNePn92xNPPN9/2m6Pt+euf93m/4lcKsA/wXjz/0SgoZYb1Y+7vHnvhVvky3tvnv7xz+BwJAAAgAgUMjAAIaBDTFCBzatQE7WkvA6/V2d3eTD4HSaLSxsbFdxPw6PN5B1fLRht4EDYeqplXDKpPt6kgct9s9PDzM4/EQBKHRaNXV1WvnnV9aWvInxW5sbNxyMIlhGIqiZJ6NioqK5ORkJpMZ+NwugiBMJjMxMbG8vPzSpUsqlcrlcu0C8tpjB68AASAABIAAEAACB0oAx3GPx2OxWKanp1taWrKysqKjowNTRSMIQqfTo6Ojc3JyWltb5+bm7Hb7drJzqNXquLg48ltqoVC4izknvBg+Y7CFiH0mu2FCibJjUW90uPEdzgrtcDgqKirI7ujp06cNBsOBHtYjK3x9Ae2Tv2SVdN3nfuULdn7/99GVDM4rEdDvC2hrJ+OHx7/xWu4MSnitotqEl3zrP/H0Syv5OgIs8xUZvY6AJmdEPPnHet9MhQSBSvNfe/jBk39p0q9aYF8+jomU504cf+7cqN9ukzk6/Iky1E1/fOzEI6SARmW5L504/pQvLpuwyyr+8uKVGRe/4WvID5Mn1hfQpF5fqcTqrpeH2D84cfyn51bFt1d/4c8nV5mswPGVubb5JET4FwgAASAABA6RAAhoiunXPYYPh8Hmh3h1wK6CCeA4vri46B9K1dbWouhV6d6CN1jztxvDhlSmitCIfQ7U0EKJclC17M9IiGHY+Ph4YFRybGxsUNZFHMcHBgbIiCQGgzE6OrqmuVdewHHc7XYvLy9PTU2VlJTExMTQ6XRy4EQOJskRKY/Hy8/PHx0dtVqtXq93S5290e7gdSAABIAAEAACQOAICeA4Tn7lrNFoGhoayPxagZ/75LNTTCYzJSWlra1NLpfb7fZN5nVwu93p6elkn+H06dMajWZHrfPi+KzRVjMTEk+eBfa+ysXKizK9ybWzKTQ0Go1/BsLi4uI9TkmyI5KHuvLmAhqV5b7yxPGn/lYx6UumUfHmyStTCG4koMmq25WjwgRfGo0/NckdAYmevcqK371fwtXB0brW6CcePPGSLzCZIAhrJ/v54w+9mDIcHAG9OwGta49+4sEnfsLvldsJy/DpHz70voDOfM2XjqN7RbUHivKVVqwKaLss96UnfA1ffUzROsB78fiDP/xdZntn39CA73dCpH5/tBLY/N0E3x/q8YedAQEgAATCjwAIaBDQFCMQfhchtVpkNpv9Q6AzZ87odLrt1x/1YuMac0jFPgeOgshcHC4vhmGYVColQ5v9OTEQBGlra/N4VvMV2u328vJycoXY2Ni1T4BiGOZwODQazcjIyPnz59PS0vzu3u+dORxOUlJSaWlpd3f34uIi5NnY/ukEawIBIAAEgAAQCH0COI6bzeaJiYn6+vrMzMy4uLi1nYHY2NjCwsKOjg6pVGo2mwM7G2QDMQzr7OwkFTabzR4eHt7+t9ReHJ9ftodU7HNg70soUfbIjdvPB+31ekdHR0mGZN/M6w1TlbgdAf3t13jCphLem0/4si1vFgEtr4/+1ZunK9p7O0kB/ecmXaCAJsjcGj/8Y2ZT5yWZJfAtfa8vyvh7b6ZU9baU+eT1wy+t5oC+MhPgbiOgVwT0iaf/XHxBmPuXn/omQlyJgCZ0TfQnHjzx9N8rWron5MsBonzlelgV0AQqyn/z4QdXcls3NZWknsvt1lsu+UT28R/8Lb22t7O9KTenSWQh1ml+mJ41oX9LhBoCASAQyQRAQFNMv4ZBCPMemxDJl2sotN3j8XR2dpL9fhaLdfny5W0miMBxYtYYWs9+Bo5/yOWqabVEb52TLaSmpgZFKkVFRZ05c8ZsNvuPwuLiIp/PJ1VyZmZmYIIODMOMRuPExER1dTWfz2ez2UGlIQiSmJhYUlLS39+vVqsdDsc2Mfr3DgtAAAgAASAABIAAVQiQz0KZzebp6en6+vqMjAzyCSr/99xRUVEMBoPL5ebk5HR1dclksqA8G1qtNiYmhgydLisr22bYL04QGpuraV67ts8TOq9USlSDymWnB9vO0XQ4HAKBgOTGZDLn5+e37+K3U34IrbO5gCYIXwqOx3xpK57+c24J75WHyQQaG0RAW8YqkFd+SOameOSl6IoZ9Koc0AThUvSm/O55XzaM504PaK5yvpaZ9nTGn3/4vScefuqVP/IqBhS+gOIAC7y3FBx/f9FXq0df45UV//GpJ0gBTdhlF2Jee+KhE8e/8Vr6yELJa09cyXC9cniu2jWqHyg7/cdXVmr+1GvsqmkLgcrbK9h/fu3pb/umPXwJqRjVE+s0P4SONFQFCAABIBApBEBAg4CmGIFIuTRDuJ0KhSI5OZns+ufn51utV1LRbVJlHCeUFmeDVBM6o52NalIjUWQLqwPzMvsHhxwORyKRkM30er1tbW3kBDg0Gm1oaAjDMK/XazKZZmdnm5qasrKygrwzgiAsFishIaGwsLCnp2dhYcHpdIbtqGmTswHeAgJAAAgAASAQqQTwlR+DwTA+Pl5bW5uWlhYTExPU60AQJCEhoaSkpLu7e2lpyWazYRhGTgRNfp/N4/FmZma2/OoaJwiTy92+qBOKlRt1e0Lk9applVhv8W6VDRrH8YWFBf/X//n5+TabLVJPJWg3EAACQAAIAAGKEQABTTH9usfw4TDYnGJXWDhWF0XRqqoqcgjEYDAGBga2HAKZXZ62Bb1QEurjn5VhmCK3a5jJvTLVj98+kzFHdXV15NBRo9GkpaWREJKTk/V6/fz8/MWLF/Py8ng8Himm/dvSaLS4uLjS0lLSO6/7dG04ninQJiAABIAAEAACQGB9AjiOO51OnU43Pj5eX1+fnp7OZDIDn5dCEITNZpN5uvr6+tRq9djYGIfDITskhYWFFkvAjG/r7cTlxYZ9E29QovelbJjTqO2uzb+Yd7lctbW1pK9ns9kjIyNbdkHXAwOvAQEgAASAABAAAkdAAAQ0CGiKETiCqwR2eTUBHMclEgn5HGhUVFRaWtry8vLVq1z1F4bj41pzCE48uFHUj0CkOHu+GaHT/QbZv8Dn810ul9PpbGpqIsc/CIJkZGTk5ubyeLzAcSM5PuRwOOnp6T09PUql0uFwbD6suooa/AEEgAAQAAJAAAhEBgGPx2M0GkUiUWVlJY/HC5wDmeyBMBiMpKSkgoKC+Ph48hUmk7m5fsUJYtHiCNnUz+v2wdoWdDb36mQbQQcfx3GpVMpms0kCOTk5gYnRglaGP4EAEAACQAAIAIFQIwACmmL6NQxCmPfYhFC7hCKzPna7vaamhjSwDAajubl5owgUnCBUNlfdHAWSbwSOhUpGpXFnM/3e2b9Ap9OHhoYmJyf9/j0qKopOpweqZzJkKTMzs7W1dW5uzmazeTweUM+ReaVAq4EAEAACQAAIbJMAhmEul0ur1V6+fLmmpiYlJSWog0Gj0QL7G+np6Xq9fqPCbW5Pq0wX2LcJ/WWhRDmp2zARh9lszsnJIbtkLBZrcHBwo87nRkzgdSAABIAAEAACQOAICYCABgFNMQJHeLXArv0EcBxXq9X+mfo4HM74+Pi6wwCH29u5oA/9MU9wDUWKrJY+hEbzq2f/QmxsbGJiov9P/wKCIAwGIz4+vrq6Wi6XoyhKJuvwQ4MFIAAEgAAQAAJAAAhsSQDHca/X63A4JBJJQUFBTEwMOfmzv8tBLiAIQjpot9sd9D03huMjanPop34O7n2JlfVzGpNznSBoDMPa2tpIDgiCFBQUmEymLUnCCkAACAABIAAEgEDoEAABTTH9usfw4TDYPHQungivCY7jg4ODXC6XHAUlJibOzs4GOWgMJ6TLdiqOf8rFytJxWXxmXmCoUdDAzz/8Y7PZycnJlZWVly9fNhqNQRAi/DyB5gMBIAAEgAAQAAK7JuD1elUqVU9PT2FhYXx8fFCe6KioqNjYWIFAMDAwQCb7wjAMJwij0107o16rd0P/FaFYOaI2Bc1G6PF4xsfHyT4ngiApKSkymSzIue+aMGwIBIAAEAACQAAIHA4BENAgoClG4HAuDNjLdgg4HI7q6mp/KuTMzEy1Wh04HnB6sI5FCoY/k5PFixR53aPMmNh1vXNUVBSNRuPxeAUFBQMDA0ajEUXR7UCDdYAAEAACQAAIAAEgsCMCGIY5nU65XH7x4sWMjIzo6Oigzgn5DJZAIBgbG9Pr9aNqE0Vmfl5ngsTqaZXBsdqnwnFcJBIlJCSQTeZwOH19ffBl/47OH1gZCAABIAAEgEAoEAABTTH9GgYhzHtsQihcNlAHPwG9Xp+Xl0c6aDqdnpubu7S05B8VKK3O6mlV6IfbbFTDsomFhOzCKAQJGuZFRUVFR0fX1dXNzs7C1IL+kwEWgAAQAAJAAAgAgQMlgOO42WyenJwsKyvjcDhB/RMEQVgsVlZefvXUwkZ9m9B/XShWXn4/CNrr9Uql0vT0dPKJNAaDUVlZabVaDxQyFA4EgAAQAAJAAAgcBAEQ0CCgKUbgIC4DKHPXBHAcVygUZ86cIYdANBotJydHJpNhGObF8V65IfTHOZvVUKQ4V99OYzCDBng0Gq28vNxutweGe++aIWwIBIAAEAACQAAIAIHtE8Bx3GKx1NXVMRiMoC5KFIIkFwnLJhc3696QT3qF8L9N81or6vZ4PBMTE6mpqWSgA41GKykpMRqN0Pva/qkCawIBIAAEgAAQCB0CIKAppl/3GD4cBpuHzsUDNSEJYBg2MzPD4/HI4BQEQVJTUyWSaZ3VUUnl8Gdy5FZ4SRSdmBI0ukMQpKSkxOVywTkABIAAEAACQAAIAIEjIWA2m0tKSoLmJ2TGcPO6LpeLFJQW0FXTqhm9aWxsLCkpyd8HO3funFarPRLUsFMgAASvjLRRAAAgAElEQVSAABAAAkBg7wRAQIOAphiBvZ/0UMK+E/B4PBKJJC0tjRwkIAjC5/Nr+0cpPfghK182sZBSUhkVFZyFIz4+HibA2fcTCQoEAkAACAABIAAEtkkAx3GTyVRRURHooOPPZZWOzVO9AyYUKysGJ+MCghuysrIWFhb8Sd62iQhWAwJAAAgAASAABEKHAAhoiunXMAhh3mMTQufigZoEEsBxfGFhITk5mYyDprPYORf7D238I5iSl4wvFI7M5V2S5AyI8gclgn2L/VFkNffS2eukWezo6PB4PIEQYBkIAAEgAASAABAAAodJwGazVVVVXZkRmkY7XVa9f12gdWYIXO3aiRRlU/LiMVnB8EzuJXHugDh/cLp4bF4gkq+us4csH4WXROw438SDCILk5+fr9XrIvHGY5xXsCwgAASAABIDAvhMAAQ0CmmIE9v0agAL3iwCO4xqNpry8nM1mcxKSCi+J92UEsmUhJeOy/41Jeuy/fvqlrz582x13fejaaz9x7z+VTe3P+KdcrCwano5JuRLc7X8ONCoqKjs722Qy7Rc9KAcIAAHKE3C5CIOBQNF1GoLjBPm7zntrXvKv7F9Ys4rvhc3fXXcTeBEIAIFwJOBwODo7O/l8PoPFzmrt3bLjtC8rZPWMv/j2377x/f/49D9/8bY777r19o/e/al7vvb499/kpebtRw+wdHwhqaCMy+VWV1eDfQ7H0xbaBASAABAAAhFHAAQ0xfTrHsOHw2DziLtGqdZgm83W3t5+tkhQNnFIM7DnD0r+9ZF/v+6GGz5y9//72Gc+e801x+7+1D1lk0v7Mr4qFysFIgU/txih0QLtc1RUVGxs7NTUFNWOD9QXCACBAyPQ0kI89hjR1XXVDjCMWFoiBgaI3l5CIllfT/s38HqJ2Vmio+Oq395eQqPxr+JbwHFCpyOGh4meHmJkhDAafa/ADxAAAhFMwOPxTE9PZxUWFw8extf/ApGCXXz+uhtu+OjdH7v/4W8+9cLLP3r1jYce+/5Nt374lts/8ov/iyrdh26YorB9YGBw0O12R/CBhaYDASAABIAAEAgfAiCgQUBTjED4XHzh2xKv19s9sygU7+MEOAqByPdbfqXMwGVl0dj877nJr9JjkRxBVHbpdTfcsL8CulysSKuoozGYQQKaRqPV1tai60Y7hu/BhZYBASCwIYHaWuKBB4iWllUdbLUSRUXE979P/PM/E5/7HPHQQwSHQ6jVG5bgcBBvvEFcdx3x8Y8T99xz5fdf/5WoqFjdBMeJS5eI//5v4gtf8JV5333Er35FjI4SGLa6DiwBASAQeQRwHJeodFXifXsCjPwOPqD35ftKnuyJCUSKxAsdz7z8KpIrKBieEUzJBVPygqGZX/6ddePNt37i3s9zhY17zwRyUaqxOtd7piTyDi60GAgAASAABIBAGBAAAU0x/RoGIcx7bEIYXHVh3wScIHrkRuEeEv/5g5cFIkXh5TlGQeWbcalvJabHCOqLRub4te1vcFO4wkZykneBSFE6sSgQycnh0PU33rjfAlqZ2dyzNg10VFRUcnKySqUK+wMKDQQCQOAqAhsl06itJb7ylVUB7fEQ588Tn/408fjjRGEhUVND/M//EHfcQfB4q4b6qnIJwuEgfv974t57idxcorPzym9/P6HVrq6o0/kK/OIXCT6fuHDBZ7Q//3ni1Kmr1lldG5aAABCIIAJivbVyWuXvRO1lQSCSx1e3vpWY/iYvlZYnzOmfyuga/WP8mb9nFBeN+iY5LBlf8Knnq6fcyB0QPfjo49ddf8Mrf2MGvbWLyjRKNctOCH+OoBMYmgoEgAAQAALhTQAENAhoihEI7wsyPFrn9mLN89pdjDSCNxEpznVc/o+XfnX3p+654aabP/zRO+75wn3//eb//fi1P1x/083PvvrGmrGNIvFC50EI6PyeMRY3LigCOioqikajSSQSmBUnPM5baAUQ2JqAy+XLfbG0RMhkhEJB2GxXqeQgAW0yES++SNx1F1FbS3i9vjUVCuLrXye++lXfwro/ZAT0/fcTY2NXlexfGcOIM2eIW28l4uKuhDyjKPGXvxA33+wLtfZ6/SvCAhAAApFGwIvjg6rl/fj6X5F3SfzK35mf+5cHbrzlwzffdvvHP3vvd5974VVa7G133v3AN09k9owHd9jejzkoGpV+9/kXjh374E/e+POaTtqmUxq+X0JgyTUzKrXNGWnHEdoLBIAAEAACQCBcCYCApph+3WP4cBhsHq6XYji1y4p6GqSawCHE7pZz+qe+99OfX3/jTZ//yr/+7A9/+dV77Gdeee3z/3L8ni/c96Frr3v2N4cnoMsuz+SWlp89ezYxMTE6OppGoyErP6mpqRABHU6nLrQFCGxGwGgk4uOJ//xP4vhxX/qLhx8mfvtbYmJi1RQHCejJSV9Gjv/8T0Iuv1Ksx+Mr4a67iNLS1a0Cd0lGQJMCGsN86wQld7bZiGefJT7zGV8WDv9PczPxsY/5knI4wdT4ocACEIg4Ai4v1iM37K7HFbhV8Zjslb+xbv3IRz/6sY8/8/Jrv0aif/L7t+976Buf+dKXb7jplq9880Rm94YCOndA/IUHH7rh5lteZ/H2LqCrplULZkfEHUhoMBAAAkAACACBMCUAAhoENMUIhOmVGFbN0tnRC3N7FdACkeLds/kf/ugdd37yU+zS82Ur6QWLx+b/Nzrxlts/cs01x579ze/XjG0OKgK6dka1qDeZzWaDwaDRaJaWlkQi0cTEhFar9ULIYVidvNAYILAxAamU+K//Il59lTh7lsjMJH75S+KjHyWefppQKq9sEyigcdyXi+NjHyP+9CfC5bqyAo77kmbcfjvx97+vn7KZFNB33EF873vEI4/4EmucOePLreHX0IuLvhjqf/u3ValNED4J/sADPiFuMGxce3gHCACBMCdgR73tC7pAlby75dONvZ+7//ixD37wN7SYotF5gUheOrHIKTl/zxfu+8AHPrCJgC6bkr8Rm/KP1177mS9++XRz3/vzduw48Nlf7app1azBFuaHDZoHBIAAEAACQCBiCICApph+DYMQ5j02IWKuTQo3VG5xnJ9V+8cPu1sQiBRP/uwXH7r2ulO/+m3p5KK/kMzusa/++/euOXaoAvr8jFphXQ0txFd+MJjyi8InKVQdCOycAIr6DK/N5hPKTidhMvns8B13EFVVV8oKEtBVVcRHPkKwWFe55vZ2XwT0a68R7vUSmzocvnwaDz9MvPAC8fLLxBNPEHff7ZvD8NKlKw5aLCbuv5/49reJ5eXVBszPE9/6li/99NLS6ouwBASAQIQRMLk8e0+AJhApfsdJuPnDt33lm4+c67js730Vjsw9/79vfeCaazYS0AKRgl1S+/F7P3/rRz76aySmbGof5kKslKgmdZYIO4zQXCAABIAAEAACYUsABDQIaIoRCNtrMYwaJjM7aqb3KqBLJ5e+9NWvHzt2jFlYFRjpLBApnv31/37wQx86zAjomhn1EjwEGkanKDQFCOySgMtFLC4Sg4NEXZ3POxcUEDfcQDCZV+xwkIAWCIjbbiNiY1fjlwmC6O4mPv5xX/T0uukyMMxnls1mn+NGUcJiIc6d88VZ/8d/XImznpjwTT/4ne8QVutqExYXfa/cdx8xP7/6IiwBASAQYQSMTneDdK8zcJRNyX/4q99dc801L70TVbwy2SDpoAUixV/Scj90/fXrCmiBSJHePvSlf/vah6697umfv5I/NOM313tZqJCoxjRmPMKOIzQXCAABIAAEgEC4EgABTTH9usfw4TDYPFwvxXBq17zJUb1nAZ0/PP25+49fc+xYSmNP0Ojl53/++3U33HCYArp6Rr0IAjqczlFoCxDYBQG9noiJ8aW/+PSniXvuIT77Wd+/115LvPPO+gKajIBmMteJgH799fUjoMla+RNu4LhvzsNTp4g77yQ6Onx7EYuJf/kXXwS00bjaAqmU+OY3IQJ6FQgsAYGIJGBwuuvn9iqgi8fmn3rhf/7hH/7h99yUssklfwdMIFIgOYJbP/KRtQJaIJLHV7c+eOLxG26++bH/+mlW74R/qz0uVEiUoyCgI/JkhkYDASAABIBAWBIAAQ0CmmIEwvI6DLNG7YuALhqV/tMDD15z7Fh89cWgAcxP33zn2uuuBwEdZqcNNAcIhDQBDCMEAp96/slPiMpKYnTU54L7+30R0G+9tb6Abm31BTv/8Y+rwc44TtTW+nJAR0VdZaU3abnTSfzhDz7NXV3t22RpifjGN4gHH7wq28bEhM8+f/3rV1npTcqEt4AAEAhHAvsioEvHF/7jF7/+wAc+8CojtnRiwd8BE4gU72UW33TLrUECWiBSnG7u++ZTz/zjh6799tM/ONs2GPjUmn/z3S2AgMYwTKczzM8viMXTU1MS+AUCQAAIAAHKERCJpsXi6fn5BZ3OADk8QUBTTL+GQQjzHpsQjkOGcGvTotlRM7PXFBxlU/KvPfHUB//xH3/PTQ4czBSNzn/3uReOffCDhymgfSk4LKs5oMPtgEF7gAAQ2JKA00n8+c/El79MjI9f0c04TvT2biigCYKYmiKOH/fNUiiXXyne4yF4PF8O6LKyK4VsuV+r1Zev48YbiYYG3yY2m28ixM98hhgYWN20qck32+HPfrY62+Hqe7AEBIBAGBLAcdzj8Xi9Xtz/wARB7EsKDoFI8eJbf/vQtdedfPGVvEGJXxyXTi79lsM/9sEPBgpowZQ8pbHn0R/86MZbbn3w0ccTL7QLRPuQ+tm/UzIFRxgev+01yWKxTk/PabV6h9OFur0o6nHBLxAAAkAACFCNgO8G7vY6nC6NRjc9PWexBKTR297HQTitBQIaBDTFCITT5ReubVHZXLWzGv/4YXcLApHi53/++/U33vjVf/9u7oCYLEQgUvCqWu798leuueZQJyGsnVWrbK5wPV7QLiAABLYm4HAQf/oT8YUv+BJA47jv12Qifv1r4rrr1o+AJghfNudf/MKnm6urCa/Xt8niIvHQQ745BhWKK3uUyXwzGTY1XfnT4fBFMZPlE4Rvq95e36yDx4/7dDZB+IKgMzKIW28lOJwrMdQo6jPjt9xClJb61ocfIAAEwp2A2+2emppqbW1tb2/v7+8fHR2dnp5eWFiYV6gaZ1W763T5t1qJdC6542OfuOuTn46taPRHAGT1jD/6gx994AMfCBDQirTWS4/910+uv/Gmhx77fkJtW9nUasoOf4F7WaicVokNETpQt1isYvGM3e5A3V7wzkAACAABIBAGBFC31253isUzkeygQUBTTL/uMXw4DDYP92FFOLTP6HTXze1VQJeLFPHVLfd84b7rb7r5Z3/4S07/VN4lcUpjz2PPPn/jLbcERUAXjUhz+qey+yY5JbXX3XDDnR//VFbvRE7/VE7/VNGotFyk2Mv4p1ysrJ/T6B1oOBwbaAMQAAK7I4BhvikH77yTOHmSEAqJ5mbid78jvva1zQS010vU1/tik7/xDaKw0Ddv4Y9+5Mu/kZjoU8wE4fu3ro748IeJn//8yiuDg8STT/qipFtbfdMVJicTDzxA/L//R/D5vjkJyR+TiXjsMV8QdHS0z1y/9x7xyU8Szz5L6PW7axlsBQSAALUIzM/PJycnIys/NBqNxWJxudyEhITT6ecKu0f22OEpFytz+ia/9dQzx44d++ZTz6Q09eYNStI7L//sj3+9/c67jx075hfQuQNTJ1945drrr//sfffTcgR5lyT5Q9P+3+LReb+83nWVqqZV0mU7tY7OvtQWw7Dp6Tm73Ym6IeoZCAABIAAEwocA6aCnp+ciNhcHCGgQ0BQjsC8dOyjkQAk4PN7GPc/DXi5WlowvvBl3+o6PfeLGW2797Jfuv//hb37i3n/64oNf++aTz1x3w43+FBwCkeKX77E//5Xj93zxvk989vPXHDv2jx+69p4vfOkzX7zvM1/68m9ZvJIx2a4HP+SGTfNai8tzoNCgcCAABEKdgEZD/O1vviDoT36S+NKXiOef96XFuOWW9SchJBtjt/syRz/1FHHvvb4ZCx96iIiN9c0rSP6QAvr224mXXroioCcmfCk7HnjAt/6nPkX88z/7fHRmJmGxrMLBcWJkhHjhBd+799xDfPGLxG9+Q0xObjep9GpBsAQEgAAlCUxMTHC53Kg1PzQmK6Oxs1y81y/dy6bkrKLqf3rg366/8aaPfeZz//L1b3/2S/d/4nP/9J1TP771Ix8lBXTZlPxv5wqvu+HGD1xzzd2fuueBb5341xOPBf7+4v9oBZdn99j7qp5WySMyAZpOZ9BodBD7HAYBj9AEIAAEgEAQAdTt1Wh0Op2Bkl2QPVcaBDTF9GsYhDDvsQl7PuehgAMngOF4m0y3x1EHuXnZ5FJiXcfjP/rvj33m3s/ed/+pX76e3Njzi/9Drr/xpkAB/eJb7975iU/edsddt91xZ8DvXbffedcr7zKKx+b3WJm2Bb3TA8+2H/iZAzsAAqFOAEV9gcZqNaHVEna7L+WFSkWYzVeqXVvrmwywpeWKTSZfxTDCaiU0Gt9Wy8vBWTJcriuvkyt7vb6V9Xrf+iqVT1XbbMGbkKHTDoevDmq1b2Wn86o9hjpEqB8QAAJ7IqDRaFJSUtb4Z98LaVX1gql9yMIsmJLn9E/97I9/vfe++z9+7+e/c+o5VnFNVHbpbXfc5RfQf0nLu/3Ou1c6XXfddudVv7ffedfTL/06MIX07rphtbNqvT0SE6DNzy84nK4gZwF/AgEgAASAQHgQcDhd8/MLe+oKUHZjENAgoClGgLLXWgRVHCeIYbWpQqLc3XgjaCuBSCGYkpet/Aqm5AKR4uW/0gMFdLlYKRApyBXW/rv3J0DLxcohlcmNYRF0CKGpQAAIbESATNDsn/jLn6+ZIIh1BTTpi4O2Ciw8sATydf/K/r0Eru9f9q/mfwUWgAAQiAACLperpqYGQZC1DpqfW1QyKg3qR+3uT1/vSxTQ+5qS0/Mr/AKa7Hr5u2cb9L72GovdKtNZ0Uh8/kwsnobkG+GhmaAVQAAIAIG1BFC3VyyejoAOyzpNBAFNMf26x/DhMNh8nbMYXgo9AnPLtkrJXmfC2WjItFZAb7Tmfr0uMVi9m5ug0DsEUCMgAAQOm0BtrS97RlAE9GFXAvYHBIBAmBPAcXx8fJzFYq0V0DHJqUWDkv3q/ASWIxApggR04LsHtNynMKLeSPz6XyKZRdHwyXm6Vr7AK0AACACBSCaAur1TU5Iw76xs0DwQ0CCgKUZggzMZXg4tAjq76/yM+oAGJIcsoKumVUqrc2XKsNCCDLUBAkAgtAg0NhLf/jbR3g4JMULruEBtgEDYETAajRkZGWsFNCM6Oq/78kH0vg5fQFdIlONaMxaRX/9PTUkiWc1A24EAEAACYU8ABDTFLGQYRPJCE3ZHIOwGEeHZILvb27pPaaDXjqNefpdx/U03P/vqG/uSXmNt+UGvtMzrYAbC8DxNoVVAYH8JLC0RFRWEQrG/pUJpQAAIAIEgAhiGXbx4kclkBjloGp2RXttSLtpr7ougjhCZcIORX3H7nXc/8K1HM3vG166w76/UzmqUVmdQwyPkTxDQYe+eoIFAAAhEOAEQ0CCggQA1CERI15PqzfTi+CXl8r6PRsgCUxp63knJTqi5eBBDrKA6C0SK6ksTkpkZm83m9XrxiIzEofrZCPUHAodEAJIyHxJo2A0QAAKERqPh8/lBAjoKQRLzissml4I6M/vyZ1bvxF/T8hgFlXuf23k79WmV6dwRmX+DIAgQ0BFupqD5QAAIhD0BENDUkI+7i5mFrcKJAIw5KEEAJ4gFs124T/MQrjdQUZSL9z/AZ+2OSkbmknIK4+LicnJyWlpaZmdnURQFDU2JkxAqCQSAABAAAkAgXAm43W6BQLB2KsLoxJSioQNJA03GQR9O76tCohrTmCM2+xkI6LB3T9BAIAAEIpwACGgQ0ECAGgTCdSARfu1CMax29qDSQK81xQf0Sm7XZUZ0NBlhhCAIm81OS0sbHBx0uVygocPvpIUWAQEgAASAABCgBAEcxwcHB+l0elAQNEKjZzZ3H06OsgPqepWLledn1Hq7ixIH4iAqSXUBbZkWvPL0q2nj9m0KJsX5d0/+JLlbA/MuAgEgAAQihQAIaGrIx3CK5IW27I7AQfTzoMyDIIDjuERvPcggaOXBjXzIkoViZVFLVxyPx2Aw/AM8BEEYDEZ8fLxQKBwaGtJoNCCjD+L8gTKBABAAAkAACACBQAI4jqMoajAYxsbGzp8/v04KjpXOSkxyasmo9KD7SAdafteSAY3U/BtHk4JDOZD511dPPnri+INPPPLMq++kdymsu9dAIKC3ad5hNSAABCKWAAhoENBAgBoEAjvisBziBMwud/2c5kCHKAda+IVZjWLZolAompqazpw5w+FwAp91RRCEyWSSJnp6etpsNmMYFuJHBKoHBIAAEAACQAAIUI4AhmEWi0UqldbW1vL5fBaLFdgh8X9HfmUBQbJaeg5hnowD6oMJxUrpsj1i828chYBe7ua88MiPeVUjGp1m6dL5Qm5aqxQENLp7BR+xTg0aDgSAwDYJgICmhnzcXcwsbBVOBCg3ZojkCnsw/LLafEDjk4MutkKivKw2eTDfCAjHcZPJNDo6Wl1dffr06SATHRUVxWAwsrOz29ra5ubmzGaz2+2GBB2RfOZD24EAEAACQAAI7J2A1+u1Wq0ymay7uzsvL4/NZge6ZjIz2NosHFFRUQlZ+WXjCwfdUzqg8ltlOlcEhz/vRkDrRWm/ee5FzlXWWDdU+PqzL/z9/NLWNsShqXrruZPvdSkcAcrVoal657lTtC4d+aJJlPnL514vmtNPC17/8RsMHu31n7/w+KMnT72VXV919s1fvnzqyVPPvyO4tJJGwxcB/eQLbzJpLz79xPFHn3uFJrikJEu2S1uy3/mf5x751qnn/5BcNrJM1m01BYeyi/Gz515JG9WB/AUCQAAIhDUBENAgoIEANQjsvTcPJRwaAZwgdA70AjUzQTdKNTbUE8gKx3Gn06nVagcHBwUCQVJSUtCoj06n83i83Nzczs5OmUzmcDhAQwcChGUgAASAABAAAkBgOwRQFJXL5X19fUVFRQkJCUwmM1A902i0+Pj4oqKinp6enJycwLfIZQYnOrdz+IAE8YEWWzWtWjQ7Ijn8eTcC2rHcnfzqww+eOMVpJVNn6EYEr3/3xPGnaVXT20rErGjhnXrsuTfTWsdkq+sr2ninfsypX/K5Y8tU4SvPvl02Z/fJ5W+dOEXzyW7deOErj554/A8Csd7jUg5wf3bqlZw5C+rxrfPoE8+/J2id1iimu9J+c+rxP1RLrXap8N3HH3uZUTen0Cx1Z779+GOvpg35HPSqgNaLCt57l1HlK2R9b25dvNAW/WLGC9/h/+AHFRUzewjTXr/8jfYLrwMBIAAE9pUACGhqyMdwiuSFtuyOwHZ67bBO6BDwYPiUzlIhUR3ocGXfC6+QqKZ0lo3GPziOu1yuhYWFrq6u3Nzc2NjYIBNNo9ESEhJKSkr6+vq0Wq3T6YTsHKFzTkJNgAAQAAJAAAiEIAEcx91ut9FoHBsbq6ysTElJodPpgak2aDRaTEzMuXPnLl68ODc3Z7fbMQwbGBgInKniioxGkPhz2aXjsn3vIB10gV1LBmdkhz/vRkCjHpdD081/9eEHn3ie2yUeErz55InjT79bNrVqk7f0rbrprrS/vvr4t544+Ute2YDGt75+lP/zF96p07hQuzj/7VNvVUutK3LZP8GgfpT7k1Ovl64EWTs09X997hSzS0cKaP86Pr9Me/zJd6vm5jJ/efIk0x9S7fvzFGdAFyigt/Q71sWW8cs+72yeTMx/I2Z+Bw3ckgCsAASAABA4NAIgoEFAAwFqEAjBAQNUaXMCVtTbsagXig98zsB9HBQ1z+ssV4c/r9tGt9ttMplmZ2dbWlqysrKCApQQBOFwOMnJyQKBoK+vTy6XoygKMdHrkoQXgQAQAAJAAAhELAEMw4xG4/j4eF1dXXp6ekxMDI1GC4xrZjKZ6enpjY2NIpHIaDSiKOpnpVKp4uPjA1cml+kM1tmaZsHU0j72jg66qOoZtdzixDf6/t/f5nBfmJqS7EaCODStvJcffvDE8QdPHH/y3YLxKwkudlaURlT23suPPPZq5ojdhdrHct449U69VD9X8IeX36nyiWZfdLNfLutH+T8LENDvPXfyvVaF4+p1UI+uN/nUk2+XjflWJkOkfVVyaOrfe+7kX33rr0ZAbymgUY/LNHOhI+FPxa99J+4Hv7us3lnrtlM+rAMEgAAQOHgCIKCpIR93FzMLW4UTgXDvc4Zh+3CCWDI7qqcpEwRdKVEqLM4dDX9wHLdYLHNzcxUVFdHR0UHjxqioKBqNxuPx8vPzh4eHbTYbBESH4YkOTQICQAAIAAEgsBMCZMjzwsJCdXV1UlISi8UK8sgIgrBYrIKCgqmpKZPJ5PV61xbvcrnKysqCNiT/ZCckFvRNHLQ13q/yKyTKCa3F491R/2stj3B4ZZcCesXqtnJffuTp3dpn0rlouhjPnnpduKKb56rf/MnbmY2CN39Oq5Kt5OLYsYC2S0vffvxZTqtsqeC3p3wh0leSSs9l/vLU83xfuuftC2jzYsWvMt54t6e5Ze5yUflrIKDBvwMBIEBRAiCgQUADAWoQCId+ZeS1AfVioxpzFRUcdKVENaYxezBsF0eJTM1BJokmH55lMplBD8+yWKzExMSKiorh4WGNRoOiKMjoXaCGTYAAEAACQAAIUJEAjuMej8dsNotEooaGhvT0dA6HE5jIC0EQckqJ4uLi3t5epVK5eSIvHMdFIlHQM1ikgGay2SUNrTUzFIgAEIqV3UsGu3sdw07Fo7zHOu9eQO8uak8zwP/Du9zSUanJY5GNlnFffeSxV9PIGQJ9iTVeOPnMc6dWQpV3EAH96CeJxFYAACAASURBVMnnub6E1Jap6neeOfmib17BFRP96MvcNo3FsTyW//bjj77MH3g/B/SPed0aj0svKuNw+HVLG+WAnhn82w+qOjROj3mx4ncpEAG9Qabs3Z0GsBUQAAKHSAAENDXkYzhF8kJbdkdgj1062PyoCKBerE9urJCEeiKOfRn/kMNLm80mFouLiop4PF5QfkYEQRgMRnR0dG5u7sjICPk4LWTnOKqTE/YLBIAAEAACQOBACeA47vV6rVarVCqtqamJj48P+oqafFiKTPHc19e3vLy8/a+ozWZzbm5uUBA0giCFhYV6g1Gks4R+BECjVKNzoBD8TJ6Ehy2gUbuiq/DNH5/05e7wpe94g9u4qoB1bbyTXz+1kgl6BxHQrz/76jvvvX3y6ycefvLVdzK7pORsgVbNpdLkN3/+3MPfOvX873mZLVf2YpmrfvPpJ3z5oJda//7MSTIsev2oRn0HPfOp++JeeE5wLrHm7T9BCo5D9GXrHxGoABAAArsiAAIaBDQQoAaBAx0eQOEHSmDZ6W6T6UI2GbRQrLwo0xmd6P4mH/R6vRqNpq+vr7y8PCUlhcPhBCXoQBAkMTGxqqpqeHhYrVY7HI51n7E90EMDhQMBIAAEgAAQAAL7ToB8NMpoNIpEopaWloyMjKBQZQRBmExmfHx8bm5uS0vL7Oysy+XaaTUwDOvp6Qn8qptGo2VnZ6vVaoIgnB7voGo5lCMA6uc0i2YHtr/dr51CDKX1D11AbxZIq+tKfv7HnFblZuuAmgQCQAAIAIEdEQABTQ35uLuYWdgqnAiEUv8Q6rIzAjhOaGyupnntfqUL3N9ymud1apvrgIY/OI47nU6tVjs8PEya6MCBYlRUFJnnMTExUSgUXr58Wa1Ww4yFOzu9YG0gAASAABAAAiFDAMOw5eXlmZmZhoaG1NTUtfMKIggSFxeXm5vb1ta2sLBgtVr38vXz0tJSUlKSPwj6zJkzKpWKfLIKJwizy9O9ZAhNB31+Vj1rtHkPqPsVMufDjioSQgLaNFfw++deTPZlat6RW4GVgQAQAAJAYBMCIKBBQAMBahDYUQcOVg5BAkqrs1EaWg5aKFY2SLVLhxJ9Q844JJfLe3t7S0pK+Hw+i8UKzBNNBkOlpaXV1NSMjIzodLrNkz+G4CGGKgEBIAAEgAAQiEAC5Ee82WyemZlpbW3Nyclhs9mBH/FRUVEMBoPL5WZlZbW2ts7MzNhsNnzlZ4+47HZ7RUUFjUZDECQhIUEikQTNMGFBPV2h56BrZlRivdWNQe6Nq45/aAhouzj/jYcfPHHyLcGYHuwzEAACQAAI7CcBENDUkI/hFMkLbdkdgas6aPAHBQl4cXzJ4mgIGQctFCub57VKq8t7uOMfMhfk4uIimZ0jKSkpKDUHjUaLiYlJS0urrKwcHBxUKBQQE03B8x2qDASAABAAAuFPAMdxi8UiEomam5tzcnLi4+PXPufE5XLz8vJaW1unp6cNBoPb7d5HLhiGLS0tVVZWCoVCiUTi8XiCCscJYtnp7l4yCENmNo7zM+ppg829q2mfg1oXZn+GhoDeT9WySRggvAUEgAAQiEACIKBBQAMBahAIsy5mZDYHw3GdHW0NgXzQQrGyaV6rs7uONvbG5XKpVKrBwcGcnBwWixVkoqOiouh0elJSUlFR0aVLl4xGo9vthhkLI/PagVYDASAABIBA6BDAMMzlci0uLjY3N2dkZERHRwfFO5NPNaWkpLS0tEilUqvVGhSYvL9tQVd+NinT5vb2K4wVEtX+JjHbRWnV0+q5Zci8sf6xAgEdgTYKmgwEgEBEEQABTQ35uLuYWdgqnAis31ODV6lGAMcJoxPtVRgrj24UVCFR9soNZldIyFwcx71er81mW1hY6OrqKioqiouLWzuOZbPZfD6/uLi4s7NTKpU6HA4w0VQ796G+QAAIAAEgQG0CGIYZjcbx8fGGhobMzMzY2Fgmkxn0kc1isTIyMhoaGsRisclkCp1nmOxu75jGXD1zZA5aKFa2ynS+J88g7/MG1wEI6IjyUNBYIAAEIpAACGgQ0ECAGgQ26KrBy5Qk4MYwsd56fka9i9iZvWwiFCurZ1RTOovLi4UaOBzHyYgqg8Fw6dKljIwMDodDp9P9MwuRMxbS6XQOh5OSktLc3KxUKl0uF4ZhIKND7WhCfYAAEAACQCA8COA47vF4HA7H1NRUQUFBXFwck8kkcy77P6DJeGc+n9/Q0KBQKOx2e2h+NHsxXG5xNkm1QrFyL72pXWxbKVENKIwW1APyeZPrAgR0BNooaDIQAAIRRQAENDXkYzhF8kJbdkdgk+4avEVFAhiOa2yuHrmhevowgnGEYmXVtKpbbtDYXFjIj37IsGi1Wt3b21tWVpaSkrJWRkdFRTGZzPT09MbGxsnJSZi0kIpXAdQZCAABIAAEQpAAOamg1WpdXFwcGBgQCoU8Hi8o0pmUzrGxsZmZmfX19WKx2G63h/73wThOmF3uYbXpwqzmcLJCV0pUrTLdvMnuOdwpN0LwvNqySiCgI8pDQWOBABCIQAIgoEFAAwFqENiy0wYrUJGA04vNLdub53UHmpGjQqK6KNNLl+1Oj/dokz7v9BjhOO5yuQwGw+TkZFVVVVpaGofD8YdckQsIgnA4nMTERKFQOD4+rtVqURTd6Y5gfSAABIAAEAACQADDMIvFMj8/397enpWVFRcXx2AwgtQzjUbj8XjZ2dkXL16UyWRWq9Xj8YS+eg48uB4MV1ld3UuGg87I0TCnmdRarKg39L/7D+RzVMsgoCPQRkGTgQAQiCgCIKCpIR93FzMLW4UTgaPqC8J+D5oAThBW1DOls7TKdNUzqn2Mx/El3JhWXZTpRHqr76nPg27JQZZPJugwGAyjo6N1dXXnzp3jcrkMBiNQRiMIQqPRUlJSqqurBwcHFQqFzWbzeDwHWS8oGwgAASAABIAAtQmQ+a+MRuPMzExbW1t+fn5MTEyQdEYQxD8ZQ3t7+9zcHBnvTC3vHHSc3F5sftneuWg4P6OukOxnUo6qaVWDVDOsMukdKKjnIOyb/AkCOqI8FDQWCACBCCQAAhoENBCgBoFNumvwVhgQ8GK4xeWZN9n7Fcb6Oc0eB0JCiapuTtMnN0qX7RbUE07T3eA4jqKoXq+XSCQtLS35+fk8Ho9GowWZaA6Hk5SUVFxc3NXVNTs7azabQzMfZRicutAEIAAEgAAQoCIBf7Yr8pvdjIwMHo8X9M0ume0qNTW1vLy8v79fLpdbLBav10vF9q5bZwzH7W6vwuIcVpua57WVe8uKJpQoz8+oOxf1Yr3V4EDdXki6sS71DV8EAR2BNgqaDASAQEQRAAFNDfkYTpG80JbdEdiwswZvhBcBN4bp7eiM0da9ZKidUVdNq7YpoyskvizPtbOa7iXjjNGms6No6M00uL/HCsdxq9U6Pz/f2dmZk5MTExMTNGkhOW9hbGxsdnZ2Q0PD9PS0xWJxu92UjtjaX4ZQGhAAAkAACEQUAQzDUBQ1m81jY2NCoTA1NZXJZAZ+iUt+dLJYrMTExMrKypGREbVaHfaPE3lx3ORyy0z2QaWxYU5T7et9qbYzV6FQoqycVtXMqNoWdJM6i9rmdHjCR9Af8qUBAjqiPBQ0FggAgQgkAAIaBDQQoAaBQ+4Cwu6OkABOEF4cd3q8y0633OKUGKzDalOf3Ni5qG+R6RqkGt/vnO/fFpmuc1HfJzcOq0zTBqvC4jS53E5PZKUaJOdKMpvNCwsLPT09AoEgKSkpyEQjCMJgMGJjY8+cOVNZWdnX1yeTyRwOB5joIzzPYddAAAgAASBwaATI5M6zs7NdXV3k7L4xMTFBzw9FRUVxOJzMzMyGhoaJiQmtVutwODAMO7RKHvmOfE9ZeTEL6lHbXLPLtlGNuV9h7Fo0XJTpGqXaBqmmfqX31Tyva1/Q98iNg6rlKb1lwWzXO1C72wvTDO7xCIKAjkAbBU0GAkAgogiAgKaGfNxdzCxsFU4E9tilg80pSgAnCJwgMJzwYLjLgzk8XpvbQ/7a3R6Hx+vyYh4Mx1ZMKqWzPO/9AOErPyiKGo3GycnJoqIiFouFrPwExnYhCEKn07lcblpaWnNzs0qlIrNzgIze+yGAEoAAEAACQCB0CJAfixiGzc7OVlZWJiUlRUdH02i0tfmdaTRaYmJiS0vL0tKS1Wr1er3wmejvfaFezOnx2t1XOmB2t8fu9rq8XrcXIzFFeO9rH0/4qSkJ/AIBIAAEgEB4E9jHTw0KFfUP4aQmoS2RQIBCVxdUFQgcOQEMw9xut9FoHB8fr6ury8rK4nK5TCYzaNRNo9HYbHZqampNTc3Q0NDS0hI5byEMvI/8CEIFgAAQAAJAYBcEyI8/s9kslUp7e3vLy8v5fD6TyQwKdqbRaEwmk8/nFxUVdXR0zM/POxwO8M67AA6b7COBiI2M20eGUBQQAAJAIJQJROx9HgQ0hH5TjEAo30egbkAgZAngOI5hmN1u12q1/f39BQUFfD6fxWIFxkST+S4ZDAaXyz179mxLS4tMJjObzW63O2TbBRUDAkAACAABIOAngOO4y+UyGAwikaimpiYlJYUMdl77YUdO0ltWVjY6Orq8vOxyueA7Vz9GWDhaAhErJo4WO+wdCAABIHBoBCL2Pg8CmmL6NRJinDdv46HdFGBHQCAsCZBPIns8Ho1GMzw8XFtbm5mZGRsbS6bpCByiIwjCYrEyMjLq6+tHRkYUCoXVaoWpC8PyrIBGAQEgAASoSwDDMJfLZTKZZDLZwMBAZWVlcnLyuhk22Gx2fHx8Xl5eY2Pj+Pi40Wgkc09Rt+1Q87AkELFiIiyPJjQKCAABILCWQMTe50FAg4CmGIG1Vy+8AgSAwO4I+GYZWkkVLZVKOzo6iouLU1JS1oZF02g0MlKssLCwvb19enraYDCAid4dc9gKCAABIAAE9oUAGeysUqkmJiYaGxuzs7MTEhLW/TKVw+GcOXOmvLx8YGBALpebzWaPxwPxzvtyFKCQgyAQsWLiIGBCmUAACACBECQQsfd5ENAU06+bRwdHwrshePuAKgGBMCBAymiFQjE0NFRdXZ2amsrhcOh0emBMNJmjIzo6OjMzs6amZnBwUKFQ2O12GMmHwQkATQACQAAIhD4BHMfdbrfdblcqlZcuXRIKhampqUwmM+ijKioqikwnlZGR0dDQMD4+rtVqvV5v6DcQaggECIKIWDEBRx8IAAEgECEEIvY+DwIaBDTFCETILQmaCQSOhACZKtrhcOh0OrFYfPHixaKiIj6fHzRrU1RUFI1Gi46OTkxMzM3Nra+vHx4elsvlTqcTYsqO5MDBToEAEAACYUwAx3GHw7G4uDg0NFRfX5+bm5uYmMjhcIIm1CW9c2pqqlAo7O3tnZ+fh+TOYXxWhHHTIlZMhPExhaYBASAABAIJROx9HgQ0xfRrJMQ4b97GwOsWloEAEDg4An4ZrdFoxsbGysrKYmJi1mbV9E9dGB8fn5mZ2dzcvLCwgKIoJNY8uEMDJQMBIAAEwp4A+RnkdrtlMllDQ8O5c+d4PB6DwVgrnREEodFofD7/woULMzMz/iRR8IVo2J8k4drAiBUT4XpAoV1AAAgAgSACEXufBwENAppiBIIuXfgTCACBQyCAYZjT6TQYDJOTk01NTfn5+Xw+n8FgBEVGIwjCYDBiYmJOnz5dUVHR29s7OztrNpu9Xi+GYYdQT9gFEAACQAAIUJcAhmEej8doNM7MzHR3d5eXl6ekpERHRzMYjKAkGzQajU6nJyUllZSUtLe3z83Nmc1mFEVBOlP36EPN/QQiVkz4CcACEAACQCC8CUTsfR4ENMX06+bRwZHwbnjfiaB1QCDECZAhaS6Xy2w2S6XShoaGtLS0mJiYtXaADEljs9k8Hq+wsHBwcFCn0zkcDsjCGeKHGKoHBIAAEDhkAh6Px263a7Xa3t7e7OzsuLg4Fou17gM3dDo9JiYmNTW1oaFhfn7earW63W544OaQjxfs7qAJRKyYOGiwUD4QAAJAIEQIROx9HgQ0CGiKEQiRWwZUAwgAAXzlB0VRuVze399fVVWVkZERGxvLZrPXRkYjCMLhcLKzsxsbG0dHR+VyudVqJTN1AEkgAASAABCIKAIYhpFfZC4sLAwPD9fV1WVkZDCZTGTlJzDYmUajsdnsuLi4rKys6urq/v5+uVzudrvJD6CIggaNjRwCESsmIucQQ0uBABCIcAIRe58HAU0x/RoJMc6btzHCb1XQfCAQmgRwHEdRdHl5eWFhobe3VyAQnDlzJiYmZt1knWw2m8/nZ2dnNzU1TUxMyOVyi8Xi9Xrh0enQPLhQKyAABIDA3gmQD9DYbDalUjk+Pk5K5/j4eBaLtfaTgkajcbncs2fPlpeX9/X1LS0tmUwmyLCx96MAJVCCQMSKCUocHagkEAACQGDvBCL2Pg8CGgQ0xQjs/WqHEoAAEDhoAl6vV6/XT05Otra2FhQUJCQkrA2LJmPcaDRaQkJCQUFBU1PTyMiIQqGw2WxgGQ76AEH5QAAIAIFDIIDjuNvtttlsarV6fHy8tbW1pKQkMTFxrXGOioqi0+kcDicpKam4uLitrW1qaspoNML8AYdwmGAXoUYgYsVEqB0IqA8QAAJA4IAIROx9HgQ0xfTr5tHBkfDuAd0CoFggAAT2nQCO4x6Px2w2K5XKsbGxxsbGgoKCxMREOp0e+IQ1uUxm9kxMTMzJyblw4cKlS5ekUuny8jLkjN734wIFAgEgAAQOlACGYSaTSSaTDQ0N1dfX5+XlJScnc7lcBoOxVj0zGIzk5OSioqKWlpaJiQmNRmOxWDweDzwTc6DHCAoPZQIRKyZC+aBA3YAAEAAC+0ggYu/zIKBBQFOMwD5e9lAUEAACh0bA//C1QqEYGxurrq5OTExkMpl0On2tj0AQhE6nx8XFpaenC4XCgYEBtVqNoiik6Ti04wU7AgJAAAhsnwCO416vF0VRjUYzNDRUWVmZkZHB4/E2usPTaDQWi5WamlpXVzcxMaFSqRwOB6R13j5wWDO8CUSsmAjvwwqtAwJAAAj4CUTsfR4ENMX0ayTEOG/eRv9FCwtAAAhQlACGYU6n02Qyzc/P9/f319TUZGdnx8XFBU1d6M/RweFweDxeRkZGTU1Nf3//3Nzc8vIyPJdN0aMP1QYCQCBsCJCRzlKpdGBgoKamJiMjIz4+nsPhrHszRxCEy+VmZGRUVlb29fXJZDKz2exyueBmHjbnAzRkvwjsWkzgOG63243GZZ1Or9Xq4BcIAAEgAAQOiIBOpzcal+12++4e2Nr1fX6/PmiOqhwQ0CCgKUbgqC4V2C8QAAL7ToAMi/Z4PCvjJePMzExDQ0NycjKLxVrrL5CVHzqdHh0dnZCQkJ2d3dHRoVKpXC4XREbv+6GBAoEAEAACawmQkc4ul0uhUHR0dOTk5CQkJERHR9NoNPIWHZReiUajMZnMxMTEmpqaqakpvV5vs9ncbjeGYbsbsK2tErwCBMKPwO7EhMuF6vUGi8WKut2o2+tCPYf/q1JrD3+nsMfIJGBctpjM1shsO7T6SAgEfdaQs1xYLFa93uByoUHvbvnn7u7zWxYb+iuAgKaYft08OjgS3g39iwpqCASAwC4IkA9fYxjmdrs1Gs3IyEh9fX1hYWFycnJ0dDSTyQzK1IEgCI1Go9PpSUlJZWVl7e3t4+PjS0tLZrPZ6XRC/tBdHALYBAgAASAQSMCfWMNms6lUKpFI1NXVVVpayufz6XQ6KZ0DjTOCIEwmk5xIMD8/v7a2dmhoSKVSoShKGmeQzoF4YRkIbERgF2LC5UJ1Oj2KulH3EXhnvwwCAe1HAQsHTQAE9EEThvKDCGx0x0ZR3+13pw56F/f5jSpArddBQIOAphgBal1gUFsgAAR2R4AUH3a73WAwzMzMtLW1kdNYxcTErA2OjoqKQhCEzWbzeLy0tLSysrKenp75+XmdTmez2SA+eneHALYCAkAgMgngOO50Og0Gw+Li4tDQ0Pnz5zMyMhISEjbJrRETE5OSkpKXl3fx4sXp6Wm9Xm+32+HeG5nnD7R67wR2KiZwHNfrDSjqDtIlh/8nCOjDZx6xewQBHbGH/qgavsm9HUV9D6Ds6Fv2nd7nN9k7td4CAU0x/RoJMc6bt5FaFxjUFggAgX0hQCbr0Gq14+PjLS0tJSUlqampXC6XxWIFRUb7w/HodHpKSkppaWlra+vIyMji4qLJZCKDo/elSlAIEAACQCA8CHi9XpfLZbFYFArFxMREZ2dnRUXFmTNnNrrBkpHOXC43NTW1pKSkubl5fHxcp9OBcQ6P8wFaceQEdiom7Hb7SuaNo4x9JpUQCOijUmMRuF8Q0BF40I+2yZt/NFgsVrvdvvk6ge/u9D4fuC2ll0FAg4CmGAFKX29QeSAABPZIAMdxj8djs9m0Wu3MzEx3d7dQKMzMzExISGAwGH777F8gM3VER0fz+fxz584JhcLOzs6pqSm5XG61WmHyqz0eDtgcCAABihIgJytTqVRisbi7u7u6ujorKyspKYnL5dLp9HW/2KPRaDweLzMzs7Kysru7e3p6WqvVWq1WSHlE0XMAqh2yBHYqJozGZdR99OHPLtQDAvpoBVlE7R0EdEQd7lBo7OYfGW6322hc3nydwHd3ep8P3JbSyyCgKaZfN48OjoR3KX29QeWBABDYRwJk2miv17u8vCyTyS5fvtzY2JibmxsbG8tisdZ1KOQ0WUwmMzk5OS8vr7a2dnBwUC6X2+12mBdrHw8NFAUEgECoESAz7NvtdqVSefny5fr6+oKCgtOnT7PZ7HXnD4yKiiKnEIyOjk5PT6+qqurv75+bm1teXiYjnXf0qGmo0YD6AIFQJrBTMeHL/nxEsw4GWSEQ0EFA4M+DIwAC+uDYQsnrEtj8UwPHcZ1Ov/k6ge/u9D4fuC2ll0FAg4CmGAFKX29QeSAABA6OAIZhLpfLbDar1WpysqzKysqsrKz4+Hg6ne6PiQ5coNFo0dHRCQkJ6enpQqGwvb19dHRUJpORhuXgqgolAwEgAAQOgQAZ5qxQKCYnJzs6OoRCYUZGBp/Pj4mJ2eiuiCBIbGzsuXPnBALBxYsXx8bGlpaWlpeXHQ6H1+s9hDrDLoAAENipmNBqdevqksN/EQT04TOP2D2CgI7YQ39UDd/ys0mr1W25jn+Fnd7n/RtSfQEENMX0ayTEOG/eRqpfclB/IAAEDoEAmTPa7XZbrVatVjs7O3vx4sXMzMx1w6JJJU0m62AymbGxscnJyZmZmXV1dZOTkxaLhQy1PoRqwy6AABAAAnskgOM4iqKLi4vd3d0lJSVpaWk8Ho/FYtFotHUTa5A3QDqdnpqaWldXNzU1pVarzWYziqIYhsHdb4+HAzYHArsgsFMxAQL6qIQU7PcICYCAPkL4kbnrLW/mIKC3REQQBAhoENAUI7Cd0xrWAQJAAAj4CZACxePxkPHRMzMzXV1dVVVVOTk5iYmJbDabwWCs9TIIgtDpdCaTGR0dnZqaSk5mePny5bm5OZ1O53A43G43zLjlhwwLQAAIHDIBDMPI29ry8vLCwsLk5CSZyjkzMzM2Npa8s62VzgiCMBgMFouVkJCQmZkpFAo7OjokEonRaHS5XJCJ6JAPIuwOCKxLAAR0ZOotaPWOCICA3hEuWHnvBNa9XQe+CAI6kMZGyyCgKaZfN48OjoR3NzqV4XUgAASAwHYI+H203W43Go0ymay7u7u4uDg5OZlMHr1WRkdFRZE5UhkMRnR0dHx8/NmzZ6uqqgYGBhYWFoxGo81mg2m4tgMf1gECQGDXBHAc93q9DofDZDKpVKrR0dG6urqsrCw+n8/lcjePcWYwGFwuNykpqbCwsKOjY25uzmAw2Gw2t9sNMc67PiKwIRA4IAIgoPeuiqCEsCcAAjrsD3GoNXDLGz4I6C0RQQQ02GfqEdjOaQ3rAAEgAAR2RADHcZvNJpPJBgcHGxoaSktLz507l5CQEB0dzWQyaTRaYOZo/zIZJc3n8/Pz8xsaGgYGBiQSiVqttlqtTqeTjCXcUTVgZSAABIAASYDUzS6Xy2azkXmEhoaGWltbS0tLU1NTmUzmul+VkXcnBoPBZrNjY2NPnz6dn59fU1PT09MzNzdns9lAN8MJBgRCnwAI6FATT1CfECQAAjoED0p4V2nLzw4Q0FsiAgFNPf0aCTHOm7dxO6c1rAMEgAAQ2AUBUs14vV4yOJqcuau9vV0oFGZnZycnJ0dHR28kfRAE8eePzsrKqqioaGtrGxkZmZubU6lUFovF4/HsokqwCRAAApFDAMdxp9NpMBjkcrlYLO7t7T1//nxOTk5KSkpcXByLxSIfxfB/B+ZfIO8/5HyqRUVFTU1NQ0ND8/PzWq3WYrFAmHPknELQ0vAgECkC2uW2O5xWm9Ph8oS3t4LWHQSBnQlol9vhO9kcVrvL4XIfRH2gzLAnsOXnCwjoLRGBgAYBTT0C2zmtYR0gAASAwN4JkD6anM/QZrPJ5fKJiYnOzs6qqqqMjAx/ltV1lTTpiWg0GplCuqCg4Pz5852dnePj43K53Gw2+0OkcRzfe1WhBCAABKhFwJ/B2W6363S6ubm5wcHB5ubm8vJyMqsGGeO8rnEmn71gs9lcLvfMmTOlpaUtLS3Dw8NSqdRgMJC56SHSmVrnA9QWCAQSiAwB7TIszbRV5Mfyy4Y1rrBXV9DAfSewAwHtQo2quc66ivS09JSc811TKpMDHDR867NjAoF36XWXQUCviyXoRcgBTT0Du3mAcNi/G3QGw59AAAgAgUMjQD4U74+Pnpqa6u7uPn/+fEFBQWpq6ibx0WQWaSaTyeVyExMTz5w5U1hYWFtb293dPT4+Pj8/r9frnU4nyOhDO5SwIyBwyARwHPd4PCaTSS6Xi0SigYEBUjdnZ2enpKTEx8dHR0fT6XR/UPPaBTabnZycnJubW1lZ2dbWNjo6uri4qNfrrVYrKs1dSwAAIABJREFUGeN8yC2C3QEBIHBABMJPQDvtVo1KOS+TLyrUcpXeYHE5XU7NrLinWZiYLAABve9yNhIK3FBAu1zmZYN8ST6/qFIqVYtqi81hnx8bGBApVErFYGNNwfm+Oa3die7YP0YCVWjjJgS2vOGDgN4SEURAg32mHoHtnNawDhAAAkDgEAiQMYYYhjmdTr1ev7S0NDIyUltbm56eTj4sv1YhBb7in9gwNjY2JSUlMzOzvLy8u7tbKpXa7XYIYDyEIwi7AAIHSgDHcRRFlUrl0NDQhQsX8vLy0tLS4uPj2Wz2uqHNgfcHcplGo6WkpFRXVw8NDclkMq1Wa7fb/THOB1p5KBwIAIGjIhBuAtppXxjtEAoqi0oqykrKsovreiV620raDdvSpYy0ChDQmzgveGsjAusLaBdq0iz0tzWWlAiLy2rKC7KSyscNTr9rdioneysu9IpVNhDQG4GF1zcisOUnAgjoLRGBgKaefg37AOctG7id0xrWAQJAAAgcMgHSF3u9XnLSMKPRuLCwMDIycvHixcrKytzc3NOnT8fExNDpdBqNtq57Ih+rZ7FYMTEx8fHx6enpZWVlTU1N/f39k5OTZDpX0j1hKz8QLn3Ihxh2BwTWEiBT9GAY5na7LRaLSqWanZ0dGRlpb2+vrKzMyspKSEjgcrkcDofBYGx04SMIQqPRmExmQkLCuXPniouLL1y40NPTIxaLNRoNOakpSOe18OEVIBCuBMJMQNs1U+Vns6r6F7QG49xQe2FRTY9EBwJ6I8kFr2+TwLoC2mkzSfpbS8tbLkv1Bs1ST3l2QtmIX0A7rIbJ3ot1HZOKZcj64pfysLBdAlt+4oCA3hIRCGgQ0NQjsJ3TGtYBAkAACBw5Ab+Z8ng8DofDbDbrdDqpVNrb21tRUZGamhobG+vXUmsjH0lXRaPR6HS630onJydnZmZWV1f39vbOzs4ajUabzQbppI/8WEMFIoQAmYQHRVGHw2GxWNRq9cTERFtbW1lZWWpqamJiYlxcHHlRb/Q9E5mNh06ns9nsmJiYhISEvLy8xsbGsbExpVJJXtEul8vr9WIYBo9BRMh5Bc0EAkEEwkxAG6Yak1NrRQbUhaL6+fELVXW9IKAh/8OeCawroO3L6oGm81UXJzVWtwt1SNvKkgVXBLTTYZdLRhrqO4Zn9dbVmOjtysdtanFYLYwJBN2o1/4JAnotk7WvQA5o6hnYLWOEw3uFtScxvAIEgAAQoBYB0k1bLBapVHrp0qXGxkaBQJCTk5OSksLlctlsNoPBoNFoa6104CtkxHRCQkJOTk5VVVV7e/vw8LBYLCbTwvrFNBk4SS0+UFsgcLQE/DMEOhwOk8mkUqnm5ubGx8f7+voaGhpKSkrOnj0bExNDWubAqzJoGUEQBoNBfoHE5/PJ6Oaampquri6RSKTVasnczfA0w9Eebtg7EAg1AmEmoI2ipuTU81MGDwjoMHZzh9+0DQV08/mqi1Nqm+cqAe10auYnW+qa2kcWDDb08GsLewwDAlt+UoCA3hIRRECDfaYege2c1rAOEAACQIASBPxZpF0ul8Vi0el0CwsLo6Ojra2tAoEgMzPz9OnTPB6PzBgb5LYC/yTDpRkMBpm+IyUlJSMjo7y8vLm5eXBwcGZmRi6Xa7Vak8nkcDgwDKMEHKgkEDg0Al6vl5xcVKlUzs/Pj46Otre3V1dXk1mbydBmNpu9SVyz/3qk0+nkXKPp6enFxcWNjY2XLl2anZ1Vq9XLy8sOhwOSaRzaYYUdAQGKEggzAe3QTJWknhP0zKuNJunlruJiSMEBUbf7QGBdAe20mcR9LYWljZfmdAadsr8yN0EwYnCghkVRc01t08Cs2uyC7M9h4IKPpAlbfqCAgN4SEQho6unX8I5u3k7rtnNawzpAAAgAAYoSIJU0GSLtdDo1Gs3s7Ozw8HB7e3ttbW1xcXF6enpCQkJ0dDSbzWYymZsESpNWmgyUjo2NTUtLy8vLq6ioaGpq6u7uHhkZmZ6elsvl/jweKIp6PB7ywX+K0oNqA4F1CZCpM9xut8vlcjgcNptNr9cvLi6KxeKhoaHOzs76+vqysrKsrCw+n09eVv7Lx2+WAxfIy4rJZHI4HC6Xm5SUlJ2dLRAI6uvru7u7JyYmlpaWrFarP40GxDive1zgRSAABNYlEGYC2uW0yy63FWTlpGWXFpdVF5Rc6JXoLNqZxrKy9DNn2JzExHMl5S0ilX0fpOSRaCnY6ZEQWFdAu1yoSb3Q3VB1LiP3XEl9bXEOXzCiM2v7hRkx3MT409lnM/PSsyrbp1QWyMKx5ywoR3Lcj3Cn696uA18EAR1IY6NlSMEBDppiBDY6leF1IAAEgEC4EiB9NBklrdfrlUrlzMzM8PBwR0fH+fPnS0pKMjMz/z979+MUxb3n//7+S5ZVKSu3IqnKZVPXH3dd3O9X8FuybJaDWfZwNiyesOFEXQ4oohExChghGIkxoAnEH/gLwSAqBAVFURAVEAGRGUAHBmdgoG/19ExPD8yvxmHs7nlS1rGZ6en+fB79+bSnXvPOpw8fPrxv376cnBxlTOZzW1oWID8/v6Cg4NChQ0eOHPnhhx9Onz5dW1vb2Nh4586dhw8f9vb2SivSShXTxGdGHVqG7Nf8/Lz0SMDR0dGBgYGenp6Ojo7m5uarV6+ePXu2srKyvLxcuWRzTk5Odna2z8kiv5idnb179+7CwsKjR4/++OOP1dXVV65cuXXr1oMHD/r6+kZGRqQvcqQlNQypSqcQQCBiAkYLoO2zb63WMfPYyKj5eVf7ud+ca0BPW8dMYyOvTM4/Y6Zxq9VGAI2ACgHfAbR91mazW968GR01j5jN3fWnDv1yzzxtez1mdg8208ir8fHJt9RBv8ckV6enDvpPAAF0UCIqoHWWvYZSIGz4fUIZ1uyDAAIIGF5ArpWemZl58+bNy5cve3t7Hzx40NTUdObMmfLy8m+++SYnJyeURQOUKZsUT0tFnaWlpT/++KO0lEdra+vjx49HRkamp6dnZ2elh6TJBZ6G16aDmhKQ166Zm5tzOBwzMzPj4+N9fX337t1rbGw8e/bszz//fOzYsZKSksLCwj179qidBdLDP/fs2VNSUlJZWVlXV3fnzp3Hjx+/ePHCbDbL38pIzdCUDI1BAAEDCBgvgHbnTQsfQuh+XUXsyEcQkAT8BtCewl6vhxDihsA7CgT9x4UAOigRATQBtP4EQhnW7IMAAghEm4Acyc3MzExPT1sslrGxsRcvXjx69KilpeXq1atnzpyprKw8duxYUVHRN998k5ubG0rVp7QQgbzUwIEDB7799tsjR45UVFScOnXq/Pnz9fX1t27dunv37qNHj3p7ewcHB81m89TUFE9Xi7YRGN7+yuPZZrO9EUuZRgcHB589e/bo0aP29vZbt27V19efO3fu1KlTx44dKy4uLiws3L9/f35+/u7du0OPm7Ozs3ft2lVQUFBSUnL8+PHTp09fvHjxxo0b9+/f7+vrk5ZNn5qastls8sLN/NcA4b3QHA0BBBYLGDiAHnv+8PL5K3/0mKl3fscsjI+HEkD3NdUc+e3+GKtteEJ5vuxZusDie/WCVwigF4D4/JUlOPSXwBq+xjlwB32OY15EAAEEEFgsIKd4DodjdnbWZrNNTk6Oj49LcV5XV9fNmzfPnTtXUVFx4MCBXbt25ebmykXTclm0zw0pmP678ycnJyc3NzcvL2/v3r0FBQXffvttcXHxd999V1FRcebMmWvXrrW3tz99+tRsNttstpmZGamAmhrqxdcrSl6Rh6VUvzzr/JEWzRgcHJS+Mrly5covv/xy7NixI0eOHD58+ODBgwUFBXv37s3Ly5NHaYhBc3Z2tlTRLI3SoqKikydPXrx4saWl5cmTJ0NDQyaTaWJiYmpqSl4GnZXQo2Qo0k0EtClg3AB66dEPeSsCCwRCCKAZbwiEUyDovxcE0EGJqIAmfdafQCjDmn0QQAABBIIKSEtLyyHg1NTU8PDw48eP79y509DQcPbs2VOnTh0/fvy7775TPvYwNzdXCv58BtMLXpSyPzn+k1fRPXHiRE1NzcWLF69du9bS0tLe3v7gwYPu7u5nz54NDAy8fPnSbDa/efNmenraZrPZ7fYZ54+89AdVqEEvbsR2kNNk6UuOmZkZu91us9nevn1rtVpfv35tNptfvnz54sWL3t7ex48fd3Z23r17t6WlpaGhQVrB/NixY4cPH87Pz5eSZfkrkKAV+tJgk0bXrl27du/evWfPnoKCgqKiovLy8pMnT/76669SRXNHR0dfX5/0FYhyFDGQIjZOOBECCIQuQAC9IGrkVwQWCxBALzbhlWUVCHoPJ4AOSkQArb/4NXB1cDS8G8qwZh8EEEAAgSUISGGi9L8Oh8Nut09NTU1MTJhMpsHBwe7u7tbW1mvXrp07d+7nn38uKyuTnuR24MCBffv25eXlhfIIRDmhlmqo5UpqaZWPvXv37t+/v7Cw8NChQ1IZ9fHjx6uqqs6ePVtXV9fU1NTW1iat9TE0NDQyMmIymcbHx1+/fm2xWKampqanp6W0WlowYQkCfGSxwNzc3OzsrN1uf/v27dTUlMVimZiYMJvNr169Gh4efv78eXd3971791paWn7//feLFy/W1NT8/PPP5eXlR44cKSoqOnToUGFhYUFBwb59+/bs2bNr1y7poX/yAJCHROCN7OzsnJycvLy8ffv2HThw4NChQyUlJWVlZVVVVRcvXrx58+aDBw/6+/tfvXo1Pj5usVikxcqVQ3px13gFAQQQ0KAAAfSypkgc3BgCBNDGuI466kXQfywIoIMSEUATQOtPIJRhzT4IIIAAAuEVUAZ5Uun07Ozs1NTU6Ohof3//o0eP7ty5c/369cuXL585c+bUqVMVFRVlZWWHDx/ev3//3r179+zZs3v3bjl8DBw1Kt+VY0rlxt///vfc3Nx9+/Z9++23R48ePXbs2IkTJ6qqqmpqas6dO3fp0qWGhobr16/funWrtbX17t279+/ff/jwYU9Pz7Nnz54/fz40NPTq1auxsbHXr19POX+sVuv09PRb54/N+WN3/8jF1z5XDnmPJbTSFZlz/zicP9JyFrOzs1Kz3Z2wSyXJ09PTVuePlCNLi7FI5cl9fX1Pnz7t7u5++PBhR0dHe3t7a2trc3NzU1PTtWvXrly5Ultb+9tvv8lXtqioaP/+/Xl5efI6GMoLJG0rr2OAbalMPjc3d/fu3Xl5efn5+VLEXFxc/P333//000+//PLL+fPn6+rqbty40d7e3tXV1d/fbzKZrFartJDLgsEZ3pHP0RBAAIEICxBA6yiToqnvS4AA+n3JR+15g/5DQAAdlIgAWn/xazTUOAfuYyjDmn0QQAABBCIsIOehNpttampKufbCkydP7t+/39LScu3atQsXLvz6668//fTT8ePHy8rKjhw5cujQIWl53127doW46kKANFN6SwpAc3Jydu3aJWea+/fvlx6iePjw4eLi4iNHjhw9evT7778/fvz4yZMnT5069euvv/72229nz549f/78xYsXL1++fPXq1YaGht9//72pqenWrVstLS2tra1tbW13797t6Ojo7Ox89OhRd3d3T0/P06dPnz171tfX1+/8eb7oZyDYzwvvn8HBwRcvXjx//ry/v7+vr6+3t/fp06dPnjx5/Phxd3d3V1fXw4cPHzx4IIXFd+7caW1tbWlpuXXr1o0bN65fv37t2rWGhoarV69euXLl4sWL586dq6mpOXXq1MmTJysqKsrLy0tLS7/77ruSkhKpSPngwYMHDhzYv3//vn378vPz8/Ly5G8LVKXJAS6N9MS//Pz8goKCQ4cOHTlypLy8/MSJE6dOnTp37lx9ff3NmzelfLmvr0/+kkBaiWVmZkZal/k9Jv4RnlCcDgEEolaAADpqEy46HroAAXToVuwZFoGg/yQRQAclIoAmgNafQCjDmn0QQAABBDQlsKBGdXZ21mq1TkxMvHr1SloduLu7+/79+7dv375582Z9ff358+d/+eWXEydOSGXU33zzjRSJKp+UGPpS1AFSUX9vSalrKP8rlWNLCxDv3bv3m2++2b9/f8GinwN+fgq9fw4qfgoLCw8cOPDNN99IobBURS6vwR1K2+R9/HVzya9LR5ZX987NzZVXYT5w4EBxcbG0CnN1dXVtbW19ff2NGzfu3LnT0dHR1dX17NmzFy9ejI6OWiwWu90uJ8vSINHUuKUxCCCAQOQFCKDDkhZxEGMLEEAb+/pqsHdB/y0ggA5KRACtv/g1cHVwNLwbyrBmHwQQQAABXQgsCKbn5+eltaenp6enpqbevHkjLzc8NDTU398v59Q3btxoaGi4ePHi2bNnf/31V6m298cffzx27FhpaemRI0cOHz588ODB/fv35+fn7969W1p3eMl5a5R8UFpneffu3fn5+dJi3IcPHy4pKTl69Gh5efnx48d/+umnU6dO/fbbbxcuXLh69er169f/+OOPe/fuPXr06OnTp9IDJEdHR8fGxiYmJiwWi9Vqffv2rd1ul1blXnC5dTFEaSQCCCAQYQECaA1mTzRJawIE0Fq7IoZvT9B/CAiggxIRQBNA608glGHNPggggAACxhOQ4kv3osdz0qrHDodjdnbWZrNJmbX8iLzR0dGRkZHh4WFpIYve3t6enp4HDx7cuXPnxo0b9fX1Fy5cqK6u/vnnn3/44YfvvvtOXglETqvl8mG1G2FPq9U2YPH+u3bt2rdv36FDh7777rtjx46dPHlSWlj5ypUrjY2NLS0t7e3tDx8+fPLkSV9f38DAwIsXL6THPI6OjprNZulJj5OTk9JjHhcsh60sYTbeqKNHCCCAQIQFCKANn2TRwXcXIIB+d0OOoEog6D8EBNBBiQig9Re/RkONc+A+hjKs2QcBBBBAAIEFAnJ+LWXWMzMzdrtdeuTg27dvp50/ymf0vX79emxsbHR09OXLl4ODg8+fP5ee1Pf48eNHjx7J6y/fvn1bWnz5+vXrv//+e319/VXnT53754qfn8uLfi45fy66fy5dulRXV1dfX3/t2rXr16/fuHHj1q1bf/zxx+3bt9vb2+/duyc9XLGrq0tahLqvr+/58+eDg4PDw8MjIyNSJfLr168tFsvU1NSCBy3a7faZmRlllMzyygsGDL8igAAC70WAAFpVKsTO0SlAAB2d1/199tpmD/wvAgF0YB/p3f8rcNjHuwhoTSCUYc0+CCCAAAIIvLvAgiUj/P0qF2VHZsNfM3y+/u4IHAEBBBBAIJICSwigh4ZfaeHP4NCIFppBG6JBYHBohPEWDRdaO32cnJwM/A8BAXRgH+ldAmiKoHUmEMqwZh8EEEAAAQQQQAABBBBAQHcCSwigNdJHVfmLRtpMM/QrwHjT77UzZMtVDUi193nDiBFA6yx+1Vo9cuTbY5i5R0cQQAABBBBAAAEEEEAAAaWA2mBCVeqhPFHYt7XTkrB3jQNqUIDxpsGLEs1NUjUg1d7nDQNLAE0ArTMBw8w9OoIAAggggAACCCCAAAIIKAXUBhOqUg/licK+rZ2WhL1rHFCDAow3DV6UaG6SqgGp9j5vGFgCaJ3Fr5GvONbaGQ0z9+gIAggggAACCCCAAAIIIKAUUBtMqEo9lCcK+7Z2WhL2rnFADQow3jR4UaK5SaoGpNr7vGFgCaAJoHUmYJi5R0cQQAABBBBAAAEEEEAAAaWA2mBCVeqhPFHYt7XTkrB3jQNqUIDxpsGLEs1NUjUg1d7nDQNLAK2z+FVr9ciRb49h5h4dQQABBBBAAAEEEEAAAQSUAmqDCVWph/JEYd/WTkvC3jUOqEEBxpsGL0o0N0nVgFR7nzcMLAE0AbTOBAwz9+gIAggggAACCCCAAAIIIKAUUBtMqEo9lCcK+7Z2WhL2rnFADQow3jR4UaK5SaoGpNr7vGFgCaB1Fr9GvuJYa2c0zNyjIwgggAACCCCAAAIIIICAUkBtMKEq9VCeKOzb2mlJ2LvGATUowHjT4EWJ5iapGpBq7/OGgSWAJoDWmYBh5h4dQQABBBBAAAEEEEAAAQSUAmqDCVWph/JEYd/WTkvC3jUOqEEBxpsGL0o0N0nVgFR7nzcMLAG0zuJXrdUjR749hpl7dAQBBBBAAAEEEEAAAQQQUAqoDSZUpR7KE4V9WzstCXvXOKAGBRhvGrwo0dwkVQNS7X3eMLAE0ATQOhMwzNyjIwgggAACCCCAAAIIIICAUkBtMKEq9RBP5Hj7+mXfnabGpu7xWeWJ33lbdUve+YwcQKcCc7aJrluXSg8Vf/vDpc4Rq7IXjsnhm2crC/IL94h/ik91TCjfVW4z3pQabAcWmJs23288d6Sw6NuKusdjduXOs28GGk6f2O8aciW/PXyjfDf0bVUDUu19PvRmaHxPAmidxa+RrzjW2hk1PqNoHgIIIIAAAggggAACCCCwNAG1wYSq1EMQhLlpU9edG6e/Kzp6dcC2tCb6+ZTalvg5DC8bXWDeNth2uWj/t9/9ePpYQW5WSaNZ8U2I/WX70bzduYdPX7x6vaHhZsfwtD8Oxps/GV5fKDA33Xfr7IFvDpefPF2+738yv2tWfvlme3HrwM5de0t/u1x/vaHhVufIEu+Lqgak2vv8wh7p9ncCaAJonQnodq7RcAQQQAABBBBAAAEEEEAgkIDaYCJQ6jE/M/r4Tu0vp0/+cuHC5d+b7vSY387Pz81YLaZ7Z4+XEkAHug68t1wCc1PDDT+VHjjW8Gz87eueS3/7jz21gzPyyd4+/+PI/u9+bR54Oye/5nsj0Mj3/QlejVKBOUt/bVnJoZ9vvXjzdqLr7H/9264rw54vPaafNn6TV3ahY8Q+/04+qgak2vv8O7VMSx8mgNZZ/Kq1euTIt0dL04e2IIAAAggggAACCCCAAAJhE1AbTARIPaxPm74/evr3hwPPn9yvPVVZebn9pdWZ6s1N91z6iQA6bNeMA6kRsL/qqjx8oPTM/dezwvzUkyNpafuaJ90HmHvT0/jNl/8ZH/+v//uz//7ml/uTDvc7i/4OMPIX7csLUS3wdqi9fH/hiauPpxzC/GR34b/96dvbU26RuYnOS//zn2mbNyf9r8/+dvCcuM/SflQNSLX3+aU1SYOfIoAmgNaZgAZnEU1CAAEEEEAAAQQQQAABBN5dQG0w4Tf1cEy2//p9aYO4zsb8jKXn9rVz9fcIoN/9AnGEdxOYnx5s+6Fg//eXuqfmBOHtwMltWzNqh+RjOt5OPHnaPzA6MdBe+7f4/5V09IEcTsv7SBt+R/6C/fg12gXmpnpvFOcX/ny9d3pOEKb7j6Umfn1lRFaZtZq7Hj8fGpt43lrzXxv+8d+Pd8nhtLxPKBuqBqTa+3woDdDFPgTQOotfI19xrLUz6mJe0UgEEEAAAQQQQAABBBBAQK2A2mDCb+phH7txouxUu7i+LgG02qvA/ssnYH/1qLLo4NFznVIF9Pf/+efcJp8h80zXj1/+w+fVzz3rc3g1yu/I99qLXxAQ3g62f19w6Mf6J1IFdNGfkr9p9hkyzzwo+49//OK8YkkYFXqqBqTa+7yKdmh7VwJoAmidCWh7QtE6BBBAAAEEEEAAAQQQQGCJAmqDCb+ph2Pq4bnjZRcej72dnX07/vBW3Zmrd6mAXuJV4WPhE3BYBi7+ULSv/Frfm5k3Ty9n/mnnqd6ZuRmr+dXoG6vN+mbcPGaxOeZn3441Ff3XP311WbFar1cj/I58r734BQFh9vWzX0u+PfBzy9Dk7OvHZ9O2fP3b8xmHbco8arZY305NjJknpuyO+dlp87X9nydkN4x4FohWoadqQKq9z6toh7Z3JYDWWfyqtXrkyLdH2xOK1iGAAAIIIIAAAggggAACSxRQG0z4Tz3mLL3NPx8/df763Y57dy6frf7lSvtL66x1bPhpz8OGyu8PnW5++LT/1eTsuz15y9NN/y3x7MMWAsKcbfD25aLCkmOnL/x0KO9vxY3mGWHqeUtx7v7q1t7uWxd+KPup+uK1sz9999cvso+1vPIXBjLeGEuhCjim+5rOHjhw9Keaiz8e+Pt/lzSPzzjGuhuL8osutj97cO3MsfKq3y7/frai6Is//8/JOyZ/Qy7w6VQNSLX3+cCn1tG7BNAE0DoT0NHsoqkIIIAAAggggAACCCCAQOgCaoOJQKnHnH3kyd1rVxvqf79ZX3f5bP29l1MzY886fq+vv3hJ/HPlWnPXq7cE0KFfHfYMi8CcbaLr1qXSQ8Xf/nCpc8QqCMLbl501FVW/Px6fHH124+zP3x74dk/+kZONz946n5rp86SBRr7PD/BiFAvMTZvvN547Ulj0bUXd4zG7MD/3pv9u9cmaW88m3rx8fK36RGHBt3vyv6u69cLmf8gF9lM1INXe5wOfWkfvEkDrLH6NfMWx1s6oo9lFUxFAAAEEEEAAAQQQQACB0AXUBhOhpB7iGtB3rp2XH0IYemvU7BlKS9Qcj30RCCTAeAukw3sRF1A1INXe5yPem+U6IQE0AbTOBJZrKnBcBBBAAAEEEEAAAQQQQOC9CqgNJkJJPRY+hHB5OhhKS5bnzBw1GgUYb9F41TXcZ1UDUu19XsP9Vtc0Amidxa9aq0eOfHvUDXD2RgABBBBAAAEEEEAAAQR0IqA2mAgp9Zh3WN+Mm8Yn7Y5lVAipJct4fg4dXQKMt+i63prvraoBqfY+r/neh9pAAmgCaJ0JhDq02Q8BBBBAAAEEEEAAAQQQ0JWA2mBCVeqxrBLaacmydpODa0SA8aaRC0EzJAFVA1Ltfd4wyATQOotfI19xrLUzGmbu0REEEEAAAQQQQAABBBBAQCmgNphQlXooTxT2be20JOxd44AaFGC8afCiRHOTVA1Itfd5w8ASQBNA60zAMHOPjiCAAAIIIIAAAggggAACSgG1wYSq1EN5orBva6clYe8aB9SgAONNgxclmpukakCqvc8bBpYAWmfxq9ZexfCwAAAgAElEQVTqkSPfHsPMPTqCAAIIIIAAAggggAACCCgF1AYTqlIP5YnCvq2dloS9axxQgwKMNw1elGhukqoBqfY+bxhYAmgCaJ0JGGbu0REEEEAAAQQQQAABBBBAQCmgNphQlXooTxT2be20JOxd44AaFGC8afCiRHOTVA1Itfd5w8ASQOssfo18xbHWzmiYuUdHEEAAAQQQQAABBBBAAAGlgNpgQlXqoTxR2Le105Kwd40DalCA8abBixLNTVI1INXe5w0DSwBNAK0zAcPMPTqCAAIIIIAAAggggAACCCgF1AYTqlIP5YnCvq2dloS9axxQgwKMNw1elGhukqoBqfY+bxhYAmidxa9aq0eOfHsMM/foCAIIIIAAAggggAACCCCgFFAbTKhKPZQnCvu2dloS9q5xQA0KMN40eFGiuUmqBqTa+7xhYAmgCaB1JmCYuUdHEEAAAQQQQAABBBBAAAGlgNpgYnTU9EYbP9ppiTY8aMXyCjDelteXoy8SUN6oF28TQC82WfwKAbTO4tfIVxxr7YyLBzGvIIAAAggggAACCCCAAAIGEFhCAD2rjZ/RUZM2GkIrokKA8RYVl1lLnQz87wsBdGAf6V0CaAJonQmEMqzZBwEEEEAAAQQQQAABBBDQncASAmiN9FFV/qKRNtMM/Qow3vR77QzZclUDUu193jBiBNA6i1+1Vo8c+fYYZu7REQQQQAABBBBAAAEEEEBAKaA2mFCVeihPFPZt7bQk7F3jgBoUYLxp8KJEc5NUDUi193nDwBJAE0DrTMAwc4+OIIAAAggggAACCCCAAAJKAbXBhKrUQ3misG9rpyVh7xoH1KAA402DFyWam6RqQKq9zxsGlgBaZ/Fr5CuOtXZGw8w9OoIAAggggAACCCCAAAIIKAXUBhOqUg/licK+rZ2WhL1rHFCDAow3DV6UaG6SqgGp9j5vGFgCaAJonQkYZu7REQQQQAABBBBAAAEEEEBAKaA2mFCVeihPFPZt7bQk7F3jgBoUYLxp8KJEc5NUDUi193nDwBJA6yx+1Vo9cuTbY5i5R0cQQAABBBBAAAEEEEAAAaWA2mBCVeqhPFHYt7XTkrB3jQNqUIDxpsGLEs1NUjUg1d7nDQNLAE0ArTMBw8w9OoIAAggggAACCCCAAAIIKAXUBhOqUg/licK+rZ2WhL1rHFCDAow3DV6UaG6SqgGp9j5vGFgCaJ3Fr5GvONbaGQ0z9+gIAggggAACCCCAAAIIIKAUUBtMqEo9lCcK+7Z2WhL2rnFADQow3jR4UaK5SaoGpNr7vGFgCaAJoHUmYJi5R0cQQAABBBBAAAEEEEAAAaWA2mBCVeqhPFHYt7XTkrB3jQNqUIDxpsGLEs1NUjUg1d7nDQNLAK2z+FVr9ciRb49h5h4dQQABBBBAAAEEEEAAAQSUAmqDCVWph/JEYd/WTkvC3jUOqEEBxpsGL0o0N0nVgFR7nzcMLAE0AbTOBAwz9+gIAggggAACCCCAAAIIIKAUUBtMqEo9BEGYGX9+8+Kvhw8cOvTD+bvD08pTv+O22pa84+n4uH4FHJND9cf3/p/1G9cl7730eELZkRnTo2P/k/4PH/2//7f4Z+O288PKd5XbjDelBtuBBRxvntd+9/f/vSZu/dbCxudW5c72l3cP/zX1/3ENuX/efuWV8t3Qt1UNSLX3+dCbofE9CaB1Fr9GvuJYa2fU+IyieQgggAACCCCAAAIIIIDA0gTUBhOBU4/5OcfMzIx9ZmZmdnbWMTc/be5svn33ycib8Zd3L/1UVnlz+O3SmunjU4Fb4uMDvBSdAo6prrqfcveUXu3oaavK+9evTvW/nZcl7EO3jxYcPtnYa3XIr/neYLz5duHVxQKONx1nvv+ffRU3u560VuxMyKx5YfPsZHveVLC7qOb2oG3O8+IStlQNSLX3+SW0R5sfIYAmgNaZgDYnEq1CAAEEEEAAAQQQQAABBN5RQG0wESD1mHs70X2z7ufjFd9XnDr5c/WZhrsvrZ6IZebV3dMnLne/DpbzhdyfAC0J+RjsaHwBx+v+898XH678Y+StMDP6x+7P//ZjjycOtPY1F+UfOlbb9mTgpenN2zlPNL1QhvG2UITf/QjMjj0+dfjw0bP3x+zCzMiN7YlfnnrmGXJTPdf25hRX1nc8ezFitiw9hVY1INXe5/30TH8vE0DrLH7VWj1y5Nujv0lGixFAAAEEEEAAAQQQQACBEATUBhN+U495x2hbbcmxS/eH3ky86vv93K+nrrR7Auj5mZHOq6fO3x315DAhNC7gLn5bEvBTvBltAraXD346WFB2vtPiEARrX/kXqX//XV6FY37y+Z1jBXu2/fVvf/7i6+0Hqm8PTPr7hoTxFm0jZ8n9nR5oPbqv8GTDE/ELOOvT4j99tvfmG/fR5ixPbxbvyfvyy6z/+GL7zm/P3h2c8jfk3B/x/beqAan2Pu/7lDp8lQCaAFpnAjqcZTQZAQQQQAABBBBAAAEEEAguoDaY8Jt6zLxuPVV2/MawXRDmZyw9t6+dq7/nCqDnHVNDDy/9Vtvc+2Y2eItC3cNvS0I9APtFg8D826F7PxYWfH+xS4yWp/tPZHz+35dH5Z7PzVhHXpnHLNax/vaybf+6ac/NMU/VvryXuMF48+LgF78C89b+5iP7Dp5s7J2eE4Tp3u//PSm7wSzvPmefHH5pnpiymp+1Fv854V8OtI77GXLyR3xuqBqQau/zPs+oxxcJoHUWv0a+4lhrZ9TjNKPNCCCAAAIIIIAAAggggEBQAbXBhN/UY2ai5eeyn1pGZxYE0PNzUy97fj9//sq9l9NLq/Tz0we/LfGzPy9Hp4Dd/PhUycGiX++a7YJj4n7hv//n/tteD4Vzs8x0/fjlP/x79fMZ9wvefzPevD34za+AbaTj2IGD31/sej0jOMbb8/7l86K7Pp+/OvOg7D/+Mf38oJ8h5/cEzjdUDUi19/nAp9bRuwTQBNA6E9DR7KKpCCCAAAIIIIAAAggggEDoAmqDCb+px7yt7/eqkpNNPaNT029e3qk/X1139+XU7OTQ42sXL1+90/faHnqjQtrTb0tC+jQ7RYvA3FtT8+nv84p+u//S8uJWxZ//cvjmqGPmzdDt67e6X5gGuzta7z4dm561vnpU8XVq8qHWCT/lqIy3aBkx79zPOevLaxUleaWXe0yTzxuP/tvnRX+YZ6fHnt++0fp06FV/Z/vtB/2vbQ7rywelGZ/9+Wj7az9DLnBDVA1Itff5wKfW0bsE0DqLX7VWjxz59uhodtFUBBBAAAEEEEAAAQQQQCB0AbXBhP/UY94+3td49vTxE7/8euZizW9naq7eHXw1eONM5YEDR8t+qj71y2+nz1y++Xjc4f85b6E3myURVFlF9c7zjjf99yqLv/ly29df/HXX0cuPp+cEy5OG3C+yjjX1D3Q0lO3N3fbXr9M+T0/L+en2C8VzM73V/I987/34DYH52fEnrccP7v1rxtdf/HX39w19bx2zo/cu/P2vOVV/PO+9fbEkLyfjr1//OeWLtN2n7g6LC3Us4UfVgFR7n19Ce7T5EQJoAmidCWhzItEqBBBAAAEEEEAAAQQQQOAdBdQGE4FSj/m5t5axkeGXw0PP792qP19/b9gyPWEaHR56OST9eflqbHImTPkza/K+45WPoo/PO+yvR4eedD3uejo0MS2uQ+6Ynhh41j/yxj7zdvLVi76uR12dnT19I5MBvh0JNPKjyJKuhiQw77BNjLx43NXd9Wz4jW1OXJdoaux578DopH1m+s3I817XkBu1Bhhygc+kakCqvc8HPrWO3iWA1ln8GvmKY62dUUezi6YigAACCCCAAAIIIIAAAqELqA0mQkk9Fj6EMPTWqNkzlJaoOR77IhBIgPEWSIf3Ii6gakCqvc9HvDfLdUICaAJonQks11TguAgggAACCCCAAAIIIIDAexVQG0yEknoQQL/XS8rJl0UglJG/LCfmoAj4ElA1INXe532dUJevEUDrLH7VWj1y5Nujy3lGoxFAAAEEEEAAAQQQQACBYAJqgwlVqUewk7/T+9ppyTt1gw/rRIDxppMLFS3NVDUg1d7nDYNIAE0ArTMBw8w9OoIAAggggAACCCCAAAIIKAXUBhOqUg/licK+rZ2WhL1rHFCDAow3DV6UaG6SqgGp9j5vGFgCaJ3Fr5GvONbaGQ0z9+gIAggggAACCCCAAAIIIKAUUBtMqEo9lCcK+7Z2WhL2rnFADQow3jR4UaK5SaoGpNr7vGFgCaAJoHUmYJi5R0cQQAABBBBAAAEEEEAAAaWA2mDCZDIrP/4et1XlL++xnZzaGAKMN2NcR2P0Yn5+XtWtWO193hhKgiAQQOssftVaPXLk22OYuUdHEEAAAQQQQAABBBBAAAGlgNpgYnx8wuFwKI/wvrYJBN+XfHSel/EWndddm72emZkZH58IvW1q7/OhH1njexJAE0DrTEDjM4rmIYAAAggggAACCCCAAAJLE1AbTFit1snJqaWdK7yfIhAMrydHCyzAeAvsw7uRFLBYJq1Wa+hnVHufD/3IGt+TAFpn8WvkK461dkaNzyiahwACCCCAAAIIIIAAAggsTUBtMDE/P282j83Ozi7tdGH8FIFgGDE5VFABxltQInaIjIDdbjebx+bn50M/ndr7fOhH1vieBNAE0DoT0PiMonkIIIAAAggggAACCCCAwNIElhBM2Gx2k8n83jNoAsGlXXE+tTQBxtvS3PhUeAXsdvH2a7PZVR12Cfd5VcfX7M4E0DqLX7VWjxz59mh2LtEwBBBAAAEEEEAAAQQQQOBdBJYWTNhsYgne5OTUe1wPmkDwXa47n1UrwHhTK8b+YRSYn5+fmZmxWCbN5jG16bMgCEu7z4ex/e/rUATQBNA6E3hfU4XzIoAAAggggAACCCCAAALLKrDkYGJ+ft5qtY6PT5hM5tFRE38QQAABBJZJwGQyj49PWK1WVStvyP92LPk+Lx9BpxsE0DqLXyNfcay1M+p0ptFsBBBAAAEEEEAAAQQQQCCwQNQGE4FZeBcBBBAwjEDU3ucJoAmgdSZgmJsOHUEAAQQQQAABBBBAAAEElAJRG0woEdhGAAEEDCwQtfd5Amidxa9aq0eOfHsMfBuiawgggAACCCCAAAIIIBDNAlEbTETzRafvCCAQVQJRe58ngCaA1plAVN2Y6CwCCCCAAAIIIIAAAghEj0DUBhPRc4npKQIIRLlA1N7nCaB1Fr9GvuJYa2eM8lsV3UcAAQQQQAABBBBAAAGjCkRtMGHUC0q/EEAAgQUCUXufJ4AmgNaZwIKpy68IIIAAAggggAACCCCAgDEEojaYMMbloxcIIIBAUIGovc8TQOssftVaPXLk2xN0MrMDAggggAACCCCAAAIIIKBHgagNJvR4sWgzAgggsASBqL3PE0ATQOtMYAnTm48ggAACCCCAAAIIIIAAAtoXiNpgQvuXhhYigAACYRGI2vs8AbTO4tfIVxxr7YxhmfAcBAEEEEAAAQQQQAABBBDQmkDUBhNauxC0BwEEEFgmgai9zxNAE0DrTGCZbgEcFgEEEEAAAQQQQAABBBB4vwJRG0y8X3bOjgACCERMIGrv8wTQOotftVaPHPn2ROymwIkQQAABBBBAAAEEEEAAgUgKRG0wEUlkzoUAAgi8R4Govc8TQBNA60zgPd4mODUCCCCAAAIIIIAAAgggsHwCURtMLB8pR0YAAQQ0JRC193kCaJ3Fr5GvONbaGTV146AxCCCAAAIIIIAAAggggEC4BKI2mAgXIMdBAAEENC4Qtfd5AmgCaJ0JaPxWQvMQQAABBBBAAAEEEEAAgaUJRG0wsTQuPoUAAgjoTiBq7/ME0DqLX7VWjxz59uju5kKDEUAAAQQQQAABBBBAAIFQBKI2mAgFh30QQAABAwhE7X2eAJoAWmcCBrjd0AUEEEAAAQQQQAABBBBAYLFAd3fP3Nzc4td5BQEEEEDAAAJzc3Pd3T0G6MgSukAArbP4NfIVx1o74xJGOR9BAAEEEEAAAQQQQAABBLQv0Nf33Gqd1n47aSECCCCAwBIErNbpvr7nS/igAT5CAE0ArTMBA8w6uoAAAggggAACCCCAAAIILBYwmcaGh0cWv84rCCCAAAIGEBgeHjGZxgzQkSV0gQBaZ/Gr1uqRI9+eJYxyPoIAAggggAACCCCAAAIIaF9gbm6up+fZ5OSU9ptKCxFAAAEEVAlMTk719DyL2nWWCKAJoHUmoGp6szMCCCCAAAIIIIAAAgggoCMBi2Wyu/sJGbSOLhlNRQABBIIKTE5OdXc/sVgmg+5p1B0IoHUWv0a+4lhrZzTqVKRfCCCAAAIIIIAAAggggIAgCBbLZE/Ps+HhEat1Ompr5RgJCCCAgAEE5ubmrNbp4eGRnp5n0Zw+C4JAAE0ArTMBA9yA6AICCCCAAAIIIIAAAgggEEBgbm7OZBrr63ve3d3z6NFj/iCAAAII6FGgu7unr++5yTTGt4kE0DqLX7VWjxz59gT4f2m8hQACCCCAAAIIIIAAAggggAACCCCAAAKaEiCAJoDWmYCm5g+NQQABBBBAAAEEEEAAAQQQQAABBBBAAIEAAgTQOotfI19xrLUzBhjNvIUAAggggAACCCCAAAIIIIAAAggggAACmhIggCaA1pmApuYPjUEAAQQQQAABBBBAAAEEEEAAAQQQQACBAAIE0DqLX7VWjxz59gQYzbyFAAIIIIAAAggggAACCCCAAAIIIIAAApoSIIAmgNaZgKbmD41BAAEEEEAAAQQQQAABBBBAAAEEEEAAgQACBNA6i18jX3GstTMGGM28hQACCCCAAAIIIIAAAggggAACCCCAAAKaEiCAJoDWmYCm5g+NQQABBBBAAAEEEEAAAQQQQAABBBBAAIEAAgTQOotftVaPHPn2BBjNvIUAAggggAACCCCAAAIIIIAAAggggAACmhIggCaA1pmApuYPjUEAAQQQQAABBBBAAAEEEEAAAQQQQACBAAIE0DqLXyNfcay1MwYYzbyFAAIIIIAAAggggAACCCCAAAIIIIAAApoSIIAmgNaZgKbmD41BAAEEEEAAAQQQQAABBBBAAAEEEEAAgQACBNA6i1+1Vo8c+fYEGM28hQACCCCAAAIIIIAAAggggAACCCCAAAKaEiCAJoDWmYCm5g+NQQABBBBAAAEEEEAAAQQQQAABBBBAAIEAAgTQOotfI19xrLUzBhjNvIUAAggggAACCCCAAAIIIIAAAggggAACmhIggCaA1pmApuYPjUEAAQQQQAABBBBAAAEEEEAAAQQQQACBAAIE0DqLX7VWjxz59gQYzbyFAAIIIIAAAggggAACCCCAAAIIIIAAApoSIIAmgNaZgKbmD41BAAEEEEAAAQQQQAABBBBAAAEEEEAAgQACBNA6i18jX3GstTMGGM28hQACCCCAAAIIIIAAAggggAACCCCAAAKaEiCAJoDWmYCm5g+NQQABBBBAAAEEEEAAAQQQQAABBBBAAIEAAgTQOotftVaPHPn2BBjNvIUAAggggAACCCCAAAIIIIAAAggggAACmhIggCaA1pmApuYPjUEAAQQQQAABBBBAAAEEEEAAAQQQQACBAAIE0DqLXyNfcay1MwYYzbyFAAIIIIAAAggggAACCCCAAAIIIIAAApoSIIAmgNaZgKbmD41BAAEEEEAAAQQQQAABBBBAAAEEEEAAgQACBNA6i1+1Vo8c+fYEGM28hQACCCCAAAIIIIAAAggggAACCCCAAAKaEiCAJoDWmYCm5g+NQQABBBBAAAEEEEAAAQQQQAABBBBAAIEAAgTQOotfI19xrLUzBhjNvIUAAggggAACCCCAAAIIIIAAAggggAACmhIggCaA1pmApuYPjUEAAQQQQAABBBBAAAEEEEAAAQQQQACBAAIE0DqLX7VWjxz59gQYzbp/q3an8M9bhLS/iH+++EpoGgmpR6ZrQupXQr89pJ0FQXCMC/u3CX9MBtrfMS4Ufi6UPxL3cYwIO7cIedcEhyA4JoUi9+uBPu/93rNqIXWfYPJ+MehvDnPr8ZykDWtXrIxZvT41u7rH4vsj9t7K7SklnTbf7wZ/1TZQm7Uls6LbD6DDfGFHet7NRVwOc/2OuBVrcupDu0pyOywthQnJZV1+OiPvJghCkIYpdw2wPdFWkJRa1L6o/QE+EspbE20Fm2JXb0hM2Bgf+2l8UnZNx4TPj73r1fEc1H3GuA1xsWsSU/bWhmIo2Ier0hKzLpk9x/G9Ze8qTU3Ia/a6LNaeivTkrDPDNsHzrqmhMGlrWeuEIEw0523NuTDk+3C8igACCCCAAAIIIIAAAggggAACsgABNAG0zgTksWvAjUs7hdzLYs6r6kdtAG0fEbL/EiSAFuzC2a+EnecFuyCYbgqpW4S0EuGNIEw/Fb76XGgaV9VAYSkB9GRXeXrsxu1VLf0Wu2Az9zS1D/uJmO1d5elJh5ceQAt2c+/DHpPVT5/sw1XbkrMbFwW4I43ZW5KTNidn1wUNN72OHHoAHaRhXkf1/8vyBdDuXNs21FyUHJdU2uPrAr3z1ZF7puiIbaCxYEtcUrnPM8ofcG68SwAt2E3dnb1mu6AIoIWJ/q6HwxaHIIw0ZiVtJ4D25uY3BBBAAAEEEEAAAQQQQAABBHwIEEDrLH6NfMWx1s7oYxQb5qUFAbRjRMj7XDg74OyfXTj5lXDkttB1WfjyM+Fftgif/UW44nxLDqAHzgupu1yFxndKhIwKYUoQ7CPCyV3i/v+yRdhZIYyPC0e2Cf/fWuGzz4XcSnGHZ+eFjM+EP30m/Gmb8LuimrezTEg7KIwLQnuZ8PVB4cuvhK5JQT6XY1w4vtP5qc/Ew0rVzXdKhC/3CdnbhJ1lgskuXDoo7pC2Tcj+SviTygroiea8zYnZjQuy3cnWvclJUrGzK1gcHjyTn/BxzIqP4xO25tQ8UVQxjzRmbU7Nyt6ekpS4bk1iWkmbSUz27YOXilM2JcZtTIzbsr3ivjNWHqnL2pxZ1WcXI0XXR5LjNqZmn+m3Ocz1BamxH8SsWp+YlFnRoaiPNV3KScqqbarcnrCjTjpyV2l6Qnp+Vlpqwqb4hG0Vrc62W7pr85LjY9fExa53HlAQXAH0hLl+R3LKcSlCtXeVpicVtJkHGosy05M2JyZsza/pnhTkhjkmO04XpiUnJ2xKzihpdp4u5EGvyG1dn3GYm0oyEzaKCAnpZa46ex8viq1y9Whj3Lot+V68Xoe1d5SkxuU2mxz2wUuFKZvi162PW5eUX/Nk0vvqjC26fGaxQnlbclp2TkpyelZlj6mlMGHL9uzM9KQtiXFbclwXSGr3gjMeThYLlqe9Pm6b6KzITBYv7sbElILGQTE6Hq5Ki09Iz0nbmhy3Pj4hs1Ksm7YPN5Vvj1sTF7smLi69QixndkbM65K2Z6SlJmyMd3XWE157KqBdl+9FZ1Fa/IqVsbGbktO+vVLz9cJLqRgpIV8pdkQAAQQQQAABBBBAAAEEEEDAoAIE0ATQOhMw6Ex0dqv2K2HtWtefVGd8/Ps+IdtZhjz9VPh6m9A+KQw9EoacMeutg8KXzn3kUNhnAO0YFzqfilXV4hE+FyPm6adCxueuCujpp8LOvwjSKhJ/lAlfOQ8oEYuFz18JPePCia+E8pvCt38RagaEjjLhizKxFPrWQeFrZ34tTIrJeNFt8RR3SoR//ly446yPHrgspO0UnokRoPD7PrUBtK2vJmVjZo2UvXsu+eIA2iwI4osJiyugR+oyNiRmX+q3OdeyyNicXtFttw3UZmzZXuXMqU03i5O2lomZspzzjtRlrI/PqBY/YmkpTkgqFt+19pQmJy6sgBbX5UjNOjNsGajNSJLWYbB3lSTHJhWLubN9uCo9MePMsHMZjc6OAfF6mRryE7aKK2/IFdCW9rKk5GJx5QpLZ9HW9KL2lx0HUxMOtlkEwTYybLIrGjZUm7F5u6hhnxwcWlSL7fHxteWV24o7mBryk1KlMH2yozQ9aa+YaPt60d5VkroutaJDTNInOw6nJogRs/sUisPaRtqKtiZmVPeLGhKvY7KjPDMpr9nkUF4dX5fPPlyVujY2vabXOagtLYVxa9KdubMz/s5t9H3GoeaC5MSsM8Mitefjk62HU5MKnI209ldtS86qlXaITzrYLHpaeyrSnNfFYe5q7xGPLL6SnHVpWAygpc6KYbS7s9Py8h2LAmiLYOurSdvkqoBedClVXiM3Kn8jgAACCCCAAAIIIIAAAgggYEgBAmidxa9aq0eOfHsMOQ9dnVpQAS0IwvhNIWOnMGAXeird6bBd6LwmHNknZGwRPtsnVigHDqAFQZgaEM5WCHlfCQmbhJNPvQLonkqxGlpOvTftFOQa6OkBMbC+0iFWNP8xLlzZJey9LJzdKey9JtidK0SffOpqdk+lq1ZaLrsWBHF/aQUPQVjCEhxiuqc+gLbcr8xISk7YnJx2uNk07K5rFstbxSQx48zwYPX2uPRasTBWEISJtrwtqQXtikJjOYkWBFt3Zcrm/HqznwB6qC5Lyp3twzWZyc6s2ZNRCg5zfa6nJNZ0v650b05aUvyq9Tn1Zk8ALdj7q7alZjeYTbeLk9Iqu6yCqbEwYX1i2t6aJmdm7UnGxTg1fl1STmmtMzZ1uYf2lyIpFj/gMNdnJ6e4F6+wPaxI2pzf9MrXi2ZFj6TC7SRnXi+ddqKtYGPMipXSn7iUw2LCO1iducr1ivj6quTKXnsIAXRaYkatGNYLcnm4s3548Mz2uG21g8rIWz7jB/EZxzvFdTCkKyt93NJZkJRccFsKf+29pzPjMmsHPSGys8zZVaktCJb+psqy7Mz0uE/WOpfy8O7szcKEpLIOc6gB9OJLKXWH/0UAAQQQQAABBBBAAAEEEEAAAUEQCKAJoHUmYOR5uziAdkyKK2bUPhWqdgonH4nPDyzdJnxdJtzqEG5VuJ7styCAlhJkOfRSJecAACAASURBVAvuPy+k/kWouiZ0dgj7P18YQHdVuLJjH6yT4rmKKsRVNUacIfJXB4XCbcIvT8Vm7P1cOOF8RKEgCF0VwufOFTbkk75zAC2mw5sT83wuwSEVO3uWR1BGnIpuKNJkZxVzfMaZ572nM9eluYptxYfIbXbmlfKe8kawAHqwOnO1ImldnVY7aFckmFIAXd5jc5ibClLjUotrGts6GstSNotPLJQroMVi5Lr8pG0VVbmpGafFsmuxYnqkp/5EYcrm5OxLwzZFewTHZG9LbVFWalxahZ/H/Sn6rtxcHEDvSEwqca2ebLlflrQpp37IXL/4xRFFj8Sm5sRtcZaESwd3H1YsKt+Q6FwI295b6cx85chY3FN5dZwV0Asun+c6insrcXwE0O5Vpz39U35cGjOux0XaeyvT16XXDk7KIbIYQItLhWQ3Dj2uydiUnFVe19reVrMj0WcALXY29ADa16X0NJItBBBAAAEEEEAAAQQQQAABBKJbgABaZ/Fr5CuOtXZGI0/YxQG04FyC+at9wlc7hR67MPXIvXqGXah3r2shB9Cmm8LnfxGX6XBMCse3CV8419O4skv4ulp8luD4I+Grz8QA2u4sbZaW3XhzW0j7zLWWtCAI09669fuEtL8Iuc41QKYeCV9+Li7o3D4prqpRu1P40r0Ex4ltQvZl8RTKAPpZtfDZNqF9fGlLcAiC9BDCnJqHYkGrbai54kSjFPKu21bbaxdsfXVZG+IzLokLXnSVpIrLAXvlnuL6Fc4lOMRHF5puFiZs2l4zYBcLfjdmupfgKEzYlC8yyDmvvKEMoO39YvW0u0RXBLIP12yTqp7F32wDtWmbMqv6JrtKnc2QqoxznVXGls6ipOQ8MRK199bmx21YGEA7F99IjNucc0EsebYP3u/slZaAkHokF3FP9Hc8dD6DcaguY1N6hXKpa+8r5uM3d1LsfstZGrxVXoIjVawytvt+0bMqhbW/Kj0+6bC4PIjrx3NYu5gUby5sMguW+xVJGzIrnJdMcNhtYqW58uqIifbCy6dMkN8xgHaIMXqCvARHeqK4xLa4RodzCQ6HWPNetDU1r8E8WLs9TvoewtxZujXe+fhEaQmOSjHcd5jr81JTSjotnra5s3iHIiIfqctSXgtxHRX5UrqV+BsBBBBAAAEEEEAAAQQQQAABBKiA1lq6SnuCChh52tbuFP55i5j5in+chc/iAhqPhLR/Er6qdqbDzif7ffaZkPGVULhPSHPWHU89Er7YJHx7W1wZ48jnwtpNwhc7xTU6vpZWiO4Qvv5MDKZ37hN2OiugBbtwaZeQ8JnwVYn48MCe80LqFuFPn4uF0ic6xKWc5Z+eSuGf1roqnR3jQuEWQV6jwz4ilH8lPsnwT5+JFdniCrveAbRj0vkQwi1C6jZh7y5XU+Ujh7LhmOyoLs5IihdXdfg4MeO4+BRB25OatE9jVn2anJJZmJeemiUG0ILtYWXKmrh1WzJLXcsvOI/uDKBTMtMTNsXHrk8tuCk9z9DeW1uYtCE+blPiuk3bK8QwPVgALdh7z2xf92l8QmqxFNqLy4NIKzJLvXAm1GmVT+4vDqDFz+YnrI9PSErPyM5J2iIG0OLHP413J9rOmtwdzpWOHZMdJ3IS1set25gYl+z1EEJbX2NBWmLsmvi4jclpJc7ljEMBlPaZaCvYFLt6Q2LCZnFxkpRcsSi46XB63IbEuI3xcallTSPOa2df/KIzL07anpGcHLc+Li6zpteqOKsngHYm8pmJCQVtFoeTd03cuk3JCVvSCxqcq2Arro6Py+cJecWDv1MFtCAI5s7SbYki4Ib4pL11rocQpien7Niesjlx3Zr4tPJOMUMfaStKS1y3MTklPSc7XVqQRHriYk5GcqKns4q2DV7KWfdpetUTu6eFYp17YuyaxKRsaVEXxaVUOLGJAAIIIIAAAggggAACCCCAAAJUQFMBrTMBJi0CIQkoyplD2v+97DTSXLA1vUiZm7+XZvg+qbvs1/e7vOotoOlL6d1UfkMAAQQQQAABBBBAAAEEEEAgsgIE0DqLX4MWCBt+h8hOEM6mWwGtB9D23uqcuE/iUkrEym5N/hBAh3hZtH8pQ+wIuyGAAAIIIIAAAggggAACCCCwLAIE0ATQOhNYlnnAQRFAAAEEEEAAAQQQQAABBBBAAAEEEEBgGQQIoHUWvxq+wDloB5dhFnBIBBBAAAEEEEAAAQQQQAABBBBAAAEEEFgWAQJoAmidCSzLPOCgCCCAAAIIIIAAAggggAACCCCAAAIIILAMAgTQOotfgxYIG36HZZgFHBIBBBBAAAEEEEAAAQQQQAABBBBAAAEElkWAAJoAWmcCyzIPOCgCCCCAAAIIIIAAAggggAACCCCAAAIILIMAAbTO4lfDFzgH7eAyzAIOiQACCCCAAAIIIIAAAggggAACCCCAAALLIkAATQCtM4FlmQccFAEEEEAAAQQQQAABBBBAAAEEEEAAAQSWQYAAWmfxa9ACYcPvsAyzgEMigAACCCCAAAIIIIAAAggggAACCCCAwLIIEEATQOtMYFnmAQdFAAEEEEAAAQQQQAABBBBAAAEEEEAAgWUQIIDWWfxq+ALnoB1chlnAIRFAAAEEEEAAAQQQQAABBBBAAAEEEEBgWQQIoAmgdSawLPOAgyKAAAIIIIAAAggggAACCCCAAAIIIIDAMggQQOssfg1aIGz4HZZhFnBIBBBAAAEEEEAAAQQQQAABBBBAAAEEEFgWAQJoAmidCSzLPNDCQdeuFYz+Z3TUxB8EEEAAAQQQQAABBBBAAAEEEEAgagW0EEFFvg0E0DqLXw1f4By0g5GfJBE6o9HTZ2Ht2qj914WOI4AAAggggAACCCCAAAIIIIAAAqOjpgilTBo7DQE0AbTOBDQ2g2gOAggggAACCCCAAAIIIIAAAggggAACCPgVIIDWWfwatEDY8Dv4Hcu8gQACCCCAAAIIIIAAAggggAACCCCAAAIaEyCAJoDWmYDGZhDNQQABBBBAAAEEEEAAAQQQQAABBBBAAAG/AgTQOotfDV/gHLSDfscybyCAAAIIIIAAAggggAACCCCAAAIIIICAxgQIoAmgdSagsRlEcxBAAAEEEEAAAQQQQAABBBBAAAEEEEDArwABtM7i16AFwobfwe9Y5g0EEEAAAQQQQAABBBBAAAEEEEAAAQQQ0JgAATQBtM4ENDaDaA4CCCCAAAIIIIAAAggggAACCCCAAAII+BUggNZZ/Gr4AuegHfQ7lnkDAQQQQAABBBBAAAEEEEAAAQQQQAABBDQmQABNAK0zAY3NIJqDAAIIIIAAAggggAACCCCAAAIIIIAAAn4FCKB1Fr8GLRA2/A5+xzJvIIAAAggggAACCCCAAAIIIIAAAggggIDGBAigCaB1JqCxGURzEEAAAQQQQAABBBBAAAEEEEAAAQQQQMCvAAG0zuJXwxc4B+2g37HMGwgggAACCCCAAAIIIIAAAggggAACCCCgMQECaAJonQlobAbRHAQQQAABBBBAAAEEEEAAAQQQQAABBBDwK0AArbP4NWiBsOF38DuWeQMBBBBAAAEEEEAAAQQQQAABBBBAAAEENCZAAE0ArTMBjc0gmoMAAggggAACCCCAAAIIIIAAAggggAACfgUIoHUWvxq+wDloB/2OZd5AAAEEEEAAAQQQQAABBBBAAAEEEEAAAY0JEEATQOtMQGMziOYggAACCCCAAAIIIIAAAggggAACCCCAgF8BAmidxa9BC4QNv4PfscwbCCCAAAIIIIAAAggggAACCCCAAAIIIKAxAQJoAmidCWhsBtEcBBBAAAEEEEAAAQQQQAABBBBAAAEEEPArQACts/jV8AXOQTvodyzzBgIIIIAAAggggAACCCCAAAIIIIAAAghoTIAAmgBaZwIam0E0BwEEEEAAAQQQQAABBBBAAAEEEEAAAQT8ChBA6yx+DVogbPgd/I5l3kAAAQQQQAABBBBAAAEEEEAAAQQQQAABjQkQQBNA60xAYzOI5iCAAAIIIIAAAggggAACCCCAAAIIIICAXwECaJ3Fr4YvcA7aQb9jmTcQQAABBBBAAAEEEEAAAQQQQAABBBBAQGMCBNAE0DoT0NgMojkIIIAAAggggAACCCCAAAIIIIAAAggg4FeAAFpn8WvQAmHD7+B3LPMGAggggAACCCCAAAIIIIAAAggggAACCGhMgACaAFpnAhqbQTQHAQQQQAABBBBAAAEEEEAAAQQQQAABBPwKEEDrLH41fIFz0A76Hcu8gQACCCCAAAIIIIAAAggggAACCCCAAAIaEyCAJoDWmYDGZhDNQQABBBBAAAEEEEAAAQQQQAABBBBAAAG/AgTQOotfgxYIG34Hv2OZNxBAAAEEEEAAAQQQQAABBBBAAAEEEEBAYwIE0ATQOhPQ2AyiOQgggAACCCCAAAIIIIAAAggggAACCCDgV4AAWmfxq+ELnIN20O9Y5g0EEEAAAQQQQAABBBBAAAEEEEAAAQQQ0JgAATQBtM4ENDaDaA4CCCCAAAIIIIAAAggggAACCCCAAAII+BUggNZZ/Bq0QNjwO/gdy7yBAAIIIIAAAggggAACCCCAAAIIIIAAAhoTIIAmgNaZgMZmEM1BAAEEEEAAAQQQQAABBBBAAAEEEEAAAb8CBNA6i18NX+ActIN+xzJvIIAAAggggAACCCCAAAIIIIAAAggggIDGBAigCaB1JqCxGWT05jjMFzLXrlgZI/75MLWi2270Dkd9/yY6K7KSYz+KXb1pe1Gj2QeHw9xVW5GVmhj7kTgqVm9ITsuraTXbey8Vp21cu+qj+KTc2i6Lj89F7UuDtdtXSzNoZWxKZb8taiHoOAIIIIAAAggggAACCCCAQLQKEEDrLH4NWiBs+B0MPlUtPUWbnWmvK7Hys/1pTr2vbDD8OFoIoEfqMj6RHBIL2ifD38dwH9HS3Vh1MCdlc/zqD8Vmr1qTmLStsPRM26A13GcK//HsvSdSV8ljb3NZx4Io2dpftS3O9YWEvNuGwtZnzdlr5LG6NqN2OAxNs3QWbZKPufjSezU17mDngpbanlQmOf3FS7C1pvf9fXVCAB2GwcAhEEAAAQQQQAABBBBAAAEE9CxAAE0ArTMBPU+3ENpOAL0ISZEkLk4hF+39fl+wm5tK0mPlZHbBxkeJGeVtpveXhIZg45Xqrti0MIBWZKlyNByzLrfZ9GoZAmjxyw857I5Nq/YOtR3DF7a5a/PFiLlyQcRsasiXL0RcQduCeDoEirDtokCjAjpsqhwIAQQQQAABBBBAAAEEEEBARwIE0DqLXw1f4By0gzqaXUtpKgH0IjVLe1mcK8nVdgBtH76wI35hdfCCDHplTNzeZotjUSe184K5rSjZGex+mJhX55352odr0uTMd21aSWOXWU7T7b3VOeucnY1NqwzTEhz2rvJU2XPdghB5ojlvvScEX/Hp9voRJaLys2GqyFYeXs02AbQaLfZFAAEEEEAAAQQQQAABBBAwoAABNAG0zgQMOAuVXVIG0B+nF11qbm1p8/Hnfn+EQkwNLMFhapRLWTUdQCtyxpgVH8anZBWWVtZeuFRbejA/bYu7kvfT7TVP5NBWeeG1tO2wm/r6BxfXDE80Z8uZ78bihatzCIJtYrh3wBzGNY4tnksfsyq1ZlAhZ3tYkfCBIoBeGV9wW7E8i8Ncv8Nt/kFy6UPFJyMurRgYVEBHXJ8TIoAAAggggAACCCCAAAIIaECAAFpn8WvQAmHD76CBWbOcTVAG0BFb6DlAhzQQQA+eyXQ/w03DAbR9uCo11l2uG593UxGGOnkt3XV5aZkFNyOzdHeAK/oOb3kW445ZlbxwyYt3OK7fj9r6alKcjzoUYTcUtk549hyszvSsVS1WXscmHVc838/aU7rFHU+/73lEAO25bGwhgAACCCCAAAIIIIAAAghEpQABNAG0zgQMPk/VBNCW28XutSnEdXh91ERPtBVsdMVwq1IVz2Gz9DedKMxITY5bs1ZK8VavT07Lrrhwf1E86j+AVoaDq9NrB72XlVCkxr6qPkNpgKLx7mDXHSmKgWN8Xot3yGsdbj1dnLHF9ei/1WsSU7Ir6p947xNw9NiG2qoO5qQlJa77xBklf7A2dlN61uHa1qEQ6meVF+7j7Re8loPwe1bb/TJXGe/HmTVDdpu550K5eF3WfSwmqqs3pGaV1HUpUteFB1LfZcuTxoq8zIQNceJ1/2Dtui2ZWQWVTQolT5NWxsRmN5qcl3VR2qu4EFIptP9x4mmzdbjjTFnW1sRYsXfSsxnzS890BloUe6JTHsArPkqv6nNfCIe5KdtV4Lxuo2tjdWad1FrxjCONWZ+6R76vrNxJnZ+yKW61s4xaHP95lb5Hi2etjzjpewVLd11RVqrzGsWs2FLRpXi2pDiE9mYmrBHHj3NOldXcNw825LhXo/Y1FzxAbCGAAAIIIIAAAggggAACCCBgTAECaJ3Fr4YvcA7aQWNORLlXyhwzaOWmpbNgkzsK9K4PlY6nWD3ZnXxZ+utLt8d96P7UwhWK47OqFWWkgiD4DxaXGECH3gA1AbSluyZjg89OxaWVtnlySdnZe8M21FaxI9ldZ73oOJ9mVtwPFmTb+yuS5QroxIIF4bj36eTfPGnvB4nZpYVJcrWv8rqsz6mRg1f5k4KgusvW4Qt7k72rhuWexmW4r7unSWENoE3tlRlr5NN5bazaUty66IsPV0cdwzWeJw0qvnKwdBa5Rn5cWm6668IppoBygY51ec3eq4nYBxuKE3xSr1ybUtK8MBD3BNDiWtKDDYUJiumj+OLHPlhX6GtmxcYlJbrZ3dNQcR3ZRAABBBBAAAEEEEAAAQQQQMDwAgTQBNA6EzD4nFQVQAuTHYcT3dXBiV5r4IpM9o6SZNe77upRW3el75RTTjw/Si19qAhbwx1Aq2iAtadqR2rC5sR1iqxw9YbEhM3J4p/k7RXudlraKwJ2am1apXeqvnAM2QfPbPebPksym/yHpK6jTXYcdmuvjFmxPrPoUqdJURu78JzO35Vpr/s6eoWzrhc3FStXnxAEQXWXLT0VqfLzAxed4qPUUnfCrmySXAFtaixOS0pO2OReVVk0WRvnvBBJO2p6rYG+qBAE+2BdfpzXes1eDVi3o065uLM3lL1LHsMrPemt+OWHlAJ/mFpaW5bk3q7odpVImy7JFzQ2rVr5KEV7b/V2dz2yVzNk/3XZ3u3xBNCxSQVl3jG65+CmxkL5P0eQD7Vow9MF727yGwIIIIAAAggggAACCCCAAAJGFiCA1ln8GrRA2PA7GHk6isliT9Fmdy4WtAJaECz3y+RoL+5wp1elp7WnNMl1KM/6G47Jpr3x4gIIGzLzymub7vebzMMddZVZm+Tq3ZjYbMVqHuEOoAX1Dah3L7awYqWvNaCHGrPl2udPxdi3d2TSZjF3tdTmbXVHrp/m1AdeE8PSWeRcMjh2a37p6caOJ2bLUE99ZWGSc7EIZ4y4NuOMMsf0MQxtfbVpn7ivnRRbf5SYUVrX4X8FD2XaK57lw8SMw7VN3WbTUE9TdXGKexGJFStjEkoUF1dtl+3DF7LFi+7+E5dSUNv6xGyxmHtv15VmZWbXegJ6ZZPkANrV25G6DDfIwjWg/Y8Ty32vrwdWbc4prescnLBbBnqaThemZVZ0BFhjRBBMnvUrYuRaZtOlHNcXBuvzm7obs1211WKFsrOpytg6sajd84WKpb1MUb8cm5BbIzqM9NQfz1EUL8emHO/xPErRE0DLgGuTdpTV1DU3NTR2jIiRt22gLktR371uW9mF2/0my+Rgd1tVXqriuw0CaB8Th5cQQAABBBBAAAEEEEAAAQQML0AATQCtMwGDz0llAO1JDOXkS9xYt7fNEzQr999c1uV5Q7A9qXRVhq6MTTvtSRgFc09T+/CCBaNtA3UZcngqreorQfsPFpe4BIcgqG1AwABaWXccl3XJOyMeanTHgmszLvlb5cE1oCxP2loVSyFLr5oa89e5r0LsDteCyAFGoOlmmc9a7Ngt2wuq2wYXFUQr094VG/MveC+1YblZKJ99xabiDtfFVd1l5VrhKz5MDvwgRGWTwhBA24dr0t1fA6yMid3mLJcOILjoLcUwjlm1VVrHfLK1wFX4vyq1ZnCiv2Kr6+sTV0KtHLSfKNbjtvdXpcmNiU0qVWT6gmC6Wexaj3tlzIpPt18YcjdlQQD9UWrRbU+i7dxJ8Z8arIxZnaZYbF182957Op0lONya/I0AAggggAACCCCAAAIIIBCNAgTQOotfDV/gHLSDBp+mykDZHX26C1ddMbRXAC3Yu0rdKz98kFzqXoJAjL0q3bHXx5k+FxH2SFonB7sbC5wlwOK5lM/QU2Z5H6bKSxyIVZ99NSnuxTFUP4TQc27nVsAGBAqgletEK5YAdh3ePlyTJkeTitR+wdn9/GqbMPe2VKT4q/n196m+urytyqUqFF8erMksve2VgwdKewVBsPaUyhflg+TSh871JdR22THZlOcpf05YUCa/qBeBmqS+Atr2xDNIVnyyvWbA/RTBRef1+8JEW55c4b4+v8ksCNb+Cndpv1j175hsdRb1i0NXeiSgVfGfESR5HhKozLJXLB4tDnN9lnzhPGtrCF4BdKyP5VyUl2nl4pVwhMFaz3ogKUFWg/HLwBsIIIAAAggggAACCCCAAAII6FeAAJoAWmcC+p1sIbVcdQAtKJ63Fpt03F3prMheV6XV+Fhj127uaqgp2JGeoFjnwZV0f5ha9cQdFC5fAB1yAwIE0F6R4odx0qrErkWixRWKE2Pdz4tbnVkX9FGEYqpu7m+qLstOT5Y/6En/N5W5a5BDuJLmngulOQlyUbn8XcIHiXl1njLtQGmv8wmQir7HZTWI4bXqLivTWDnF9t+DQE1SH0Ar1mKOic0KXkLuo12KkbxCWsp8pNFdre8y8SS8nzgrl0cas9yjWvGQQMGrMbmKdWbcZ/UcZ2VMrLyDMoCWEnD3/q6/h2rT3N9SrPC1g+KwLMGxwI5fEUAAAQQQQAABBBBAAAEEokKAAFpn8WvQAmHD72DweakMoENYA1rUENd6dtX5etZ6HpBDMUUtp2TnMHdU5sS5i5c9AasckiornZcjgFbZAEUIu3ANaEt7cQhPfhNrkMW1Gtyhuu8hNNFT47Vcr6JyWZJRrkzi+xCLXnWYu2qL0zZ41tcWtTc4y3id+wZKe8Ud7B0H5YdMrpUepqe6yxPN2evdfQm6FrYgBGqS6gBaUYa/MiahXLGw8iIq/y8on7QZX3B7Ulz3XLoiykdrur5pEHdQZPTKwNerMUm+GqO09RT1KwNoX2NAcTp3CbZ3ZwigvT34DQEEEEAAAQQQQAABBBBAIOoECKAJoHUmYPA5uoQAWrD3Hk91LTL7caa0yoGn2NP9isvN2l+VKa8z4ExmN6RnFVRUnK7Jc6fYK5Y1gFbfgLAE0IEroG0Dddkb3SmtM9yMTdqeV1JZdbrM81xBX+FjSKPRMdl1OsezmvPKuGxnLbNYzny/TF53eOGCy+KhFYtLrFyb5nwKojIk9fHlgfwtwsoYV5cXBNBeS4D4aH6gJr1bAO0z8/XRgkUveR45uHJtRm1/75lM12P9Nrtr0j3LdIiJs+lmfqzLQcyj3cfzDqCVjxl072Fpd0fbK2OWHED3LvqegwDaDczfCCCAAAIIIIAAAggggAACUSpAAK2z+NXwBc5BO2jwmbqUAFq5LENcVp1ZcEw25bqW/RVzNE8iZu867l4YemXM6qTCmnazTQJ1mC/IC+CqD6BXpSnPIh5xUE4JV3pVoS6hAQECaGXxqScxVDtE7MM12zzPpovbUdk65CbzJJsxK5YcQIvtUUbJMUnu9DNQ2isuwaF8gl9c9k0xS1XdZeUSHB+mV3k/53AxVaAmqQ6gvVa9cD0hcPEpg71i665I+sD19UBCSVuTe8Vnz2MhHZ4rGLujruN0pvx9jOdZgoJ3Y5RP8nQ3wNQoJ9cxnrU7glVAC0O1afJ/T7CxuHXCfTj33wTQbgn+RgABBBBAAAEEEEAAAQQQiFIBAmgCaJ0JGHymLimAFuz9VVvdT9vb22aZ6CzYJAV23utvWDoL5DpfuXpUAlUfQHvlbtLD3zzXxt4rh4DKAHopDZhsypVLtuPzPAWtzpMpA+JPt9ePeFoQ+patuzLJvVT0utxmr6WilccPHkDbbVZ/pxWr1OWCZbkWOFDaKwiCuTl7jbsu273chKBsUihddpgVCb73ePDV2EBNUh9AK21XbCxcHM76asKi18yeVURisypLXUM9NuW0e8Vzwd5V7ubdXFy1171uyeayLsUVEZ+I6L7QrscVep1qsrXA/cGVCqigAbRFnm4xXv/1gPvgBNBuCf5GAAEEEEAAAQQQQAABBBCIUgECaJ3Fr0ELhA2/g8Fn6tICaEGxvMDmstbb7opRcf0NBZgiQFxYL2zpKU12L1UcWgW0YG7MkuPRjzOVpbWW7poM91PgVigD6CU0QJhUrIOsiAWlbnmlqzEJB9ssDkV/Q9u0eFZsiPE8xdH5WVtfbchLcEx2Hc+M/SS14FK/jzZMdBbJK5ysjMtudC2EoUx7V2fWDXo13qtcfVVajWttB/VdNjXmexYAWZ+jLAqWhJS5ubJJC1cFUVy+VcmVXmtN+Fsr3Npf4f5qZMXK2KTSTsuCi2KftHn1esHbzl8V36+s2rw9xTXqEovuy8trCJab7j5+nJqx1VXP7imRlo5q769Kk0vd47LrvJYjsfXVup9tGLPiU+fDDKVPBQ2gFf/BwYqVMevyvL/DsA9f2OH6zxG85oKvjvIaAggggAACCCCAAAIIIIAAAoYUIIAmgNaZgCHnoadTSwygBVtfTYq0DsCHydm5riWhV2+r9co0lcWzK+MzSus6huyCwz7YXpuXJAdz3lWcDnNTtlyAnKhYUVcQ7MpsMWbFhsyCE3VNNxtrDma6V+B1a9j3IwAAIABJREFUVWGnVLorVZfQAEEw1eXIB1y1pbhVKnN22KXg0jZQ58nBV8asSy2uue9aV8Q20tNUXZaVur1CkVR6qN1bysh1xafpBWfaBi2CYBefH5jiidEDL8Fh763eLjdyxceJaXkVNQ3NrS1trTcbqw5uT/jYXci8MmbFpuIOdwrrdeqVMbFbC12Nt5tbjysO+EFiwU1PWqq6y9b+qnTF9d2wvaJlWFp6xTLQXJGVuHpjvlw8rmxSGAJoQTDdLIxzL6CxYuXapIK6LmmRCkl4TVyKe0ES9wVZ/LdXbbKrkHyN51mO4gc8T92MWeU6XWzSCffAcx/S0l6WIBdBf5Sc5/62wPKwNkv+jwNWxno1KWgALQiWFuXDMGOT9tb1TgjCxHBrbUXWZvf3OuKy1MrlaNxt4m8EEEAAAQQQQAABBBBAAAEEjC5AAK2z+NXwBc5BO2jwKakMoBUPlJNXb3BvxGW5H2TnArEP13iqO6W4c22G87F1HjGHuX6HnCYrItEFJ1JWQAv23hPuJxyujFnxUVzC3mZ3ha+i7HrBEVbGrPg4zvWkOGXotpQGCMKIotTacyLPo/wst8vkNTTcPl69W5XqLh/2WCi2JhQrk3iO73UE8bABl+AwtVR4pdX+jvNRapFiFRFl2uuz5c4XfRQOq+7ySGOeJ2Bd1LWVMeuyG6W1R5RNCksALQj2rhPuxwb6ZPkotfShp5ZZcWE8m4pVLFyNX5Vao1jcXBCsPaVbFvQrPs+5arbnKOKW91cFvtqzLrvO68ghBNCCfdizhLqvY7ovLgG099XgNwQQQAABBBBAAAEEEEAAgegQIIAmgNaZgMEn5pIDaEEYrPaO+T5RLCPgVrN116Qoq3HdYdnqpMKq04Vx0q9eAbRgG6jLkJfaWBnjtfbCRFvB5gWpn/jr6q1lTd1t8jrUngpoQVhCA8QEs9K7a852xhW0uSuJBUt3bdYGHy2Rgr91mTVd8q5uCsXf9sFaT5G1OysU61XjdlTWHHQvLhwwgBYfDzjSVrEj2fX4Ozes4mgxK9ZklrZ4CpnFj9wvS3BXB6/enB4nP8vO8/G1KaW+1xVR3WVzW2mqog7ac4qYFR+LK4dINdHKJoUpgHbGvrX5ijporyu1LrOyw0tFcWXcm8pWSaQJJZ2u52dK+3ivgyHu85H3+jPuQwmCfbChOMEHdcyKlWtTSppN7idQuj4RSgAtCMJIc8EWZbGzu48fJGaVV2atl34lgPZcBrYQQAABBBBAAAEEEEAAAQSiR4AAWmfxa9ACYcPvYPDJ+Q4BtLgKwSfu2GtlzOptC9YUdslZ+ppLs5Ld5ckxK9an51V3mhyCbaDWvYhHakW3Vwhnaa/McMe7qzaXdUhLKDiPZxtqLs1MdB3to7iEtPzSuh6xRNo+XJUq5XELQ7clNEBwTHaczk9aIwd8a+NS8ysaXetIuDpmN3fUVmSlJq/7xLnbJ/EJW7dnH6yp7w5SXev8uH2wpSY72VMeHpuUL61TYarLcfUuWAAtNcPS11ZTXig241Mp7Y1dvT4xaVthaXWzuLKH948yV123t8000nOhND9tS/yqlTGrPolPyiy78DBgNKu2y47J3ps1BdtS133qlvw4Ma2g1rUmhrNtyiaFL4AWD20zi71L2RS/2r0IRmxyzsKL6O3j+W2kMUu5HIpiHW15n8HqTK/0f1OZvNSJvI9nw9xTX56fsilutfMLgNXrk9PyKpue+BoqIQbQgiBYh1tPF6dtdNuujI1LL6vvs4uL1bgWWF84FzztYQsBBBBAAAEEEEAAAQQQQAAB4woQQBNA60zAuJORnkWdgDLtXZcrr20SdQ50GAEEEEAAAQQQQAABBBBAAAEEDCxAAK2z+NXwBc5BO2jg2UjXok1AGUAvLDeONgv6iwACCCCAAAIIIIAAAggggAACBhUggCaA1pmAQWci3YpGAQLoaLzq9BkBBBBAAAEEEEAAAQQQQACBKBMggNZZ/Bq0QNjwO0TZDKW7RhYggDby1aVvCCCAAAIIIIAAAggggAACCCDgFCCAJoDWmQAzFwHDCBBAG+ZS0hEEEEAAAQQQQAABBBBAAAEEEPAnQACts/jV8AXOQTvobyjzOgK6EyCA1t0lo8EIIIAAAggggAACCCCAAAIIIKBWgACaAFpnAmqHOPsjgAACCCCAAAIIIIAAAggggAACCCCAwPsSIIDWWfwatEDY8Du8r6nCeRFAAAEEEEAAAQQQQAABBBBAAAEEEEBArQABNAG0zgTUDnH2RwABBBBAAAEEEEAAAQQQQAABBBBAAIH3JUAArbP41fAFzkE7+L6mCudFAAEEEEAAAQQQQAABBBBAAAEEEEAAAbUCBNAE0DoTUDvE2R8BBBBAAAEEEEAAAQQQQAABBBBAAAEE3pcAAbTO4tegBcKG3+F9TRXOiwACCCCAAAIIIIAAAggggAACCCCAAAJqBQigCaB1JqB2iLM/AggggAACCCCAAAIIIIAAAggggAACCLwvAQJoncWvhi9wDtrB9zVVOC8CCCCAAAIIIIAAAggggAACCCCAAAIIqBUggCaA1pmA2iHO/ggggAACCCCAAAIIIIAAAggggAACCCDwvgQIoHUWvwYtEDb8Du9rqnBeBBBAAAEEEEAAAQQQQAABBBBAAAEEEFArQABNAK0zAbVDnP0RQACB/7+9+/GN8jrzBf43IaQ2Xamh2tSKFJzKa6Iao9pyuZaJLLmtBb3WutdpKbnLTataJApJVZKqJVGE1ShWViKistJdb4SIQEQiS4JrFOOwDqLYkfFMTGb4NVczNhNIwB5jhvd95v1EVhl73nnPcz5znony5fSYAAECBAgQIECAAAECBAgQIJCUgAA6WPza8BucV51gUq1iXAIECBAgQIAAAQIECBAgQIAAAQIE1ioggBZABxNY6xJ3PQECBAgQIECAAAECBAgQIECAAAECSQkIoIPFr6tuEG74C5JqFeMSIECAAAECBAgQIECAAAECBAgQILBWAQG0ADqYwFqXuOsJECBAgAABAgQIECBAgAABAgQIEEhKQAAdLH5t+A3Oq04wqVYxLgECBAgQIECAAAECBAgQIECAAAECaxUQQAuggwmsdYm7ngABAgQIECBAgAABAgQIECBAgACBpAQE0MHi11U3CDf8BUm1inEJECBAgAABAgQIECBAgAABAgQIEFirgABaAB1MYK1L3PUECBAgQIAAAQIECBAgQIAAAQIECCQlIIAOFr82/AbnVSeYVKsYlwABAgQIECBAgAABAgQIECBAgACBtQoIoAXQwQTWusRdT4AAAQIECBAgQIAAAQIECBAgQIBAUgIC6GDx66obhBv+gqRaxbgECBAgQIAAAQIECBAgQIAAAQIECKxVQAAtgA4msNYl7noCBAgQIECAAAECBAgQIECAAAECBJISEEAHi18bfoPzqhNMqlWMS4AAAQIECBAgQIAAAQIECBAgQIDAWgUE0ALoYAJrXeKuJ0CAAAECBAgQIECAAAECBAgQIEAgKQEBdLD4ddUNwg1/QVKt8hDGnXlrqHXg8Mz19Q5V+PBgT/+hqeJX95l5e6h5x9JPimf+3Pvoln3H58vPzhweau2948qvXnOvR7nTw13dwyfy93rezwkQIECAAAECBAgQIECAAAECBAhUBQTQAuhgAtW123gPHlQAnTvxUlffHbFy4aODXW173r1YKhUvjO7a2vRE74GPiqVS/vjz3e3DJ3NrohRAr4nLxQQIECBAgAABAgQIECBAgACBbAsIoIPFrw2/wXnVCTZww1YD6Nz7+9o7hnYP9Hd1dLZ27Dn4Yb5UKp450N/e/9xgX2/7ltbmjudGz1YS5N90d718ulAqJ8sjfZ2DR+YKE6M7tzRt+Nbm1o7+vUcuLHPNHdu9rXf/h/nSxfHd3UN7B3r7Dk0XitMjfZ07D18olYozR17qaets3dLZ2jFUGa5Uujg+2NG/+5mBru6hAyfyuQ8P7dy2tbmtu6d/qKulc68d0A28EE2NAAECBAgQIECAAAECBAgQIPDgBATQAuhgAg9u8afuTrcH0K1P9H+VOz87Pnu9eObl3ubeg6fmSqVS/tSLve3PHpu9nj/+jQC6VCrNHtnz9YM1ihdG+jt3vjU9e3RfV9/B9/4y1D44NvPZ+O6O/oMTxcL5wzs7hkbKiXZp9uhLXTteOZUrlS6O7Xx8c9cfJ8v7oxcnD/R2D759oVAq5SZGdwqgU7d2FESAAAECBAgQIECAAAECBAgQSKmAADpY/LrqBuGGvyClnfQgyro9gG7vfuVM5WiMmbeHWncdnrlePHOgt33vsaXjMspbpLteOZWrOYBeyqx/M/7ey/09L5+enTjU173v3aMHe7r2vTdfKo/bf3hm6czo+ZN7O3qHP8iXLo4NtvUfrKTShbOHerZVTvAolUqO4HgQ77V7ECBAgAABAgQIECBAgAABAgQyIiCAFkAHE2jgzqw9gJ4d29Pa8dJyAP3iHUdw3H0HdKk0O/Zce98r+3f17z2aL+VO7+8dGH55T1f5dx4Wp/4y0Nw3uvxLC+eP7d1W+R2DF8cGtw2MnCvH0uUAeukIaQF0A68/UyNAgAABAgQIECBAgAABAgQI1EFAAB0sfm34Dc6rTrAOXZCWW64SQC8dwTFfKi1Oj/Rv7XrxZK58MHRv867DU8VS4dzYYMvWnUfKJ3Tkji7tj75jXoWzo31t3V1de975rFS6Pvfe3u72ju6eP04WSqXyryjcMnDrCI597W3PlX9d4W0BdGn+9HDH1r7Xy8dxOILjDlbfECBAgAABAgQIECBAgAABAgQIrCgggBZABxNYcT3HfnKVAPpAb3PX0M7u7tYnW1sHRqcWy5Mtx8qPb3rk8e6egX17+3sHKwF0af7k/q7Wpi29Ow+V8+Xlf+ZPDm/Z9Ejv8k7nmbcHHt3Yunu8HFiXSsWpw/u6Wra2tnU2tw0d/CBf/tntAXSpNPvBocGurc1bunt27dnZ0TvslxAus/qDAAECBAgQIECAAAECBAgQIEBgJQEBdLD4ddUNwg1/wUrLuZGfu+MM6EaeqLkRIECAAAECBAgQIECAAAECBAg0kIAAWgAdTKCBum9NUxFAr4nLxQQIECBAgAABAgQIECBAgAABAqkQEEAHi18bfoPzqhNMRd8oggABAgQIECBAgAABAgQIECBAgACBGgQE0ALoYAI1rGqXECBAgAABAgQIECBAgAABAgQIECCQCgEBdLD4ddUNwg1/QSr6RhEECBAgQIAAAQIECBAgQIAAAQIECNQgIIAWQAcTqGFVu4QAAQIECBAgQIAAAQIECBAgQIAAgVQICKCDxa8Nv8F51Qmmom8UQYAAAQIECBAgQIAAAQIECBAgQIBADQICaAF0MIEaVrVLCBAgQIAAAQIECBAgQIAAAQIECBBIhYAAOlj8uuoG4Ya/IBV9owgCBAgQIECAAAECBAgQIECAAAECBGoQEEALoIMJ1LCqXUKAAAECBAgQIECAAAECBAgQIECAQCoEBNDB4teG3+C86gRT0Tf1LOLmzVKheC2/WFjIWZwECBAgQIAAAQIECBAgQIAAAQIhBRZyV/KLhULx2s2b9QySItxbAB1yBa+a0jbwBRHa6v5rvHrt+kL+yy8WC+UAOm9xEiBAgAABAgQIECBAgAABAgQIhBRYyJcD6C/KCc+XV69dv/+0KP4rBdAhV3AD58urTi1+091zBpX0ufzZtCqCCwgQIECAAAECBAgQIECAAAECBEIILO0yzHIGLYAWQAcTuGd8G/yJmzdLC/kvpc8h/s2hSAIECBAgQIAAAQIECBAgQIBA7QKVDPrLzJ7FIYAOFr/WvrIb9crgOfM9yy8Ur31h77NjrwkQIECAAAECBAgQIECAAAECjSjwReU86HsGQw39hABaAB1MoFH7MV8597lR/9rAvAgQIECAAAECBAgQIECAAAECWRZYSn4aNddaeV4C6GDxa5YbdWnuKy/ouM8u5K74rYOWNwECBAgQIECAAAECBAgQIECgIQUW8lcWclfiJlfrqVwALYAOJrCe5Z7m1zbkZ6tJESBAgAABAgQIECBAgAABAgQIVAXSnE3VrzYBdLD4tbpeM/ugfs2Q7J0z+4aaOAECBAgQIECAAAECBAgQIEAgIwLJpk9JjS6AFkAHE0iqVeo9bkY+Z02TAAECBAgQIECAAAECBAgQIJBZgXrnS+m8vwA6WPya2f6sTjydjbT+qqoT9IAAAQIECBAgQIAAAQIECBAgQKAhBdafIEW8gwBaAB1MIGKb1VJzQ36qmhQBAgQIECBAgAABAgQIECBAgEBVoJaMqPGuEUAHi1+r6zWzDxqvCZdmlNk31MQJECBAgAABAgQIECBAgAABAhkRaNRca+V5CaAF0MEEVl7QcZ/NyOesaRIgQIAAAQIECBAgQIAAAQIEMisQN7laT+UC6GDxa2b7szrx9Sz3NL+2OkEPCBAgQIAAAQIECBAgQIAAAQIEGlIgzdlU/WoTQAuggwnUrxmSvXNDfqqaFAECBAgQIECAAAECBAgQIECAQFUg2fQpqdEF0MHi1+p6zeyDpFql3uNm9g01cQIECBAgQIAAAQIECBAgQIBARgTqnS+l8/4CaAF0MIF0NtL6q8rI56xpEiBAgAABAgQIECBAgAABAgQyK7D+BCniHQTQweLXzPZndeIR26yWmqsT9IAAAQIECBAgQIAAAQIECBAgQKAhBWrJiBrvGgG0ADqYQOM14dKMGvJT1aQIECBAgAABAgQIECBAgAABAgSqAo2aa608LwF0sPi1ul4z+2DlBR332cy+oSZOgAABAgQIECBAgAABAgQIEMiIQNzkaj2VC6AF0MEE1rPc0/zajHzOmiYBAgQIECBAgAABAgQIECBAILMCac6m6lebADpY/JrZ/qxOvH7NkOydqxP0gAABAgQIECBAgAABAgQIECBAoCEFkk2fkhpdAC2ADiaQVKvUe9yG/FQ1KQIECBAgQIAAAQIECBAgQIAAgapAvfOldN5fAB0sfq2u18w+SGcjrb+qzL6hJk6AAAECBAgQIECAAAECBAgQyIjA+hOkiHcQQAuggwlEbLNaas7I56xpEiBAgAABAgQIECBAgAABAgQyK1BLRtR41wigg8Wvme3P6sQbrwmXZlSdoAcECBAgQIAAAQIECBAgQIAAAQINKdCoudbK8xJAC6CDCay8oOM+25CfqiZFgAABAgQIECBAgAABAgQIECBQFYibXK2ncgF0sPi1ul4z+2A9yz3Nr83sG2riBAgQIECAAAECBAgQIECAAIGMCKQ5m6pfbQJoAXQwgfo1Q7J3XshdWcgHey8y8u8G0yRAgAABAgQIECBAgAABAgQIrFNgIX9lIXcl2fQpqdEF0CK/YAJJtUq9x80vFvKLhXV+lnk5AQIECBAgQIAAAQIECBAgQIBACgWWkp9650vpvL8AOlj8msL+ecglpbOR1l9VoXjtCwF0Tj8SIECAAAECBAgQIECAAAECBBpQ4IvFQqF4bf0JUsQ7CKAbcEE/5ET4IQ8Xsc1qqfnmzdJC/kuboB/ycjIcAQIECBAgQIAAAQIECBAgQKDeAvnFwkL+y5s3a4mIGvAaAbQAOphAA3bhrSldvXZ9IX9FBl3vD333J0CAAAECBAgQIECAAAECBAg8NIFK+nzl6rXrtxKgzP0pgA4Wvz603kjtQI3do5UM+ssvKudB+52EqV2ECiNAgAABAgQIECBAgAABAgQIrCywtMvwi8re5yynz6VSSQAtgA4m0NgBdKlUunmzVCheK//lmAORCRAgQIAAAQIECBAgQIAAAQIEYgos5Mr/N/dC8VpmT96ohngC6GDx68p/tZKFZ6tr1wMCBAgQIECAAAECBAgQIECAAAECBFIuIIAWQAcTSHlHKY8AAQIECBAgQIAAAQIECBAgQIAAgaqAADpY/JqFPc4rz7G6dj0gQIAAAQIECBAgQIAAAQIECBAgQCDlAgJoAXQwgZR3lPIIECBAgAABAgQIECBAgAABAgQIEKgKCKCDxa8r7w7OwrPVtesBAQIECBAgQIAAAQIECBAgQIAAAQIpFxBAC6CDCaS8o5RHgAABAgQIECBAgAABAgQIECBAgEBVQAAdLH7Nwh7nledYXbseECBAgAABAgQIECBAgAABAgQIECCQcgEBtAA6mEDKO0p5BAgQIECAAAECBAgQIECAAAECBAhUBQTQweLXlXcHZ+HZ6tr1gAABAgQIECBAgAABAgQIECBAgACBlAsIoAXQwQRS3lHKI0CAAAECBAgQIECAAAECBAgQIECgKiCADha/ZmGP88pzrK5dDwgQIECAAAECBAgQIECAAAECBAgQSLmAAFoAHUwg5R2lPAIECBAgQIAAAQIECBAgQIAAAQIEqgIC6GDx68q7g7PwbHXtekCAAAECBAgQIECAAAECBAgQIECAQMoFBNAC6GACKe8o5REgQIAAAQIECBAgQIAAAQIECBAgUBUQQAeLX7Owx3nlOVbXrgcECBAgQIAAAQIECBAgQIAAAQIECKRcQAAtgA4mkPKOUh4BAgQIECBAgAABAgQIECBAgAABAlUBAXSw+HXl3cFZeLa6dj0gQIAAAQIECBAgQIAAAQIECBAgQCDlAgJoAXQwgZR3lPIIECBAgAABAgQIECBAgAABAgQIEKgKCKCDxa9Z2OO88hyra9cDAgQIECBAgAABAgQIECBAgAABAgRSLiCAFkAHE0h5RymPAAECBAgQIECAAAECBAgQIECAAIGqgAA6WPy68u7gLDxbXbseECBAgAABAgQIECBAgAABAgQIECCQcgEBtAA6mEDKO0p5BAgQIECAAAECBAgQIECAAAECBAhUBQTQweLXLOxxXnmO1bXbeA9m3hp49Lvd+z/ML0/ts7Gdj29qHT6dW8NUi1OHhnpePl1Y9SXzp0ee7W99rGnDxqamjj0HP7g16AovvDg2uG1g5FxxhUsK5w7v3tHdvq2z6Z82bXi8s31bd9fgoTO3TaBw/vBgx8DBibvepHjmQG/73mO3Xb7CUJ4iQIAAAQIECBAgQIAAAQIECBAIICCAFkAHEwjQVfdb4sxbQ82PtXa9uJw4zxwuf9v+/NoC6DN/7O96cbUAujg9squ1ue/ge2fnCtdLubMnj597MAH08tSvX3hnoLPn9em75ODFuamPJmcX72okgL4rix8SIECAAAECBAgQIECAAAECBAILCKCDxa8r7w7OwrOBu2210mfeGmrvG+ra8dLx+VKpeGF0sLdvV+9yHj1/+uBAd+uWztYtnT3D4zPF8gUj/Z09z+zp29F764fFmbefa//epg3f29q+Y8/o2WJu4vDurs7mlq1NW/r3jl2oxsG5D1/p2jI0ev5rBRWnxl7paWlteqK1edvQyEflSDr3/r6u7j27d/V29b/07umvdkCX79xdLqZ1S+/utyard16+450B9D1u8s3hvgqgC+fH9w/0d23rbN/x3OhEDeH416biWwIECBAgQIAAAQIECBAgQIAAgXQICKAF0MEE0tE4dali5q2hrmcOHdjVv3d8Lnd2dGffSyPP93eVd0Dnj7/Y2zV8bPZ6qbQ4PbKre/DwhXIA3dva+mwljL44Pritv3KuRf74b7rbl3ZAL04e7OvefaScO8+Ov9S145VTt862mD0y1Np9cOrrx2AUZz86PVW+pjxc+2+O5a6XA+jm73UOvz9XnnD1CI5bdy6VSoXPxnZ3DYycvfNe3wig73KT0jeHqwbQ+VPP97Y/fzJXKhUuXpi98951oXdTAgQIECBAgAABAgQIECBAgACB+ggIoIPFr1nY47zyHOvTCKm4azmAfnb81Nt7ep4de+/PQ31/PHn8QCWAzp0e7uoePrG0Ebg49ZeB1oHDM1cujPR1Dh6pRMNfXfBVAF2YONj+rU0bNt76+t7AO58tT3P2yJ7WHQenvnkOxvX8mbFDw7uHelo2P9p3eKZYDqDbu24l17cC6MLEoZ5te969WLnb9bl3n+ns+fOdp218I4D+5k3KL/76cNUAujQ7vq/9yc6+34y+d178nIrFqQgCBAgQIECAAAECBAgQIECAwP0JCKAF0MEE7m+hh3jVUgA9+9n47q7enu6BgxNz5QOdnz+dmz+5d1vn3qO3AuhD/c39h2fyqwXQHx7s2vbce5WA+mvTL3x0sGvLUDWPXn42d/pAb2fXs6Pvvn/6+OsDrf2jywF09yvLv0WwGkAvvfxWAP3OQGfXH+88heObAfQ3blK6y3BfBdDlvdUXJ999fV/PtuVN3F+bgm8JECBAgAABAgQIECBAgAABAgRCCAigg8WvK+8OzsKzIfrq/opcDqCLc+/u3vpo7+jUYnE5gK7sMm6vHsHR39nz58lC8a4BdPHMy73te8unZ5Tmj+3d1jn49vLe5MLt+52L06O7tjb3Hzo1V95fPPvB6MEj07mzh3raKql0ce694e7mvm8G0OOD2wZGzhVL8yeHOzoHj1xYOoJjsK26O/vWvGsIoAt3Ge5WAH29OPPh6an58mEgp6rTuXVvfxIgQIAAAQIECBAgQIAAAQIECAQSEEALoIMJBOqutZa6HEBfLxXmpqc+K/+eweUAulQqzZ0+sKuzeUtna8vWrt+MLf8SwrscwVEqfHSo54nW5o6BAyfyuY9GB7e1Nm3pbt/W3ffyyXIqXf0nN/3Oy3u6WjZv2LjpkZaB/X+7UCheeHe4t/nJzq4dQ7uf6W/fdesIjurm5dzk/q7NrXvLR1GX79yxtbmts7mle/CtyVuHS9+6ew0BdOluw80c2dP8eP/IxOenXt/T/mRreb7dfgnhLVV/EiBAgAABAgQIECBAgAABAgQCCgigg8WvWdjjvPIcA3aZkgkQIECAAAECBAgQIECAAAECBAhkVEAALYAOJpDRTjVtAgQIECBAgAABAgQIECBAgAABAgEFBNDB4teVdwdn4dmAXaYmyJr0AAAgAElEQVRkAgQIECBAgAABAgQIECBAgAABAhkVEEALoIMJZLRTTZsAAQIECBAgQIAAAQIECBAgQIBAQAEBdLD4NQt7nFeeY8AuUzIBAgQIECBAgAABAgQIECBAgACBjAoIoAXQwQQy2qmmTYAAAQIECBAgQIAAAQIECBAgQCCggAA6WPy68u7gLDwbsMuUTIAAAQIECBAgQIAAAQIECBAgQCCjAgJoAXQwgYx2qmkTIECAAAECBAgQIECAAAECBAgQCCgggA4Wv2Zhj/PKcwzYZUomQIAAAQIECBAgQIAAAQIECBAgkFEBAbQAOphARjvVtAkQIECAAAECBAgQIECAAAECBAgEFBBAB4tfV94dnIVnA3bZ2kq+ebNUKF7LLxYWchYnAQIECBAgQIAAAQIECBAgQIBASIGF3JX8YqFQvHbz5tqioca7WgAdcgVnIWi+1xwbrwlvn9HVa9cX8l/mFwvlADr/5b0Q/JwAAQIECBAgQIAAAQIECBAgQCDNAgv5cgD9RSXhuXrt+u35T9YeC6AF0MEEGrhFK+nzlS8WC2n+9FQbAQIECBAgQIAAAQIECBAgQIBA7QKVXYZXspxBC6CDxa+1L+5GvbJRA+ibN0sL+S+lz426bs2LAAECBAgQIECAAAECBAgQyKzA0v/TPbNncQigBdDBBBo1gF469zmzH8QmToAAAQIECBAgQIAAAQIECBBoYIEvKudBN2qutfK8BNDB4tcG7sMap7bygo777NKpQDUiuIwAAQIECBAgQIAAAQIECBAgQCCQwNJv/IqbXK2ncgG0ADqYwHqWe5pfu5C74rcOBvrXhlIJECBAgAABAgQIECBAgAABArULLOSvLOSupDmbql9tAuhg8Wvty7pRr6xfMyR750Z9v8yLAAECBAgQIECAAAECBAgQIEBgSSDZ9Cmp0QXQAuhgAkm1Sr3H9UFMgAABAgQIECBAgAABAgQIECDQ2AL1zpfSeX8BdLD4tbGbsJbZpbOR1l9VLXN3DQECBAgQIECAAAECBAgQIECAQFyB9SdIEe8ggBZABxOI2Ga11Bz3o1PlBAgQIECAAAECBAgQIECAAAECtQjUkhE13jUC6GDxay1LubGvabwmXJpRY79rZkeAAAECBAgQIECAAAECBAgQINCoudbK8xJAC6CDCay8oOM+6yOYAAECBAgQIECAAAECBAgQIECgsQXiJlfrqVwAHSx+bewmrGV261nuaX5tLXMvX3Nh6j9Gfv/THzR9v2/0zPyt1Ts39eavn/7+dzZ9u+np3aNTl3JLP7904rVftfzzpg3fads+PD516+KZo689/YOmDd9qavnZa0f/Z/kOd/3h5U/G9+5o+/bGTd9t+9UbH1yqtcLl0W/V5lsCBAgQIECAAAECBAgQIECAAIGKQJqzqfrVJoAWkwUTqF8zJHvnGuPdS5Pjf3r+hZ+3bb4tgL584tWftPS++h9nZs6Mvbr9qV1/OnX5cu7KzNHf/+ipwT+9PzN1amxvZ8fP35wqDzE9/ou27b9487+nPvnvN/7P9h/+enxm/h4/nJt6Y2fHj347dmp66uirgy0//v3RC8GWSo2kLiNAgAABAgQIECBAgAABAgQI3IfAf/7X+xs2btr3wh9qf22y6VNSowugZWrBBJJqlXqPW/tH1eXcpaO/7fj+z27tgL5w8nc/7vjF4ZnyHeZn3vzfHT968b8vzV/666+3//C3x2bKf712+dSfdrX0jZyau3LmzV+1dL964h/lN/3S+6/+6KlfvfnJ3X946dTI008NvnGmnGVf/p9ju9u27x6zCTpYs6xlUZkaAQIECBAgQIAAAQIECBAgsDYBAXSNcZkAem0LS6CTuECNKzvcZWuBvTOAnjz803/5yR8+qCTFucsnXn66ZefhM/+Y+MOOtp++Udn1nLsyM/7CD5/6t79OXz46vL3l/4wtH8fxydjPn9r+u/c/u9sPL80c+beWbS8s73qem3qjr237qxO3DvfQNQQIECBAgAABAgQIECBAgACBAALvHPnbN7/WEsLcfY7/+V/v/+d/vb/vhT9s2LjpX3/x7NK3tdw2XGD1QAoWQN99GdWyYlyTiMADWfcpvMlaMO8IoC+dem37D3b96fRyAH3qTz95ovu1U9Mnf7et7ef/XtkWXd7s/Psf/WDwzTMzf/1lR8v/XdoWXdnX/FTHL/7697v8cOzSmZHBJzqX90pXNla3/XD4pAB6LW+TzxYCBAgQIECAAAECBAgQIEAgYYENGzd982v9/3X/zXtu2LipltumMJJ6CCUJoBNug1qWpmtuF3gIXZHIELfPcbXHdwTQlydHyzugK+c+X85dPvGHn7TsHC3vgO5u++nSuc/l86CXdkBfOvrb7S2/rJz7vHQe9FPbf3f03N1+eGnqyL+1dN4693l+6o2fddgBvdr74sOEAAECBAgQIECAAAECBAgQSJfACy++8s2v9f8H/r4X/rDvhT/86y+e3bBx04//V9/St7XcNpHQKfFBBdDp6opaVmrGr0m8Z+pUwFre1jsD6PIBzbefAd32w/93bGZ+5t//teOrM6Bf2/XEj1898Y/Lp17b9UT1DOgTr/7oB7veOHPpbj+8fGn52eoZ0B3V/dRrKVV/ESBAgAABAgQIECBAgAABAgQaU8AZ0DWmZALoxmyABo4Ia1zZ4S5by1t2ZwBdPvf5Jy29r524cGXm/de23zoPeuZvL/zwqV+9cfrypelje3/c8dM3psoHaHwy9ou27bsPT12am/r3X27/4S8r50Hf9Ydz5V3PPxo+NjV3+dQbgy2dL/zH/2gWAgQIECBAgAABAgQIECBAgACBZQEBdI35mwBazwQTqHFlh7uspgC6vK/5X24/ZuiJX4/P5K5cnpt689dPf/87m77d9PTu0UrQnLtyOXfpxGu/avnnTRu+07Z9eHz5Fw+Wj+N47ekfNG34VlPLz147eitTvusPL38yvndH27c3bvpu26/e+OBSTRWWx/VFgAABAgQIECBAgAABAgQIEGh8gYnJcxOT59aUhIQLrB5IwQLoxm+GNbVB+i9+IOs+hTdJv7wKCRAgQIAAAQIECBAgQIAAAQIE1iOQwkjqIZQkgBZABxN4CF2RyBDr+fDyWgIECBAgQIAAAQIECBAgQIAAgfQLJBI6JT6oADpY/Jr+Rqp3hYn3TJ0KqLeb+xMgQIAAAQIECBAgQIAAAQIECCQrUKdYKeW3FUALoIMJpLyj7ru8ZD/+jE6AAAECBAgQIECAAAECBAgQIFBvgfsOjkK/UAAdLH6tdxuk//6h+22F4tMvr0ICBAgQIECAAAECBAgQIECAAIH1CKwQDTXwUwJoAXQwgUbtxvV8eHktAQIECBAgQIAAAQIECBAgQIBA+gUaNddaeV4C6GDxa/obqd4Vrryg4z5bbzf3J0CAAAECBAgQIECAAAECBAgQSFYgbnK1nsoF0ALoYALrWe5pfu1C7spC/stkPwSNToAAAQIECBAgQIAAAQIECBAgUA+BhfyVhdyVNGdT9atNAB0sfq1HA8S6Z/2aIdk75xcL+cVCrPdCtQQIECBAgAABAgQIECBAgAABArUILCU/yaZPSY0ugBZABxNIqlXqPW6heE0AXcvntWsIECBAgAABAgQIECBAgAABAuEEvlgsFIrX6p0vpfP+Auhg8Wu47nrgBaezkdZf1c2bpYX8l1/YBJ3TkgQIECBAgAABAgQIECBAgACBhhLILxYW8l/evLn+ACnkHQTQDbWaH3jam8Ibhuyz2oq+eu36Qv6KDDqFq05JBAgQIECAAAECBAgQIECAAIH7E6ikz1euXrteWz7UgFcJoAXQwQQasAtvm1Ilg/4yv1j4ovI3Y/f3ueZVBAgQIECAAAECBAgQIECAAAECyQos5K9UE54sp8+lUkkAHSx+TbZz0jD6bWltYz68ebO0dB70gsMoCBAgQIAAAQIECBAgQIAAAQIEYgos5MoBdKF4LbMnb1STOwG0ADqYQHXtekCAAAECBAgQIECAAAECBAgQIECAQMoFBNDB4tc07EFOtoaUd5TyCBAgQIAAAQIECBAgQIAAAQIECBCoCgigBdDBBKpr1wMCBAgQIECAAAECBAgQIECAAAECBFIuIIAOFr8mu/s4DaOnvKOUR4AAAQIECBAgQIAAAQIECBAgQIBAVUAALYAOJlBdux4QIECAAAECBAgQIECAAAECBAgQIJByAQF0sPg1DXuQk60h5R2lPAIECBAgQIAAAQIECBAgQIAAAQIEqgICaAF0MIHq2vWAAAECBAgQIECAAAECBAgQIECAAIGUCwigg8Wvye4+TsPoKe8o5REgQIAAAQIECBAgQIAAAQIECBAgUBUQQAuggwlU164HBAgQIECAAAECBAgQIECAAAECBAikXEAAHSx+TcMe5GRrSHlHKY8AAQIECBAgQIAAAQIECBAgQIAAgaqAAFoAHUygunY9IECAAAECBAgQIECAAAECBAgQIEAg5QIC6GDxa7K7j9Mweso7SnkECBAgQIAAAQIECBAgQIAAAQIECFQFBNAC6GAC1bXrAQECBAgQIECAAAECBAgQIECAAAECKRcQQAeLX9OwBznZGlLeUcojQIAAAQIECBAgQIAAAQIECBAgQKAqIIAWQAcTqK7dRn1w48aN2dnPz537dGJi8uOP/+6rdoGJiclz5z6dnf38xo0bjbo8zIsAAQIECBAgQIAAAQIECBAgEEtAAB0sfk1293EaRo/VYGutNpfLT05+Mj19fnFxca2vdf3Vq1fnLy9cmp2bnPwkl8sDIUCAAAECBAgQIECAAAECBAgQSFxAAC2ADiaQeM/Ur4BcLv/xx3+/NDtXvyEycudLs3Mff/x3GXRG3m7TJECAAAECBAgQIECAAAECBNIsIIAOFr+mYQ9ysjWkuZ3WU9uNGzcmJz+x8Xk9hre/dv7ywuTkJ87iuN3EYwIECBAgQIAAAQIECBAgQIDAwxcQQAuggwk8/CZ5OCPOzn4+PX3+4YyVkVGmp8/Pzn6ekcmaJgECBAgQIECAAAECBAgQIEAgnQIC6GDxa7K7j9Mwejobaf1VnTv36fzlhfXfxx2qAouLi+fOfVr91gMCBAgQIECAAAECBAgQIECAAIGHLyCAFkAHE3j4TfJwRpyYmLx69erDGSsjo1y9enViYjIjkzVNAgQIECBAgAABAgQIECBAgEA6BQTQweLXNOxBTraGdDbS+qv6+OO/r/8m7vA1AapfA/EtAQIECBAgQIAAAQIECBAgQOAhCwigBdDBBB5yhzy04USl9aCmWg9V9yRAgAABAgQIECBAgAABAgQI1C4ggA4Wvya7+zgNo9e+uGNdKSqtx/tFtR6q7kmAAAECBAgQIECAAAECBAgQqF1AAC2ADiZQ++KOdaWotB7vF9V6qLonAQIECBAgQIAAAQIECBAgQKB2AQF0sPg1DXuQk62h9sUd60pRaT3eL6r1UHVPAgQIECBAgAABAgQIECBAgEDtAgJoAXQwgdoXd6wrRaX1eL+o1kPVPQkQIECAAAECBAgQIECAAAECtQsIoIPFr8nuPk7D6LUv7lhXhoxKc5P7O7b2vXVhfdTFqbeGWjv2vTe3vtvc7dUhVe82ET8jQIAAAQIECBAgQIAAAQIECAQVEEALoIMJBO20VcuuLSotnjnQvWHjpqWvRx7f2vXMweMXV733vS8oXhjpbarecMPGTY90H5oq3vv6rz1z3wF08cJIf+fOw8vJdeHc+MjbJ2drH/drZdz729pU7/16zxAgQIAAAQIECBAgQIAAAQIECKxPQAAdLH5Nwx7kZGtY34JP76tri0qLZw70Nu2oZMTF/MxH48Ndm5sGxmav3++8ihdG+lrbXzxduL8b3HcAvTh5oHtrNYC+v8FreVVtqrXcyTUECBAgQIAAAQIECBAgQIAAAQL3IyCAFkAHE7ifZR7hNbVFpbcF0OVJFc/8sbep6+CZxeLU6/2VB5Wpnj/c92T3/g/zpVL+vb3d7c+8MjzQ39XW2tQysH/8znMu7hZA5z58pf3J/pFzyxuSZ8f2NG/bd/wfF47/5aWdXVsf2bjp0ZaBAycq97ktgK68amD0fKWAxckDXa09r08XSqXCxdOjL+7padm8YWNT846X3v2sWJo7tvvJ5U3cGzZu3ft+fvbIUPO2l47PV147f3r0NwOtjzc92tK7+8/HZipVFM6N9rUNDL/4XF93d/Pjre27D5/JVS5e7X9qU13tLp4nQIAAAQIECBAgQIAAAQIECBC4XwEBdLD4Ndndx2kY/X6XetpfV1tUekcAXfjs2P7u1vbnT+aurxBAb33kiT2j5TQ5f+b1/qZqzrvkcbcAulSOj7f2HCrHx6Xrc+8+01keYu70yMuH3v3wwuzFydHdnY+WU+9SqYYAOvfR4QN/HDt1bm727Phwx+bW4ZPl6Hj+5N62r3ZAfxVAz5/c37W5adehU5/lZyfG9m7b3PzM2EyxVDg32vO9pq6XT+aul0oXj+1ua63x4OnaVNO+NtRHgAABAgQIECBAgAABAgQIEIgrIIAWQAcTiNtsK1deW1R6xxnQGza29jw/XtkjvEIA3dn8zPjSGR25D15qfXLonc9uK+RrZ0D/U+/Bs8XKxur+5r7R8mHQF8cH27r3f5Bfek0hNzf14bGRvd2PPjH07sWaAuilF+YuTp86enh4x+ZHe0fLBd8jgM4dfa75sf6Rcg3lf2b/9lzz4/2j54rlAPrJ3gMTlZ9fvzDa39r+fE3HhtSmujSa/yVAgAABAgQIECBAgAABAgQIEHjwAgLoYPFrGvYgJ1vDg2+CdNyxtqi0ugO6OHN4T/Pj/QeXMtlSbQF0+WyNW6dkLM36rjugS6XC2UM9WwZGzuZnx55r7X7lVK5UKl54d7i36XutrR39Pd1bH3l86J0aA+iLJw/0bX308c727v6ets2PLh1gfY8AeubwUNOW5967dUxIYeJQ1xO9Bz76egD9zsDW5Z3Uq713tamudhfPEyBAgAABAgQIECBAgAABAgQI3K+AAFoAHUzgfpd62l9XW1RaDaBLpcXpkd7W5sHyCRWlUnHqLwNNHa8snYxc3i/8RPUM6Nt2QNccQJeK0yP9nX2HTr6zu7vnwGShVJp5a6i566XjSyc/n9hX3kl9ZwBd+OhgV/Xk6PLRHJUzoK/Pvbu7s/XZpS3YtxVfDqBbd759YeldqR7BkTuxr/XxO3dAP1Hesv21HdAC6LSvZvURIECAAAECBAgQIECAAAECBG4JCKCDxa/J7j5Ow+i3lm6j/bnmALpUyn3wSvtjnXuPllPh2fLhFd17x6ZzF08f6Gvd8E+dt34J4X0F0JXEubVjoGtL/4GPKody/Lm3adu+9y4WC+ePHRzY+shjlQB6cXJ/V2vfXyqnRX82tvOJzV0vH5uZv/De872Pfqup/EsIK8dllM9xXizOfjC6e1vTI0s7oMvHTG8uHy1deRurAXRp/uRwW1PTwOhUrlT47NjebU1NA2Mz1wXQjbbazYcAAQIECBAgQIAAAQIECBDIjoAAWgAdTKBRm/M+AujS9bn39lZ+H+DyERn9Td/atOG73XsPje7u6K01gO5t2rBx01dfLfuOz1eMPxvb+dimR7oPTS2Wvy2cPTzYVrny8d7dL+7raqsE0Nfzx1/sfeSx/tHz5ZB66q3n2h/btGHj5p7nDx8c6O57vRxMz4ztq/xw06Mde/YPD7T2Vo6WLpVmPzi0s6Vpw8bWwbG5rwLoUil3dvzgswOtjzU9+mTv4IuHT1X2XNsB3ajL3rwIECBAgAABAgQIECBAgACBhhcQQAeLX9OwBznZGhq1J2sLoBt19vWaF9V6ybovAQIECBAgQIAAAQIECBAgQKA2AQG0ADqYQG0LO95VotJ6vGdU66HqngQIECBAgAABAgQIECBAgACB2gUE0MHi12R3H6dh9NoXd6wrRaX1eL+o1kPVPQkQIECAAAECBAgQIECAAAECtQsIoAXQwQRqX9yxrhSV1uP9oloPVfckQIAAAQIECBAgQIAAAQIECNQuIIAOFr+mYQ9ysjXUvrhjXSkqrcf7RbUequ5JgAABAgQIECBAgAABAgQIEKhdQAAtgA4mUPvijnWlqLQe7xfVeqi6JwECBAgQIECAAAECBAgQIECgdgEBdLD4Ndndx2kYvfbFHevKiYnJxcXFWDWnv9qJicn0F6lCAgQIECBAgAABAgQIECBAgEADCwigBdDBBBq1G8+d+1QA/WDf3PnLC+fOffpg7+luBAgQIECAAAECBAgQIECAAAECaxIQQAeLX9OwBznZGta0vgNdPDv7+fT0+UAFp7/U6enzs7Ofp79OFRIgQIAAAQIECBAgQIAAAQIEGlhAAC2ADibQqN1448aNyclP5i8vNOoEH/K85i8vTE5+cuPGjYc8ruEIECBAgAABAgQIECBAgAABAgRuFxBAB4tfk919nIbRb1++DfY4l8ufPfvJpdm5BpvXw5/O/OWFjz/+ey6Xf/hDG5EAAQIECBAgQIAAAQIECBAgQOB2AQG0ADqYwO3Lt/Ee53L5yclPpqfPz19ecCT0Wt/fq1evLi4uTk+fn5z8RPq8Vj3XEyBAgAABAgQIECBAgAABAgTqISCADha/pmEPcrI11KMNUnXPGzduzM5+fu7cpxMTkx9//HdftQtMTEyeO/fp7OznTt5I1ZJWDAECBAgQIECAAAECBAgQIJBlAQG0ADqYQJbb1dwJECBAgAABAgQIECBAgAABAgQIxBIQQAeLX5PdfZyG0WM1mGoJECBAgAABAgQIECBAgAABAgQIZFlAAC2ADiaQ5XY1dwIECBAgQIAAAQIECBAgQIAAAQKxBATQweLXNOxBTraGWA2mWgIECBAgQIAAAQIECBAgQIAAAQJZFhBAC6CDCWS5Xc2dAAECBAgQIECAAAECBAgQIECAQCwBAXSw+DXZ3cdpGD1Wg6mWAAECBAgQIECAAAECBAgQIECAQJYFBNAC6GACWW5XcydAgAABAgQIECBAgAABAgQIECAQS0AAHSx+TcMe5GRriNVgqiVAgAABAgQIECBAgAABAgQIECCQZQEBtAA6mECW29XcCRAgQIAAAQIECBAgQIAAAQIECMQSEEAHi1+T3X2chtFjNZhqCRAgQIAAAQIECBAgQIAAAQIECGRZQAAtgA4mkOV2NXcCBAgQIECAAAECBAgQIECAAAECsQQE0MHi1zTsQU62hlgNploCBAgQIECAAAECBAgQIECAAAECWRYQQAuggwlkuV3NnQABAgQIECBAgAABAgQIECBAgEAsAQF0sPg12d3HaRg9VoOplgABAgQIECBAgAABAgQIECBAgECWBQTQAuhgAlluV3MnQIAAAQIECBAgQIAAAQIECBAgEEtAAB0sfk3DHuRka4jVYKolQIAAAQIECBAgQIAAAQIECBAgkGUBAbQAOphAltvV3AkQIECAAAECBAgQIECAAAECBAjEEhBAB4tfk919nIbRYzWYagkQIECAAAECBAgQIECAAAECBAhkWUAALYAOJpDldjV3AgQIECBAgAABAgQIECBAgAABArEEBNDB4tc07EFOtoZYDaZaAgQIECBAgAABAgQIECBAgAABAlkWEEALoIMJZLldzZ0AAQIECBAgQIAAAQIECBAgQIBALAEBdLD4Ndndx2kYPVaDqZYAAQIECBAgQIAAAQIECBAgQIBAlgUE0ALoYAJZbldzJ0CAAAECBAgQIECAAAECBAgQIBBLQAAdLH5Nwx7kZGuI1WCqJUCAAAECBAgQIECAAAECBAgQIJBlAQG0ADqYQJbb1dwJECBAgAABAgQIECBAgAABAgQIxBIQQAeLX5PdfZyG0WM1mGoJECBAgAABAgQIECBAgAABAgQIZFlAAC2ADiaQ5XY1dwIECBAgQIAAAQIECBAgQIAAAQKxBATQweLXNOxBTraGWA2mWgIECBAgQIAAAQIECBAgQIAAAQJZFhBAC6CDCWS5Xc2dAAECBAgQIECAAAECBAgQIECAQCwBAXSw+DXZ3cdpGD1Wg6mWAAECBAgQIECAAAECBAgQIECAQJYFBNAC6GACWW5XcydAgAABAgQIECBAgAABAgQIECAQS0AAHSx+TcMe5GRriNVgqiVAgAABAgQIECBAgAABAgQIECCQZQEBtAA6mECW29XcCRAgQIAAAQIECBAgQIAAAQIECMQSEEAHi1+T3X2chtFjNZhqCRAgQIAAAQIECBAgQIAAAQIECGRZQAAtgA4mkOV2NXcCBAgQIECAAAECBAgQIECAAAECsQQE0MHi1zTsQU62hlgNploCBAgQIECAAAECBAgQIECAAAECWRYQQAuggwlkuV3NnQABAgQIECBAgAABAgQIECBAgEAsAQF0sPg12d3HaRg9VoOplgABAgQIECBAgAABAgQIECBAgECWBQTQAuhgAlluV3MnQIAAAQIECBAgQIAAAQIECBAgEEtAAB0sfk3DHuRka4jVYKolQIAAAQIECBAgQIAAAQIECBAgkGUBAbQAOphAltvV3AkQIECAAAECBAgQIECAAAECBAjEEhBAB4tfk919nIbRYzWYagkQIECAAAECBAgQIECAAAECBAhkWUAALYAOJpDldjV3AgQIECBAgAABAgQIECBAgAABArEEBNDB4tc07EFOtoZYDaZaAgQIECBAgAABAgQIECBAgAABAlkWEEALoIMJZLldzZ0AAQIECBAgQIAAAQIECBAgQIBALAEBdLD4Ndndx2kYPVaDqZYAAQIECBAgQIAAAQIECBAgQIBAlgUE0ALoYAJZbldzJ0CAAAECBAgQIECAAAECBAgQIBBLQAAdLH5Nwx7kZGuI1WCqJUCAAAECBAgQIECAAAECBAgQIJBlAQG0ADqYQJbb1dwJECBAgAABAgQIECBAgAABAgQIxBIQQAeLX5PdfZyG0WM1mGoJEExvyoQAAAZ0SURBVCBAgAABAgQIECBAgAABAgQIZFlAAC2ADiaQ5XY1dwIECBAgQIAAAQIECBAgQIAAAQKxBATQweLXNOxBTraGWA2mWgIECBAgQIAAAQIECBAgQIAAAQJZFhBAC6CDCWS5Xc2dAAECBAgQIECAAAECBAgQIECAQCwBAXSw+DXZ3cdpGD1Wg6mWAAECBAgQIECAAAECBAgQIECAQJYFBNAC6GACWW5XcydAgAABAgQIECBAgAABAgQIECAQS0AAHSx+TcMe5GRriNVgqiVAgAABAgQIECBAgAABAgQIECCQZQEBtAA6mECW29XcCRAgQIAAAQIECBAgQIAAAQIECMQSEEAHi1+T3X2chtFjNZhqCRAgQIAAAQIECBAgQIAAAQIECGRZQAAtgA4mkOV2NXcCBAgQIECAAAECBAgQIECAAAECsQQE0MHi1zTsQU62hlgNploCBAgQIECAAAECBAgQIECAAAECWRYQQAuggwlkuV3NnQABAgQIECBAgAABAgQIECBAgEAsAQF0sPg12d3HaRg9VoOplgABAgQIECBAgAABAgQIECBAgECWBQTQAuhgAlluV3MnQIAAAQIECBAgQIAAAQIECBAgEEtAAB0sfk3DHuRka4jVYKolQIAAAQIECBAgQIAAAQIECBAgkGUBAbQAOphAltvV3AkQIECAAAECBAgQIECAAAECBAjEEhBAB4tfk919nIbRYzWYagkQIECAAAECBAgQIECAAAECBAhkWUAALYAOJpDldjV3AgQIECBAgAABAgQIECBAgAABArEEBNDB4tc07EFOtoZYDaZaAgQIECBAgAABAgQIECBAgAABAlkWEEALoIMJZLldzZ0AAQIECBAgQIAAAQIECBAgQIBALAEBdLD4Ndndx2kYPVaDqZYAAQIECBAgQIAAAQIECBAgQIBAlgUE0ALoYAJZbldzJ0CAAAECBAgQIECAAAECBAgQIBBLQAAdLH5Nwx7kZGuI1WCqJUCAAAECBAgQIECAAAECBAgQIJBlAQG0ADqYQJbb1dwJECBAgAABAgQIECBAgAABAgQIxBIQQAeLX5PdfZyG0WM1mGoJECBAgAABAgQIECBAgAABAgQIZFlAAC2ADiaQ5XY1dwIECBAgQIAAAQIECBAgQIAAAQKxBATQweLXNOxBTraGWA2mWgIECBAgQIAAAQIECBAgQIAAAQJZFhBAC6CDCWS5Xc2dAAECBAgQIECAAAECBAgQIECAQCwBAXSw+DXZ3cdpGD1Wg6mWAAECBAgQIECAAAECBAgQIECAQJYFBNAC6GACWW5XcydAgAABAgQIECBAgAABAgQIECAQS0AAHSx+TcMe5GRriNVgqiVAgAABAgQIECBAgAABAgQIECCQZQEBtAA6mECW29XcCRAgQIAAAQIECBAgQIAAAQIECMQSEEAHi1+T3X2chtFjNZhqCRAgQIAAAQIECBAgQIAAAQIECGRZQAAtgA4mkOV2NXcCBAgQIECAAAECBAgQIECAAAECsQQE0MHi1zTsQU62hlgNploCBAgQIECAAAECBAgQIECAAAECWRYQQAuggwlkuV3NnQABAgQIECBAgAABAgQIECBAgEAsAQF0sPg12d3HaRg9VoOplgABAgQIECBAgAABAgQIECBAgECWBQTQAuhgAlluV3MnQIAAAQIECBAgQIAAAQIECBAgEEtAAB0sfk3DHuRka4jVYKolQIAAAQIECBAgQIAAAQIECBAgkGUBAbQAOphAltvV3AkQIECAAAECBAgQIECAAAECBAjEEhBAB4tfk919nIbRYzWYagkQIECAAAECBAgQIECAAAECBAhkWUAALYAOJpDldjV3AgQIECBAgAABAgQIECBAgAABArEEBNDB4tc07EFOtoZYDaZaAgQIECBAgAABAgQIECBAgAABAlkWEEALoIMJZLldzZ0AAQIECBAgQIAAAQIECBAgQIBALAEBdLD4Ndndx2kYPVaDqZYAAQIECBAgQIAAAQIECBAgQIBAlgUE0ALoYAJZbldzJ0CAAAECBAgQIECAAAECBAgQIBBLQAAdLH5Nwx7kZGuI1WCqJUCAAAECBAgQIECAAAECBAgQIJBlAQG0ADqYQJbb1dwJECBAgAABAgQIECBAgAABAgQIxBIQQAeLX5PdfZyG0WM1mGoJECBAgAABAgQIECBAgAABAgQIZFng/wPCow/3oW5Q7wAAAABJRU5ErkJggg==;" vertex="1" parent="1">
          <mxGeometry x="40" y="100" width="1018.19" height="560" as="geometry" />
        </mxCell>
        <mxCell id="aT1jm8K0OkKXDxnR5jDH-3" value="" style="shape=flexArrow;endArrow=classic;html=1;rounded=0;exitX=0.207;exitY=0.002;exitDx=0;exitDy=0;exitPerimeter=0;fillColor=#0050ef;strokeColor=#001DBC;" edge="1" parent="1">
          <mxGeometry width="50" height="50" relative="1" as="geometry">
            <mxPoint x="150.76532999999995" y="140" as="sourcePoint" />
            <mxPoint x="140" y="178.88" as="targetPoint" />
          </mxGeometry>
        </mxCell>
        <mxCell id="aT1jm8K0OkKXDxnR5jDH-5" value="Para subir el JSON file" style="rounded=1;whiteSpace=wrap;html=1;" vertex="1" parent="1">
          <mxGeometry x="100" y="120" width="130" height="30" as="geometry" />
        </mxCell>
        <mxCell id="aT1jm8K0OkKXDxnR5jDH-7" value="" style="shape=flexArrow;endArrow=classic;html=1;rounded=0;exitX=0.207;exitY=0.002;exitDx=0;exitDy=0;exitPerimeter=0;fillColor=#0050ef;strokeColor=#001DBC;" edge="1" parent="1">
          <mxGeometry width="50" height="50" relative="1" as="geometry">
            <mxPoint x="80.76532999999995" y="300" as="sourcePoint" />
            <mxPoint x="100" y="270" as="targetPoint" />
          </mxGeometry>
        </mxCell>
        <mxCell id="aT1jm8K0OkKXDxnR5jDH-6" value="Aquí se indica la máquina en evaluación" style="rounded=1;whiteSpace=wrap;html=1;" vertex="1" parent="1">
          <mxGeometry x="10" y="300" width="130" height="30" as="geometry" />
        </mxCell>
        <mxCell id="aT1jm8K0OkKXDxnR5jDH-8" value="" style="shape=flexArrow;endArrow=classic;html=1;rounded=0;exitX=0.207;exitY=0.002;exitDx=0;exitDy=0;exitPerimeter=0;fillColor=#0050ef;strokeColor=#001DBC;" edge="1" parent="1">
          <mxGeometry width="50" height="50" relative="1" as="geometry">
            <mxPoint x="560.76533" y="230" as="sourcePoint" />
            <mxPoint x="550" y="268.88" as="targetPoint" />
          </mxGeometry>
        </mxCell>
        <mxCell id="aT1jm8K0OkKXDxnR5jDH-9" value="Una ilustración de la maquina." style="rounded=1;whiteSpace=wrap;html=1;" vertex="1" parent="1">
          <mxGeometry x="490" y="200" width="130" height="30" as="geometry" />
        </mxCell>
        <mxCell id="aT1jm8K0OkKXDxnR5jDH-10" value="" style="shape=flexArrow;endArrow=classic;html=1;rounded=0;exitX=0.207;exitY=0.002;exitDx=0;exitDy=0;exitPerimeter=0;fillColor=#0050ef;strokeColor=#001DBC;" edge="1" parent="1">
          <mxGeometry width="50" height="50" relative="1" as="geometry">
            <mxPoint x="800.76533" y="180" as="sourcePoint" />
            <mxPoint x="790" y="218.88" as="targetPoint" />
          </mxGeometry>
        </mxCell>
        <mxCell id="aT1jm8K0OkKXDxnR5jDH-11" value="Los detalles generales de la maquina." style="rounded=1;whiteSpace=wrap;html=1;" vertex="1" parent="1">
          <mxGeometry x="740" y="150" width="130" height="30" as="geometry" />
        </mxCell>
        <mxCell id="aT1jm8K0OkKXDxnR5jDH-12" value="La matriz de transición." style="rounded=1;whiteSpace=wrap;html=1;" vertex="1" parent="1">
          <mxGeometry x="910" y="290" width="130" height="30" as="geometry" />
        </mxCell>
        <mxCell id="aT1jm8K0OkKXDxnR5jDH-13" value="" style="shape=flexArrow;endArrow=classic;html=1;rounded=0;exitX=0.207;exitY=0.002;exitDx=0;exitDy=0;exitPerimeter=0;fillColor=#0050ef;strokeColor=#001DBC;" edge="1" parent="1">
          <mxGeometry width="50" height="50" relative="1" as="geometry">
            <mxPoint x="970.76533" y="320" as="sourcePoint" />
            <mxPoint x="960" y="358.88" as="targetPoint" />
          </mxGeometry>
        </mxCell>
        <mxCell id="aT1jm8K0OkKXDxnR5jDH-14" value="" style="shape=flexArrow;endArrow=classic;html=1;rounded=0;fillColor=#0050ef;strokeColor=#001DBC;" edge="1" parent="1">
          <mxGeometry width="50" height="50" relative="1" as="geometry">
            <mxPoint x="120" y="460" as="sourcePoint" />
            <mxPoint x="199.23467000000005" y="460" as="targetPoint" />
          </mxGeometry>
        </mxCell>
        <mxCell id="aT1jm8K0OkKXDxnR5jDH-16" value="El primer tab es para evaluar la probabilidad de una palabra." style="rounded=0;whiteSpace=wrap;html=1;" vertex="1" parent="1">
          <mxGeometry x="40" y="430" width="120" height="60" as="geometry" />
        </mxCell>
        <mxCell id="aT1jm8K0OkKXDxnR5jDH-17" value="" style="shape=flexArrow;endArrow=classic;html=1;rounded=0;fillColor=#0050ef;strokeColor=#001DBC;" edge="1" parent="1">
          <mxGeometry width="50" height="50" relative="1" as="geometry">
            <mxPoint x="240" y="410" as="sourcePoint" />
            <mxPoint x="269.23467000000005" y="450" as="targetPoint" />
          </mxGeometry>
        </mxCell>
        <mxCell id="aT1jm8K0OkKXDxnR5jDH-19" value="El segundo tab es para evaluar el punto de corte." style="rounded=0;whiteSpace=wrap;html=1;" vertex="1" parent="1">
          <mxGeometry x="100" y="370" width="150" height="50" as="geometry" />
        </mxCell>
        <mxCell id="aT1jm8K0OkKXDxnR5jDH-21" value="" style="shape=flexArrow;endArrow=classic;html=1;rounded=0;fillColor=#0050ef;strokeColor=#001DBC;" edge="1" parent="1">
          <mxGeometry width="50" height="50" relative="1" as="geometry">
            <mxPoint x="436" y="454.67" as="sourcePoint" />
            <mxPoint x="380" y="454.67" as="targetPoint" />
          </mxGeometry>
        </mxCell>
        <mxCell id="aT1jm8K0OkKXDxnR5jDH-20" value="El tercer tab es para evaluar un bucle de un letra a la vez." style="rounded=0;whiteSpace=wrap;html=1;" vertex="1" parent="1">
          <mxGeometry x="430" y="430" width="150" height="50" as="geometry" />
        </mxCell>
      </root>
    </mxGraphModel>
  </diagram>
</mxfile>
